<?xml version="1.0" encoding="UTF-8"?>
<svg id="Logotype" xmlns="http://www.w3.org/2000/svg" version="1.1" viewBox="0 0 581.52 235.37">
  <!-- Generator: Adobe Illustrator 29.5.1, SVG Export Plug-In . SVG Version: 2.1.0 Build 141)  -->
  <defs>
    <style>
      .st0 {
        fill: #00ca55;
      }

      .st0, .st1, .st2 {
        display: none;
      }

      .st1 {
        fill: #ff6b08;
      }
    </style>
  </defs>
  <rect class="st2" x="1000.94" y="407.25" width="37.93" height="37.93"/>
  <g>
    <rect class="st0" x="-6757.65" y="4542.85" width="431.92" height="431.92"/>
    <rect class="st0" x="-7203.87" y="4542.85" width="431.92" height="431.92"/>
    <rect class="st0" x="-7650.91" y="4542.85" width="431.92" height="431.92"/>
  </g>
  <g>
    <g>
      <rect class="st2" x="-5890.93" y="3507.68" width="100.3" height="100.3"/>
      <rect class="st2" x="-5994" y="3507.68" width="100.3" height="100.3"/>
      <rect class="st2" x="-6097.07" y="3507.68" width="100.3" height="100.3"/>
      <rect class="st2" x="-6096.98" y="3610.09" width="100.3" height="100.3"/>
      <rect class="st2" x="-5993.9" y="3610.09" width="100.3" height="100.3"/>
      <rect class="st2" x="-5890.83" y="3610.09" width="100.3" height="100.3"/>
      <rect class="st2" x="-6200.14" y="3507.68" width="100.3" height="100.3"/>
      <rect class="st2" x="-6303.22" y="3507.68" width="100.3" height="100.3"/>
      <rect class="st2" x="-6406.29" y="3507.68" width="100.3" height="100.3"/>
      <rect class="st2" x="-6406.19" y="3610.09" width="100.3" height="100.3"/>
      <rect class="st2" x="-6303.12" y="3610.09" width="100.3" height="100.3"/>
      <rect class="st2" x="-6200.05" y="3610.09" width="100.3" height="100.3"/>
    </g>
    <g>
      <rect class="st2" x="-5890.93" y="3713.34" width="100.3" height="100.3"/>
      <rect class="st2" x="-5994" y="3713.34" width="100.3" height="100.3"/>
      <rect class="st2" x="-6097.07" y="3713.34" width="100.3" height="100.3"/>
      <rect class="st2" x="-6096.98" y="3815.75" width="100.3" height="100.3"/>
      <rect class="st2" x="-5993.9" y="3815.75" width="100.3" height="100.3"/>
      <rect class="st2" x="-5890.83" y="3815.75" width="100.3" height="100.3"/>
      <rect class="st2" x="-6200.14" y="3713.34" width="100.3" height="100.3"/>
      <rect class="st2" x="-6303.22" y="3713.34" width="100.3" height="100.3"/>
      <rect class="st2" x="-6406.29" y="3713.34" width="100.3" height="100.3"/>
      <rect class="st2" x="-6406.19" y="3815.75" width="100.3" height="100.3"/>
      <rect class="st2" x="-6303.12" y="3815.75" width="100.3" height="100.3"/>
      <rect class="st2" x="-6200.05" y="3815.75" width="100.3" height="100.3"/>
    </g>
  </g>
  <rect class="st1" x="-1434.87" y="1981.41" width="450" height="1124.76"/>
  <g>
    <g>
      <g>
        <rect x="424.66" y="78.45" width="22.12" height="22.12" rx="4.25" ry="4.25"/>
        <path d="M498.1,78.45h-16.16c-2.77,0-5.02,2.25-5.02,5.02v14.95c0,3.41-2.76,6.17-6.17,6.17h-14.95c-2.77,0-5.02,2.25-5.02,5.02v14.95c0,3.41-2.76,6.17-6.17,6.17h-14.95c-2.77,0-5.02,2.25-5.02,5.02v16.16c0,2.77,2.25,5.02,5.02,5.02h16.16c2.77,0,5.02-2.25,5.02-5.02v-14.95c0-3.41,2.76-6.17,6.17-6.17h14.95c2.77,0,5.02-2.25,5.02-5.02v-14.95c0-3.41,2.76-6.17,6.17-6.17h14.95c2.77,0,5.02-2.25,5.02-5.02v-16.16c0-2.77-2.25-5.02-5.02-5.02Z"/>
        <rect x="476.9" y="130.7" width="26.21" height="26.21" rx="5.03" ry="5.03"/>
      </g>
      <path d="M378.87,78.45h-15.44s-20.85,0-20.85,0v78.46h37.02c21.95,0,39.74-18.11,39.22-40.18-.51-21.42-18.53-38.28-39.96-38.28ZM379.6,133.92h-16.18v-32.48h16.18c8.95,0,16.24,7.29,16.24,16.24s-7.29,16.24-16.24,16.24Z"/>
    </g>
    <path d="M325.75,179.06l-.08-62.89c-.87-21.52-18.55-38.75-40.31-38.75-16.64,0-30.93,10.08-37.12,24.44-2-19.61-19-23.52-28.87-23.52-14.99,0-28.1,9.14-29.09,23.11-.94-5.98-2.99-9.6-7.27-14.15-6-6.27-17.24-9.19-25.65-9.19-7.15,0-16.34,2.12-22.63,6.61-6.28-4.49-15.47-6.61-22.62-6.61-8.41,0-19.64,2.91-25.65,9.19-6.93,7.35-8.01,12.29-8.01,28.71v40.89h22.16v-39.82c0-6.01.14-16.42,11.5-16.42s11.5,10.42,11.5,16.42v39.82h22.26v-39.82c0-6.01.15-16.42,11.5-16.42s11.5,10.42,11.5,16.42v39.82h22.16v-15.48c5.1,13.55,19.14,17.34,28.9,17.34,15.04,0,27.86-7.94,30.25-21.11,6.93,12.27,20.09,20.56,35.19,20.56,6.71,0,13.02-1.66,18.59-4.56v25.39h21.81ZM220.19,140.74c-.96,0-7.6,0-8.55-6.92h-20.63v-17.8c0-3.05-.04-5.7-.14-8.04,2.12,7.41,9.12,12.26,17.24,14.86,14.37,5.56,19.94,6.24,19.94,12.07,0,3.66-4.07,5.83-7.86,5.83ZM224.26,109.54c-5.98-1.75-11.53-4.06-11.53-8.14,0-2.03,1.63-5.01,6.38-5.01,6.65,0,6.92,4.07,7.05,5.7h21.99c-2.05,4.84-3.19,10.16-3.19,15.74,0,.33.02.66.03,1-5.13-4.95-13.07-7.16-20.72-9.29ZM285.35,136.71c-10.57,0-19.14-8.57-19.14-19.14s8.56-19.14,19.14-19.14,19.14,8.56,19.14,19.14-8.56,19.14-19.14,19.14Z"/>
  </g>
</svg>