<?xml version="1.0" encoding="UTF-8"?>
<svg id="Layer_1" data-name="Layer 1" xmlns="http://www.w3.org/2000/svg" viewBox="0 0 150 150">
  <defs>
    <style>
      .cls-1 {
        stroke: #000;
      }

      .cls-1, .cls-2 {
        fill: none;
        stroke-linecap: round;
        stroke-linejoin: round;
        stroke-width: 4px;
      }

      .cls-2 {
        stroke: #f256b6;
      }
    </style>
  </defs>
  <g>
    <line class="cls-2" x1="128.81" y1="29.53" x2="129.21" y2="42.53"/>
    <line class="cls-2" x1="117.56" y1="44.53" x2="118.81" y2="29.53"/>
    <polyline class="cls-2" points="118.81 29.53 109.81 29.53 123.81 10.53 137.81 29.53 128.81 29.53"/>
  </g>
  <g>
    <line class="cls-2" x1="19.81" y1="123.57" x2="13.81" y2="123.57"/>
    <line class="cls-2" x1="13.81" y1="104.57" x2="19.81" y2="104.57"/>
    <path class="cls-2" d="M130.05,69.53l.76,24.71c0,17.23-13,29.32-30.2,29.32H31.81"/>
    <path class="cls-2" d="M104.14,104.53c4.99-.39,8.97-4.47,9.18-9.56l.42-4.44"/>
    <path class="cls-2" d="M31.81,104.57h71.54c.27,0,.53-.01.79-.03"/>
  </g>
  <g>
    <path class="cls-1" d="M80.29,40.56c1.96-4.7,6.6-8,12-8,7.18,0,13,5.82,13,13s-5.82,13-13,13c-3.16,0-6.05-1.13-8.31-3"/>
    <line class="cls-1" x1="107.29" y1="81.57" x2="107.29" y2="87.53"/>
    <line class="cls-1" x1="81.29" y1="66.57" x2="105.29" y2="66.57"/>
    <circle class="cls-1" cx="36.81" cy="61.57" r="13"/>
    <path class="cls-1" d="M105.29,66.57l15.99-15.99c2.25-2.25,5.86-2.36,8.24-.24h0c2.58,2.3,2.7,6.3.26,8.74l-22.49,22.49"/>
    <path class="cls-1" d="M53.81,46.63c2.3-3.65,6.37-6.07,11-6.07,7.18,0,13,5.82,13,13s-5.82,13-13,13c-2.58,0-4.98-.75-7-2.04"/>
    <path class="cls-1" d="M54.81,74.57h21c3.87,0,7,3.13,7,7v12.97"/>
    <path class="cls-1" d="M55.81,98.53v-9c0-3.87-3.13-7-7-7h-22c-3.87,0-7,3.13-7,7v39c0,3.31,2.69,6,6,6h0c3.31,0,6-2.69,6-6v-30"/>
  </g>
</svg>