<?xml version="1.0" encoding="UTF-8"?>
<svg id="Layer_1" data-name="Layer 1" xmlns="http://www.w3.org/2000/svg" viewBox="0 0 150 150">
  <defs>
    <style>
      .cls-1 {
        stroke: #fff;
      }

      .cls-1, .cls-2 {
        fill: none;
        stroke-linecap: round;
        stroke-linejoin: round;
        stroke-width: 4px;
      }

      .cls-2 {
        stroke: #f256b6;
      }
    </style>
  </defs>
  <path class="cls-2" d="M102.14,137.06l5.05-5.05c3.75-3.75,8.84-5.86,14.14-5.86h6.57c2.65,0,5.2-1.05,7.07-2.93l7.73-7.73c1.5-1.5,2.34-3.54,2.34-5.66v-11.62c0-1.87-2.26-2.81-3.58-1.48l-11.76,11.76c-3.12,3.12-8.19,3.12-11.31,0l-.69-.69c-3.12-3.12-3.12-8.19,0-11.31l11.76-11.76c1.32-1.32.39-3.58-1.48-3.58h-11.62c-2.12,0-4.16.84-5.66,2.34l-7.73,7.73c-1.88,1.88-2.93,4.42-2.93,7.07v6.57c0,5.3-2.11,10.39-5.86,14.14l-5.05,5.05c-1.41,1.41-2.09,3.25-2.09,5.09s.69,3.69,2.09,5.09l2.82,2.82c1.41,1.41,3.25,2.09,5.09,2.09s3.69-.69,5.09-2.09Z"/>
  <g>
    <path class="cls-1" d="M88.05,113.15h-51c-8.84,0-16-7.16-16-16v-54c0-8.84,7.16-16,16-16h72c8.84,0,16,7.16,16,16v29"/>
    <line class="cls-1" x1="21.05" y1="57.15" x2="125.05" y2="57.15"/>
    <line class="cls-2" x1="81.55" y1="33.65" x2="64.55" y2="50.65"/>
    <polyline class="cls-2" points="57.55 33.65 49.05 42.15 57.55 50.65"/>
    <polyline class="cls-2" points="88.55 33.65 97.05 42.15 88.55 50.65"/>
    <path class="cls-1" d="M92.05,102.15h-50c-4.42,0-8-3.58-8-8v-17c0-4.42,3.58-8,8-8h62c2.96,0,5.62,1.61,7,4"/>
  </g>
</svg>