<?xml version="1.0" encoding="UTF-8"?>
<svg id="Layer_1" data-name="Layer 1" xmlns="http://www.w3.org/2000/svg" viewBox="0 0 150 150">
  <defs>
    <style>
      .cls-1 {
        stroke: #fff;
      }

      .cls-1, .cls-2 {
        fill: none;
        stroke-linecap: round;
        stroke-linejoin: round;
        stroke-width: 4px;
      }

      .cls-2 {
        stroke: #ff6a3b;
      }
    </style>
  </defs>
  <path class="cls-2" d="M72.86,107.52c-8.74,0-15.34-12.18-15.34-28.32s6.59-28.32,15.34-28.32,15.34,12.18,15.34,28.32-6.6,28.32-15.34,28.32Z"/>
  <path class="cls-2" d="M72.86,107.52c-16.27,0-29.5-12.7-29.5-28.32s13.23-28.32,29.5-28.32,29.5,12.7,29.5,28.32-13.23,28.32-29.5,28.32Z"/>
  <path class="cls-1" d="M31.56,34.36c0-2.93,2.08-5.97,4.83-7.07l63.45-14.07c2.51-.56,4.89,1.31,4.89,3.85v12.43"/>
  <path class="cls-1" d="M114.16,129.38c0,3.56-2.8,6.46-6.24,6.46H37.79c-3.44,0-6.24-2.9-6.24-6.46V36.09c0-3.56,2.8-6.46,6.24-6.46h70.12c3.44,0,6.24,2.9,6.24,6.46v92.72"/>
</svg>