<?xml version="1.0" encoding="UTF-8"?>
<svg id="Layer_1" data-name="Layer 1" xmlns="http://www.w3.org/2000/svg" viewBox="0 0 150 150">
  <defs>
    <style>
      .cls-1 {
        stroke: #000;
      }

      .cls-1, .cls-2 {
        fill: none;
        stroke-linecap: round;
        stroke-linejoin: round;
        stroke-width: 4px;
      }

      .cls-2 {
        stroke: #f256b6;
      }
    </style>
  </defs>
  <path class="cls-1" d="M65.05,112.15v-10.45c0-5.27-4.27-9.55-9.55-9.55h-4.24c-2.5,0-4.9.98-6.69,2.73l-20.67,20.29c-1.83,1.79-2.86,4.25-2.86,6.81v5.62c0,5.27,4.27,9.55,9.55,9.55h29.48c5.81,0,11.37-2.31,15.47-6.42l53.11-53.18c4.09-4.1,6.39-9.66,6.39-15.45v-29.4c0-5.27-4.27-9.55-9.55-9.55h-5.62c-2.56,0-5.02,1.03-6.81,2.86l-20.29,20.67c-1.75,1.78-2.73,4.19-2.73,6.69v4.24c0,5.27,4.27,9.55,9.55,9.55h10.45l-45,45Z"/>
  <g>
    <path class="cls-2" d="M55.05,83.15c0-13.81,11.19-25,25-25"/>
    <path class="cls-2" d="M38.05,83.15c0-23.2,18.8-42,42-42"/>
    <path class="cls-2" d="M20.05,83.15c0-33.14,26.86-60,60-60"/>
  </g>
</svg>