<?xml version="1.0" encoding="UTF-8"?>
<svg id="Layer_1" data-name="Layer 1" xmlns="http://www.w3.org/2000/svg" viewBox="0 0 150 150">
  <defs>
    <style>
      .cls-1 {
        stroke: #fff;
      }

      .cls-1, .cls-2 {
        fill: none;
        stroke-linecap: round;
        stroke-linejoin: round;
        stroke-width: 4px;
      }

      .cls-2 {
        stroke: #f256b6;
      }
    </style>
  </defs>
  <g>
    <path class="cls-2" d="M84.15,110.41h44v18c0,1.1-.9,2-2,2h-40c-1.1,0-2-.9-2-2v-18h0Z"/>
    <line class="cls-2" x1="106.15" y1="130.41" x2="106.15" y2="110.41"/>
    <path class="cls-2" d="M106.15,110.41l8.59-8.59c.91-.91,1.41-2.13,1.41-3.41h0c0-1.1.9-2,2-2h18c1.1,0,2,.9,2,2h0c0,1.28-.51,2.51-1.41,3.41l-8.59,8.59"/>
    <path class="cls-2" d="M106.15,110.41l-8.59-8.59c-.91-.91-1.41-2.13-1.41-3.41h0c0-1.1-.9-2-2-2h-18c-1.1,0-2,.9-2,2h0c0,1.28.51,2.51,1.41,3.41l8.59,8.59"/>
  </g>
  <g>
    <path class="cls-1" d="M82.28,74.31c1.68,2.8,3.83,5.28,6.31,7.36l5.63-3.25c.93.64,1.91,1.2,2.93,1.7v6.51c3.12,1.15,6.48,1.78,10,1.78s6.88-.63,10-1.78v-6.51c1.02-.5,2-1.06,2.93-1.7l5.63,3.25c5.17-4.31,8.82-10.39,10.01-17.31l-5.64-3.26c.05-.56.07-1.12.07-1.69s-.02-1.13-.07-1.69l5.64-3.26c-1.19-6.92-4.84-13-10.01-17.31l-5.63,3.25c-.93-.64-1.91-1.2-2.93-1.7v-6.51c-3.12-1.15-6.48-1.78-10-1.78s-6.88.63-10,1.78v6.51c-1.02.5-2,1.06-2.93,1.7l-5.63-3.25c-1.64,1.37-3.13,2.92-4.44,4.62"/>
    <circle class="cls-1" cx="107.15" cy="59.41" r="9"/>
  </g>
  <path class="cls-1" d="M42.15,88.41l-6,8-12.13,4.41c-5.93,2.16-9.87,7.79-9.87,14.1v15.49"/>
  <line class="cls-1" x1="54.15" y1="114.41" x2="36.15" y2="96.41"/>
  <line class="cls-1" x1="66.64" y1="101.92" x2="54.15" y2="114.41"/>
  <path class="cls-2" d="M76.15,67.41l-2.4,7.19c-1.05,3.15-2.95,5.94-5.48,8.08l-5.76,4.85c-1.44,1.21-3.27,1.88-5.15,1.88h-6.31c-1.87,0-3.68-.66-5.12-1.85l-5.84-4.87c-2.57-2.14-4.49-4.96-5.55-8.14l-2.38-7.14"/>
  <path class="cls-2" d="M32.15,67.41c-1.66,0-3.16-.67-4.24-1.76-1.09-1.08-1.76-2.58-1.76-4.24,0-3.31,2.69-6,6-6h2"/>
  <path class="cls-2" d="M74.05,55.15h2c1.66,0,3.16.67,4.24,1.76,1.09,1.08,1.76,2.58,1.76,4.24,0,3.31-2.69,6-6,6"/>
  <polyline class="cls-2" points="66.15 47.41 54.15 41.41 42.15 47.41"/>
  <path class="cls-2" d="M76.15,55.41v-15.56c0-4.09-1.79-7.97-4.89-10.63l-2.37-2.03c-4.35-3.73-9.89-5.78-15.62-5.78h-.24c-5.73,0-11.27,2.05-15.62,5.78l-2.37,2.03c-3.1,2.66-4.89,6.54-4.89,10.63v15.56"/>
</svg>