<?xml version="1.0" encoding="UTF-8"?>
<svg id="Layer_1" data-name="Layer 1" xmlns="http://www.w3.org/2000/svg" viewBox="0 0 150 150">
  <defs>
    <style>
      .cls-1 {
        stroke: #000;
      }

      .cls-1, .cls-2 {
        fill: none;
        stroke-linecap: round;
        stroke-linejoin: round;
        stroke-width: 4px;
      }

      .cls-2 {
        stroke: #ff6a3b;
      }
    </style>
  </defs>
  <rect class="cls-1" x="22.05" y="119.15" width="110" height="13" rx="3" ry="3"/>
  <polygon class="cls-1" points="132.05 50.15 22.05 50.15 22.05 39.15 77.05 17.15 132.05 39.28 132.05 50.15"/>
  <g>
    <rect class="cls-1" x="102.05" y="60.15" width="16" height="49" rx="2" ry="2"/>
    <rect class="cls-1" x="36.05" y="60.15" width="16" height="49" rx="2" ry="2"/>
    <g>
      <path class="cls-2" d="M86.05,74.15v-3.86c0-1.73-1.47-3.14-3.27-3.14h-11.45c-1.81,0-3.27,1.4-3.27,3.14v9.77c0,1.71,1.47,3.09,3.27,3.09h11.45c1.81,0,3.27,1.38,3.27,3.09v10.82c0,1.71-1.47,3.09-3.27,3.09h-11.45c-1.81,0-3.27-1.38-3.27-3.09v-3.91"/>
      <line class="cls-2" x1="77.05" y1="62.15" x2="77.05" y2="67.15"/>
      <line class="cls-2" x1="77.05" y1="100.15" x2="77.05" y2="105.15"/>
    </g>
  </g>
</svg>