<?xml version="1.0" encoding="UTF-8"?>
<svg id="Layer_1" data-name="Layer 1" xmlns="http://www.w3.org/2000/svg" viewBox="0 0 150 150">
  <defs>
    <style>
      .cls-1 {
        stroke: #fff;
      }

      .cls-1, .cls-2 {
        fill: none;
        stroke-linecap: round;
        stroke-linejoin: round;
        stroke-width: 4px;
      }

      .cls-2 {
        stroke: #f256b6;
      }
    </style>
  </defs>
  <path class="cls-1" d="M62.15,134.41h6.26c.96,0,1.74-.78,1.74-1.74v-3.52c0-.41.27-.76.66-.89,1.01-.32,1.99-.73,2.92-1.21.36-.19.8-.13,1.09.16l2.49,2.49c.68.68,1.78.68,2.46,0l4.66-4.66c.68-.68.68-1.78,0-2.46l-2.49-2.49c-.29-.29-.35-.73-.16-1.09.48-.93.89-1.91,1.21-2.92.12-.39.48-.66.89-.66h3.52c.96,0,1.74-.78,1.74-1.74v-6.52c0-.96-.78-1.74-1.74-1.74h-3.52c-.41,0-.76-.27-.89-.66-.32-1.01-.73-1.99-1.21-2.92-.19-.36-.13-.8.16-1.09l2.49-2.49c.68-.68.68-1.78,0-2.46l-4.66-4.66c-.68-.68-1.78-.68-2.46,0l-2.49,2.49c-.29.29-.73.35-1.09.16-.93-.48-1.91-.89-2.92-1.21-.39-.12-.66-.48-.66-.89v-3.52c0-.96-.78-1.74-1.74-1.74h-6.52c-.96,0-1.74.78-1.74,1.74v3.52c0,.41-.27.76-.66.89-1.01.32-1.99.73-2.92,1.21-.36.19-.8.13-1.09-.16l-2.49-2.49c-.68-.68-1.78-.68-2.46,0l-4.66,4.66c-.68.68-.68,1.78,0,2.46l2.49,2.49c.29.29.35.73.16,1.09-.48.93-.89,1.91-1.21,2.92-.12.39-.48.66-.89.66h-3.52c-.96,0-1.74.78-1.74,1.74v5.26M56.2,111.41c-.04-.33-.05-.66-.05-1,0-4.97,4.03-9,9-9s9,4.03,9,9-4.03,9-9,9"/>
  <path class="cls-1" d="M109.12,44.3c.03.11-1.7-4.11-1.7-4.11,0,0-.18-1.11.22-1.51l3.51-3.51c.94-.94.94-2.46,0-3.4l-6.56-6.55c-.94-.94-2.46-.94-3.4,0l-3.51,3.51c-.4.4-1.01.48-1.51.22-1.31-.68-2.68-1.25-4.11-1.7-.54-.17-.91-.66-.91-1.22v-5.21c0-1.33-1.08-2.41-2.41-2.41h-9.19c-1.33,0-2.41,1.08-2.41,2.41v5.5c0,.57-.38,1.06-.92,1.22-1.46.45-2.87,1.03-4.21,1.71-.5.25-1.09.17-1.49-.22l-3.63-3.56c-.94-.91-2.43-.91-3.37,0l-6.68,6.53c-.96.94-.96,2.5,0,3.44l3.53,3.45c.41.4.49,1.02.22,1.53-.69,1.3-1.26,2.65-1.72,4.07-.17.53-.66.9-1.22.9h-5.11c-1.33,0-2.41,1.08-2.41,2.41v9.19c0,1.33,1.08,2.41,2.41,2.41h5.14c.57,0,1.05.37,1.22.91.45,1.43,1.02,2.8,1.7,4.11.26.5.18,1.11-.22,1.51l-3.51,3.51c-.94.94-.94,2.46,0,3.4l6.56,6.55c.94.94,2.46.94,3.4,0l2.31-2M74.15,61.79c-2.47-2.37-4-5.69-4-9.38,0-7.18,5.82-13,13-13s13,5.82,13,13c0,1.77-.36,3.47-1,5.01"/>
  <circle class="cls-2" cx="34.15" cy="73.41" r="13"/>
  <path class="cls-2" d="M26.15,121.41h23.5c3.59,0,6.5,2.91,6.5,6.5h0c0,3.59-2.91,6.5-6.5,6.5h-29.5c-3.87,0-7-3.13-7-7v-23.37c0-5.87,4.76-10.63,10.63-10.63h13.37"/>
  <circle class="cls-2" cx="118.15" cy="65.41" r="13"/>
  <path class="cls-2" d="M101.15,130.41v-32l-22.01-22c-1.1-1.1-1.65-2.55-1.65-3.99s.55-2.9,1.66-4.01c2.21-2.21,5.79-2.21,8,.01l17,16.99h26c3.87,0,7,3.13,7,7v36c0,3.31-2.69,6-6,6-1.66,0-3.16-.67-4.24-1.76-1.09-1.08-1.76-2.58-1.76-4.24v-23"/>
</svg>