<?xml version="1.0" encoding="UTF-8"?>
<svg id="Layer_1" data-name="Layer 1" xmlns="http://www.w3.org/2000/svg" viewBox="0 0 150 150">
  <defs>
    <style>
      .cls-1 {
        stroke: #000;
      }

      .cls-1, .cls-2 {
        fill: none;
        stroke-linecap: round;
        stroke-linejoin: round;
        stroke-width: 4px;
      }

      .cls-2 {
        stroke: #f256b6;
      }
    </style>
  </defs>
  <g>
    <circle class="cls-1" cx="74.88" cy="33.81" r="21"/>
    <ellipse class="cls-1" cx="74.88" cy="33.81" rx="8" ry="21"/>
    <line class="cls-1" x1="55.08" y1="40.81" x2="94.69" y2="40.81"/>
    <line class="cls-1" x1="54.75" y1="27.81" x2="95.02" y2="27.81"/>
  </g>
  <g>
    <g>
      <rect class="cls-2" x="14.25" y="59.7" width="42" height="18.42" rx="2" ry="2" transform="translate(-38.4 45.11) rotate(-45)"/>
      <path class="cls-2" d="M81.62,79.33l27.22,27.22c2.23,2.23,2.23,5.85,0,8.08h0c-2.23,2.23-5.85,2.23-8.08,0"/>
      <path class="cls-2" d="M89.38,103.31l10.29,10.23c2.23,2.23,2.23,5.85,0,8.08l.2.2c-2.23,2.23-6.05,2.03-8.28-.2l-12.22-11.31"/>
      <path class="cls-2" d="M90.02,120.04c2.23,2.23,2.23,5.85,0,8.08h0c-2.23,2.23-5.85,2.23-8.08,0l-9.93-9.93"/>
      <path class="cls-2" d="M69.04,131.36l1.72,1.72c2.23,2.23,5.85,2.23,8.08,0h0c2.23-2.23,2.23-5.85,0-8.08"/>
      <path class="cls-2" d="M32.12,85.06l5.17,5.17c1.34,1.34,1.97,3.23,1.7,5.1h0c-.27,1.9-.02,3.81.7,5.54"/>
      <path class="cls-2" d="M72.25,71.31c-2.61-1.15-5.54-1.49-8.41-.91l-3.36.68c-1.97.4-4.01-.22-5.43-1.64l-3.65-3.65"/>
    </g>
    <g>
      <path class="cls-2" d="M47.6,107.24l-5.34,5.34c-2.11,2.11-5.53,2.11-7.64,0h0c-2.11-2.11-2.11-5.53,0-7.64l5.34-5.34c2.11-2.11,5.53-2.11,7.64,0h0c2.11,2.11,2.11,5.53,0,7.64Z"/>
      <path class="cls-2" d="M56.68,113.45l-9.25,9.25c-2.11,2.11-5.53,2.11-7.64,0h0c-2.11-2.11-2.11-5.53,0-7.64l9.25-9.25c2.11-2.11,5.53-2.11,7.64,0h0c2.11,2.11,2.11,5.53,0,7.64Z"/>
      <path class="cls-2" d="M61.93,123.48l-5.25,5.25c-2.11,2.11-5.53,2.11-7.64,0h0c-2.11-2.11-2.11-5.53,0-7.64l5.25-5.25c2.11-2.11,5.53-2.11,7.64,0h0c2.11,2.11,2.11,5.53,0,7.64Z"/>
      <path class="cls-2" d="M68.14,132.56l-2.39,2.39c-2.11,2.11-5.53,2.11-7.64,0h0c-2.11-2.11-2.11-5.53,0-7.64l2.39-2.39c2.11-2.11,5.53-2.11,7.64,0h0c2.11,2.11,2.11,5.53,0,7.64Z"/>
      <rect class="cls-2" x="92.92" y="59.7" width="42" height="18.42" rx="2" ry="2" transform="translate(145.75 198.19) rotate(-135)"/>
      <path class="cls-2" d="M97.77,65.78l-3.59,3.59c-1.45,1.45-3.55,2.06-5.56,1.61l-6.13-1.38c-4.68-1.05-9.58.36-12.97,3.76l-5.92,5.92c-1.53,1.53-1.9,3.87-.92,5.8l5.55,10.94c.5.99,1.71,1.38,2.7.87l.45-.23c3.84-1.98,5.58-6.53,4.03-10.56l-.54-1.39,6.75-5.37"/>
      <path class="cls-2" d="M106.89,104.6l.32-.32c2.35-2.35,3.45-5.66,2.98-8.95h0c-.27-1.87.36-3.76,1.7-5.1l5.17-5.17"/>
    </g>
  </g>
</svg>