<?xml version="1.0" encoding="UTF-8"?>
<svg id="Layer_1" data-name="Layer 1" xmlns="http://www.w3.org/2000/svg" viewBox="0 0 150 150">
  <defs>
    <style>
      .cls-1 {
        stroke: #000;
      }

      .cls-1, .cls-2 {
        fill: none;
        stroke-linecap: round;
        stroke-linejoin: round;
        stroke-width: 4px;
      }

      .cls-2 {
        stroke: #00ca55;
      }
    </style>
  </defs>
  <path class="cls-1" d="M89.21,142.89h28.84c10.01,0,24.41-8.12,24.41-18.12V26.49c0-10.01-8.12-18.12-18.12-18.12H26.07c-10.01,0-18.12,8.12-18.12,18.12v98.27c0,10.01,8.12,18.12,18.12,18.12h42.18"/>
  <path class="cls-2" d="M68.51,138.89l.09-46.71h-12.74c-1.65,0-3-1.33-3.01-2.98l-.06-15.75c0-1.65,1.34-3,3.01-3h12.71v-15.21c0-17.66,10.82-27.27,26.63-27.27h12.98c1.66,0,3.01,1.34,3.01,3v13.28c0,1.65-1.35,3-3.01,3h-7.96c-8.59,0-10.26,4.07-10.26,10.05v13.17h18.89c1.8,0,3.2,1.57,2.99,3.34l-1.87,15.75c-.18,1.51-1.46,2.64-2.99,2.64h-16.93l-.09,46.71"/>
</svg>