<?xml version="1.0" encoding="UTF-8"?>
<svg id="Layer_1" data-name="Layer 1" xmlns="http://www.w3.org/2000/svg" viewBox="0 0 150 150">
  <defs>
    <style>
      .cls-1 {
        stroke: #fff;
      }

      .cls-1, .cls-2 {
        fill: none;
        stroke-linecap: round;
        stroke-linejoin: round;
        stroke-width: 4px;
      }

      .cls-2 {
        stroke: #f256b6;
      }
    </style>
  </defs>
  <ellipse class="cls-1" cx="91.14" cy="76.94" rx="53.07" ry="54.18"/>
  <circle class="cls-1" cx="74.55" cy="76.94" r="54.18"/>
  <circle class="cls-1" cx="59.07" cy="76.94" r="54.18"/>
  <path class="cls-2" d="M93.99,62.49s-.04-13.57-18.49-13.18c0,0-19.11-.7-19.32,13.83,0,0-.27,3.13,1.59,6.01,1.86,2.88,3.98,5.06,4.44,8.72.47,3.67-.36,10.36-6.46,24.5,0,0,8.59-4.13,19.96-2.34,4.06.64,8.17.95,12.28.72,2.49-.14,5.2-.35,7.56-.68"/>
  <line class="cls-2" x1="51.33" y1="78.05" x2="88.93" y2="78.05"/>
</svg>