<?xml version="1.0" encoding="UTF-8"?>
<svg id="Layer_1" data-name="Layer 1" xmlns="http://www.w3.org/2000/svg" viewBox="0 0 150 150">
  <defs>
    <style>
      .cls-1 {
        stroke: #fff;
      }

      .cls-1, .cls-2 {
        fill: none;
        stroke-linecap: round;
        stroke-linejoin: round;
        stroke-width: 4px;
      }

      .cls-2 {
        stroke: #ff6a3b;
      }
    </style>
  </defs>
  <circle class="cls-2" cx="72.1" cy="11.27" r="5.12"/>
  <path class="cls-2" d="M62.88,22.53c1.8-3.63,5.71-6.14,10.24-6.14s8.44,2.51,10.24,6.14"/>
  <path class="cls-1" d="M62.78,62.87s1.61,34.12-8.09,49.15"/>
  <path class="cls-1" d="M83.46,62.87s-1.61,34.12,8.09,49.15"/>
  <line class="cls-1" x1="50.6" y1="112.02" x2="95.65" y2="112.02"/>
  <polyline class="cls-1" points="52.65 112.02 52.65 117.69 42.41 129.91 42.41 136.59"/>
  <path class="cls-1" d="M86.4,137.1h-47.54c-2.56,0-4.65,1.72-4.65,3.84s2.09,3.84,4.65,3.84h66.47c2.56,0,4.65-1.72,4.65-3.84s-2.09-3.84-4.65-3.84h-2.2v-6.82l-10.29-12.48v-5.79"/>
  <line class="cls-1" x1="50.6" y1="122.26" x2="77.22" y2="122.26"/>
  <line class="cls-1" x1="58.79" y1="46.48" x2="79.27" y2="46.48"/>
  <line class="cls-1" x1="58.79" y1="54.68" x2="79.27" y2="54.68"/>
  <path class="cls-1" d="M48.67,28.07c7.02,5.91,14.55,6.24,22.61.82,1.09-.74,2.63-.76,3.69.01,7.07,5.22,14.58,5.24,22.61-.76.07-.05.16.03.1.08-3.58,3.69-18.49,20.46-6.31,33.14.56.59.08,1.49-.81,1.49h-34.66c-.88,0-1.37-.89-.82-1.48,3.37-3.67,9.54-14.26-6.52-33.23-.06-.06.03-.14.1-.08Z"/>
</svg>