<?xml version="1.0" encoding="UTF-8"?>
<svg id="Layer_1" data-name="Layer 1" xmlns="http://www.w3.org/2000/svg" viewBox="0 0 150 150">
  <defs>
    <style>
      .cls-1 {
        stroke: #fff;
      }

      .cls-1, .cls-2 {
        fill: none;
        stroke-linecap: round;
        stroke-linejoin: round;
        stroke-width: 4px;
      }

      .cls-2 {
        stroke: #ff6a3b;
      }
    </style>
  </defs>
  <path class="cls-1" d="M99.08,43.1l5.64,3.26c-1.19,6.92-4.84,13-10.01,17.31l-5.63-3.25c-.93.64-1.91,1.2-2.93,1.7v6.51c-3.12,1.15-6.48,1.78-10,1.78s-6.88-.63-10-1.78v-6.51c-1.02-.5-2-1.06-2.93-1.7l-5.63,3.25c-5.17-4.31-8.82-10.39-10.01-17.31l5.64-3.26c-.05-.56-.07-1.12-.07-1.69s.02-1.13.07-1.69l-5.64-3.26c1.19-6.92,4.84-13,10.01-17.31l5.63,3.25c.93-.64,1.91-1.2,2.93-1.7v-6.51c3.12-1.15,6.48-1.78,10-1.78s6.88.63,10,1.78v6.51c1.02.5,2,1.06,2.93,1.7l5.63-3.25c5.17,4.31,8.82,10.39,10.01,17.31l-5.64,3.26c.05.56.07,1.12.07,1.69s-.02,1.13-.07,1.69Z"/>
  <circle class="cls-1" cx="76.15" cy="41.41" r="9"/>
  <line class="cls-2" x1="28.15" y1="22.41" x2="42.15" y2="22.41"/>
  <line class="cls-2" x1="22.15" y1="30.41" x2="36.15" y2="30.41"/>
  <line class="cls-2" x1="16.15" y1="38.41" x2="30.15" y2="38.41"/>
  <g>
    <g>
      <path class="cls-2" d="M38.15,96.41h76v38c0,1.1-.9,2-2,2H40.15c-1.1,0-2-.9-2-2v-38h0Z"/>
      <line class="cls-2" x1="76.15" y1="136.41" x2="76.15" y2="96.41"/>
      <path class="cls-2" d="M76.15,96.41l7.17-7.17c1.81-1.81,2.83-4.27,2.83-6.83h0c0-1.1.9-2,2-2h34c1.1,0,2,.9,2,2h0c0,2.56-1.02,5.02-2.83,6.83l-7.17,7.17"/>
      <path class="cls-2" d="M76.15,96.41l-7.17-7.17c-1.81-1.81-2.83-4.27-2.83-6.83h0c0-1.1-.9-2-2-2H30.15c-1.1,0-2,.9-2,2h0c0,2.56,1.02,5.02,2.83,6.83l7.17,7.17"/>
    </g>
    <line class="cls-1" x1="106.15" y1="120.41" x2="98.15" y2="120.41"/>
    <line class="cls-1" x1="106.15" y1="128.41" x2="94.15" y2="128.41"/>
  </g>
</svg>