<?xml version="1.0" encoding="UTF-8"?>
<svg id="Layer_1" data-name="Layer 1" xmlns="http://www.w3.org/2000/svg" viewBox="0 0 150 150">
  <defs>
    <style>
      .cls-1 {
        stroke: #000;
      }

      .cls-1, .cls-2 {
        fill: none;
        stroke-linecap: round;
        stroke-linejoin: round;
        stroke-width: 4px;
      }

      .cls-2 {
        stroke: #f256b6;
      }
    </style>
  </defs>
  <path class="cls-1" d="M39.53,20.41h-4.38c-5.52,0-10,4.48-10,10v94c0,5.52,4.48,10,10,10h62c1.91,0,3.69-.53,5.2-1.46"/>
  <path class="cls-1" d="M92.77,20.41h4.38c3.37,0,6.36,1.67,8.17,4.24"/>
  <path class="cls-1" d="M81.15,35.41h-30c-6.63,0-12-5.37-12-12h0c0-6.63,5.37-12,12-12h30c6.63,0,12,5.37,12,12h0c0,6.63-5.37,12-12,12Z"/>
  <line class="cls-1" x1="46.15" y1="57.41" x2="86.15" y2="57.41"/>
  <line class="cls-1" x1="46.15" y1="75.41" x2="86.15" y2="75.41"/>
  <line class="cls-1" x1="46.15" y1="93.41" x2="86.15" y2="93.41"/>
  <line class="cls-1" x1="46.15" y1="111.41" x2="86.15" y2="111.41"/>
  <path class="cls-2" d="M115.39,26.88l3.47,7.04,8.42,1.22c1.79.26,2.5,2.45,1.21,3.71l-6.09,5.94,1.31,7.63c.36,2.09-1.83,3.68-3.71,2.69l-6.85-3.6-6.85,3.6c-1.88.99-4.07-.61-3.71-2.69l1.31-7.63-6.09-5.94c-1.29-1.26-.58-3.45,1.21-3.71l8.42-1.22,3.47-7.04c.46-.93,1.35-1.47,2.24-1.47s1.78.54,2.24,1.47Z"/>
  <path class="cls-2" d="M115.39,62.88l3.47,7.04,8.42,1.22c1.79.26,2.5,2.45,1.21,3.71l-6.09,5.94,1.31,7.63c.36,2.09-1.83,3.68-3.71,2.69l-6.85-3.6-6.85,3.6c-1.88.99-4.07-.61-3.71-2.69l1.31-7.63-6.09-5.94c-1.29-1.26-.58-3.45,1.21-3.71l8.42-1.22,3.47-7.04c.46-.93,1.35-1.47,2.24-1.47s1.78.54,2.24,1.47Z"/>
  <path class="cls-2" d="M115.39,98.88l3.47,7.04,8.42,1.22c1.79.26,2.5,2.45,1.21,3.71l-6.09,5.94,1.31,7.63c.36,2.09-1.83,3.68-3.71,2.69l-6.85-3.6-6.85,3.6c-1.88.99-4.07-.61-3.71-2.69l1.31-7.63-6.09-5.94c-1.29-1.26-.58-3.45,1.21-3.71l8.42-1.22,3.47-7.04c.46-.93,1.35-1.47,2.24-1.47s1.78.54,2.24,1.47Z"/>
</svg>