<?xml version="1.0" encoding="UTF-8"?>
<svg id="Layer_1" data-name="Layer 1" xmlns="http://www.w3.org/2000/svg" viewBox="0 0 150 150">
  <defs>
    <style>
      .cls-1 {
        fill: #ff6a3b;
        stroke: #ff6a3b;
        stroke-miterlimit: 10;
        stroke-width: 4px;
      }

      .cls-1, .cls-2 {
        fill-rule: evenodd;
      }
    </style>
  </defs>
  <path class="cls-2" d="M11.3,83.34c-1.26.61-2.79.09-3.41-1.15-.34-.68-.63-1.3-.71-1.48C.06,63.43,15.44,45.7,33.89,49.81c2.03.45,3.94,1.24,5.8,2.14,1.14-2.23,2.28-4.44,3.78-6.47,10.71-14.6,32.32-17.51,47.17-7.23,4.38,3.03,7.95,7.1,10.5,11.72,16.14-3.48,32.81,5.01,39.15,19.91,10.44,24.51-10.33,50.6-36.95,46.77-6.49-.93-12.41-3.75-17.38-7.83-1.11-.92-1.22-2.56-.23-3.61.92-.97,2.45-1.08,3.49-.22,3.98,3.29,8.75,5.68,13.9,6.59,21.66,3.83,39.84-16,33.61-36.78-4.17-13.91-18.86-22.93-33.47-20.14l.03.07c.42,1.31-.31,2.71-1.64,3.13-1.31.42-2.72-.26-3.18-1.54-2.7-7.51-8.46-13.75-15.97-16.91-14.76-6.2-33.06.33-38.39,15.56l2.23,2.33c.54.65,2.27,2.79,2.53,3.46.05.11.14.21.04.35-2.15,1.41-5,1.01-6.71-.88-2.96-3.25-6.97-5.45-11.53-5.95-12.54-1.39-22.68,9.94-19.65,22.02.34,1.33.88,2.52,1.47,3.71.58,1.19.08,2.71-1.17,3.31l-.02.02Z"/>
  <path class="cls-2" d="M50.72,78.16l.34-.47s.03-.04.04-.05c2.61-2.59,7.49-2.57,9.78.46.05.07.24.44.42.75.14.23.45.22.57-.02,1.43-2.71,4.29-3.34,7.1-2.99,3.09.38,5.26,3.78,5.26,6.96v13.25c0,.2-.15.36-.33.36h-5.17c-.18,0-.33-.16-.33-.36v-12.15c0-.19-.3-1.13-.41-1.36-.88-1.96-3.92-1.54-4.96.06-.25.38-.72,1.72-.72,2.13v11.32c0,.2-.15.36-.33.36h-5.17c-.18,0-.33-.16-.33-.36v-11.46c0-.25-.23-1.28-.33-1.59-.78-2.49-3.98-2.22-5.14-.24-.19.33-.63,1.49-.63,1.82v11.46c0,.2-.15.36-.33.36h-5.3c-.18,0-.33-.16-.33-.36v-19.46c0-.09.03-.18.1-.25.06-.07.15-.1.24-.1h5.04c.18,0,.33.16.33.36v1.36c0,.34.4.49.6.22h0Z"/>
  <path class="cls-2" d="M86.25,81.71c-3.29.18-4.57,2.69-4.26,5.71.47,4.68,7.63,5.21,9.01.94,1.14-3.53-.82-6.86-4.74-6.65ZM82.38,66.56v12.53c2.13-2.79,7.03-3.17,9.97-1.57,4.54,2.47,5.87,8.91,4.01,13.45-2.32,5.68-10.26,7.45-14.37,2.58v2.32h-5.46v-29.32h5.85Z"/>
  <path class="cls-2" d="M103.08,78.03v10.09c0,.33.27,1.46.41,1.81,1.05,2.46,5.09,1.98,5.87-.65.14-.46.33-1.46.33-1.89v-9.36h5.64l.2.19v17.68h-5.7v-2.32c-.31.24-.49.64-.78.92-1.73,1.74-4.23,2.15-6.66,1.76-3.88-.64-4.92-3.57-5.13-6.9-.23-3.7.17-7.6,0-11.32h5.83Z"/>
  <path class="cls-2" d="M34.81,96.38h-5.15c-.18,0-.33-.16-.33-.36v-10.9c0-.58-.29-1.79-.54-2.33-1.16-2.53-4.92-1.96-5.72.77-.14.46-.35,1.8-.35,2.25v10.22c0,.2-.15.36-.33.36h-5.17c-.18,0-.33-.16-.33-.36v-19.47c0-.09.03-.18.1-.25.06-.07.15-.1.24-.1h5.04c.09,0,.17.04.24.1.06.07.1.16.1.25v1.25c0,.33.38.48.58.23,1.63-1.94,3.79-2.49,6.35-2.24,4.14.39,5.41,4.04,5.64,7.95.23,4-.15,8.24-.01,12.27,0,.2-.14.37-.33.37h0Z"/>
  <path class="cls-2" d="M122.18,75.82c2.26-.27,5.33.05,7.28,1.33.34.23,1.42.95,1.13,1.39-.73,1.11-2.47,2.3-3.3,3.42-.52-.44-.91-.9-1.53-1.21-1.06-.52-3.27-.76-3.87.54-.59,1.29.49,1.74,1.48,2.09,1.57.54,3.35.66,4.89,1.35,4.39,1.96,4.36,8.04.26,10.35-3.54,2-10.08,1.77-13.01-1.37l3.41-4.08.19.06c1.16,1.75,3.22,2.24,5.19,1.92,1.45-.24,2.03-1.65.64-2.49-2.74-1.67-7.81-.59-8.86-5.14-1.03-4.45,2.03-7.69,6.1-8.17h0Z"/>
  <rect x="37.52" y="78.03" width="4.59" height="18.35"/>
  <path class="cls-1" d="M38.16,65c3.58-.47,5.43,4.01,2.51,6.19-2.29,1.71-5.57-.11-5.43-2.95.08-1.6,1.31-3.03,2.92-3.24Z"/>
</svg>