<?xml version="1.0" encoding="UTF-8"?>
<svg id="Layer_1" data-name="Layer 1" xmlns="http://www.w3.org/2000/svg" viewBox="0 0 150 150">
  <defs>
    <style>
      .cls-1 {
        stroke: #fff;
      }

      .cls-1, .cls-2 {
        fill: none;
        stroke-linecap: round;
        stroke-linejoin: round;
        stroke-width: 4px;
      }

      .cls-2 {
        stroke: #ff6a3b;
      }
    </style>
  </defs>
  <path class="cls-2" d="M77.15,112.41H28.15c-2.21,0-4-1.79-4-4v-34"/>
  <path class="cls-1" d="M20.15,66.41c-2.21,0-4-1.79-4-4v-20.69c0-2.12.84-4.16,2.34-5.66l17.31-17.31c1.5-1.5,3.54-2.34,5.66-2.34h39.37c2.12,0,4.16.84,5.66,2.34l17.31,17.31c1.5,1.5,2.34,3.54,2.34,5.66v20.69c0,2.21-1.79,4-4,4"/>
  <path class="cls-1" d="M16.15,46.41v16c0,2.21,1.79,4,4,4h10c2.21,0,4-1.79,4-4v-16"/>
  <path class="cls-1" d="M34.15,46.41v16c0,2.21,1.79,4,4,4h10c2.21,0,4-1.79,4-4v-16"/>
  <path class="cls-1" d="M52.15,46.41v16c0,2.21,1.79,4,4,4h10c2.21,0,4-1.79,4-4v-16"/>
  <path class="cls-1" d="M70.15,46.41v16c0,2.21,1.79,4,4,4h10c2.21,0,4-1.79,4-4v-16"/>
  <path class="cls-1" d="M88.15,46.41v16c0,2.21,1.79,4,4,4h10c2.21,0,4-1.79,4-4v-16"/>
  <line class="cls-1" x1="30.15" y1="37.41" x2="92.15" y2="37.41"/>
  <rect class="cls-2" x="36.15" y="78.41" width="20" height="20" rx="4" ry="4"/>
  <polyline class="cls-2" points="85.15 78.41 66.15 78.41 66.15 112.41"/>
  <path class="cls-2" d="M88,116.56l-12.44,12.44c-.9.9-1.41,2.13-1.41,3.41s.51,2.51,1.41,3.41l3.18,3.18c.9.9,2.13,1.41,3.41,1.41s2.51-.51,3.41-1.41l12.44-12.44"/>
  <circle class="cls-1" cx="112.15" cy="102.41" r="28"/>
  <path class="cls-1" d="M96.15,97.41v14c0,2.21,1.79,4,4,4h24c2.21,0,4-1.79,4-4v-20"/>
  <line class="cls-1" x1="106.15" y1="115.41" x2="106.15" y2="87.41"/>
  <line class="cls-1" x1="118.15" y1="115.41" x2="118.15" y2="103.41"/>
</svg>