<?xml version="1.0" encoding="UTF-8"?>
<svg id="Layer_1" data-name="Layer 1" xmlns="http://www.w3.org/2000/svg" viewBox="0 0 150 150">
  <defs>
    <style>
      .cls-1 {
        stroke: #fff;
      }

      .cls-1, .cls-2 {
        fill: none;
        stroke-linecap: round;
        stroke-linejoin: round;
        stroke-width: 4px;
      }

      .cls-2 {
        stroke: #f256b6;
      }
    </style>
  </defs>
  <g>
    <path class="cls-1" d="M27.73,61.15c3.24-18.88,17.72-33.9,36.32-37.93"/>
    <path class="cls-1" d="M84.05,23.22c18.6,4.03,33.08,19.05,36.32,37.93"/>
    <rect class="cls-2" x="17.05" y="61.15" width="20" height="16" rx="6" ry="6"/>
    <path class="cls-2" d="M111.05,72.15v-5c0-3.31,2.69-6,6-6h8c3.31,0,6,2.69,6,6v4c0,3.31-2.69,6-6,6"/>
    <path class="cls-1" d="M69.05,120.15h-13c-3.31,0-6-2.69-6-6v-4c0-3.31,2.69-6,6-6h23"/>
    <rect class="cls-2" x="64.05" y="14.15" width="20" height="16" rx="6" ry="6"/>
    <circle class="cls-1" cx="74.05" cy="76.15" r="9"/>
    <line class="cls-2" x1="47.05" y1="22.15" x2="34.05" y2="22.15"/>
    <line class="cls-2" x1="114.05" y1="22.15" x2="101.05" y2="22.15"/>
    <circle class="cls-2" cx="28.05" cy="22.15" r="6"/>
    <circle class="cls-2" cx="120.05" cy="22.15" r="6"/>
    <line class="cls-1" x1="74.05" y1="60.15" x2="74.05" y2="38.15"/>
    <path class="cls-1" d="M96.05,72.15v-1c0-6.35-2.84-11.84-7-16-4.24-3.51-6.97-8.74-7.76-14.51-.27-1.99-1.95-3.49-3.96-3.49h-6.55c-2.01,0-3.69,1.5-3.96,3.49-.79,5.77-3.52,11-7.76,14.51-4.16,4.16-7,9.65-7,16v5.5c0,4.74,1.5,9.14,4.06,12.74,2.49,3.5,3.94,7.62,3.94,11.92v2.85"/>
  </g>
  <path class="cls-2" d="M89.14,136.06l5.05-5.05c3.75-3.75,8.84-5.86,14.14-5.86h6.57c2.65,0,5.2-1.05,7.07-2.93l7.73-7.73c1.5-1.5,2.34-3.54,2.34-5.66v-11.62c0-1.87-2.26-2.81-3.58-1.48l-11.76,11.76c-3.12,3.12-8.19,3.12-11.31,0l-.69-.69c-3.12-3.12-3.12-8.19,0-11.31l11.76-11.76c1.32-1.32.39-3.58-1.48-3.58h-11.62c-2.12,0-4.16.84-5.66,2.34l-7.73,7.73c-1.88,1.88-2.93,4.42-2.93,7.07v6.57c0,5.3-2.11,10.39-5.86,14.14l-5.05,5.05c-1.41,1.41-2.09,3.25-2.09,5.09s.69,3.69,2.09,5.09l2.82,2.82c1.41,1.41,3.25,2.09,5.09,2.09s3.69-.69,5.09-2.09Z"/>
</svg>