<?xml version="1.0" encoding="UTF-8"?>
<svg id="Layer_1" data-name="Layer 1" xmlns="http://www.w3.org/2000/svg" viewBox="0 0 150 150">
  <defs>
    <style>
      .cls-1 {
        fill: none;
        stroke: #000;
        stroke-linecap: round;
        stroke-linejoin: round;
        stroke-width: 4px;
      }
    </style>
  </defs>
  <g>
    <path class="cls-1" d="M50.16,125.41v-4c0-2.21,1.79-4,4-4h38c2.21,0,4,1.79,4,4v4"/>
    <path class="cls-1" d="M88.31,75.41h-30.29c-6.42,0-11.44-5.6-10.8-12.06l4.16-42.06c.55-5.61,5.21-9.88,10.78-9.88h22c5.58,0,10.23,4.27,10.78,9.88l4.16,42.06c.64,6.46-4.38,12.06-10.8,12.06Z"/>
    <line class="cls-1" x1="63.16" y1="87.41" x2="63.16" y2="75.41"/>
    <line class="cls-1" x1="83.16" y1="75.41" x2="83.16" y2="87.41"/>
    <line class="cls-1" x1="67.16" y1="117.44" x2="67.16" y2="103.44"/>
    <line class="cls-1" x1="79.16" y1="103.44" x2="79.16" y2="117.44"/>
    <line class="cls-1" x1="73.16" y1="117.41" x2="73.16" y2="125.41"/>
    <circle class="cls-1" cx="96.16" cy="132.41" r="7"/>
    <circle class="cls-1" cx="73.16" cy="132.41" r="7"/>
    <circle class="cls-1" cx="50.16" cy="132.41" r="7"/>
    <g>
      <path class="cls-1" d="M103.16,95.41h6c2.21,0,4-1.79,4-4v-10"/>
      <path class="cls-1" d="M116.16,81.41h-6c-2.76,0-5-2.24-5-5h0c0-2.76,2.24-5,5-5h6c2.76,0,5,2.24,5,5h0c0,2.76-2.24,5-5,5Z"/>
    </g>
    <g>
      <path class="cls-1" d="M43.16,95.41h-6c-2.21,0-4-1.79-4-4v-10"/>
      <path class="cls-1" d="M30.16,81.41h6c2.76,0,5-2.24,5-5h0c0-2.76-2.24-5-5-5h-6c-2.76,0-5,2.24-5,5h0c0,2.76,2.24,5,5,5Z"/>
    </g>
    <path class="cls-1" d="M95.16,103.41h-44c-4.42,0-8-3.58-8-8h0c0-4.42,3.58-8,8-8h44c4.42,0,8,3.58,8,8h0c0,4.42-3.58,8-8,8Z"/>
  </g>
  <g>
    <circle class="cls-1" cx="72.16" cy="45.41" r="15"/>
    <line class="cls-1" x1="82.77" y1="56.02" x2="90.66" y2="63.91"/>
  </g>
</svg>