<?xml version="1.0" encoding="UTF-8"?>
<svg id="Layer_1" data-name="Layer 1" xmlns="http://www.w3.org/2000/svg" viewBox="0 0 150 150">
  <defs>
    <style>
      .cls-1 {
        stroke: #000;
      }

      .cls-1, .cls-2 {
        fill: none;
        stroke-linecap: round;
        stroke-linejoin: round;
        stroke-width: 4px;
      }

      .cls-2 {
        stroke: #00ca55;
      }
    </style>
  </defs>
  <path class="cls-1" d="M105.35,82.09h0c0-14.92,12.65-22,13.13-22.47-7.05-10.15-18.24-11.57-22.13-11.57-9.48-.94-18.48,5.43-23.35,5.43s-12.16-5.43-19.94-5.19c-10.21.24-19.7,5.9-25.05,14.64-10.7,18.23-2.68,44.9,7.54,59.49,5.11,7.13,11.19,15.11,19.21,14.92,7.78-.24,10.7-4.72,19.94-4.72s11.92,4.72,19.94,4.49c8.27,0,13.62-7.32,18.73-14.4,5.84-8.26,8.27-16.34,8.27-16.76-.24,0-16.05-5.9-16.29-23.84"/>
  <path class="cls-2" d="M86.19,31.36h0c4.67-5.15,7.62-12.1,6.89-19.05-6.64.45-14.51,4.03-19.18,8.96-4.18,4.48-7.87,11.65-6.89,18.38,7.38.45,14.75-3.36,19.18-8.29"/>
</svg>