<?xml version="1.0" encoding="UTF-8"?>
<svg id="Layer_1" data-name="Layer 1" xmlns="http://www.w3.org/2000/svg" viewBox="0 0 150 150">
  <defs>
    <style>
      .cls-1 {
        stroke: #000;
      }

      .cls-1, .cls-2 {
        fill: none;
        stroke-linecap: round;
        stroke-linejoin: round;
        stroke-width: 4px;
      }

      .cls-2 {
        stroke: #ff6a3b;
      }
    </style>
  </defs>
  <g>
    <path class="cls-1" d="M79,83.94V22.94c0-4.42-3.58-8-8-8H25c-4.42,0-8,3.58-8,8v80c0,4.42,3.58,8,8,8h46"/>
    <line class="cls-1" x1="55" y1="22.94" x2="41" y2="22.94"/>
    <line class="cls-1" x1="17" y1="98.94" x2="60" y2="98.94"/>
    <path class="cls-1" d="M59,88.94h-23c-2.76,0-5-2.24-5-5v-3c0-2.76,2.24-5,5-5h24c2.76,0,5,2.24,5,5v2"/>
    <g>
      <line class="cls-2" x1="67" y1="47.94" x2="29" y2="47.94"/>
      <path class="cls-2" d="M29.72,49.71l15.41,15.84c1.57,1.61,4.16,1.61,5.73,0l15.41-15.84c1-1.03,1.13-2.62.32-3.8l-6.4-9.25c-.75-1.08-1.98-1.72-3.29-1.72h-17.81c-1.31,0-2.54.64-3.29,1.72l-6.4,9.25c-.82,1.18-.68,2.77.32,3.8Z"/>
      <line class="cls-2" x1="48" y1="47.94" x2="37.34" y2="35.35"/>
      <polyline class="cls-2" points="58.65 35.35 48 47.94 48 56.44"/>
    </g>
  </g>
  <g>
    <rect class="cls-1" x="89" y="14.94" width="42" height="64" rx="6" ry="6"/>
    <rect class="cls-2" x="99" y="52.94" width="22" height="8" rx="3" ry="3"/>
    <line class="cls-1" x1="89" y1="69.94" x2="131" y2="69.94"/>
    <circle class="cls-2" cx="110" cy="34.94" r="9"/>
  </g>
  <path class="cls-2" d="M90.18,124.94h-9.18c-3.87,0-7,3.13-7,7v1c0,1.1.9,2,2,2h32.39c5.14,0,10.08-2.04,13.71-5.68l3.23-3.23c3.78-3.78,5.66-9.09,5.66-14.09s-1.86-9.54-5.66-13.34l-11.74-11.74c-1.95-1.95-5.12-1.95-7.07,0h0c-1.95,1.95-1.95,5.12,0,7.07l2.12,2.12h0l-4.24-4.24c-1.95-1.95-5.12-1.95-7.07,0h0c-1.95,1.95-1.95,5.12,0,7.07l3.54,3.54-5.66-5.66c-1.95-1.95-5.12-1.95-7.07,0h0c-1.95,1.95-1.95,5.12,0,7.07l5.66,5.66-19.09-19.09c-1.95-1.95-5.12-1.95-7.07,0h0c-1.95,1.95-1.96,5.11,0,7.07,5.65,5.65,17.5,17.58,23.97,24.07,1.26,1.26.36,3.41-1.42,3.41Z"/>
</svg>