<?xml version="1.0" encoding="UTF-8"?>
<svg id="Layer_1" data-name="Layer 1" xmlns="http://www.w3.org/2000/svg" viewBox="0 0 150 150">
  <defs>
    <style>
      .cls-1 {
        stroke: #fff;
      }

      .cls-1, .cls-2 {
        fill: none;
        stroke-linecap: round;
        stroke-linejoin: round;
        stroke-width: 4px;
      }

      .cls-2 {
        stroke: #ff6a3b;
      }
    </style>
  </defs>
  <path class="cls-1" d="M112.85,60.01c1.36.18,2.71.4,4.06.66,4.32.83,8.56,2.07,12.67,3.71,7.59,3.04,12.57,10.39,12.57,18.57v14.92c0,4.09-1.24,7.97-3.44,11.21-2.19,3.24-5.34,5.84-9.13,7.36-.94.38-1.89.73-2.84,1.06-3.35,1.17-5.47,4.3-5.47,7.66,0,.81.13,1.64.39,2.46.2.61.29,1.23.29,1.83,0,3.17-2.57,5.96-5.98,5.96-1.78,0-3.48-.8-4.61-2.18l-5.81-7.07c-2.47-3.01-6.15-4.75-10.04-4.75h-4.97c-8.85,0-17.61-1.69-25.82-4.97-7.59-3.04-12.57-10.39-12.57-18.57v-5.36"/>
  <path class="cls-2" d="M64.79,75.41h4.97c8.85,0,17.61-1.69,25.82-4.97,7.59-3.04,12.57-10.39,12.57-18.57v-14.92c0-4.09-1.24-7.97-3.44-11.21-2.19-3.24-5.34-5.84-9.13-7.36-8.21-3.28-16.97-4.97-25.82-4.97h-13.22c-4.43,0-8.83.42-13.15,1.26-4.32.83-8.56,2.07-12.67,3.71-7.59,3.04-12.57,10.39-12.57,18.57v14.92c0,4.09,1.24,7.97,3.44,11.21,2.19,3.24,5.34,5.84,9.13,7.36.94.38,1.89.73,2.84,1.06,4.16,1.45,6.42,5.92,5.08,10.12h0c-1.23,3.85,1.64,7.79,5.69,7.79h0c1.79,0,3.48-.8,4.61-2.18l5.81-7.07c2.47-3.01,6.16-4.75,10.05-4.75Z"/>
  <line class="cls-1" x1="120.15" y1="90.41" x2="76.15" y2="90.41"/>
  <line class="cls-1" x1="120.15" y1="104.41" x2="76.15" y2="104.41"/>
  <line class="cls-1" x1="120.15" y1="76.41" x2="109.15" y2="76.41"/>
  <path class="cls-2" d="M45.39,30.88l3.47,7.04,8.42,1.22c1.79.26,2.5,2.45,1.21,3.71l-6.09,5.94,1.31,7.63c.36,2.09-1.83,3.68-3.71,2.69l-6.85-3.6-6.85,3.6c-1.88.99-4.07-.61-3.71-2.69l1.31-7.63-6.09-5.94c-1.29-1.26-.58-3.45,1.21-3.71l8.42-1.22,3.47-7.04c.46-.93,1.35-1.47,2.24-1.47s1.78.54,2.24,1.47Z"/>
  <path class="cls-2" d="M85.39,30.88l3.47,7.04,8.42,1.22c1.79.26,2.5,2.45,1.21,3.71l-6.09,5.94,1.31,7.63c.36,2.09-1.83,3.68-3.71,2.69l-6.85-3.6-6.85,3.6c-1.88.99-4.07-.61-3.71-2.69l1.31-7.63-6.09-5.94c-1.29-1.26-.58-3.45,1.21-3.71l8.42-1.22,3.47-7.04c.46-.93,1.35-1.47,2.24-1.47s1.78.54,2.24,1.47Z"/>
</svg>