<?xml version="1.0" encoding="UTF-8"?>
<svg id="Layer_1" data-name="Layer 1" xmlns="http://www.w3.org/2000/svg" viewBox="0 0 150 150">
  <defs>
    <style>
      .cls-1 {
        stroke: #000;
      }

      .cls-1, .cls-2 {
        fill: none;
        stroke-linecap: round;
        stroke-linejoin: round;
        stroke-width: 4px;
      }

      .cls-2 {
        stroke: #ff6a3b;
      }
    </style>
  </defs>
  <g>
    <path class="cls-2" d="M50.41,98.77l30.4-30.4c2.01-2.01,5.28-2.01,7.3,0h0c2.01,2.01,2.01,5.28,0,7.3l-17.43,17.43"/>
    <path class="cls-2" d="M68.76,95l3.13-3.13c2.01-2.01,5.28-2.01,7.3,0h0c2.01,2.01,2.01,5.28,0,7.3l-1.22,1.22"/>
    <path class="cls-2" d="M76.49,101.86l2.69-2.69c2.01-2.01,5.28-2.01,7.3,0h0c2.01,2.01,2.01,5.28,0,7.3l-3.64,3.64"/>
    <path class="cls-2" d="M82.93,110.01l1.11-1.11c2.01-2.01,5.28-2.01,7.3,0h0c2.01,2.01,2.01,5.28,0,7.3l-12.97,12.97c-10.07,10.07-26.4,10.07-36.48,0h0c-10.07-10.07-10.07-26.4,0-36.48l11.35-11.35c2.01-2.01,5.28-2.01,7.3,0h0c2.01,2.01,2.01,5.28,0,7.3l-10.13,10.13"/>
  </g>
  <g>
    <g>
      <path class="cls-1" d="M71.93,65.45c-3.04-5.14-4.78-11.13-4.78-17.54,0-19.05,15.45-34.5,34.5-34.5s34.5,15.45,34.5,34.5-15.45,34.5-34.5,34.5c-2.93,0-5.77-.36-8.48-1.05"/>
      <path class="cls-1" d="M82.31,59.5c3.49-7.15,10.84-12.08,19.33-12.08s15.84,4.93,19.33,12.08"/>
      <circle class="cls-1" cx="89.15" cy="35.41" r="5"/>
      <circle class="cls-1" cx="114.15" cy="35.41" r="5"/>
    </g>
    <g>
      <path class="cls-2" d="M64.16,68.21c-2.52,1.41-5.42,2.21-8.51,2.21-9.67,0-17.5-7.83-17.5-17.5s7.83-17.5,17.5-17.5c1.96,0,3.85.32,5.61.92"/>
      <line class="cls-2" x1="49.15" y1="58.41" x2="60.15" y2="58.41"/>
      <circle class="cls-2" cx="50.15" cy="48.41" r="1"/>
    </g>
    <g>
      <path class="cls-2" d="M36.64,68.96c-2.14.93-4.51,1.45-6.99,1.45-9.67,0-17.5-7.83-17.5-17.5s7.83-17.5,17.5-17.5c2.7,0,5.26.61,7.55,1.71"/>
      <circle class="cls-2" cx="24.15" cy="48.41" r="1"/>
      <path class="cls-2" d="M22.1,57.46c1.98,1.83,4.63,2.95,7.54,2.95.53,0,1.04-.04,1.55-.11"/>
    </g>
  </g>
</svg>