<?xml version="1.0" encoding="UTF-8"?>
<svg id="Layer_1" data-name="Layer 1" xmlns="http://www.w3.org/2000/svg" viewBox="0 0 150 150">
  <defs>
    <style>
      .cls-1 {
        stroke: #fff;
      }

      .cls-1, .cls-2 {
        fill: none;
        stroke-linecap: round;
        stroke-linejoin: round;
        stroke-width: 4px;
      }

      .cls-2 {
        stroke: #ff6a3b;
      }
    </style>
  </defs>
  <g>
    <path class="cls-1" d="M97.15,109.41h-18c-3.31,0-6-2.69-6-6v-20c0-3.31,2.69-6,6-6h18v32Z"/>
    <path class="cls-1" d="M131.15,82.41h0c4.97,0,9,4.03,9,9v4c0,4.97-4.03,9-9,9h0"/>
    <path class="cls-1" d="M97.15,77.41l31.29-11.96c1.31-.5,2.71.47,2.71,1.87v52.19c0,1.4-1.4,2.37-2.71,1.87l-31.29-11.96"/>
    <path class="cls-1" d="M73.15,102.41h-1c-4.97,0-9-4.03-9-9h0c0-4.97,4.03-9,9-9h1"/>
    <path class="cls-1" d="M79.15,109.41l10.01,24.56c.6,1.48,2.04,2.44,3.63,2.44h4.45c2.77,0,4.67-2.8,3.64-5.38l-8.64-21.62"/>
  </g>
  <g>
    <g>
      <path class="cls-2" d="M82.15,136.41H26.15c-5.52,0-10-4.48-10-10V38.41c0-5.52,4.48-10,10-10h88c5.52,0,10,4.48,10,10v20"/>
      <line class="cls-2" x1="16.15" y1="49.41" x2="124.15" y2="49.41"/>
      <path class="cls-2" d="M52.15,41.41h-3c-3.87,0-7-3.13-7-7v-14c0-3.87,3.13-7,7-7h2c3.87,0,7,3.13,7,7v8"/>
      <path class="cls-2" d="M92.15,41.41h-3c-3.87,0-7-3.13-7-7v-14c0-3.87,3.13-7,7-7h2c3.87,0,7,3.13,7,7v8"/>
    </g>
    <path class="cls-2" d="M51.11,100.41c-3.44,0-6.4,2.92-7.46,5.41-1.06-2.49-4.02-5.41-7.46-5.41-5.74,0-8.04,4.33-8.04,8.22,0,11.74,15.5,18.78,15.5,18.78,0,0,15.5-7.04,15.5-18.78,0-3.89-2.3-8.22-8.04-8.22Z"/>
    <g>
      <rect class="cls-2" x="29.15" y="63.41" width="29" height="10" rx="1" ry="1"/>
      <path class="cls-2" d="M31.15,73.41v14c0,.55.45,1,1,1h23c.55,0,1-.45,1-1v-14"/>
      <polyline class="cls-2" points="50.69 55.93 43.65 63.41 36.65 55.93"/>
    </g>
    <path class="cls-2" d="M82.15,69.41v-5c0-.55.45-1,1-1h24c.55,0,1,.45,1,1"/>
  </g>
</svg>