<?xml version="1.0" encoding="UTF-8"?>
<svg id="Layer_1" data-name="Layer 1" xmlns="http://www.w3.org/2000/svg" viewBox="0 0 150 150">
  <defs>
    <style>
      .cls-1 {
        stroke: #fff;
      }

      .cls-1, .cls-2 {
        fill: none;
        stroke-linecap: round;
        stroke-linejoin: round;
        stroke-width: 4px;
      }

      .cls-2 {
        stroke: #f256b6;
      }
    </style>
  </defs>
  <line class="cls-1" x1="110.15" y1="136.41" x2="110.15" y2="113.87"/>
  <line class="cls-1" x1="106.63" y1="99.41" x2="91.15" y2="99.41"/>
  <circle class="cls-1" cx="44.15" cy="78.41" r="13"/>
  <path class="cls-1" d="M61.15,67.79c2.12-1.5,4.7-2.38,7.5-2.38,7.18,0,13,5.82,13,13s-5.82,13-13,13c-2.8,0-5.38-.88-7.5-2.38"/>
  <path class="cls-1" d="M85.9,67.79c2.12-1.5,4.7-2.38,7.5-2.38,7.18,0,13,5.82,13,13s-5.82,13-13,13c-2.8,0-5.38-.88-7.5-2.38"/>
  <path class="cls-1" d="M67.15,99.41h12c3.87,0,7,3.13,7,7v30"/>
  <path class="cls-1" d="M62.15,136.41v-30c0-3.87-3.13-7-7-7h-22c-3.87,0-7,3.13-7,7v24c0,3.31,2.69,6,6,6h0c3.31,0,6-2.69,6-6v-16"/>
  <g>
    <g>
      <circle class="cls-1" cx="50.15" cy="30.41" r="6"/>
      <circle class="cls-1" cx="100.15" cy="30.41" r="6"/>
      <circle class="cls-1" cx="75.15" cy="30.41" r="6"/>
    </g>
    <path class="cls-2" d="M41.15,47.41v12l-13.95-13.95c-1.31-1.31-2.05-3.09-2.05-4.95v-21.1c0-3.87,3.13-7,7-7h86c3.87,0,7,3.13,7,7v21.1c0,1.86-.74,3.64-2.05,4.95l-13.95,13.95v-12h-22l-12,12-12-12h-22Z"/>
  </g>
  <path class="cls-1" d="M106.63,99.41l17.27-16.25c1.08-1.1,2.59-1.77,4.25-1.77,3.31,0,6,2.68,6,6,0,1.66-.67,3.16-1.76,4.24l-22.24,22.24"/>
</svg>