<?xml version="1.0" encoding="UTF-8"?>
<svg id="Layer_1" data-name="Layer 1" xmlns="http://www.w3.org/2000/svg" viewBox="0 0 150 150">
  <defs>
    <style>
      .cls-1 {
        stroke: #fff;
      }

      .cls-1, .cls-2 {
        fill: none;
        stroke-linecap: round;
        stroke-linejoin: round;
        stroke-width: 4px;
      }

      .cls-2 {
        stroke: #ff6a3b;
      }
    </style>
  </defs>
  <line class="cls-2" x1="75.15" y1="108.41" x2="75.15" y2="66.41"/>
  <line class="cls-2" x1="60.15" y1="66.41" x2="89.15" y2="66.41"/>
  <line class="cls-2" x1="114.15" y1="49.41" x2="124.15" y2="49.41"/>
  <g>
    <circle class="cls-1" cx="120.15" cy="70.41" r="12"/>
    <path class="cls-1" d="M127.15,103.41v26.5c0,3.04,2.46,5.5,5.5,5.5h0c3.04,0,5.5-2.46,5.5-5.5v-33.5c0-3.87-3.13-7-7-7h-22"/>
    <line class="cls-1" x1="107.15" y1="135.41" x2="107.15" y2="103.41"/>
    <path class="cls-1" d="M109.15,89.41l-14-14c-2.21-2.21-5.79-2.21-8,0h0c-2.21,2.21-2.21,5.79,0,8l20,20"/>
  </g>
  <g>
    <circle class="cls-1" cx="30.15" cy="70.41" r="12"/>
    <path class="cls-1" d="M23.15,103.41v26.5c0,3.04-2.46,5.5-5.5,5.5h0c-3.04,0-5.5-2.46-5.5-5.5v-33.5c0-3.87,3.13-7,7-7h22"/>
    <line class="cls-1" x1="43.15" y1="135.41" x2="43.15" y2="103.41"/>
    <path class="cls-1" d="M41.15,89.41l14-14c2.21-2.21,5.79-2.21,8,0h0c2.21,2.21,2.21,5.79,0,8l-20,20"/>
  </g>
  <polyline class="cls-2" points="57.15 101.41 59.15 110.41 90.15 110.41 92.15 101.41"/>
  <path class="cls-2" d="M90.15,121.41v7c0,3.87-3.13,7-7,7h-15c-3.87,0-7-3.13-7-7v-7"/>
  <path class="cls-2" d="M43.53,55.41c2.4-15.3,15.64-27,31.61-27s29.21,11.7,31.61,27"/>
  <line class="cls-2" x1="26.15" y1="49.41" x2="36.15" y2="49.41"/>
  <line class="cls-2" x1="75.15" y1="11.41" x2="75.15" y2="21.41"/>
  <line class="cls-2" x1="110.15" y1="20.41" x2="101.15" y2="29.41"/>
  <line class="cls-2" x1="41.15" y1="20.41" x2="50.15" y2="29.41"/>
</svg>