<?xml version="1.0" encoding="UTF-8"?>
<svg id="Layer_1" data-name="Layer 1" xmlns="http://www.w3.org/2000/svg" viewBox="0 0 150 150">
  <defs>
    <style>
      .cls-1 {
        stroke: #fff;
      }

      .cls-1, .cls-2 {
        fill: none;
        stroke-linecap: round;
        stroke-linejoin: round;
        stroke-width: 4px;
      }

      .cls-2 {
        stroke: #ff6a3b;
      }
    </style>
  </defs>
  <path class="cls-1" d="M90.26,30.77l15.71-6.52c4.02-1.67,8.59.18,10.41,4.2l24.8,54.93c.26.5.36,1.07.28,1.61L11.68,64.26c.29-.79.94-1.38,1.76-1.59.07-.04,18.5-7.7,33.22-13.81l43.6-18.09Z"/>
  <path class="cls-1" d="M85.81,102l51.73,8.22c1.02.17,1.72,1.12,1.57,2.14l-1.77,11.61c-.17,1.09-.75,2.05-1.64,2.71-.71.53-1.57.81-2.45.81-.21,0-.42-.01-.63-.05L8.12,108.51c-2.26-.35-3.82-2.46-3.48-4.71l1.85-12.48c.15-1.04,1.13-1.75,2.16-1.58l16.69,2.65"/>
  <polyline class="cls-2" points="44.72 85 71.16 106.24 106.08 93.6"/>
  <path class="cls-1" d="M141.48,84.88l-1.83,12.43c-.18,1.19-1.25,2.01-2.41,1.83l-38.66-6.08-48.99-7.7-38.48-6.05c-1.15-.18-1.95-1.29-1.77-2.49l1.93-13.05"/>
  <line class="cls-1" x1="134.4" y1="99.16" x2="132.04" y2="108.6"/>
  <line class="cls-1" x1="14.04" y1="89.72" x2="16.4" y2="80.28"/>
</svg>