<?xml version="1.0" encoding="UTF-8"?>
<svg id="Layer_1" data-name="Layer 1" xmlns="http://www.w3.org/2000/svg" viewBox="0 0 150 150">
  <defs>
    <style>
      .cls-1 {
        stroke: #fff;
      }

      .cls-1, .cls-2 {
        fill: none;
        stroke-linecap: round;
        stroke-linejoin: round;
        stroke-width: 4px;
      }

      .cls-2 {
        stroke: #ff6a3b;
      }
    </style>
  </defs>
  <rect class="cls-2" x="27.15" y="36.41" width="34" height="34" rx="4" ry="4"/>
  <rect class="cls-2" x="85.15" y="36.41" width="34" height="34" rx="4" ry="4"/>
  <line class="cls-2" x1="44.15" y1="44.41" x2="35.15" y2="62.41"/>
  <line class="cls-2" x1="53.15" y1="62.41" x2="44.15" y2="44.41"/>
  <line class="cls-2" x1="50.65" y1="57.41" x2="37.65" y2="57.41"/>
  <path class="cls-2" d="M95.15,44.41h8c2.21,0,4,1.79,4,4h0c0,2.21-1.79,4-4,4h-8v-8h0Z"/>
  <path class="cls-2" d="M95.15,52.41h10c2.21,0,4,1.79,4,4v2c0,2.21-1.79,4-4,4h-10v-10h0Z"/>
  <path class="cls-1" d="M63.15,21.41v-1c0-5.52,4.48-10,10-10h0c5.52,0,10,4.48,10,10h0c0,3.68-1.98,6.89-4.94,8.63-3.1,1.82-5.06,5.09-5.06,8.69v.69"/>
  <line class="cls-1" x1="73.15" y1="44.41" x2="73.15" y2="46.41"/>
  <g>
    <g>
      <path class="cls-2" d="M35.15,94.41h76v38c0,1.1-.9,2-2,2H37.15c-1.1,0-2-.9-2-2v-38h0Z"/>
      <line class="cls-2" x1="73.15" y1="134.41" x2="73.15" y2="94.41"/>
      <path class="cls-2" d="M73.15,94.41l7.17-7.17c1.81-1.81,2.83-4.27,2.83-6.83h0c0-1.1.9-2,2-2h34c1.1,0,2,.9,2,2h0c0,2.56-1.02,5.02-2.83,6.83l-7.17,7.17"/>
      <path class="cls-2" d="M73.15,94.41l-7.17-7.17c-1.81-1.81-2.83-4.27-2.83-6.83h0c0-1.1-.9-2-2-2H27.15c-1.1,0-2,.9-2,2h0c0,2.56,1.02,5.02,2.83,6.83l7.17,7.17"/>
    </g>
    <line class="cls-1" x1="103.15" y1="118.41" x2="95.15" y2="118.41"/>
    <line class="cls-1" x1="103.15" y1="126.41" x2="91.15" y2="126.41"/>
  </g>
</svg>