<?xml version="1.0" encoding="UTF-8"?>
<svg id="Layer_1" data-name="Layer 1" xmlns="http://www.w3.org/2000/svg" viewBox="0 0 150 150">
  <defs>
    <style>
      .cls-1 {
        stroke: #000;
      }

      .cls-1, .cls-2 {
        fill: none;
        stroke-linecap: round;
        stroke-linejoin: round;
        stroke-width: 4px;
      }

      .cls-2 {
        stroke: #ff6a3b;
      }
    </style>
  </defs>
  <path class="cls-1" d="M63.13,40.49c8.66-6.64,19.42-10.58,31.09-10.58,28.62,0,51.83,23.7,51.83,52.96s-23.2,52.96-51.83,52.96-51.83-23.7-51.83-52.96c0-10.35,2.9-20.01,7.93-28.16"/>
  <line class="cls-1" x1="94.22" y1="54.7" x2="94.22" y2="43.43"/>
  <line class="cls-1" x1="112.25" y1="63.71" x2="121.26" y2="56.95"/>
  <line class="cls-1" x1="76.19" y1="63.71" x2="67.18" y2="56.95"/>
  <line class="cls-1" x1="94.22" y1="108.78" x2="94.22" y2="120.05"/>
  <line class="cls-1" x1="76.19" y1="99.76" x2="67.18" y2="108.78"/>
  <line class="cls-1" x1="112.25" y1="99.76" x2="121.26" y2="108.78"/>
  <line class="cls-1" x1="67.18" y1="81.74" x2="55.91" y2="81.74"/>
  <line class="cls-1" x1="132.53" y1="81.74" x2="121.26" y2="81.74"/>
  <circle class="cls-1" cx="94.22" cy="81.74" r="38.31"/>
  <polyline class="cls-2" points="94.22 65.96 94.22 83.99 103.23 74.57"/>
  <polyline class="cls-1" points="82.95 29.91 82.95 18.64 105.49 18.64 105.49 29.91"/>
  <line class="cls-1" x1="35.63" y1="56.95" x2="19.85" y2="56.95"/>
  <line class="cls-1" x1="35.63" y1="106.53" x2="19.85" y2="106.53"/>
  <line class="cls-2" x1="31.12" y1="70.47" x2="10.84" y2="70.47"/>
  <line class="cls-1" x1="31.12" y1="95.26" x2="10.84" y2="95.26"/>
  <line class="cls-2" x1="28.87" y1="81.74" x2="4.08" y2="81.74"/>
</svg>