<?xml version="1.0" encoding="UTF-8"?>
<svg id="Layer_1" data-name="Layer 1" xmlns="http://www.w3.org/2000/svg" viewBox="0 0 150 150">
  <defs>
    <style>
      .cls-1 {
        stroke: #fff;
      }

      .cls-1, .cls-2 {
        fill: none;
        stroke-linecap: round;
        stroke-linejoin: round;
        stroke-width: 4px;
      }

      .cls-2 {
        stroke: #ff6a3b;
      }
    </style>
  </defs>
  <path class="cls-1" d="M81.32,107.43l15.71,15.71c1.32,1.32,1.97,3.04,1.97,4.76,0,1.84-.75,3.67-2.22,5-2.66,2.4-6.74,2.29-9.27-.24l-16.35-16.39"/>
  <line class="cls-2" x1="92.05" y1="104.15" x2="110.05" y2="104.15"/>
  <path class="cls-2" d="M60.05,104.15v-33c0-1.1-.9-2-2-2h-20c-1.1,0-2,.9-2,2v33h36"/>
  <path class="cls-2" d="M98.05,104.15V26.15c0-1.1-.9-2-2-2h-22c-1.1,0-2,.9-2,2v18"/>
  <line class="cls-2" x1="72.05" y1="65.15" x2="72.05" y2="104.15"/>
  <path class="cls-2" d="M110.05,50.15h24v52c0,1.1-.9,2-2,2h-20c-1.1,0-2-.9-2-2v-52h0Z" transform="translate(244.09 154.3) rotate(180)"/>
  <circle class="cls-1" cx="53.05" cy="85.15" r="36"/>
</svg>