<?xml version="1.0" encoding="UTF-8"?>
<svg id="Layer_1" data-name="Layer 1" xmlns="http://www.w3.org/2000/svg" viewBox="0 0 150 150">
  <defs>
    <style>
      .cls-1 {
        stroke: #000;
      }

      .cls-1, .cls-2 {
        fill: none;
        stroke-linecap: round;
        stroke-linejoin: round;
        stroke-width: 4px;
      }

      .cls-2 {
        stroke: #00ca55;
      }
    </style>
  </defs>
  <g>
    <line class="cls-1" x1="31.15" y1="126.41" x2="99.15" y2="126.41"/>
    <line class="cls-1" x1="31.15" y1="27.41" x2="99.15" y2="27.41"/>
    <path class="cls-1" d="M99.15,117.41v11c0,5.52-4.48,10-10,10h-48c-5.52,0-10-4.48-10-10V23.41c0-5.52,4.48-9,10-9h48c5.52,0,10,3.48,10,9v12"/>
  </g>
  <g>
    <g>
      <path class="cls-2" d="M90.15,83.41v2c0,2.76,2.24,5,5,5h8c2.76,0,5-2.24,5-5v-4c0-2.76-2.24-5-5-5h-8c-2.76,0-5-2.24-5-5v-4c0-2.76,2.24-5,5-5h8c2.76,0,5,2.24,5,5v2"/>
      <line class="cls-2" x1="99.15" y1="62.41" x2="99.15" y2="57.41"/>
      <line class="cls-2" x1="99.15" y1="95.41" x2="99.15" y2="90.41"/>
    </g>
    <g>
      <g>
        <line class="cls-2" x1="81.15" y1="76.41" x2="54.15" y2="76.41"/>
        <circle class="cls-2" cx="48.15" cy="76.41" r="6"/>
      </g>
      <g>
        <circle class="cls-2" cx="58.15" cy="49.41" r="6"/>
        <path class="cls-2" d="M58.15,55.41v6c0,1.1.9,2,2,2h13"/>
      </g>
      <g>
        <circle class="cls-2" cx="58.15" cy="103.41" r="6"/>
        <path class="cls-2" d="M58.15,97.41v-6c0-1.1.9-2,2-2h13"/>
      </g>
    </g>
    <g>
      <path class="cls-1" d="M143.15,87.41v14c0,4.42-3.58,8-8,8h-54c-4.42,0-8-3.58-8-8v-17"/>
      <g>
        <rect class="cls-1" x="122.15" y="65.41" width="25" height="22" rx="3" ry="3"/>
        <circle class="cls-1" cx="132.15" cy="76.41" r="1"/>
      </g>
      <path class="cls-1" d="M73.15,68.41v-17c0-4.42,3.58-8,8-8h54c4.42,0,8,3.58,8,8v14"/>
    </g>
  </g>
</svg>