<?xml version="1.0" encoding="UTF-8"?>
<svg id="Layer_1" data-name="Layer 1" xmlns="http://www.w3.org/2000/svg" viewBox="0 0 150 150">
  <defs>
    <style>
      .cls-1 {
        stroke: #000;
      }

      .cls-1, .cls-2 {
        fill: none;
        stroke-linecap: round;
        stroke-linejoin: round;
        stroke-width: 4px;
      }

      .cls-2 {
        stroke: #ff6a3b;
      }
    </style>
  </defs>
  <g>
    <g>
      <path class="cls-2" d="M63.88,49.81v2c0,2.21,1.79,4,4,4h10c2.21,0,4-1.79,4-4v-5c0-2.76-2.24-5-5-5h-8c-2.76,0-5-2.24-5-5v-5c0-2.21,1.79-4,4-4h10c2.21,0,4,1.79,4,4v2"/>
      <line class="cls-2" x1="72.88" y1="27.81" x2="72.88" y2="22.81"/>
      <line class="cls-2" x1="72.88" y1="60.81" x2="72.88" y2="55.81"/>
    </g>
    <g>
      <line class="cls-2" x1="115.88" y1="35.81" x2="115.88" y2="45.81"/>
      <path class="cls-2" d="M33.88,47.81v-29c0-2.21,1.79-4,4-4h57"/>
      <path class="cls-2" d="M98.12,35.81h17.77l-21-21v17.77c0,1.78,1.45,3.23,3.23,3.23Z"/>
    </g>
  </g>
  <g>
    <g>
      <rect class="cls-1" x="15.25" y="60.7" width="42" height="18.42" rx="2" ry="2" transform="translate(-38.82 46.11) rotate(-45)"/>
      <path class="cls-1" d="M82.62,80.33l27.22,27.22c2.23,2.23,2.23,5.85,0,8.08h0c-2.23,2.23-5.85,2.23-8.08,0"/>
      <path class="cls-1" d="M90.38,104.31l10.29,10.23c2.23,2.23,2.23,5.85,0,8.08l.2.2c-2.23,2.23-6.05,2.03-8.28-.2l-11.22-11.31"/>
      <path class="cls-1" d="M91.02,121.04c2.23,2.23,2.23,5.85,0,8.08h0c-2.23,2.23-5.85,2.23-8.08,0l-9.93-9.93"/>
      <path class="cls-1" d="M70.69,133.01l1.07,1.07c2.23,2.23,5.85,2.23,8.08,0h0c2.23-2.23,2.23-5.85,0-8.08"/>
      <path class="cls-1" d="M33.12,86.06l5.17,5.17c1.34,1.34,1.97,3.23,1.7,5.1h0c-.27,1.9-.02,3.81.7,5.54"/>
      <path class="cls-1" d="M73.25,72.31c-2.61-1.15-5.54-1.49-8.41-.91l-3.36.68c-1.97.4-4.01-.22-5.43-1.64l-3.65-3.65"/>
    </g>
    <g>
      <path class="cls-1" d="M48.6,108.24l-5.34,5.34c-2.11,2.11-5.53,2.11-7.64,0h0c-2.11-2.11-2.11-5.53,0-7.64l5.34-5.34c2.11-2.11,5.53-2.11,7.64,0h0c2.11,2.11,2.11,5.53,0,7.64Z"/>
      <path class="cls-1" d="M57.68,114.45l-9.25,9.25c-2.11,2.11-5.53,2.11-7.64,0h0c-2.11-2.11-2.11-5.53,0-7.64l9.25-9.25c2.11-2.11,5.53-2.11,7.64,0h0c2.11,2.11,2.11,5.53,0,7.64Z"/>
      <path class="cls-1" d="M62.93,124.48l-5.25,5.25c-2.11,2.11-5.53,2.11-7.64,0h0c-2.11-2.11-2.11-5.53,0-7.64l5.25-5.25c2.11-2.11,5.53-2.11,7.64,0h0c2.11,2.11,2.11,5.53,0,7.64Z"/>
      <path class="cls-1" d="M69.14,133.56l-2.39,2.39c-2.11,2.11-5.53,2.11-7.64,0h0c-2.11-2.11-2.11-5.53,0-7.64l2.39-2.39c2.11-2.11,5.53-2.11,7.64,0h0c2.11,2.11,2.11,5.53,0,7.64Z"/>
      <rect class="cls-1" x="93.92" y="60.7" width="42" height="18.42" rx="2" ry="2" transform="translate(146.75 200.61) rotate(-135)"/>
      <path class="cls-1" d="M98.77,66.78l-3.59,3.59c-1.45,1.45-3.55,2.06-5.56,1.61l-6.13-1.38c-4.68-1.05-9.58.36-12.97,3.76l-5.92,5.92c-1.53,1.53-1.9,3.87-.92,5.8l5.55,10.94c.5.99,1.71,1.38,2.7.87l.45-.23c3.84-1.98,5.58-6.53,4.03-10.56l-.54-1.39,6.75-5.37"/>
      <path class="cls-1" d="M107.89,105.6l.32-.32c2.35-2.35,3.45-5.66,2.98-8.95h0c-.27-1.87.36-3.76,1.7-5.1l5.17-5.17"/>
    </g>
  </g>
</svg>