<?xml version="1.0" encoding="UTF-8"?>
<svg id="Layer_1" data-name="Layer 1" xmlns="http://www.w3.org/2000/svg" viewBox="0 0 150 150">
  <defs>
    <style>
      .cls-1 {
        stroke: #f256b6;
      }

      .cls-1, .cls-2, .cls-3 {
        fill: none;
        stroke-linecap: round;
        stroke-linejoin: round;
        stroke-width: 4px;
      }

      .cls-2 {
        stroke: #fff;
      }

      .cls-3 {
        stroke: #ff6a3b;
      }
    </style>
  </defs>
  <g>
    <rect class="cls-2" x="77.05" y="124.15" width="58" height="12" rx="2" ry="2"/>
    <path class="cls-2" d="M119.05,68.15v7h-8v-7c0-1.1-.9-2-2-2h-6c-1.1,0-2,.9-2,2v7h-8v-7c0-1.1-.9-2-2-2h-5c-1.1,0-2,.9-2,2v20c0,2.21,1.79,4,4,4h36c2.21,0,4-1.79,4-4v-20c0-1.1-.9-2-2-2h-5c-1.1,0-2,.9-2,2Z"/>
    <path class="cls-2" d="M94.05,92.15c0,10-2.67,22-8,32"/>
    <path class="cls-2" d="M126.05,124.15c-5.5-10-8.17-22-8-32"/>
  </g>
  <g>
    <g>
      <line class="cls-1" x1="87.67" y1="43.56" x2="73.45" y2="28.81"/>
      <path class="cls-3" d="M60.62,35.73c-1.07,3.16-4.06,5.43-7.58,5.43-4.42,0-8-3.58-8-8,0-3.53,2.29-6.52,5.46-7.59"/>
      <path class="cls-3" d="M69.05,136.15H18.05c-2.76,0-5-2.24-5-5V53.29c0-2.65,1.05-5.2,2.93-7.07L48.1,14.1c2.73-2.73,7.17-2.73,9.9,0l32.12,32.12c1.88,1.88,2.93,4.42,2.93,7.07v4.86"/>
      <path class="cls-3" d="M53.05,32.77c6.69-7.46,20.94-12.62,36.5-12.62,14.08,0,25.5,9.85,25.5,22,0,6.53-3.3,12.4-8.53,16.42"/>
    </g>
    <g>
      <g>
        <path class="cls-3" d="M42.05,95.15v1c0,3.87,3.13,7,7,7h8c3.87,0,7-3.13,7-7v-3c0-3.87-3.13-7-7-7h-8c-3.87,0-7-3.13-7-7v-3c0-3.87,3.13-7,7-7h8c3.87,0,7,3.13,7,7v1"/>
        <line class="cls-3" x1="53.05" y1="69.15" x2="53.05" y2="63.15"/>
        <line class="cls-3" x1="53.05" y1="109.15" x2="53.05" y2="103.15"/>
      </g>
      <path class="cls-3" d="M79.1,95.09c-3.12,14.44-13.6,25.06-26.06,25.06-14.91,0-27-15.22-27-34s12.09-34,27-34c10.78,0,20.09,7.96,24.41,19.46"/>
    </g>
  </g>
</svg>