<?xml version="1.0" encoding="UTF-8"?>
<svg id="Layer_1" data-name="Layer 1" xmlns="http://www.w3.org/2000/svg" viewBox="0 0 150 150">
  <defs>
    <style>
      .cls-1 {
        stroke: #fff;
      }

      .cls-1, .cls-2 {
        fill: none;
        stroke-linecap: round;
        stroke-linejoin: round;
        stroke-width: 4px;
      }

      .cls-2 {
        stroke: #ff6a3b;
      }
    </style>
  </defs>
  <g>
    <path class="cls-2" d="M85.83,128.76c-4.38,1.08-8.96,1.65-13.68,1.65-31.48,0-57-25.52-57-57s25.52-57,57-57c22.72,0,42.34,13.3,51.5,32.53"/>
    <path class="cls-2" d="M114.02,34.75c-10.41,8.4-25.32,13.67-41.88,13.67s-31.46-5.26-41.88-13.67"/>
    <path class="cls-2" d="M30.27,112.08c10.41-8.4,25.32-13.67,41.88-13.67,1.19,0,2.37.03,3.54.08"/>
    <path class="cls-2" d="M72.15,130.41c-16.57,0-30-25.52-30-57s13.43-57,30-57c11.65,0,21.75,12.61,26.72,31.04"/>
    <line class="cls-2" x1="72.15" y1="48.41" x2="72.15" y2="16.41"/>
    <line class="cls-2" x1="15.15" y1="73.41" x2="42.15" y2="73.41"/>
  </g>
  <g>
    <g>
      <path class="cls-1" d="M93.15,106.41v-37.5c0-2.49,2.01-4.5,4.5-4.5h0c2.49,0,4.5,2.01,4.5,4.5v25.5"/>
      <path class="cls-1" d="M102.15,94.41v-5.5c0-2.49,2.01-4.5,4.5-4.5h0c2.49,0,4.5,2.01,4.5,4.5v5.5"/>
      <path class="cls-1" d="M111.15,94.41v-5.5c0-2.49,2.01-4.5,4.5-4.5h0c2.49,0,4.5,2.01,4.5,4.5v5.5"/>
      <path class="cls-1" d="M120.15,94.41v-2.5c0-2.49,2.01-4.5,4.5-4.5h0c2.49,0,4.5,2.01,4.5,4.5v16c0,12.43-10.07,22.5-22.5,22.5h0c-12.43,0-22.5-10.07-22.5-22.5v-14c0-2.49,2.01-4.5,4.5-4.5h0c2.49,0,4.5,2.01,4.5,4.5v12.5"/>
    </g>
    <g>
      <path class="cls-1" d="M62.47,66.09l3.35,9.93c.3.88,1.54.88,1.83,0l3.1-9.21c.3-.88,1.54-.88,1.83,0l3.1,9.21c.3.88,1.54.88,1.83,0l3.35-9.93"/>
      <path class="cls-1" d="M110.73,66.09l3.35,9.93c.3.88,1.54.88,1.83,0l3.1-9.21c.3-.88,1.54-.88,1.83,0l3.1,9.21c.3.88,1.54.88,1.83,0l3.35-9.93"/>
      <path class="cls-1" d="M78.15,86.41h-20.29c-3.21,0-5.81-2.6-5.81-5.81v-18.39c0-3.21,2.6-5.81,5.81-5.81h75.48c3.21,0,5.81,2.6,5.81,5.81v18.39c0,2.34-1.38,4.35-3.37,5.27"/>
    </g>
  </g>
</svg>