<?xml version="1.0" encoding="UTF-8"?>
<svg id="Layer_1" data-name="Layer 1" xmlns="http://www.w3.org/2000/svg" viewBox="0 0 150 150">
  <defs>
    <style>
      .cls-1 {
        stroke: #fff;
      }

      .cls-1, .cls-2 {
        fill: none;
        stroke-linecap: round;
        stroke-linejoin: round;
        stroke-width: 4px;
      }

      .cls-2 {
        stroke: #00ca55;
      }
    </style>
  </defs>
  <line class="cls-2" x1="129.05" y1="78.15" x2="129.05" y2="16.15"/>
  <line class="cls-2" x1="129.05" y1="137.15" x2="129.05" y2="95.15"/>
  <polyline class="cls-2" points="104.05 47.15 66.46 47.15 73.33 33.15 66.46 19.15 104.05 19.15"/>
  <polyline class="cls-2" points="104.05 23.15 129.05 23.15 129.05 51.15 104.05 51.15"/>
  <line class="cls-2" x1="104.05" y1="20.15" x2="104.05" y2="51.15"/>
  <line class="cls-1" x1="110.05" y1="114.15" x2="110.05" y2="137.15"/>
  <line class="cls-1" x1="85.05" y1="99.15" x2="107.05" y2="99.15"/>
  <path class="cls-1" d="M108.05,99.15l18.91-19.22c2.21-2.28,5.77-2.38,8.1-.25h0c2.54,2.32,2.66,6.37.25,8.84l-25.27,25.62"/>
  <path class="cls-2" d="M58.05,100.15h15c3.87,0,7,3.13,7,7v30"/>
  <path class="cls-1" d="M52.05,137.15v-30c0-3.87-3.13-7-7-7h-23c-3.87,0-7,3.13-7,7v24c0,3.31,2.69,6,6,6h0c3.31,0,6-2.69,6-6v-16"/>
  <circle class="cls-1" cx="32.05" cy="77.15" r="15"/>
  <path class="cls-2" d="M51.05,66.95c2.74-2.95,6.65-4.8,11-4.8,8.28,0,15,6.72,15,15s-6.72,15-15,15c-3.84,0-7.35-1.44-10-3.82"/>
  <path class="cls-1" d="M80.87,67.15c2.75-3.07,6.74-5,11.18-5,8.28,0,15,6.72,15,15s-6.72,15-15,15c-3.84,0-7.35-1.44-10-3.82"/>
</svg>