<?xml version="1.0" encoding="UTF-8"?>
<svg id="Layer_1" data-name="Layer 1" xmlns="http://www.w3.org/2000/svg" viewBox="0 0 150 150">
  <defs>
    <style>
      .cls-1 {
        stroke: #000;
      }

      .cls-1, .cls-2 {
        fill: none;
        stroke-linecap: round;
        stroke-linejoin: round;
        stroke-width: 4px;
      }

      .cls-2 {
        stroke: #00ca55;
      }
    </style>
  </defs>
  <g>
    <g>
      <line class="cls-1" x1="61.05" y1="57.15" x2="61.05" y2="47.15"/>
      <g>
        <path class="cls-1" d="M53.48,22.77c8.91,8.91,7.54,25.36,7.54,25.36,0,0-16.45,1.37-25.36-7.54s-7.54-25.36-7.54-25.36c0,0,16.45-1.37,25.36,7.54Z"/>
        <path class="cls-1" d="M61.08,48.12s16.45,1.37,25.36-7.54c8.91-8.91,7.54-25.36,7.54-25.36,0,0-16.45-1.37-25.36,7.54-1.2,1.2-2.22,2.55-3.08,3.97"/>
        <polyline class="cls-1" points="43.55 30.65 61.08 48.12 78.55 30.65"/>
      </g>
    </g>
    <g>
      <g>
        <path class="cls-2" d="M49.05,107.15v2c0,4.42,3.58,8,8,8h8c4.42,0,8-3.58,8-8v-3c0-4.42-3.58-8-8-8h-8c-4.42,0-8-3.58-8-8v-3c0-4.42,3.58-8,8-8h8c4.42,0,8,3.58,8,8v2"/>
        <line class="cls-2" x1="61.05" y1="79.15" x2="61.05" y2="73.15"/>
        <line class="cls-2" x1="61.05" y1="123.15" x2="61.05" y2="117.15"/>
      </g>
      <circle class="cls-2" cx="61.05" cy="98.15" r="41"/>
    </g>
  </g>
  <g>
    <path class="cls-1" d="M108.05,85.15v-29h-6.33c-1.76,0-2.66-2.11-1.45-3.38l13.16-13.82c1.97-2.07,5.27-2.07,7.24,0l13.16,13.82c1.21,1.27.31,3.38-1.45,3.38h-6.33v63c0,11.05-8.95,20-20,20h-16"/>
    <line class="cls-1" x1="108.05" y1="121.15" x2="108.05" y2="111.15"/>
  </g>
</svg>