<?xml version="1.0" encoding="UTF-8"?>
<svg id="Layer_1" data-name="Layer 1" xmlns="http://www.w3.org/2000/svg" viewBox="0 0 150 150">
  <defs>
    <style>
      .cls-1 {
        stroke: #fff;
      }

      .cls-1, .cls-2 {
        fill: none;
        stroke-linecap: round;
        stroke-linejoin: round;
        stroke-width: 4px;
      }

      .cls-2 {
        stroke: #f256b6;
      }
    </style>
  </defs>
  <path class="cls-1" d="M61.62,131.28c5.8,2.03,12.03,3.14,18.53,3.14,30.93,0,56-25.07,56-56,0-8.8-2.03-17.13-5.65-24.54"/>
  <path class="cls-1" d="M29.76,53.95c-3.6,7.39-5.61,15.69-5.61,24.47,0,9.6,2.42,18.64,6.68,26.54"/>
  <path class="cls-1" d="M55.74,28c7.38-3.58,15.66-5.59,24.41-5.59,5.53,0,10.87.8,15.92,2.3"/>
  <path class="cls-1" d="M71.15,49.79c2.84-.9,5.87-1.38,9-1.38,16.57,0,30,13.43,30,30s-13.43,30-30,30-30-13.43-30-30c0-3.13.48-6.16,1.38-9"/>
  <polygon class="cls-2" points="71.15 43.41 43.15 15.41 43.15 41.41 17.15 41.41 45.15 69.41 71.15 69.41 71.15 43.41"/>
  <line class="cls-2" x1="71.15" y1="69.41" x2="84.15" y2="82.41"/>
  <circle class="cls-2" cx="43.15" cy="120.41" r="12"/>
  <g>
    <line class="cls-2" x1="126.65" y1="25.91" x2="105.65" y2="46.91"/>
    <line class="cls-2" x1="105.65" y1="25.91" x2="126.65" y2="46.91"/>
  </g>
</svg>