<?xml version="1.0" encoding="UTF-8"?>
<svg id="Layer_1" data-name="Layer 1" xmlns="http://www.w3.org/2000/svg" viewBox="0 0 150 150">
  <defs>
    <style>
      .cls-1 {
        stroke: #fff;
      }

      .cls-1, .cls-2 {
        fill: none;
        stroke-linecap: round;
        stroke-linejoin: round;
        stroke-width: 4px;
      }

      .cls-2 {
        stroke: #f256b6;
      }
    </style>
  </defs>
  <g>
    <line class="cls-2" x1="31.15" y1="62.41" x2="19.15" y2="50.41"/>
    <line class="cls-2" x1="37.15" y1="57.41" x2="37.15" y2="40.41"/>
    <line class="cls-2" x1="28.15" y1="69.41" x2="11.15" y2="69.41"/>
  </g>
  <g>
    <path class="cls-1" d="M49.15,95.41V23.91c0-4.69,3.81-8.5,8.5-8.5h0c4.69,0,8.5,3.81,8.5,8.5v54.5"/>
    <path class="cls-1" d="M73.15,117.41h-20.54c-4.77,0-9.35-1.9-12.73-5.27l-18.73-18.73c-3.31-3.31-3.31-8.69,0-12h0c3.31-3.31,8.69-3.31,12,0l15,15,4.2-4.2c4.92-4.92,12.85-5.09,17.98-.39l2.82,2.59"/>
    <line class="cls-1" x1="56.15" y1="119.41" x2="56.15" y2="135.41"/>
    <line class="cls-1" x1="107.15" y1="115.41" x2="107.15" y2="135.41"/>
    <path class="cls-1" d="M117.15,76.41v23c0,9.94-8.06,18-18,18h0"/>
    <g>
      <path class="cls-1" d="M66.15,53.41c0-4.42,3.58-8,8-8h1c4.42,0,8,3.58,8,8v24c0,4.42-3.58,8-8,8h-1c-4.42,0-8-3.58-8-8"/>
      <path class="cls-1" d="M100.15,77.41c0,4.42-3.58,8-8,8h-1c-4.42,0-8-3.58-8-8"/>
      <path class="cls-1" d="M83.15,53.41c0-4.42,3.58-8,8-8h1c4.42,0,8,3.58,8,8"/>
      <path class="cls-1" d="M100.15,77.41v-24c0-4.42,3.58-8,8-8h1c4.42,0,8,3.58,8,8v24c0,4.42-3.58,8-8,8h-1c-4.42,0-8-3.58-8-8"/>
    </g>
  </g>
</svg>