<?xml version="1.0" encoding="UTF-8"?>
<svg id="Layer_1" data-name="Layer 1" xmlns="http://www.w3.org/2000/svg" viewBox="0 0 150 150">
  <defs>
    <style>
      .cls-1 {
        stroke: #fff;
      }

      .cls-1, .cls-2 {
        fill: none;
        stroke-linecap: round;
        stroke-linejoin: round;
        stroke-width: 4px;
      }

      .cls-2 {
        stroke: #f256b6;
      }
    </style>
  </defs>
  <g>
    <g>
      <circle class="cls-2" cx="121.16" cy="38.41" r="10"/>
      <path class="cls-2" d="M117.21,54.41h7.91c7.2,0,13.05,5.85,13.05,13.05v4.95h-34v-4.95c0-7.2,5.85-13.05,13.05-13.05Z"/>
    </g>
    <g>
      <circle class="cls-2" cx="121.16" cy="92.41" r="10"/>
      <path class="cls-2" d="M117.21,108.41h7.91c7.2,0,13.05,5.85,13.05,13.05v4.95h-34v-4.95c0-7.2,5.85-13.05,13.05-13.05Z"/>
    </g>
  </g>
  <polyline class="cls-2" points="97.66 58.41 78.14 77.04 97.66 96.41"/>
  <g>
    <polyline class="cls-2" points="45.16 89.41 42.16 111.41 50.16 119.41 58.16 111.41 55.16 89.41"/>
    <path class="cls-1" d="M40.51,89.41h19.31c15.64,0,28.34,12.7,28.34,28.34v9.66H12.16v-9.66c0-15.64,12.7-28.34,28.34-28.34Z"/>
    <g>
      <path class="cls-1" d="M49.57,27.42c-11.44.3-20.41,9.46-20.41,20.3v12.08c0,6.06,2.73,11.84,7.5,15.89l6.47,4.49c1.16.8,2.55,1.24,3.99,1.24h6.09c1.43,0,2.83-.43,3.99-1.24l6.47-4.49c4.77-4.04,7.5-9.82,7.5-15.89v-12.5c0-11.17-9.72-20.2-21.59-19.89Z"/>
      <path class="cls-1" d="M29.16,56.41h3c2.21,0,4-1.79,4-4v-6c0-2.21,1.79-4,4-4h20c2.21,0,4,1.79,4,4v6c0,2.21,1.79,4,4,4h3"/>
    </g>
  </g>
</svg>