<?xml version="1.0" encoding="UTF-8"?>
<svg id="Layer_1" data-name="Layer 1" xmlns="http://www.w3.org/2000/svg" viewBox="0 0 150 150">
  <defs>
    <style>
      .cls-1 {
        stroke: #fff;
      }

      .cls-1, .cls-2 {
        fill: none;
        stroke-linecap: round;
        stroke-linejoin: round;
        stroke-width: 4px;
      }

      .cls-2 {
        stroke: #00ca55;
      }
    </style>
  </defs>
  <g>
    <path class="cls-1" d="M105.15,118.41l12,19,12-19v-57c0-1.66-1.34-3-3-3h-18c-1.66,0-3,1.34-3,3v57Z"/>
    <path class="cls-1" d="M108.15,58.41v-10c0-2.21,1.79-4,4-4h10c2.21,0,4,1.79,4,4v10"/>
    <line class="cls-1" x1="105.15" y1="69.41" x2="129.15" y2="69.41"/>
    <line class="cls-1" x1="105.15" y1="118.41" x2="129.15" y2="118.41"/>
    <line class="cls-1" x1="117.15" y1="118.41" x2="117.15" y2="69.41"/>
  </g>
  <g>
    <path class="cls-2" d="M105.15,39.41v-14c0-6.63,5.37-12,12-12h0c6.63,0,12,5.37,12,12v10h-24"/>
    <path class="cls-2" d="M117.15,13.41H35.65c-6.35,0-11.5,5.15-11.5,11.5v110.5c0,1.1.9,2,2,2h79"/>
    <g>
      <g>
        <polyline class="cls-2" points="39.15 33.41 39.15 28.41 67.15 28.41 67.15 33.41"/>
        <line class="cls-2" x1="53.15" y1="28.41" x2="53.15" y2="57.41"/>
      </g>
      <line class="cls-2" x1="48.15" y1="57.41" x2="58.15" y2="57.41"/>
    </g>
    <line class="cls-2" x1="82.15" y1="69.41" x2="92.15" y2="69.41"/>
    <line class="cls-2" x1="39.15" y1="69.41" x2="74.15" y2="69.41"/>
    <line class="cls-2" x1="39.15" y1="86.41" x2="92.15" y2="86.41"/>
    <line class="cls-2" x1="55.15" y1="103.41" x2="92.15" y2="103.41"/>
    <line class="cls-2" x1="39.15" y1="103.41" x2="47.15" y2="103.41"/>
    <line class="cls-2" x1="39.15" y1="120.41" x2="92.15" y2="120.41"/>
    <line class="cls-2" x1="78.15" y1="51.41" x2="92.15" y2="51.41"/>
    <line class="cls-2" x1="78.15" y1="33.41" x2="92.15" y2="33.41"/>
  </g>
</svg>