<?xml version="1.0" encoding="UTF-8"?>
<svg id="Layer_1" data-name="Layer 1" xmlns="http://www.w3.org/2000/svg" viewBox="0 0 150 150">
  <defs>
    <style>
      .cls-1 {
        stroke: #000;
      }

      .cls-1, .cls-2 {
        fill: none;
        stroke-linecap: round;
        stroke-linejoin: round;
        stroke-width: 4px;
      }

      .cls-2 {
        stroke: #00ca55;
      }
    </style>
  </defs>
  <path class="cls-2" d="M97.2,44.41h37.96c3.31,0,6,2.69,6,6v51c0,3.31-2.69,6-6,6h-20.83"/>
  <g>
    <g>
      <path class="cls-1" d="M63.46,13.42c-13.62.36-24.3,11.56-24.3,24.81v14.77c0,7.41,3.25,14.47,8.93,19.42l7.71,5.49c1.38.98,3.04,1.51,4.75,1.51h7.25c1.71,0,3.37-.53,4.75-1.51l7.71-5.49c5.68-4.94,8.93-12,8.93-19.42v-15.27c0-13.66-11.57-24.68-25.7-24.31Z"/>
      <path class="cls-1" d="M39.16,48.41h2c3.31,0,6-2.69,6-6v-5c0-3.31,2.69-6,6-6h22c3.31,0,6,2.69,6,6v5c0,3.31,2.69,6,6,6h2"/>
    </g>
    <path class="cls-1" d="M53.1,89.41h22.13c18.73,0,33.93,15.21,33.93,33.93v12.07H19.16v-12.07c0-18.73,15.21-33.93,33.93-33.93Z"/>
    <polyline class="cls-1" points="58.16 89.41 55.16 117.41 64.16 127.41 73.16 117.41 70.16 89.41"/>
  </g>
  <g>
    <line class="cls-2" x1="94.16" y1="85.41" x2="94.16" y2="63.41"/>
    <line class="cls-2" x1="110.16" y1="85.41" x2="110.16" y2="63.41"/>
    <line class="cls-2" x1="94.16" y1="74.41" x2="110.16" y2="74.41"/>
  </g>
  <g>
    <path class="cls-2" d="M118.16,75.41h9c2.99,0,5-3.04,5-6s-2.01-6-5-6h-9v22"/>
    <line class="cls-2" x1="126.06" y1="75.41" x2="132.66" y2="85.41"/>
  </g>
</svg>