<?xml version="1.0" encoding="UTF-8"?>
<svg id="Layer_1" data-name="Layer 1" xmlns="http://www.w3.org/2000/svg" viewBox="0 0 150 150">
  <defs>
    <style>
      .cls-1 {
        stroke: #fff;
      }

      .cls-1, .cls-2 {
        fill: none;
        stroke-linecap: round;
        stroke-linejoin: round;
        stroke-width: 4px;
      }

      .cls-2 {
        stroke: #f256b6;
      }
    </style>
  </defs>
  <g>
    <g>
      <path class="cls-2" d="M100.38,94.97l4.81-3.84c-1.01-2.1-2.26-4.12-3.77-6.01-1.51-1.9-3.2-3.56-5.02-5.01l-4.82,3.84c-2.31-1.64-4.91-2.91-7.7-3.71v-6.16c-2.27-.52-4.62-.8-7.05-.8s-4.78.28-7.05.8v6.16c-2.79.8-5.39,2.07-7.7,3.71l-4.82-3.84c-1.82,1.45-3.51,3.11-5.02,5.01-1.51,1.9-2.76,3.92-3.77,6.01l4.81,3.84c-1.08,2.59-1.74,5.4-1.9,8.34l-6,1.37c0,2.33.25,4.69.79,7.05.54,2.36,1.34,4.6,2.35,6.69l6-1.37c1.39,2.52,3.2,4.78,5.33,6.68l-2.67,5.55c1.82,1.45,3.82,2.73,6,3.78s4.43,1.82,6.7,2.33l2.67-5.55c1.39.23,2.82.36,4.27.36s2.88-.13,4.27-.36l2.67,5.55c2.27-.52,4.51-1.28,6.7-2.33s4.18-2.33,6-3.78l-2.67-5.55c2.13-1.9,3.94-4.16,5.33-6.68l6,1.37c1.01-2.09,1.81-4.33,2.35-6.69s.79-4.72.79-7.05l-6-1.37c-.16-2.94-.82-5.75-1.9-8.34Z"/>
      <g>
        <path class="cls-2" d="M67.88,111.81v2c0,2.21,1.79,4,4,4h10c2.21,0,4-1.79,4-4v-5c0-2.76-2.24-5-5-5h-8c-2.76,0-5-2.24-5-5v-5c0-2.21,1.79-4,4-4h10c2.21,0,4,1.79,4,4v2"/>
        <line class="cls-2" x1="76.88" y1="89.81" x2="76.88" y2="84.81"/>
        <line class="cls-2" x1="76.88" y1="122.81" x2="76.88" y2="117.81"/>
      </g>
    </g>
    <g>
      <path class="cls-1" d="M42.88,96.81h-26c-1.1,0-2-.9-2-2v-9c0-1.1.9-2,2-2h26"/>
      <path class="cls-1" d="M110.88,83.81h26c1.1,0,2,.9,2,2v9c0,1.1-.9,2-2,2h-26"/>
      <line class="cls-1" x1="23.88" y1="96.81" x2="23.88" y2="135.81"/>
      <line class="cls-1" x1="129.88" y1="96.81" x2="129.88" y2="135.81"/>
    </g>
  </g>
  <g>
    <g>
      <g>
        <circle class="cls-1" cx="76.88" cy="25.81" r="12"/>
        <path class="cls-1" d="M97.88,73.81v-16c0-6.63-5.37-12-12-12h-18c-6.63,0-12,5.37-12,12v16"/>
      </g>
      <line class="cls-1" x1="76.88" y1="53.81" x2="76.88" y2="62.81"/>
    </g>
    <g>
      <g>
        <circle class="cls-1" cx="112.88" cy="35.81" r="12"/>
        <path class="cls-1" d="M133.88,83.81v-16c0-6.63-5.37-12-12-12h-16"/>
      </g>
      <line class="cls-1" x1="112.88" y1="63.81" x2="112.88" y2="72.81"/>
    </g>
    <g>
      <g>
        <circle class="cls-1" cx="40.88" cy="35.81" r="12"/>
        <path class="cls-1" d="M47.88,55.81h-16c-6.63,0-12,5.37-12,12v16"/>
      </g>
      <line class="cls-1" x1="40.88" y1="63.81" x2="40.88" y2="72.81"/>
    </g>
  </g>
</svg>