<?xml version="1.0" encoding="UTF-8"?>
<svg id="Layer_1" data-name="Layer 1" xmlns="http://www.w3.org/2000/svg" viewBox="0 0 150 150">
  <defs>
    <style>
      .cls-1 {
        stroke: #000;
      }

      .cls-1, .cls-2 {
        fill: none;
        stroke-linecap: round;
        stroke-linejoin: round;
        stroke-width: 4px;
      }

      .cls-2 {
        stroke: #f256b6;
      }
    </style>
  </defs>
  <g>
    <path class="cls-1" d="M87.88,139.81H30.88c-4.42,0-8-3.58-8-8v-61"/>
    <line class="cls-1" x1="124.88" y1="70.81" x2="124.88" y2="80.81"/>
    <path class="cls-1" d="M75.88,98.81h-40c-2.21,0-4-1.79-4-4v-24"/>
    <g>
      <polyline class="cls-1" points="132.88 36.81 109.88 16.81 37.88 16.81 14.88 36.81"/>
      <path class="cls-1" d="M29.63,62.81h0c-8.15,0-14.75-6.6-14.75-14.75v-11.25h29.5v11.25c0,8.15-6.6,14.75-14.75,14.75Z"/>
      <path class="cls-1" d="M59.13,62.81h0c-8.15,0-14.75-6.6-14.75-14.75v-11.25h29.5v11.25c0,8.15-6.6,14.75-14.75,14.75Z"/>
      <path class="cls-1" d="M88.63,62.81h0c-8.15,0-14.75-6.6-14.75-14.75v-11.25h29.5v11.25c0,8.15-6.6,14.75-14.75,14.75Z"/>
      <path class="cls-1" d="M118.13,62.81h0c-8.15,0-14.75-6.6-14.75-14.75v-11.25h29.5v11.25c0,8.15-6.6,14.75-14.75,14.75Z"/>
    </g>
  </g>
  <g>
    <circle class="cls-2" cx="108.88" cy="112.81" r="27"/>
    <g>
      <path class="cls-2" d="M99.88,120.81v2c0,2.21,1.79,4,4,4h10c2.21,0,4-1.79,4-4v-5c0-2.76-2.24-5-5-5h-8c-2.76,0-5-2.24-5-5v-5c0-2.21,1.79-4,4-4h10c2.21,0,4,1.79,4,4v2"/>
      <line class="cls-2" x1="108.88" y1="98.81" x2="108.88" y2="93.81"/>
      <line class="cls-2" x1="108.88" y1="131.81" x2="108.88" y2="126.81"/>
    </g>
  </g>
</svg>