<?xml version="1.0" encoding="UTF-8"?>
<svg id="Layer_1" data-name="Layer 1" xmlns="http://www.w3.org/2000/svg" viewBox="0 0 150 150">
  <defs>
    <style>
      .cls-1 {
        stroke: #000;
      }

      .cls-1, .cls-2 {
        fill: none;
        stroke-linecap: round;
        stroke-linejoin: round;
        stroke-width: 4px;
      }

      .cls-2 {
        stroke: #f256b6;
      }
    </style>
  </defs>
  <g>
    <path class="cls-2" d="M89.05,114.67c4.84,3.43,8,9.09,8,15.48v1c0,3.31-2.69,6-6,6h-32c-3.31,0-6-2.69-6-6v-1c0-6.39,3.16-12.04,8-15.48"/>
    <path class="cls-2" d="M85.68,95.15h0c1.86,0,3.37-1.51,3.37-3.37v-3.63c0-7.18-5.82-13-13-13h-2c-7.18,0-13,5.82-13,13v3.63c0,1.86,1.51,3.37,3.37,3.37h0c1.55,0,2.89-1.05,3.27-2.55l.6-2.42c.45-1.78,2.05-3.03,3.88-3.03h5.75c1.84,0,3.44,1.25,3.88,3.03l.6,2.42c.37,1.5,1.72,2.55,3.27,2.55Z"/>
    <path class="cls-2" d="M64.05,101.15v.69c0,2.12.84,4.16,2.34,5.66l1.9,1.9c1.13,1.13,2.65,1.76,4.24,1.76h5.03c1.59,0,3.12-.63,4.24-1.76l1.9-1.9c1.5-1.5,2.34-3.54,2.34-5.66v-.69"/>
    <path class="cls-2" d="M82.05,116.15c0,3.87-3.13,7-7,7-1.94,0-3.68-.78-4.95-2.05s-2.05-3.01-2.05-4.95"/>
  </g>
  <g>
    <path class="cls-1" d="M50.05,114.15h-24c-3.31,0-6-2.69-6-6v-1c0-6.39,3.16-12.04,8-15.48"/>
    <path class="cls-1" d="M52.68,72.15h0c1.86,0,3.37-1.51,3.37-3.37v-3.63c0-7.18-5.82-13-13-13h-2c-7.18,0-13,5.82-13,13v3.63c0,1.86,1.51,3.37,3.37,3.37h0c1.55,0,2.89-1.05,3.27-2.55l.6-2.42c.45-1.78,2.05-3.03,3.88-3.03h5.75c1.84,0,3.44,1.25,3.88,3.03l.6,2.42c.37,1.5,1.72,2.55,3.27,2.55Z"/>
    <path class="cls-1" d="M31.05,78.15v.69c0,2.12.84,4.16,2.34,5.66l1.9,1.9c1.13,1.13,2.65,1.76,4.24,1.76h5.03c1.59,0,3.12-.63,4.24-1.76l1.9-1.9c1.5-1.5,2.34-3.54,2.34-5.66v-.69"/>
    <path class="cls-1" d="M49.05,93.15c0,3.87-3.13,7-7,7-1.94,0-3.68-.78-4.95-2.05s-2.05-3.01-2.05-4.95"/>
  </g>
  <g>
    <path class="cls-1" d="M122.05,91.67c4.84,3.43,8,9.09,8,15.48v1c0,3.31-2.69,6-6,6h-24"/>
    <path class="cls-1" d="M118.68,72.15h0c1.86,0,3.37-1.51,3.37-3.37v-3.63c0-7.18-5.82-13-13-13h-2c-7.18,0-13,5.82-13,13v3.63c0,1.86,1.51,3.37,3.37,3.37h0c1.55,0,2.89-1.05,3.27-2.55l.6-2.42c.45-1.78,2.05-3.03,3.88-3.03h5.75c1.84,0,3.44,1.25,3.88,3.03l.6,2.42c.37,1.5,1.72,2.55,3.27,2.55Z"/>
    <path class="cls-1" d="M97.05,78.15v.69c0,2.12.84,4.16,2.34,5.66l1.9,1.9c1.13,1.13,2.65,1.76,4.24,1.76h5.03c1.59,0,3.12-.63,4.24-1.76l1.9-1.9c1.5-1.5,2.34-3.54,2.34-5.66v-.69"/>
    <path class="cls-1" d="M115.05,93.15c0,3.87-3.13,7-7,7-1.94,0-3.68-.78-4.95-2.05s-2.05-3.01-2.05-4.95"/>
  </g>
  <path class="cls-2" d="M41.05,23.15h-7c-4.42,0-8,3.58-8,8v18"/>
  <path class="cls-2" d="M109.05,23.15h7c4.42,0,8,3.58,8,8v18"/>
  <g>
    <path class="cls-1" d="M73.34,45.86l-8.32,8.32c-2.2,2.2-5.97.64-5.97-2.47v-5.55c0-.55-.45-1-1-1h0c-4.42,0-8-3.58-8-8v-16c0-4.42,3.58-8,8-8h34c4.42,0,8,3.58,8,8v16c0,4.42-3.58,8-8,8h0c-.55,0-1,.45-1,1v5.55c0,3.12-3.77,4.68-5.97,2.47l-8.32-8.32c-.45-.45-1.07-.71-1.71-.71h0c-.64,0-1.25.25-1.71.71Z"/>
    <line class="cls-1" x1="59.05" y1="24.15" x2="91.05" y2="24.15"/>
    <line class="cls-1" x1="59.05" y1="34.15" x2="91.05" y2="34.15"/>
  </g>
</svg>