<?xml version="1.0" encoding="UTF-8"?>
<svg id="Layer_1" data-name="Layer 1" xmlns="http://www.w3.org/2000/svg" viewBox="0 0 150 150">
  <defs>
    <style>
      .cls-1 {
        stroke: #000;
      }

      .cls-1, .cls-2 {
        fill: none;
        stroke-linecap: round;
        stroke-linejoin: round;
        stroke-width: 4px;
      }

      .cls-2 {
        stroke: #f256b6;
      }
    </style>
  </defs>
  <path class="cls-1" d="M91.01,130.5h0c-9.71,0-22.51-8.26-22.51-8.26l11.13-40.46c3.32,3,10.9,8.2,23.69,8.2,5.92,0,12.79-1.2,20.85-4.2l-10.42,39.26c-9.24,4-16.58,5.45-22.75,5.45Z"/>
  <path class="cls-1" d="M51.33,116.58h0c-5.53-3.68-11.49-6.85-19.78-6.85-5.1,0-11.06,1.24-18.72,4.28l10-34.69c7.87-3.21,15.1-4.49,19.57-4.49,7.87,0,14.25,3.42,19.14,6.67-1.28,4.45-8.29,28.23-10.21,35.08Z"/>
  <path class="cls-1" d="M75.46,25.68h0c-2.15,7.18-8.15,28.27-10.08,35.23-5.37-3.48-11.16-6.96-19.32-6.96-6.65,0-13.09,1.96-19.31,4.56l9.87-35.01c7.29-3.05,13.52-4.35,18.45-4.35,6.44,0,11.59,1.09,20.38,6.52Z"/>
  <path class="cls-2" d="M106.14,74.83h0c-9.63,0-17.38-2.97-23.49-6.67h-.23l11.04-35.08c3.53,2.37,11.51,7.1,23.49,7.1,6.11,0,13.15-1.29,21.14-4.52l-11.04,34.48v.17c-7.52,3.27-14.56,4.52-20.9,4.52Z"/>
</svg>