<?xml version="1.0" encoding="UTF-8"?>
<svg id="Layer_1" data-name="Layer 1" xmlns="http://www.w3.org/2000/svg" viewBox="0 0 150 150">
  <defs>
    <style>
      .cls-1 {
        stroke: #000;
      }

      .cls-1, .cls-2 {
        fill: none;
        stroke-linecap: round;
        stroke-linejoin: round;
        stroke-width: 4px;
      }

      .cls-2 {
        stroke: #f256b6;
      }
    </style>
  </defs>
  <rect class="cls-1" x="14.15" y="75.41" width="54" height="18" rx="7" ry="7"/>
  <rect class="cls-1" x="15.15" y="57.41" width="52" height="18" rx="7" ry="7"/>
  <rect class="cls-1" x="15.15" y="39.41" width="52" height="18" rx="7" ry="7"/>
  <rect class="cls-1" x="25.15" y="25.41" width="42" height="14" rx="7" ry="7"/>
  <path class="cls-2" d="M62.37,99.35l-.38,1.25c-.56,1.86-.84,3.8-.84,5.75v7.7c0,4.87.89,9.69,2.62,14.24l3.23,8.48c1.3,3.4,4.55,5.64,8.18,5.64h.21c2.42,0,4.61-.98,6.2-2.56,1.58-1.59,2.56-3.78,2.56-6.2,0-.16,0-.32-.01-.48l-.64-11.52c-.23-4.13.29-8.26,1.54-12.2l3.61-11.33c.98-3.08,2.78-5.84,5.2-7.99l.19-.17c3.29-2.93,7.55-4.55,11.95-4.55h7.16c10.49,0,19-8.51,19-19v-19c0-10.49-8.51-19-19-19h-14c-1.3,0-2.57-.41-3.63-1.16l-4.55-3.25c-5.08-3.64-11.18-5.59-17.43-5.59h-31.39c-1.32,0-2.55.36-3.6,1"/>
</svg>