<?xml version="1.0" encoding="UTF-8"?>
<svg id="Layer_1" data-name="Layer 1" xmlns="http://www.w3.org/2000/svg" viewBox="0 0 150 150">
  <defs>
    <style>
      .cls-1 {
        fill: #f256b6;
        fill-rule: evenodd;
        stroke: #f256b6;
        stroke-miterlimit: 10;
      }

      .cls-1, .cls-2 {
        stroke-width: 4px;
      }

      .cls-2 {
        fill: none;
        stroke: #fff;
        stroke-linecap: round;
        stroke-linejoin: round;
      }
    </style>
  </defs>
  <rect class="cls-2" x="122.88" y="10.84" width="18.88" height="16.52"/>
  <rect class="cls-2" x="122.88" y="124.12" width="18.88" height="18.88"/>
  <rect class="cls-2" x="9.6" y="10.84" width="16.52" height="16.52"/>
  <rect class="cls-2" x="9.6" y="124.12" width="16.52" height="18.88"/>
  <line class="cls-2" x1="26.12" y1="17.92" x2="122.88" y2="17.92"/>
  <line class="cls-2" x1="16.68" y1="124.12" x2="16.68" y2="27.36"/>
  <line class="cls-2" x1="122.88" y1="135.92" x2="26.12" y2="135.92"/>
  <line class="cls-2" x1="132.32" y1="27.36" x2="132.32" y2="124.12"/>
  <path class="cls-1" d="M50.14,105.89v-55.38c0-1.6-1.28-2.89-2.86-2.89h-14.77c-1.58,0-2.86-1.3-2.86-2.89v-1.49c0-1.6,1.28-2.89,2.86-2.89h43.84c1.58,0,2.86,1.3,2.86,2.89v1.49c0,1.6-1.28,2.89-2.86,2.89h-14.77c-1.58,0-2.86,1.3-2.86,2.89v55.38c0,1.6-1.28,2.89-2.86,2.89h-2.86c-1.58,0-2.86-1.3-2.86-2.89h-.01Z"/>
  <path class="cls-1" d="M103.45,108.78c-3.53,0-6.36-.68-8.48-2.02-2.11-1.35-3.62-3.25-4.52-5.71-.9-2.46-1.35-5.3-1.35-8.54v-24.27c0-1.54-1.29-2.78-2.88-2.78h-1.77c-1.6,0-2.88-1.25-2.88-2.78v-.78c0-1.47,1.19-2.7,2.72-2.78l2.74-.16c1.46-.08,2.62-1.19,2.71-2.6l.59-8.69c.1-1.47,1.36-2.61,2.88-2.61h1.48c1.6,0,2.88,1.25,2.88,2.78v8.18c0,1.54,1.29,2.78,2.88,2.78h8c1.6,0,2.88,1.25,2.88,2.78v1.08c0,1.54-1.29,2.78-2.88,2.78h-8c-1.6,0-2.88,1.25-2.88,2.78v24.53c0,2.93.57,5.23,1.72,6.88,1.15,1.65,3.18,2.47,6.1,2.47.93,0,1.92-.14,2.98-.4,0,0,.02,0,.03,0,1.55-.4,3.14.46,3.54,1.96l.2.73c.4,1.48-.51,3-2.04,3.4-.59.16-1.21.31-1.83.44-1.61.36-3.23.54-4.84.54Z"/>
</svg>