<?xml version="1.0" encoding="UTF-8"?>
<svg id="Layer_1" data-name="Layer 1" xmlns="http://www.w3.org/2000/svg" viewBox="0 0 150 150">
  <defs>
    <style>
      .cls-1 {
        stroke: #000;
      }

      .cls-1, .cls-2 {
        fill: none;
        stroke-linecap: round;
        stroke-linejoin: round;
        stroke-width: 4px;
      }

      .cls-2 {
        stroke: #00ca55;
      }
    </style>
  </defs>
  <g>
    <g>
      <path class="cls-2" d="M37.15,97.41h76v38c0,1.1-.9,2-2,2H39.15c-1.1,0-2-.9-2-2v-38h0Z"/>
      <line class="cls-2" x1="75.15" y1="137.41" x2="75.15" y2="97.41"/>
      <path class="cls-2" d="M75.15,97.41l7.17-7.17c1.81-1.81,2.83-4.27,2.83-6.83h0c0-1.1.9-2,2-2h34c1.1,0,2,.9,2,2h0c0,2.56-1.02,5.02-2.83,6.83l-7.17,7.17"/>
      <path class="cls-2" d="M75.15,97.41l-7.17-7.17c-1.81-1.81-2.83-4.27-2.83-6.83h0c0-1.1-.9-2-2-2H29.15c-1.1,0-2,.9-2,2h0c0,2.56,1.02,5.02,2.83,6.83l7.17,7.17"/>
    </g>
    <line class="cls-1" x1="105.15" y1="121.41" x2="97.15" y2="121.41"/>
    <line class="cls-1" x1="105.15" y1="129.41" x2="93.15" y2="129.41"/>
  </g>
  <circle class="cls-2" cx="75.15" cy="28.41" r="14"/>
  <path class="cls-1" d="M31.39,14.88l3.47,7.04,8.42,1.22c1.79.26,2.5,2.45,1.21,3.71l-6.09,5.94,1.31,7.63c.36,2.09-1.83,3.68-3.71,2.69l-6.85-3.6-6.85,3.6c-1.88.99-4.07-.61-3.71-2.69l1.31-7.63-6.09-5.94c-1.29-1.26-.58-3.45,1.21-3.71l8.42-1.22,3.47-7.04c.46-.93,1.35-1.47,2.24-1.47s1.78.54,2.24,1.47Z"/>
  <path class="cls-1" d="M115.38,15.51l-13.66,22.12c-1.56,2.53.26,5.78,3.22,5.78h28.41c2.97,0,4.78-3.26,3.22-5.78l-13.66-22.12c-1.73-2.8-5.81-2.8-7.54,0Z"/>
  <polyline class="cls-2" points="69.15 68.41 75.15 74.41 81.15 68.41"/>
  <line class="cls-2" x1="75.15" y1="74.41" x2="75.15" y2="54.41"/>
  <g>
    <polyline class="cls-1" points="45.15 69.41 53.15 69.41 53.15 61.41"/>
    <line class="cls-1" x1="53.15" y1="69.41" x2="38.15" y2="54.41"/>
  </g>
  <g>
    <polyline class="cls-1" points="105.15 69.41 97.15 69.41 97.15 61.41"/>
    <line class="cls-1" x1="97.15" y1="69.41" x2="112.15" y2="54.41"/>
  </g>
</svg>