<?xml version="1.0" encoding="UTF-8"?>
<svg id="Layer_1" data-name="Layer 1" xmlns="http://www.w3.org/2000/svg" viewBox="0 0 150 150">
  <defs>
    <style>
      .cls-1 {
        stroke: #000;
      }

      .cls-1, .cls-2 {
        fill: none;
        stroke-linecap: round;
        stroke-linejoin: round;
        stroke-width: 4px;
      }

      .cls-2 {
        stroke: #ff6a3b;
      }
    </style>
  </defs>
  <g>
    <path class="cls-2" d="M112.67,100.81c1.23-1.66,2.35-3.4,3.36-5.22l11.07,2.53c1.86-3.86,3.34-7.98,4.34-12.34,1-4.36,1.45-8.71,1.45-13l-11.07-2.53c-.3-5.42-1.52-10.6-3.5-15.38l8.87-7.07c-1.86-3.87-4.16-7.59-6.95-11.09-2.79-3.5-5.91-6.57-9.26-9.24l-8.88,7.08c-4.26-3.03-9.05-5.37-14.2-6.85v-11.35c-4.18-.96-8.53-1.48-13-1.48s-8.82.52-13,1.48v11.35c-5.15,1.48-9.94,3.82-14.2,6.85l-8.88-7.08c-3.36,2.67-6.48,5.74-9.26,9.24-2.79,3.5-5.09,7.22-6.95,11.09l8.87,7.07c-1.98,4.78-3.2,9.95-3.5,15.38l-11.07,2.53c0,4.29.45,8.64,1.45,13,.99,4.36,2.47,8.48,4.34,12.34l11.07-2.53c1.01,1.82,2.13,3.56,3.36,5.22"/>
    <path class="cls-2" d="M65.88,100.39c-11.61-3.79-20-14.7-20-27.58,0-16.02,12.98-29,29-29s29,12.98,29,29c0,12.87-8.39,23.79-20,27.58"/>
  </g>
  <g>
    <line class="cls-2" x1="42.88" y1="121.81" x2="59.88" y2="121.81"/>
    <line class="cls-2" x1="89.88" y1="121.81" x2="106.88" y2="121.81"/>
    <g>
      <circle class="cls-1" cx="27.88" cy="121.81" r="15"/>
      <circle class="cls-1" cx="27.88" cy="121.81" r="1"/>
    </g>
    <g>
      <circle class="cls-1" cx="74.88" cy="121.81" r="15"/>
      <circle class="cls-1" cx="74.88" cy="121.81" r="1"/>
    </g>
    <g>
      <circle class="cls-2" cx="121.88" cy="121.81" r="15"/>
      <polyline class="cls-2" points="116.38 121.31 120.88 125.81 128.38 118.31"/>
    </g>
  </g>
</svg>