<?xml version="1.0" encoding="UTF-8"?>
<svg id="Layer_1" data-name="Layer 1" xmlns="http://www.w3.org/2000/svg" viewBox="0 0 150 150">
  <defs>
    <style>
      .cls-1 {
        stroke: #fff;
      }

      .cls-1, .cls-2 {
        fill: none;
        stroke-linecap: round;
        stroke-linejoin: round;
        stroke-width: 4px;
      }

      .cls-2 {
        stroke: #f256b6;
      }
    </style>
  </defs>
  <g>
    <path class="cls-1" d="M50.16,37.41v-12.6c0-2.98,2.57-5.4,5.75-5.4h34.5c3.18,0,5.75,2.42,5.75,4.45v12.6"/>
    <path class="cls-1" d="M48.16,125.41h-26.37c-4.22,0-7.63-3.42-7.63-7.63V45.05c0-4.22,3.42-7.63,7.63-7.63h102.74c4.22,0,7.63,3.42,7.63,7.63v32.34"/>
    <path class="cls-1" d="M65.16,78.41h-10c-10.85,0-20.56-5.67-26.02-15.09l-13.32-23.03"/>
    <path class="cls-1" d="M130.5,40.29l-13.32,23.03c-5.45,9.43-15.17,15.09-26.02,15.09h-10"/>
    <rect class="cls-1" x="65.16" y="70.41" width="16" height="18" rx="2" ry="2"/>
  </g>
  <g>
    <path class="cls-2" d="M106.36,117.49l-42.5,11.39c-3.2.86-6.49-1.04-7.35-4.24h0c-.86-3.2,1.04-6.49,4.24-7.35l42.5-11.39"/>
    <g>
      <rect class="cls-2" x="104.4" y="92.59" width="24" height="32" transform="translate(-24.14 33.83) rotate(-15)"/>
      <path class="cls-2" d="M100.66,96.24l-.97.26c-2.13.57-4.33-.69-4.9-2.83h0c-.57-2.13.69-4.33,2.83-4.9l25.11-6.73c2.13-.57,4.33.69,4.9,2.83h0c.57,2.13-.69,4.33-2.83,4.9l-.97.26"/>
      <path class="cls-2" d="M132.13,120.94l.97-.26c2.13-.57,4.33.69,4.9,2.83h0c.57,2.13-.69,4.33-2.83,4.9l-25.11,6.73c-2.13.57-4.33-.69-4.9-2.83h0c-.57-2.13.69-4.33,2.83-4.9l.97-.26"/>
    </g>
  </g>
</svg>