<?xml version="1.0" encoding="UTF-8"?>
<svg id="Layer_1" data-name="Layer 1" xmlns="http://www.w3.org/2000/svg" viewBox="0 0 150 150">
  <defs>
    <style>
      .cls-1 {
        stroke: #000;
      }

      .cls-1, .cls-2 {
        fill: none;
        stroke-linecap: round;
        stroke-linejoin: round;
        stroke-width: 4px;
      }

      .cls-2 {
        stroke: #ff6a3b;
      }
    </style>
  </defs>
  <g>
    <path class="cls-2" d="M63.38,52.31c2.73-2.73,6.62-4.5,10.5-4.5s7.77,1.77,10.5,4.5"/>
    <path class="cls-2" d="M56.38,45.31c4.69-4.69,11.1-7.5,17.5-7.5s12.81,2.81,17.5,7.5"/>
    <circle class="cls-2" cx="73.88" cy="59.81" r="1"/>
  </g>
  <g>
    <g>
      <path class="cls-2" d="M97.88,100.81v18c0,2.21-1.79,4-4,4h-40c-2.21,0-4-1.79-4-4v-18"/>
      <path class="cls-2" d="M62.88,82.81v-7c0-1.66,1.34-3,3-3h16c1.66,0,3,1.34,3,3v7"/>
      <path class="cls-2" d="M49.88,100.81h48c1.66,0,3-1.34,3-3v-10.5c0-2.49-2.01-4.5-4.5-4.5h-45c-2.49,0-4.5,2.01-4.5,4.5v10.5c0,1.66,1.34,3,3,3Z"/>
    </g>
    <path class="cls-2" d="M66.88,100.81v6c0,1.1.9,2,2,2h10c1.1,0,2-.9,2-2v-6"/>
  </g>
  <g>
    <path class="cls-1" d="M70.38,15.26l-51.53,50.7c-2.55,2.51-.77,6.85,2.81,6.85h8.23v58c0,2.21,1.79,4,4,4h80c2.21,0,4-1.79,4-4v-58h8.23c3.58,0,5.36-4.34,2.81-6.85L77.39,15.26c-1.95-1.91-5.07-1.91-7.01,0Z"/>
    <line class="cls-1" x1="29.88" y1="72.81" x2="47.88" y2="72.81"/>
    <line class="cls-1" x1="117.88" y1="72.81" x2="99.88" y2="72.81"/>
  </g>
</svg>