<?xml version="1.0" encoding="UTF-8"?>
<svg id="Layer_1" data-name="Layer 1" xmlns="http://www.w3.org/2000/svg" viewBox="0 0 150 150">
  <defs>
    <style>
      .cls-1 {
        stroke: #fff;
      }

      .cls-1, .cls-2 {
        fill: none;
        stroke-linecap: round;
        stroke-linejoin: round;
        stroke-width: 4px;
      }

      .cls-2 {
        stroke: #00ca55;
      }
    </style>
  </defs>
  <g>
    <path class="cls-2" d="M72.74,71.52c.54-.45,1.1-.89,1.67-1.3l.02-.02c5.8-4.27,12.97-6.79,20.72-6.79,19.33,0,35,15.67,35,35s-15.67,35-35,35-35-15.67-35-35c0-4.11.71-8.05,2.01-11.72"/>
    <path class="cls-2" d="M89.15,112.41h10c2.76,0,5-2.24,5-5v-4c0-2.76-2.24-5-5-5h-8c-2.76,0-5-2.24-5-5v-4c0-2.76,2.24-5,5-5h10"/>
    <line class="cls-2" x1="95.15" y1="84.41" x2="95.15" y2="80.41"/>
    <line class="cls-2" x1="95.15" y1="116.41" x2="95.15" y2="112.41"/>
  </g>
  <line class="cls-1" x1="119.15" y1="63.41" x2="119.15" y2="45.95"/>
  <line class="cls-1" x1="71.15" y1="63.41" x2="71.15" y2="45.95"/>
  <path class="cls-1" d="M59.67,37.41l35.48-13.99,35.48,13.99c.99.3,1.52,1.16,1.52,2.01s-.53,1.7-1.52,2.01l-35.48,13.99-35.48-13.99c-.99-.3-1.52-1.16-1.52-2.01s.53-1.7,1.52-2.01Z"/>
  <line class="cls-1" x1="132.15" y1="39.41" x2="132.15" y2="51.41"/>
  <circle class="cls-1" cx="132.15" cy="55.41" r="4"/>
  <circle class="cls-1" cx="36.15" cy="68.41" r="9"/>
  <path class="cls-1" d="M42.15,96.41c.69-.2,1.37-.4,2.03-.61,4.28,5.54,10.98,17.57,5.42,33.9-.28.81-1.48.68-1.55-.18-.43-4.8-2.19-13.08-8.9-19.11,0,0-7.46,15.75-22.39,21.59-.85.33-1.61-.36-1.61-1.11,0-.27.1-.54.32-.78,4.42-4.8,11.68-14.26,11.68-24.7v-9c0-6.63,5.37-12,12-12h1c12,0,24.56-6.42,34.28-14.21,0,0-4.07,17.32-30.25,25.6"/>
</svg>