<?xml version="1.0" encoding="UTF-8"?>
<svg id="Layer_1" data-name="Layer 1" xmlns="http://www.w3.org/2000/svg" viewBox="0 0 150 150">
  <defs>
    <style>
      .cls-1 {
        stroke: #fff;
      }

      .cls-1, .cls-2 {
        fill: none;
        stroke-linecap: round;
        stroke-linejoin: round;
        stroke-width: 4px;
      }

      .cls-2 {
        stroke: #00ca55;
      }
    </style>
  </defs>
  <path class="cls-1" d="M71.15,66.41v2c0,1.1-.9,2-2,2h-32c-1.1,0-2-.9-2-2v-4c0-4.42,3.58-8,8-8h8"/>
  <path class="cls-1" d="M51.3,50.27c-5.75-.89-10.15-5.86-10.15-11.86,0-6.63,5.37-12,12-12,1.41,0,2.77.24,4.02.69"/>
  <path class="cls-1" d="M103.15,56.41h8c4.42,0,8,3.58,8,8v4c0,1.1-.9,2-2,2h-32c-1.1,0-2-.9-2-2v-2"/>
  <path class="cls-1" d="M97.13,27.1c1.25-.45,2.61-.69,4.02-.69,6.63,0,12,5.37,12,12,0,6-4.4,10.97-10.15,11.86"/>
  <path class="cls-2" d="M67.15,44.41h20c4.42,0,8,3.58,8,8v4c0,1.1-.9,2-2,2h-32c-1.1,0-2-.9-2-2v-4c0-4.42,3.58-8,8-8Z"/>
  <circle class="cls-2" cx="77.15" cy="26.41" r="12"/>
  <g>
    <g>
      <path class="cls-2" d="M39.15,98.41h76v38c0,1.1-.9,2-2,2H41.15c-1.1,0-2-.9-2-2v-38h0Z"/>
      <line class="cls-2" x1="77.15" y1="138.41" x2="77.15" y2="98.41"/>
      <path class="cls-2" d="M77.15,98.41l7.17-7.17c1.81-1.81,2.83-4.27,2.83-6.83h0c0-1.1.9-2,2-2h34c1.1,0,2,.9,2,2h0c0,2.56-1.02,5.02-2.83,6.83l-7.17,7.17"/>
      <path class="cls-2" d="M77.15,98.41l-7.17-7.17c-1.81-1.81-2.83-4.27-2.83-6.83h0c0-1.1-.9-2-2-2H31.15c-1.1,0-2,.9-2,2h0c0,2.56,1.02,5.02,2.83,6.83l7.17,7.17"/>
    </g>
    <line class="cls-1" x1="107.15" y1="122.41" x2="99.15" y2="122.41"/>
    <line class="cls-1" x1="107.15" y1="130.41" x2="95.15" y2="130.41"/>
  </g>
</svg>