<?xml version="1.0" encoding="UTF-8"?>
<svg id="Layer_1" data-name="Layer 1" xmlns="http://www.w3.org/2000/svg" viewBox="0 0 150 150">
  <defs>
    <style>
      .cls-1 {
        stroke: #000;
      }

      .cls-1, .cls-2 {
        fill: none;
        stroke-linecap: round;
        stroke-linejoin: round;
        stroke-width: 4px;
      }

      .cls-2 {
        stroke: #f256b6;
      }
    </style>
  </defs>
  <path class="cls-1" d="M82.07,122.28c-2.88-1.45-5.93-1.19-8.61.15l-30.86,15.52c-1.48.74-3.47.11-4.6-.79-1.13-.91-1.96-2.59-1.7-4.33l5.12-33.91c.42-2.81-.32-5.86-2.29-7.87l-22.27-25.35c-1.36-1.39-1.81-3.06-1.22-4.99.4-1.3,1.7-2.81,3.54-3.11l31.41-4.87c3.65-.61,6.09-2.4,7.76-5.66l15.19-30.92c.88-1.73,2.32-2.82,4.13-2.94,1.61-.1,3.54.75,4.4,2.44l15.73,31.9c1.6,3.11,4.13,4.63,7.5,5.18l31.11,5.47c1.85.31,3.21,1.58,3.7,2.89.77,2.04.32,3.82-1.12,5.29l-21.38,23.77c-1.94,1.97-3.75,4.65-3.31,7.6l5.26,35.07c.26,1.75-.53,3.4-1.66,4.32-1.29,1.06-3.24,1.53-4.86.72l-30.96-15.56h0Z"/>
  <line class="cls-2" x1="38.99" y1="23.36" x2="43.71" y2="28.08"/>
  <line class="cls-2" x1="135.76" y1="96.52" x2="140.48" y2="98.88"/>
  <line class="cls-2" x1="20.11" y1="98.88" x2="15.39" y2="101.24"/>
  <line class="cls-2" x1="114.51" y1="28.08" x2="116.87" y2="23.36"/>
</svg>