<?xml version="1.0" encoding="UTF-8"?>
<svg id="Layer_1" data-name="Layer 1" xmlns="http://www.w3.org/2000/svg" viewBox="0 0 150 150">
  <defs>
    <style>
      .cls-1 {
        stroke: #fff;
      }

      .cls-1, .cls-2 {
        fill: none;
        stroke-linecap: round;
        stroke-linejoin: round;
        stroke-width: 4px;
      }

      .cls-2 {
        stroke: #f256b6;
      }
    </style>
  </defs>
  <g>
    <g>
      <path class="cls-2" d="M38.15,97.41h76v38c0,1.1-.9,2-2,2H40.15c-1.1,0-2-.9-2-2v-38h0Z"/>
      <line class="cls-2" x1="76.15" y1="137.41" x2="76.15" y2="97.41"/>
      <path class="cls-2" d="M76.15,97.41l7.17-7.17c1.81-1.81,2.83-4.27,2.83-6.83h0c0-1.1.9-2,2-2h34c1.1,0,2,.9,2,2h0c0,2.56-1.02,5.02-2.83,6.83l-7.17,7.17"/>
      <path class="cls-2" d="M76.15,97.41l-7.17-7.17c-1.81-1.81-2.83-4.27-2.83-6.83h0c0-1.1-.9-2-2-2H30.15c-1.1,0-2,.9-2,2h0c0,2.56,1.02,5.02,2.83,6.83l7.17,7.17"/>
    </g>
    <line class="cls-1" x1="106.15" y1="121.41" x2="98.15" y2="121.41"/>
    <line class="cls-1" x1="106.15" y1="129.41" x2="94.15" y2="129.41"/>
  </g>
  <circle class="cls-1" cx="76.15" cy="50.41" r="9"/>
  <path class="cls-1" d="M81.22,73.41h12.93v-30.89c0-4.66-1.25-9.22-3.62-13.23l-6.84-11.58c-.78-1.33-1.9-2.4-3.2-3.15-1.3-.74-2.79-1.15-4.34-1.15-3.1,0-5.97,1.64-7.54,4.3l-6.84,11.58c-2.37,4.01-3.62,8.57-3.62,13.23v30.89h12.93"/>
  <path class="cls-1" d="M58.15,47.41l-16.34,16.34c-1.06,1.06-1.66,2.5-1.66,4h0c0,3.12,2.53,5.66,5.66,5.66h12.34"/>
  <path class="cls-1" d="M94.15,47.41l16.34,16.34c1.06,1.06,1.66,2.5,1.66,4h0c0,3.12-2.53,5.66-5.66,5.66h-12.34"/>
  <path class="cls-1" d="M62.61,27.87l2.61,2.61c1.88,1.88,4.42,2.93,7.07,2.93h7.72c2.65,0,5.19-1.05,7.07-2.93l2.61-2.61"/>
  <path class="cls-1" d="M82.15,66.41l-1.47,11.04c-.3,2.27-2.24,3.96-4.53,3.96h0c-2.29,0-4.23-1.7-4.53-3.96l-1.47-11.04"/>
</svg>