<?xml version="1.0" encoding="UTF-8"?>
<svg id="Layer_1" data-name="Layer 1" xmlns="http://www.w3.org/2000/svg" viewBox="0 0 150 150">
  <defs>
    <style>
      .cls-1 {
        stroke: #fff;
      }

      .cls-1, .cls-2 {
        fill: none;
        stroke-linecap: round;
        stroke-linejoin: round;
        stroke-width: 4px;
      }

      .cls-2 {
        stroke: #ff6a3b;
      }
    </style>
  </defs>
  <polyline class="cls-1" points="100.79 12.98 100.79 12.96 100.29 12.96 39.29 12.96"/>
  <path class="cls-1" d="M78.79,126.96h-45c-7.73,0-14-6.27-14-14V32.46"/>
  <line class="cls-1" x1="100.79" y1="51.95" x2="100.79" y2="67.96"/>
  <path class="cls-1" d="M56.69,51.96h44.1c10.54-.27,19-8.9,19-19.5s-8.46-19.23-19-19.48c-.16-.02-.33-.02-.5-.02"/>
  <path class="cls-1" d="M56.79,51.96h-.1c-2.16-.05-3.9-1.82-3.9-4,0-.69.18-1.34.48-1.9.01-.01.01-.02.01-.02v.02-.02c.41-.42.81-.86,1.17-1.32,2.72-3.35,4.34-7.62,4.34-12.26,0-10.77-8.73-19.5-19.5-19.5s-19.5,8.73-19.5,19.5"/>
  <g>
    <path class="cls-2" d="M122.79,114.48c4.84,3.43,8,9.09,8,15.48v1c0,3.31-2.69,6-6,6h-32c-3.31,0-6-2.69-6-6v-1c0-6.39,3.16-12.04,8-15.48"/>
    <path class="cls-2" d="M119.42,94.96h0c1.86,0,3.37-1.51,3.37-3.37v-3.63c0-7.18-5.82-13-13-13h-2c-7.18,0-13,5.82-13,13v3.63c0,1.86,1.51,3.37,3.37,3.37h0c1.55,0,2.89-1.05,3.27-2.55l.6-2.42c.45-1.78,2.05-3.03,3.88-3.03h5.75c1.84,0,3.44,1.25,3.88,3.03l.6,2.42c.37,1.5,1.72,2.55,3.27,2.55Z"/>
    <path class="cls-2" d="M97.79,100.96v.69c0,2.12.84,4.16,2.34,5.66l1.9,1.9c1.13,1.13,2.65,1.76,4.24,1.76h5.03c1.59,0,3.12-.63,4.24-1.76l1.9-1.9c1.5-1.5,2.34-3.54,2.34-5.66v-.69"/>
    <path class="cls-2" d="M115.79,115.96c0,3.87-3.13,7-7,7-1.94,0-3.68-.78-4.95-2.05s-2.05-3.01-2.05-4.95"/>
  </g>
  <g>
    <path class="cls-1" d="M38.79,100.96v-13c0-3.87,3.13-7,7-7h30c3.87,0,7,3.13,7,7v13"/>
    <line class="cls-1" x1="60.79" y1="100.96" x2="60.79" y2="72.96"/>
    <rect class="cls-1" x="31.79" y="100.96" width="14" height="10" rx="3" ry="3"/>
    <rect class="cls-1" x="53.79" y="100.96" width="14" height="10" rx="3" ry="3"/>
    <rect class="cls-1" x="47.79" y="62.96" width="26" height="10" rx="3" ry="3"/>
    <rect class="cls-1" x="75.79" y="100.96" width="14" height="10" rx="3" ry="3"/>
  </g>
</svg>