<?xml version="1.0" encoding="UTF-8"?>
<svg id="Layer_1" data-name="Layer 1" xmlns="http://www.w3.org/2000/svg" viewBox="0 0 150 150">
  <defs>
    <style>
      .cls-1 {
        stroke: #000;
      }

      .cls-1, .cls-2 {
        fill: none;
        stroke-linecap: round;
        stroke-linejoin: round;
        stroke-width: 4px;
      }

      .cls-2 {
        stroke: #ff6a3b;
      }
    </style>
  </defs>
  <path class="cls-1" d="M19.15,135.41V17.41c0-3.31,2.69-6,6-6h104c3.31,0,6,2.69,6,6v118"/>
  <g>
    <rect class="cls-1" x="101.15" y="23.41" width="18" height="12" rx="2" ry="2"/>
    <rect class="cls-1" x="101.15" y="44.41" width="18" height="12" rx="2" ry="2"/>
    <rect class="cls-1" x="101.15" y="65.41" width="18" height="12" rx="2" ry="2"/>
  </g>
  <g>
    <g>
      <path class="cls-1" d="M105.15,98.41h-57v37c0,.55.45,1,1,1h55c.55,0,1-.45,1-1v-37Z"/>
      <path class="cls-1" d="M57.15,106.41v11c5.52,0,10,4.48,10,10h19c0-5.52,4.48-10,10-10v-11"/>
    </g>
    <path class="cls-2" d="M40.15,107.41h-2c-2.21,0-4-1.79-4-4v-10c0-2.21,1.79-4,4-4h77c2.21,0,4,1.79,4,4v10c0,2.21-1.79,4-4,4h-2"/>
    <line class="cls-2" x1="48.15" y1="98.41" x2="34.15" y2="98.41"/>
    <line class="cls-2" x1="105.15" y1="98.41" x2="111.15" y2="98.41"/>
  </g>
  <g>
    <g>
      <path class="cls-2" d="M54.15,57.41v2c0,2.76,2.24,5,5,5h8c2.76,0,5-2.24,5-5v-4c0-2.76-2.24-5-5-5h-8c-2.76,0-5-2.24-5-5v-4c0-2.76,2.24-5,5-5h8c2.76,0,5,2.24,5,5v2"/>
      <line class="cls-2" x1="63.15" y1="36.41" x2="63.15" y2="31.41"/>
      <line class="cls-2" x1="63.15" y1="69.41" x2="63.15" y2="64.41"/>
    </g>
    <rect class="cls-2" x="36.15" y="23.41" width="54" height="54" rx="4" ry="4"/>
  </g>
</svg>