<?xml version="1.0" encoding="UTF-8"?>
<svg id="Layer_1" data-name="Layer 1" xmlns="http://www.w3.org/2000/svg" viewBox="0 0 150 150">
  <defs>
    <style>
      .cls-1 {
        stroke: #fff;
      }

      .cls-1, .cls-2 {
        fill: none;
        stroke-linecap: round;
        stroke-linejoin: round;
        stroke-width: 4px;
      }

      .cls-2 {
        stroke: #00ca55;
      }
    </style>
  </defs>
  <polyline class="cls-1" points="85.15 21.41 133.15 21.41 133.15 78.41"/>
  <g>
    <path class="cls-2" d="M77.57,118.41h55.58v-27.33c0-2.03-1.64-3.67-3.67-3.67h-4.67c-2.03,0-3.67,1.64-3.67,3.67v13.33h-51v-6c0-3.87-3.13-7-7-7h-13c-3.87,0-7,3.13-7,7v26.34c0,3.68,2.98,6.66,6.66,6.66h13.34c3.87,0,7-3.13,7-7v-6h7.42Z"/>
    <circle class="cls-2" cx="56.65" cy="111.41" r="5.5"/>
  </g>
  <g>
    <circle class="cls-1" cx="37.15" cy="47.41" r="13"/>
    <path class="cls-1" d="M55.15,29.48c2.3-3.65,6.37-6.07,11-6.07,7.18,0,13,5.82,13,13s-5.82,13-13,13c-2.58,0-4.98-.75-7-2.04"/>
    <path class="cls-1" d="M56.15,57.41h21c3.87,0,7,3.13,7,7v17"/>
    <path class="cls-1" d="M56.15,84.41v-9c0-3.87-3.13-7-7-7h-22c-3.87,0-7,3.13-7,7v40c0,3.31,2.69,6,6,6h0c3.31,0,6-2.69,6-6v-27"/>
  </g>
  <path class="cls-1" d="M112.5,53.76l3.65,24.65h-18l3.65-24.65c.15-.98-.21-1.99-.98-2.62-2.49-2.03-3.97-5.24-3.62-8.77.47-4.61,4.19-8.38,8.8-8.9,6.03-.67,11.15,4.04,11.15,9.94,0,3.13-1.44,5.92-3.69,7.75-.76.62-1.11,1.63-.96,2.6Z"/>
</svg>