<?xml version="1.0" encoding="UTF-8"?>
<svg id="Layer_1" data-name="Layer 1" xmlns="http://www.w3.org/2000/svg" viewBox="0 0 150 150">
  <defs>
    <style>
      .cls-1 {
        fill: none;
        stroke: #000;
        stroke-linecap: round;
        stroke-linejoin: round;
        stroke-width: 4px;
      }
    </style>
  </defs>
  <path class="cls-1" d="M140.05,44.2h0c-3.94,1.7-7.44,1.91-11.16,0,4.82-2.76,5.03-4.67,6.78-9.77-4.6,2.55-9.41,4.46-14.66,5.31-4.16-4.25-10.07-6.8-16.42-6.8-12.74,0-22.76,9.77-22.76,22.09,0,1.7,0,3.4.39,4.89-18.78-.85-35.63-9.77-46.84-22.94-1.93,3.19-3.06,7.01-3.06,11.05,0,7.65,3.94,14.45,10.07,18.27-3.68,0-7.18-1.06-10.29-2.76v.42c0,10.62,7.88,19.54,18.17,21.67-3.28.85-6.78,1.06-10.29.42,3.11,8.71,11.38,15.08,21.23,15.3-9.63,7.44-21.62,10.41-33.71,9.13,10.33,6.16,22.11,9.98,35.06,9.98,41.8,0,64.79-33.78,64.79-62.88v-2.97c4.38-3.19,9.63-5.95,12.69-10.41"/>
</svg>