<?xml version="1.0" encoding="UTF-8"?>
<svg id="Layer_1" data-name="Layer 1" xmlns="http://www.w3.org/2000/svg" viewBox="0 0 150 150">
  <defs>
    <style>
      .cls-1 {
        stroke: #fff;
      }

      .cls-1, .cls-2 {
        fill: none;
        stroke-linecap: round;
        stroke-linejoin: round;
        stroke-width: 4px;
      }

      .cls-2 {
        stroke: #ff6a3b;
      }
    </style>
  </defs>
  <line class="cls-2" x1="39.9" y1="103.85" x2="6.86" y2="136.89"/>
  <line class="cls-1" x1="46.98" y1="114.93" x2="32.82" y2="129.09"/>
  <line class="cls-2" x1="32.82" y1="96.77" x2="18.66" y2="110.93"/>
  <polygon class="cls-1" points="42.26 85.83 63.61 105.49 70.58 99.08 49.33 79.53 42.26 85.83"/>
  <polygon class="cls-1" points="42.26 71.39 78.65 105.49 80.02 93.39 54.73 70.09 42.26 71.39"/>
  <path class="cls-1" d="M75.89,36.71h0c-23.15-7.97-43.21,1.76-49.05,33.19l-1.11,2.72,29.75-3.27c7.3-14.36,14.03-24.72,20.4-32.65,14.06-16.5,32.34-24.3,55.43-30.09,5.92-1.48,11.26,3.95,9.82,9.95-5.62,23.45-13.02,42.27-29.33,56.48-7.83,6.45-18.07,13.25-32.26,20.64"/>
  <path class="cls-1" d="M112.94,72.45h0c8.32,23.52-4.55,41.64-34.79,48.47l-2.85,1.1,3.43-29.4c15.05-7.22,25.91-13.86,34.22-20.16"/>
  <circle class="cls-2" cx="101.26" cy="42.49" r="9.44"/>
  <path class="cls-1" d="M113.06,13.45c3.3,11.33,10.29,18.51,21.24,21.24"/>
</svg>