<?xml version="1.0" encoding="UTF-8"?>
<svg id="Layer_1" data-name="Layer 1" xmlns="http://www.w3.org/2000/svg" viewBox="0 0 150 150">
  <defs>
    <style>
      .cls-1 {
        stroke: #fff;
      }

      .cls-1, .cls-2 {
        fill: none;
        stroke-linecap: round;
        stroke-linejoin: round;
        stroke-width: 4px;
      }

      .cls-2 {
        stroke: #00ca55;
      }
    </style>
  </defs>
  <path class="cls-1" d="M125.15,23.69c7.4,1.4,13,7.9,13,15.72v72c0,8.84-7.16,16-16,16H30.15c-8.84,0-16-7.16-16-16V39.41c0-7.82,5.6-14.32,13.01-15.72"/>
  <circle class="cls-2" cx="46.15" cy="27.41" r="13"/>
  <path class="cls-2" d="M58.52,71.54l-1.46.29c-1.94.39-3.91.58-5.88.58h-10.06c-1.98,0-3.95-.2-5.88-.58l-1.46-.29c-3.27-.65-5.63-3.53-5.63-6.86v-4.8c0-3.96,2.24-7.58,5.78-9.35h0c2.78-1.39,5.84-2.11,8.94-2.11h6.56c3.1,0,6.17.72,8.94,2.11h0c3.54,1.77,5.78,5.39,5.78,9.35v4.8c0,3.34-2.36,6.21-5.63,6.86Z"/>
  <g>
    <path class="cls-1" d="M93.15,28.41s0,15-11,18c0,0,2.72-7.97,1.25-14.97-.13-.6-.64-1.03-1.25-1.03h0c-3.87,0-7-3.13-7-7v-4c0-3.87,3.13-7,7-7h4c3.87,0,7,3.13,7,7v9"/>
    <path class="cls-1" d="M119.15,28.41s0,15-11,18c0,0,2.72-7.97,1.25-14.97-.13-.6-.64-1.03-1.25-1.03h0c-3.87,0-7-3.13-7-7v-4c0-3.87,3.13-7,7-7h4c3.87,0,7,3.13,7,7v9"/>
  </g>
  <line class="cls-2" x1="78.15" y1="55.41" x2="124.15" y2="55.41"/>
  <line class="cls-2" x1="78.15" y1="71.41" x2="124.15" y2="71.41"/>
  <path class="cls-2" d="M58.39,83.88l3.47,7.04,8.42,1.22c1.79.26,2.5,2.45,1.21,3.71l-6.09,5.94,1.31,7.63c.36,2.09-1.83,3.68-3.71,2.69l-6.85-3.6-6.85,3.6c-1.88.99-4.07-.61-3.71-2.69l1.31-7.63-6.09-5.94c-1.29-1.26-.58-3.45,1.21-3.71l8.42-1.22,3.47-7.04c.46-.93,1.35-1.47,2.24-1.47s1.78.54,2.24,1.47Z"/>
  <path class="cls-2" d="M98.39,83.88l3.47,7.04,8.42,1.22c1.79.26,2.5,2.45,1.21,3.71l-6.09,5.94,1.31,7.63c.36,2.09-1.83,3.68-3.71,2.69l-6.85-3.6-6.85,3.6c-1.88.99-4.07-.61-3.71-2.69l1.31-7.63-6.09-5.94c-1.29-1.26-.58-3.45,1.21-3.71l8.42-1.22,3.47-7.04c.46-.93,1.35-1.47,2.24-1.47s1.78.54,2.24,1.47Z"/>
</svg>