<svg viewBox="0 0 581.52 235.37" xmlns="http://www.w3.org/2000/svg" xmlns:xlink="http://www.w3.org/1999/xlink" id="Logotype" overflow="hidden"><defs></defs><rect x="1000.94" y="407.25" width="37.93" height="37.93" display="none"/><g><rect x="-6757.65" y="4542.85" width="431.92" height="431.92" fill="#00CA55" display="none"/><rect x="-7203.87" y="4542.85" width="431.92" height="431.92" fill="#00CA55" display="none"/><rect x="-7650.91" y="4542.85" width="431.92" height="431.92" fill="#00CA55" display="none"/></g><g><g><rect x="-5890.93" y="3507.68" width="100.3" height="100.3" display="none"/><rect x="-5994" y="3507.68" width="100.3" height="100.3" display="none"/><rect x="-6097.07" y="3507.68" width="100.3" height="100.3" display="none"/><rect x="-6096.98" y="3610.09" width="100.3" height="100.3" display="none"/><rect x="-5993.9" y="3610.09" width="100.3" height="100.3" display="none"/><rect x="-5890.83" y="3610.09" width="100.3" height="100.3" display="none"/><rect x="-6200.14" y="3507.68" width="100.3" height="100.3" display="none"/><rect x="-6303.22" y="3507.68" width="100.3" height="100.3" display="none"/><rect x="-6406.29" y="3507.68" width="100.3" height="100.3" display="none"/><rect x="-6406.19" y="3610.09" width="100.3" height="100.3" display="none"/><rect x="-6303.12" y="3610.09" width="100.3" height="100.3" display="none"/><rect x="-6200.05" y="3610.09" width="100.3" height="100.3" display="none"/></g><g><rect x="-5890.93" y="3713.34" width="100.3" height="100.3" display="none"/><rect x="-5994" y="3713.34" width="100.3" height="100.3" display="none"/><rect x="-6097.07" y="3713.34" width="100.3" height="100.3" display="none"/><rect x="-6096.98" y="3815.75" width="100.3" height="100.3" display="none"/><rect x="-5993.9" y="3815.75" width="100.3" height="100.3" display="none"/><rect x="-5890.83" y="3815.75" width="100.3" height="100.3" display="none"/><rect x="-6200.14" y="3713.34" width="100.3" height="100.3" display="none"/><rect x="-6303.22" y="3713.34" width="100.3" height="100.3" display="none"/><rect x="-6406.29" y="3713.34" width="100.3" height="100.3" display="none"/><rect x="-6406.19" y="3815.75" width="100.3" height="100.3" display="none"/><rect x="-6303.12" y="3815.75" width="100.3" height="100.3" display="none"/><rect x="-6200.05" y="3815.75" width="100.3" height="100.3" display="none"/></g></g><rect x="-1434.87" y="1981.41" width="450" height="1124.76" fill="#FF6B08" display="none"/><g><g><g><rect x="424.66" y="78.45" rx="4.25" ry="4.25" width="22.12" height="22.12"/><path d="M498.1 78.45 481.94 78.45C479.17 78.45 476.92 80.7 476.92 83.47L476.92 98.42C476.92 101.83 474.16 104.59 470.75 104.59L455.8 104.59C453.03 104.59 450.78 106.84 450.78 109.61L450.78 124.56C450.78 127.97 448.02 130.73 444.61 130.73L429.66 130.73C426.89 130.73 424.64 132.98 424.64 135.75L424.64 151.91C424.64 154.68 426.89 156.93 429.66 156.93L445.82 156.93C448.59 156.93 450.84 154.68 450.84 151.91L450.84 136.96C450.84 133.55 453.6 130.79 457.01 130.79L471.96 130.79C474.73 130.79 476.98 128.54 476.98 125.77L476.98 110.82C476.98 107.41 479.74 104.65 483.15 104.65L498.1 104.65C500.87 104.65 503.12 102.4 503.12 99.63L503.12 83.47C503.12 80.7 500.87 78.45 498.1 78.45Z"/><rect x="476.9" y="130.7" rx="5.03" ry="5.03" width="26.21" height="26.21"/></g><path d="M378.87 78.45 363.43 78.45C363.43 78.45 342.58 78.45 342.58 78.45L342.58 156.91 379.6 156.91C401.55 156.91 419.34 138.8 418.82 116.73 418.31 95.31 400.29 78.45 378.86 78.45ZM379.6 133.92 363.42 133.92 363.42 101.44 379.6 101.44C388.55 101.44 395.84 108.73 395.84 117.68 395.84 126.63 388.55 133.92 379.6 133.92Z"/></g><path d="M325.75 179.06 325.67 116.17C324.8 94.65 307.12 77.42 285.36 77.42 268.72 77.42 254.43 87.5 248.24 101.86 246.24 82.25 229.24 78.34 219.37 78.34 204.38 78.34 191.27 87.48 190.28 101.45 189.34 95.47 187.29 91.85 183.01 87.3 177.01 81.03 165.77 78.11 157.36 78.11 150.21 78.11 141.02 80.23 134.73 84.72 128.45 80.23 119.26 78.11 112.11 78.11 103.7 78.11 92.47 81.02 86.46 87.3 79.53 94.65 78.45 99.59 78.45 116.01L78.45 156.9 100.61 156.9 100.61 117.08C100.61 111.07 100.75 100.66 112.11 100.66 123.47 100.66 123.61 111.08 123.61 117.08L123.61 156.9 145.87 156.9 145.87 117.08C145.87 111.07 146.02 100.66 157.37 100.66 168.72 100.66 168.87 111.08 168.87 117.08L168.87 156.9 191.03 156.9 191.03 141.42C196.13 154.97 210.17 158.76 219.93 158.76 234.97 158.76 247.79 150.82 250.18 137.65 257.11 149.92 270.27 158.21 285.37 158.21 292.08 158.21 298.39 156.55 303.96 153.65L303.96 179.04 325.77 179.04ZM220.19 140.74C219.23 140.74 212.59 140.74 211.64 133.82L191.01 133.82 191.01 116.02C191.01 112.97 190.97 110.32 190.87 107.98 192.99 115.39 199.99 120.24 208.11 122.84 222.48 128.4 228.05 129.08 228.05 134.91 228.05 138.57 223.98 140.74 220.19 140.74ZM224.26 109.54C218.28 107.79 212.73 105.48 212.73 101.4 212.73 99.37 214.36 96.39 219.11 96.39 225.76 96.39 226.03 100.46 226.16 102.09L248.15 102.09C246.1 106.93 244.96 112.25 244.96 117.83 244.96 118.16 244.98 118.49 244.99 118.83 239.86 113.88 231.92 111.67 224.27 109.54ZM285.35 136.71C274.78 136.71 266.21 128.14 266.21 117.57 266.21 107 274.77 98.43 285.35 98.43 295.93 98.43 304.49 106.99 304.49 117.57 304.49 128.15 295.93 136.71 285.35 136.71Z"/></g></svg>