<?xml version="1.0" encoding="UTF-8"?>
<svg id="Layer_1" data-name="Layer 1" xmlns="http://www.w3.org/2000/svg" viewBox="0 0 150 150">
  <defs>
    <style>
      .cls-1 {
        stroke: #fff;
      }

      .cls-1, .cls-2 {
        fill: none;
        stroke-linecap: round;
        stroke-linejoin: round;
        stroke-width: 4px;
      }

      .cls-2 {
        stroke: #f256b6;
      }
    </style>
  </defs>
  <path class="cls-1" d="M33.76,77.73l5-13.74c1.44-3.95,5.19-6.58,9.4-6.58h23.99c4.21,0,7.96,2.63,9.4,6.58l5,13.74c.4,1.1,1.11,2.05,2.04,2.75l8.97,6.73c1.01.76,1.6,1.94,1.6,3.2v16c0,2.21-1.79,4-4,4H25.15c-2.21,0-4-1.79-4-4v-16c0-1.26.59-2.44,1.6-3.2l8.97-6.73c.93-.7,1.64-1.65,2.04-2.75Z"/>
  <path class="cls-1" d="M20.15,82.41h-1c-2.21,0-4-1.79-4-4h0c0-2.21,1.79-4,4-4h8"/>
  <path class="cls-1" d="M100.15,82.41h1c2.21,0,4-1.79,4-4h0c0-2.21-1.79-4-4-4h-8"/>
  <path class="cls-1" d="M27.15,110.41h12v10c0,1.1-.9,2-2,2h-8c-1.1,0-2-.9-2-2v-10h0Z"/>
  <path class="cls-1" d="M81.15,110.41h12v10c0,1.1-.9,2-2,2h-8c-1.1,0-2-.9-2-2v-10h0Z"/>
  <path class="cls-1" d="M34.15,100.41v-4c0-1.1.9-2,2-2h8c1.1,0,2,.9,2,2v4"/>
  <path class="cls-1" d="M74.15,100.41v-4c0-1.1.9-2,2-2h8c1.1,0,2,.9,2,2v4"/>
  <line class="cls-1" x1="42.15" y1="80.41" x2="78.15" y2="80.41"/>
  <path class="cls-1" d="M139.15,61.41h0c0,.64-.25,1.25-.71,1.71l-15.59,15.59c-.45.45-1.07.71-1.71.71h0c-.64,0-1.25-.25-1.71-.71l-29.29-29.29v-17c0-1.1.9-2,2-2h17l29.29,29.29c.45.45.71,1.07.71,1.71Z"/>
  <circle class="cls-2" cx="103.15" cy="43.41" r="4"/>
  <path class="cls-2" d="M99.15,43.41s-25.44-15.58-36-2c-7,9,4,23,4,23"/>
</svg>