<?xml version="1.0" encoding="UTF-8"?>
<svg id="Layer_1" data-name="Layer 1" xmlns="http://www.w3.org/2000/svg" viewBox="0 0 150 150">
  <defs>
    <style>
      .cls-1 {
        stroke: #000;
      }

      .cls-1, .cls-2 {
        fill: none;
        stroke-linecap: round;
        stroke-linejoin: round;
        stroke-width: 4px;
      }

      .cls-2 {
        stroke: #f256b6;
      }
    </style>
  </defs>
  <g>
    <path class="cls-1" d="M67.79,76.48c4.84,3.43,8,9.09,8,15.48v1c0,3.31-2.69,6-6,6h-32c-3.31,0-6-2.69-6-6v-1c0-6.39,3.16-12.04,8-15.48"/>
    <path class="cls-1" d="M64.42,56.96h0c1.86,0,3.37-1.51,3.37-3.37v-3.63c0-7.18-5.82-13-13-13h-2c-7.18,0-13,5.82-13,13v3.63c0,1.86,1.51,3.37,3.37,3.37h0c1.55,0,2.89-1.05,3.27-2.55l.6-2.42c.45-1.78,2.05-3.03,3.88-3.03h5.75c1.84,0,3.44,1.25,3.88,3.03l.6,2.42c.37,1.5,1.72,2.55,3.27,2.55Z"/>
    <path class="cls-1" d="M42.79,62.96v.69c0,2.12.84,4.16,2.34,5.66l1.9,1.9c1.13,1.13,2.65,1.76,4.24,1.76h5.03c1.59,0,3.12-.63,4.24-1.76l1.9-1.9c1.5-1.5,2.34-3.54,2.34-5.66v-.69"/>
    <path class="cls-1" d="M60.79,77.96c0,3.87-3.13,7-7,7-1.94,0-3.68-.78-4.95-2.05s-2.05-3.01-2.05-4.95"/>
  </g>
  <path class="cls-2" d="M136.79,113.96v4c0,3.31-2.69,6-6,6H18.79c-3.31,0-6-2.69-6-6v-4c0-3.31,2.69-6,6-6h34.05c3.17,0,6.21,1.26,8.45,3.5h0c2.24,2.24,5.28,3.5,8.45,3.5h10.1c3.17,0,6.21-1.26,8.45-3.5h0c2.24-2.24,5.28-3.5,8.45-3.5h34.05c3.31,0,6,2.69,6,6Z"/>
  <g>
    <circle class="cls-1" cx="99.79" cy="41.96" r="18"/>
    <rect class="cls-1" x="93.79" y="30.96" width="12" height="16" rx="5" ry="5"/>
    <line class="cls-1" x1="105.79" y1="38.96" x2="99.79" y2="38.96"/>
    <line class="cls-1" x1="99.79" y1="46.96" x2="99.79" y2="51.96"/>
    <line class="cls-1" x1="96.79" y1="52.96" x2="102.79" y2="52.96"/>
  </g>
  <g>
    <circle class="cls-1" cx="99.79" cy="82.96" r="18"/>
    <rect class="cls-1" x="90.29" y="75.46" width="12" height="15" rx="5" ry="5" transform="translate(13.32 179.25) rotate(-90)"/>
    <path class="cls-1" d="M103.79,83.96l4.63,4.63c.5.5,1.37.15,1.37-.57v-10.14c0-.71-.86-1.07-1.37-.57l-4.63,4.63"/>
  </g>
  <path class="cls-2" d="M74.79,28.96h-37c-8.84,0-16,7.16-16,16v63"/>
  <path class="cls-1" d="M127.79,107.96v-63c0-4.58-1.92-8.7-5-11.62"/>
</svg>