<?xml version="1.0" encoding="UTF-8"?>
<svg id="Layer_1" data-name="Layer 1" xmlns="http://www.w3.org/2000/svg" viewBox="0 0 150 150">
  <defs>
    <style>
      .cls-1 {
        stroke: #fff;
      }

      .cls-1, .cls-2 {
        fill: none;
        stroke-linecap: round;
        stroke-linejoin: round;
        stroke-width: 4px;
      }

      .cls-2 {
        stroke: #00ca55;
      }
    </style>
  </defs>
  <path class="cls-1" d="M111.1,50.38c6.5,9.2,10.32,20.41,10.32,32.53,0,31.14-25.25,56.39-56.4,56.39S8.64,114.05,8.64,82.92s25.25-56.39,56.39-56.39c12.24,0,23.57,3.9,32.8,10.52"/>
  <path class="cls-1" d="M101.81,61.83c4.03,6.43,6.35,14.05,6.35,22.21,0,23.2-18.81,42.01-42.02,42.01s-42.01-18.81-42.01-42.01,18.81-42.02,42.01-42.02c8.2,0,15.83,2.35,22.29,6.4"/>
  <path class="cls-1" d="M90.31,73.09c1.53,3.33,2.37,7.03,2.37,10.93,0,14.66-11.89,26.54-26.54,26.54s-26.53-11.89-26.53-26.54,11.88-26.53,26.53-26.53c3.86,0,7.52.81,10.82,2.31"/>
  <path class="cls-1" d="M64.09,72.97c-5.13.99-9.01,5.52-9.01,10.95,0,6.17,4.98,11.17,11.12,11.17,5.55,0,10.16-4.07,10.99-9.41"/>
  <polyline class="cls-2" points="66.14 80.28 122.62 23.91 120.09 7.3 107.13 19.99 107.13 39.55 126.81 39.55 139.12 27.31 122.62 23.91"/>
</svg>