<?xml version="1.0" encoding="UTF-8"?>
<svg id="Layer_1" data-name="Layer 1" xmlns="http://www.w3.org/2000/svg" viewBox="0 0 150 150">
  <defs>
    <style>
      .cls-1 {
        stroke: #fff;
      }

      .cls-1, .cls-2 {
        fill: none;
        stroke-linecap: round;
        stroke-linejoin: round;
        stroke-width: 4px;
      }

      .cls-2 {
        stroke: #f256b6;
      }
    </style>
  </defs>
  <line class="cls-1" x1="37.15" y1="117.41" x2="81.15" y2="117.41"/>
  <g>
    <line class="cls-1" x1="61.15" y1="28.41" x2="75.15" y2="28.41"/>
    <line class="cls-1" x1="43.15" y1="28.41" x2="49.15" y2="28.41"/>
  </g>
  <path class="cls-2" d="M93.15,58.41l12.92,14.96c3.96,4.59,6.44,10.27,7.11,16.3l2.98,26.84c.65,5.87,2.59,11.52,5.69,16.55l3.3,5.36"/>
  <line class="cls-2" x1="80.15" y1="138.41" x2="78.26" y2="132.41"/>
  <path class="cls-2" d="M101.15,88.41l-10.5-14c-2.49-3.31-7.19-3.99-10.5-1.5h0c-3.31,2.49-3.99,7.19-1.5,10.5l7.9,10.53c1.69,2.25,2.6,4.99,2.6,7.8v9.87c0,3.71,1.48,7.27,4.1,9.9l3.4,3.4"/>
  <path class="cls-2" d="M61.39,40.88l3.47,7.04,8.42,1.22c1.79.26,2.5,2.45,1.21,3.71l-6.09,5.94,1.31,7.63c.36,2.09-1.83,3.68-3.71,2.69l-6.85-3.6-6.85,3.6c-1.88.99-4.07-.61-3.71-2.69l1.31-7.63-6.09-5.94c-1.29-1.26-.58-3.45,1.21-3.71l8.42-1.22,3.47-7.04c.46-.93,1.35-1.47,2.24-1.47s1.78.54,2.24,1.47Z"/>
  <path class="cls-2" d="M61.39,78.88l3.47,7.04,8.42,1.22c1.79.26,2.5,2.45,1.21,3.71l-6.09,5.94,1.31,7.63c.36,2.09-1.83,3.68-3.71,2.69l-6.85-3.6-6.85,3.6c-1.88.99-4.07-.61-3.71-2.69l1.31-7.63-6.09-5.94c-1.29-1.26-.58-3.45,1.21-3.71l8.42-1.22,3.47-7.04c.46-.93,1.35-1.47,2.24-1.47s1.78.54,2.24,1.47Z"/>
  <path class="cls-1" d="M91.36,128.1c-1.79,2.6-4.8,4.31-8.21,4.31h-48c-5.52,0-10-4.48-10-10V24.41c0-5.52,4.48-10,10-10h48c5.52,0,10,4.48,10,10v44.02"/>
</svg>