<?xml version="1.0" encoding="UTF-8"?>
<svg id="Layer_1" data-name="Layer 1" xmlns="http://www.w3.org/2000/svg" viewBox="0 0 150 150">
  <defs>
    <style>
      .cls-1 {
        stroke: #000;
      }

      .cls-1, .cls-2 {
        fill: none;
        stroke-linecap: round;
        stroke-linejoin: round;
        stroke-width: 4px;
      }

      .cls-2 {
        stroke: #00ca55;
      }
    </style>
  </defs>
  <g>
    <rect class="cls-2" x="18.15" y="93.41" width="16" height="38" rx="2" ry="2"/>
    <path class="cls-2" d="M72.89,107.41l14.27-14.13c4.41-4.36,1.32-11.87-4.88-11.87h0c-2.65,0-5.19,1.02-7.1,2.85l-20.02,19.15h-21"/>
    <path class="cls-2" d="M78.15,102.41h20l24-24c3.31-3.31,8.69-3.31,12,0h0c3.31,3.31,3.31,8.69,0,12l-33.49,33.49c-2.25,2.25-5.3,3.51-8.49,3.51h-58.03"/>
  </g>
  <g>
    <path class="cls-1" d="M28.64,44.9c3.32-3.32,8.7-3.32,12.02,0,3.32,3.32,3.32,8.7,0,12.02-3.32,3.32-8.7,3.32-12.02,0-3.32-3.32-3.32-8.7,0-12.02Z"/>
    <path class="cls-1" d="M74.35,61.41h52.8l10-10-12-12-10,10-10-10-9,9-9-9h-13.18c-1.53-3.92-3.88-7.6-7.05-10.77-12.3-12.31-32.24-12.31-44.54,0-12.31,12.3-12.31,32.24,0,44.54,12.3,12.31,32.24,12.31,44.54,0,3.44-3.44,5.92-7.47,7.43-11.77Z"/>
  </g>
</svg>