<?xml version="1.0" encoding="UTF-8"?>
<svg id="Layer_1" data-name="Layer 1" xmlns="http://www.w3.org/2000/svg" viewBox="0 0 150 150">
  <defs>
    <style>
      .cls-1 {
        stroke: #fff;
      }

      .cls-1, .cls-2 {
        fill: none;
        stroke-linecap: round;
        stroke-linejoin: round;
        stroke-width: 4px;
      }

      .cls-2 {
        stroke: #00ca55;
      }
    </style>
  </defs>
  <g>
    <path class="cls-1" d="M39,84.94v7c0,3.31,2.69,6,6,6h19"/>
    <path class="cls-1" d="M113,84.94v7c0,3.31-2.69,6-6,6h-19"/>
    <path class="cls-2" d="M104,119.94h-6l-7.31-10.97c-1.75-2.63-2.69-5.72-2.69-8.88v-7.16c0-6.63-5.37-12-12-12s-12,5.37-12,12v7.16c0,3.16-.94,6.25-2.69,8.88l-7.31,10.97h-6c-3.31,0-6,2.69-6,6v4c0,2.21,1.79,4,4,4h60c2.21,0,4-1.79,4-4v-4c0-3.31-2.69-6-6-6Z"/>
    <line class="cls-2" x1="54" y1="119.94" x2="88" y2="119.94"/>
    <circle class="cls-1" cx="76" cy="92.94" r="1"/>
    <path class="cls-2" d="M53.6,84.94h-29.21c-2.11,0-4.06-1.11-5.14-2.91l-4.25-7.09h48l-4.25,7.09c-1.08,1.81-3.04,2.91-5.14,2.91Z"/>
    <path class="cls-2" d="M98.39,84.94h29.21c2.11,0,4.06-1.11,5.14-2.91l4.25-7.09h-48l4.25,7.09c1.08,1.81,3.04,2.91,5.14,2.91Z"/>
  </g>
  <g>
    <path class="cls-1" d="M131,42.94c0-.69-.04-1.37-.12-2.04-.09-.78.31-1.53.99-1.93l2.32-1.34c1.43-.83,1.93-2.66,1.1-4.1l-3-5.2c-.83-1.43-2.66-1.93-4.1-1.1l-2.33,1.34c-.68.39-1.52.36-2.15-.1-1.09-.81-2.28-1.49-3.54-2.04-.72-.31-1.16-1.03-1.16-1.81v-2.69c0-1.66-1.34-3-3-3h-6c-1.66,0-3,1.34-3,3v2.69c0,.78-.45,1.5-1.16,1.81-1.26.55-2.45,1.23-3.54,2.04-.63.46-1.48.49-2.15.1l-2.33-1.34c-1.43-.83-3.27-.34-4.1,1.1l-3,5.2c-.83,1.43-.34,3.27,1.1,4.1l2.32,1.34c.68.39,1.08,1.15.99,1.93-.08.67-.12,1.35-.12,2.04s.04,1.37.12,2.04c.09.78-.31,1.53-.99,1.93l-2.32,1.34c-1.43.83-1.93,2.66-1.1,4.1l3,5.2c.83,1.43,2.66,1.93,4.1,1.1l2.33-1.34c.68-.39,1.52-.36,2.15.1,1.09.81,2.28,1.49,3.54,2.04.72.31,1.16,1.03,1.16,1.81v2.69c0,1.66,1.34,3,3,3h6c1.66,0,3-1.34,3-3v-2.69c0-.78.45-1.5,1.16-1.81,1.26-.55,2.45-1.23,3.54-2.04.63-.46,1.48-.49,2.15-.1l2.33,1.34c1.43.83,3.27.34,4.1-1.1l3-5.2c.83-1.43.34-3.27-1.1-4.1l-2.32-1.34c-.68-.39-1.08-1.15-.99-1.93.08-.67.12-1.35.12-2.04Z"/>
    <circle class="cls-1" cx="113" cy="42.94" r="8"/>
  </g>
  <g>
    <path class="cls-1" d="M32.93,25.45l-17.88,30.99c-2.69,4.67.68,10.5,6.06,10.5h35.76c5.39,0,8.76-5.83,6.06-10.5l-17.88-30.99c-2.69-4.67-9.43-4.67-12.13,0Z"/>
    <g>
      <line class="cls-1" x1="39" y1="36.78" x2="39" y2="49.94"/>
      <line class="cls-1" x1="39" y1="57.94" x2="39" y2="56.94"/>
    </g>
  </g>
</svg>