<?xml version="1.0" encoding="UTF-8"?>
<svg id="Layer_1" data-name="Layer 1" xmlns="http://www.w3.org/2000/svg" viewBox="0 0 150 150">
  <defs>
    <style>
      .cls-1 {
        stroke: #fff;
      }

      .cls-1, .cls-2 {
        fill: none;
        stroke-linecap: round;
        stroke-linejoin: round;
        stroke-width: 4px;
      }

      .cls-2 {
        stroke: #f256b6;
      }
    </style>
  </defs>
  <path class="cls-2" d="M43.15,81.41v-9c0-3.86,3.13-7,7-7l44.02-.02"/>
  <path class="cls-2" d="M94.17,65.39l25.98-25.98v26h6c3.87,0,7,3.13,7,7v54c0,3.87-3.13,7-7,7H50.15c-3.87,0-7-3.13-7-7v-15"/>
  <g>
    <path class="cls-1" d="M107.15,71.41v9c0,3.86-3.13,7-7,7l-44.02.02"/>
    <path class="cls-1" d="M56.13,87.43l-25.98,25.98v-26h-6c-3.87,0-7-3.13-7-7V26.41c0-3.87,3.13-7,7-7h76c3.87,0,7,3.13,7,7v15"/>
  </g>
  <g>
    <circle class="cls-1" cx="39.15" cy="43.41" r="6"/>
    <circle class="cls-1" cx="61.15" cy="43.41" r="6"/>
    <circle class="cls-1" cx="83.15" cy="43.41" r="6"/>
  </g>
  <g>
    <circle class="cls-2" cx="67.15" cy="109.41" r="6"/>
    <circle class="cls-2" cx="89.15" cy="109.41" r="6"/>
    <circle class="cls-2" cx="111.15" cy="109.41" r="6"/>
  </g>
</svg>