<?xml version="1.0" encoding="UTF-8"?>
<svg id="Layer_1" data-name="Layer 1" xmlns="http://www.w3.org/2000/svg" viewBox="0 0 150 150">
  <defs>
    <style>
      .cls-1 {
        stroke: #000;
      }

      .cls-1, .cls-2 {
        fill: none;
        stroke-linecap: round;
        stroke-linejoin: round;
        stroke-width: 4px;
      }

      .cls-2 {
        stroke: #00ca55;
      }
    </style>
  </defs>
  <path class="cls-1" d="M45.09,87.89h-23.34c-6.67,0-12.07-5.4-12.07-12.07v-18.34c0-6.67,5.4-12.07,12.07-12.07h23.34"/>
  <path class="cls-1" d="M108.81,80.81v25.96s-13.58-15.02-44.84-17.97"/>
  <path class="cls-1" d="M63.97,45.84c13.1-1.34,32.53-5.72,44.84-19.3v28.32"/>
  <polygon class="cls-1" points="21.49 123.29 21.49 87.89 31.82 87.89 42.73 123.29 21.49 123.29"/>
  <line class="cls-1" x1="54.53" y1="52.49" x2="54.53" y2="80.81"/>
  <ellipse class="cls-1" cx="108.81" cy="67.83" rx="14.16" ry="12.98"/>
  <path class="cls-2" d="M118.25,47.77c6.98,3.52,11.8,11.18,11.8,20.06s-4.82,16.55-11.8,20.06"/>
  <path class="cls-2" d="M118.25,38.33c12.33,3.85,21.24,15.07,21.24,28.31s-8.91,24.48-21.24,28.33"/>
</svg>