<?xml version="1.0" encoding="UTF-8"?>
<svg id="Layer_1" data-name="Layer 1" xmlns="http://www.w3.org/2000/svg" viewBox="0 0 150 150">
  <defs>
    <style>
      .cls-1 {
        stroke: #fff;
      }

      .cls-1, .cls-2 {
        fill: none;
        stroke-linecap: round;
        stroke-linejoin: round;
        stroke-width: 4px;
      }

      .cls-2 {
        stroke: #f256b6;
      }
    </style>
  </defs>
  <path class="cls-1" d="M62.05,131.15H17.05c-2.76,0-5-2.24-5-5v-12c0-2.76,2.24-5,5-5h19c2.76,0,5-2.24,5-5v-12c0-2.76,2.24-5,5-5h19c2.76,0,5-2.24,5-5v-12c0-2.76,2.24-5,5-5h52c2.76,0,5,2.24,5,5v13"/>
  <g>
    <path class="cls-2" d="M123.05,44.15v5c0,4.97-4.03,9-9,9h-22c-4.97,0-9-4.03-9-9v-5"/>
    <path class="cls-2" d="M111.66,40.32l23.16-10.29c.81-.36,1.23-1.12,1.23-1.88s-.41-1.52-1.23-1.88l-23.16-10.29c-2.74-1.22-5.68-1.83-8.61-1.83s-5.87.61-8.61,1.83l-23.16,10.29c-.81.36-1.23,1.12-1.23,1.88s.41,1.52,1.23,1.88l23.16,10.29c2.74,1.22,5.68,1.83,8.61,1.83s5.87-.61,8.61-1.83Z"/>
    <line class="cls-2" x1="70.05" y1="28.15" x2="70.05" y2="40.15"/>
  </g>
  <g>
    <rect class="cls-2" x="70.05" y="92.15" width="66" height="46" rx="12" ry="12"/>
    <rect class="cls-2" x="95.05" y="109.15" width="16" height="10" rx="4" ry="4"/>
    <path class="cls-2" d="M111.05,114.15h3.73c3.3,0,6.38-1.63,8.25-4.35l9.6-14.04"/>
    <path class="cls-2" d="M73.47,95.76l9.6,14.04c1.87,2.72,4.95,4.35,8.25,4.35h3.73"/>
    <path class="cls-2" d="M98.05,82.15h10c3.86,0,7,3.14,7,7v3h-24v-3c0-3.86,3.14-7,7-7Z"/>
  </g>
</svg>