<?xml version="1.0" encoding="UTF-8"?>
<svg id="Layer_1" data-name="Layer 1" xmlns="http://www.w3.org/2000/svg" viewBox="0 0 150 150">
  <defs>
    <style>
      .cls-1 {
        stroke: #000;
      }

      .cls-1, .cls-2 {
        fill: none;
        stroke-linecap: round;
        stroke-linejoin: round;
        stroke-width: 4px;
      }

      .cls-2 {
        stroke: #ff6a3b;
      }
    </style>
  </defs>
  <g>
    <path class="cls-2" d="M15.65,112.91l16.93-17.93c3.56-3.56,8.4-5.57,13.44-5.57h11.92c3.98,0,7.79,1.58,10.61,4.39l.68.68c1.88,1.88,4.42,2.93,7.07,2.93h14.86c3.87,0,7,3.13,7,7h0c0,3.87-3.13,7-7,7h-31"/>
    <path class="cls-2" d="M97.38,101.49l24.59-20.71c2.93-2.47,7.26-2.28,9.96.43h0c2.88,2.88,2.88,7.55,0,10.43l-36.86,36.86c-1.88,1.88-4.42,2.93-7.07,2.93h-36.72c-2.65,0-5.2,1.05-7.07,2.93l-2.57,2.57"/>
  </g>
  <g>
    <g>
      <path class="cls-1" d="M75.15,57.41v1c0,3.87,3.13,7,7,7h8c3.87,0,7-3.13,7-7v-3c0-3.87-3.13-7-7-7h-9c-3.31,0-6-2.69-6-6v-4c0-3.87,3.13-7,7-7h8c3.87,0,7,3.13,7,7v1"/>
      <line class="cls-1" x1="86.15" y1="31.41" x2="86.15" y2="26.41"/>
      <line class="cls-1" x1="86.15" y1="70.41" x2="86.15" y2="65.41"/>
    </g>
    <circle class="cls-1" cx="86.15" cy="48.41" r="35"/>
  </g>
</svg>