<?xml version="1.0" encoding="UTF-8"?>
<svg id="Layer_1" data-name="Layer 1" xmlns="http://www.w3.org/2000/svg" viewBox="0 0 150 150">
  <defs>
    <style>
      .cls-1 {
        stroke: #000;
      }

      .cls-1, .cls-2 {
        fill: none;
        stroke-linecap: round;
        stroke-linejoin: round;
        stroke-width: 4px;
      }

      .cls-2 {
        stroke: #f256b6;
      }
    </style>
  </defs>
  <g>
    <g>
      <path class="cls-2" d="M63.15,103.41v2c0,4.42,3.58,8,8,8h8c4.42,0,8-3.58,8-8v-3c0-4.42-3.58-8-8-8h-8c-4.42,0-8-3.58-8-8v-3c0-4.42,3.58-8,8-8h8c4.42,0,8,3.58,8,8v2"/>
      <line class="cls-2" x1="75.15" y1="75.41" x2="75.15" y2="69.41"/>
      <line class="cls-2" x1="75.15" y1="119.41" x2="75.15" y2="113.41"/>
    </g>
    <g>
      <path class="cls-2" d="M53.15,116.41c-12.15-12.15-12.15-31.85,0-44"/>
      <path class="cls-2" d="M97.15,72.41c12.15,12.15,12.15,31.85,0,44"/>
      <circle class="cls-2" cx="75.15" cy="94.41" r="42"/>
    </g>
  </g>
  <g>
    <g>
      <g>
        <path class="cls-1" d="M59.97,55.24l-15.96-15.92c-3.75-3.78-8.86-5.91-14.19-5.91h-4.53c-2.65,0-5.2-1.05-7.07-2.93l-5.07-5.07v12c0,5.52,4.48,10,10,10h7.56"/>
        <path class="cls-1" d="M36.15,59.41h-12c-3.31,0-6-2.69-6-6h0c0-3.31,2.69-6,6-6h3"/>
        <path class="cls-1" d="M26.15,59.41v6c0,3.31,2.69,6,6,6h7.85"/>
      </g>
      <line class="cls-1" x1="51.46" y1="59.73" x2="42.65" y2="50.91"/>
    </g>
    <g>
      <line class="cls-1" x1="98.85" y1="59.71" x2="108.65" y2="50.91"/>
      <g>
        <path class="cls-1" d="M90.32,55.24l15.96-15.92c3.75-3.78,8.86-5.91,14.19-5.91h4.53c2.65,0,5.2-1.05,7.07-2.93l5.07-5.07v12c0,5.52-4.48,10-10,10h-7.56"/>
        <path class="cls-1" d="M124.15,59.41v6c0,3.31-2.69,6-6,6h-7.85"/>
        <path class="cls-1" d="M114.15,59.41h12c3.31,0,6-2.69,6-6h0c0-3.31-2.69-6-6-6h-3"/>
      </g>
    </g>
  </g>
</svg>