<?xml version="1.0" encoding="UTF-8"?>
<svg id="Layer_1" data-name="Layer 1" xmlns="http://www.w3.org/2000/svg" viewBox="0 0 150 150">
  <defs>
    <style>
      .cls-1 {
        stroke: #fff;
      }

      .cls-1, .cls-2 {
        fill: none;
        stroke-linecap: round;
        stroke-linejoin: round;
        stroke-width: 4px;
      }

      .cls-2 {
        stroke: #f256b6;
      }
    </style>
  </defs>
  <g>
    <path class="cls-1" d="M97.15,103.41h-18c-3.31,0-6-2.69-6-6v-20c0-3.31,2.69-6,6-6h18v32Z"/>
    <path class="cls-1" d="M131.15,76.41h0c4.97,0,9,4.03,9,9v4c0,4.97-4.03,9-9,9h0"/>
    <path class="cls-1" d="M97.15,71.41l31.29-11.96c1.31-.5,2.71.47,2.71,1.87v52.19c0,1.4-1.4,2.37-2.71,1.87l-31.29-11.96"/>
    <path class="cls-1" d="M73.15,96.41h-1c-4.97,0-9-4.03-9-9h0c0-4.97,4.03-9,9-9h1"/>
    <path class="cls-1" d="M79.15,103.41l10.01,24.56c.6,1.48,2.04,2.44,3.63,2.44h4.45c2.77,0,4.67-2.8,3.64-5.38l-8.64-21.62"/>
  </g>
  <g>
    <path class="cls-2" d="M81.77,129.77c-2.81.43-5.69.65-8.62.65-31.48,0-57-25.52-57-57s25.52-57,57-57c23.85,0,44.27,14.64,52.78,35.43"/>
    <path class="cls-2" d="M115.02,34.75c-10.41,8.4-25.32,13.67-41.88,13.67s-31.46-5.26-41.88-13.67"/>
    <path class="cls-2" d="M31.27,112.08c7.47-6.03,17.26-10.45,28.31-12.46"/>
    <path class="cls-2" d="M73.15,130.41c-16.57,0-30-25.52-30-57s13.43-57,30-57c14.31,0,26.28,19.03,29.28,44.5"/>
    <line class="cls-2" x1="73.15" y1="64.41" x2="73.15" y2="16.41"/>
    <line class="cls-2" x1="16.15" y1="73.41" x2="63.15" y2="73.41"/>
    <line class="cls-2" x1="73.15" y1="130.41" x2="73.15" y2="110.41"/>
  </g>
</svg>