<?xml version="1.0" encoding="UTF-8"?>
<svg id="Layer_1" data-name="Layer 1" xmlns="http://www.w3.org/2000/svg" viewBox="0 0 150 150">
  <defs>
    <style>
      .cls-1 {
        stroke: #000;
      }

      .cls-1, .cls-2 {
        fill: none;
        stroke-linecap: round;
        stroke-linejoin: round;
        stroke-width: 4px;
      }

      .cls-2 {
        stroke: #00ca55;
      }
    </style>
  </defs>
  <g>
    <path class="cls-1" d="M108.06,65.87c.7,2.42,1.2,4.93,1.5,7.5"/>
    <path class="cls-1" d="M60.32,31.93c.85-.05,1.7-.07,2.57-.07,15.01,0,28.38,7.04,36.99,18"/>
    <path class="cls-1" d="M74.33,124.46c-3.66.92-7.49,1.4-11.44,1.4-25.96,0-47-21.04-47-47,0-9.1,2.58-17.59,7.06-24.79"/>
    <path class="cls-1" d="M87.88,65.87c.66,4.13,1.01,8.49,1.01,13"/>
    <path class="cls-1" d="M62.88,31.87c8.31,0,15.7,7.04,20.46,18"/>
    <path class="cls-1" d="M62.88,125.87c-14.36,0-26-21.04-26-47,0-4.51.35-8.87,1.01-13"/>
    <line class="cls-1" x1="20.88" y1="99.87" x2="69.88" y2="99.87"/>
    <line class="cls-1" x1="62.88" y1="49.87" x2="62.88" y2="31.87"/>
    <line class="cls-1" x1="62.88" y1="125.87" x2="62.88" y2="65.87"/>
  </g>
  <g>
    <g>
      <g>
        <path class="cls-2" d="M135.88,111.87v22c0,2.21-1.79,4-4,4h-47c-2.21,0-4-1.79-4-4v-22"/>
        <path class="cls-2" d="M94.88,90.87v-9c0-1.66,1.34-3,3-3h21c1.66,0,3,1.34,3,3v9"/>
        <path class="cls-2" d="M80.88,111.87h55c1.66,0,3-1.34,3-3v-13.5c0-2.49-2.01-4.5-4.5-4.5h-52c-2.49,0-4.5,2.01-4.5,4.5v13.5c0,1.66,1.34,3,3,3Z"/>
      </g>
      <path class="cls-2" d="M99.88,111.87v6c0,1.1.9,2,2,2h13c1.1,0,2-.9,2-2v-6"/>
    </g>
    <g>
      <path class="cls-2" d="M52.88,29.87c0,12-15,28-16,28s-16-16-16-28c0-8.84,7.16-16,16-16s16,7.16,16,16Z"/>
      <circle class="cls-2" cx="36.88" cy="29.87" r="7"/>
    </g>
    <path class="cls-2" d="M48.88,57.87h73c5.52,0,10,4.48,10,10v15"/>
  </g>
</svg>