<?xml version="1.0" encoding="UTF-8"?>
<svg id="Layer_1" data-name="Layer 1" xmlns="http://www.w3.org/2000/svg" viewBox="0 0 150 150">
  <defs>
    <style>
      .cls-1 {
        stroke: #fff;
      }

      .cls-1, .cls-2 {
        fill: none;
        stroke-linecap: round;
        stroke-linejoin: round;
        stroke-width: 4px;
      }

      .cls-2 {
        stroke: #ff6a3b;
      }
    </style>
  </defs>
  <line class="cls-2" x1="125.65" y1="74.84" x2="108.65" y2="91.42"/>
  <polyline class="cls-1" points="70.15 48.05 70.12 48.05 55.15 48.02"/>
  <line class="cls-2" x1="64.33" y1="108.33" x2="64.32" y2="108.32"/>
  <path class="cls-1" d="M72.24,116.19l4.96,4.93c2.73,2.7,7.19,2.73,9.95.04l6-5.85,10-9.75,6-5.85c2.21-2.16,2.21-5.65,0-7.8l-.5-.49-31.48-30.7"/>
  <line class="cls-1" x1="37.57" y1="81.74" x2="29.15" y2="73.37"/>
  <line class="cls-1" x1="87.15" y1="90.93" x2="103.15" y2="105.56"/>
  <line class="cls-1" x1="79.15" y1="101.66" x2="93.15" y2="115.31"/>
  <path class="cls-2" d="M33.15,95.8l-1-.98c-2.21-2.15-2.21-5.65,0-7.8l10-9.75c2.21-2.15,5.79-2.15,8,0l1,.98c2.21,2.15,2.21,5.65,0,7.8l-10,9.75c-2.21,2.15-5.79,2.15-8,0Z"/>
  <path class="cls-2" d="M42.15,104.58l-1-.98c-2.21-2.15-2.21-5.65,0-7.8l10-9.75c2.21-2.15,5.79-2.15,8,0l1,.98c2.21,2.15,2.21,5.65,0,7.8l-10,9.75c-2.21,2.15-5.79,2.15-8,0Z"/>
  <path class="cls-2" d="M51.15,113.36l-1-.98c-2.21-2.15-2.21-5.65,0-7.8l10-9.75c2.21-2.15,5.79-2.15,8,0l1,.98c2.21,2.15,2.21,5.65,0,7.8l-10,9.75c-2.21,2.15-5.79,2.15-8,0Z"/>
  <path class="cls-2" d="M59.15,121.16h0c-2.21-2.15-2.21-5.65,0-7.8l5-4.88c2.21-2.15,5.79-2.15,8,0h0c2.21,2.15,2.21,5.65,0,7.8l-5,4.88c-2.21,2.15-5.79,2.15-8,0Z"/>
  <polygon class="cls-1" points="25.15 77.27 15.15 67.52 49.15 34.36 59.15 44.12 25.15 77.27"/>
  <polygon class="cls-2" points="127.15 76.3 137.15 66.55 102.15 32.41 92.15 42.17 127.15 76.3"/>
  <path class="cls-2" d="M77.17,60.71l-11.02,10.72c-2.76,2.69-7.24,2.68-10,0-1.38-1.35-2.07-3.11-2.07-4.88s.69-3.53,2.07-4.88l13.97-13.62.05-.05c3.19-3.11,7.51-4.86,12.02-4.86h10.96"/>
</svg>