<?xml version="1.0" encoding="UTF-8"?>
<svg id="Layer_1" data-name="Layer 1" xmlns="http://www.w3.org/2000/svg" viewBox="0 0 150 150">
  <defs>
    <style>
      .cls-1 {
        stroke: #000;
      }

      .cls-1, .cls-2 {
        fill: none;
        stroke-linecap: round;
        stroke-linejoin: round;
        stroke-width: 4px;
      }

      .cls-2 {
        stroke: #ff6a3b;
      }
    </style>
  </defs>
  <path class="cls-2" d="M103.64,72.41l-.49-3.03-1.13-7.01,1.13-1.1,10.75-10.48c2.45-2.39,1.1-6.54-2.28-7.04l-16.43-2.38-7.18-14.56c-1.58-3.2-6.14-3.2-7.72,0l-7.18,14.56-16.43,2.38c-3.38.5-4.73,4.65-2.28,7.04l11.88,11.58-2.74,17c-.6,3.52,3.08,6.19,6.24,4.54l7.37-3.88"/>
  <path class="cls-2" d="M111.15,90.41v-6c0-3.31,2.69-6,6-6h2c3.31,0,6,2.69,6,6v8"/>
  <path class="cls-2" d="M97.15,90.41v-6c0-3.31,2.69-6,6-6h2c3.31,0,6,2.69,6,6v6"/>
  <path class="cls-2" d="M83.15,112.41v-58c0-3.31,2.69-6,6-6h2c3.31,0,6,2.69,6,6v36"/>
  <path class="cls-2" d="M125.15,92.41v-2c0-3.31,2.69-6,6-6h2c3.31,0,6,2.69,6,6v12"/>
  <path class="cls-2" d="M81.87,136.32c-4.92-.62-8.72-4.82-8.72-9.91v-25c0-4.42,3.58-8,8-8"/>
  <path class="cls-2" d="M139.15,100.41v12.06c0,5.89-1.3,11.7-3.81,17.03l-4.19,8.91"/>
  <path class="cls-1" d="M33.39,15.88l3.47,7.04,8.42,1.22c1.79.26,2.5,2.45,1.21,3.71l-6.09,5.94,1.31,7.63c.36,2.09-1.83,3.68-3.71,2.69l-6.85-3.6-6.85,3.6c-1.88.99-4.07-.61-3.71-2.69l1.31-7.63-6.09-5.94c-1.29-1.26-.58-3.45,1.21-3.71l8.42-1.22,3.47-7.04c.46-.93,1.35-1.47,2.24-1.47s1.78.54,2.24,1.47Z"/>
  <path class="cls-1" d="M33.39,60.88l3.47,7.04,8.42,1.22c1.79.26,2.5,2.45,1.21,3.71l-6.09,5.94,1.31,7.63c.36,2.09-1.83,3.68-3.71,2.69l-6.85-3.6-6.85,3.6c-1.88.99-4.07-.61-3.71-2.69l1.31-7.63-6.09-5.94c-1.29-1.26-.58-3.45,1.21-3.71l8.42-1.22,3.47-7.04c.46-.93,1.35-1.47,2.24-1.47s1.78.54,2.24,1.47Z"/>
  <path class="cls-1" d="M33.39,105.88l3.47,7.04,8.42,1.22c1.79.26,2.5,2.45,1.21,3.71l-6.09,5.94,1.31,7.63c.36,2.09-1.83,3.68-3.71,2.69l-6.85-3.6-6.85,3.6c-1.88.99-4.07-.61-3.71-2.69l1.31-7.63-6.09-5.94c-1.29-1.26-.58-3.45,1.21-3.71l8.42-1.22,3.47-7.04c.46-.93,1.35-1.47,2.24-1.47s1.78.54,2.24,1.47Z"/>
</svg>