<?xml version="1.0" encoding="UTF-8"?>
<svg id="Layer_1" data-name="Layer 1" xmlns="http://www.w3.org/2000/svg" viewBox="0 0 150 150">
  <defs>
    <style>
      .cls-1 {
        stroke: #000;
      }

      .cls-1, .cls-2 {
        fill: none;
        stroke-linecap: round;
        stroke-linejoin: round;
        stroke-width: 4px;
      }

      .cls-2 {
        stroke: #ff6a3b;
      }
    </style>
  </defs>
  <g>
    <path class="cls-2" d="M51.78,134.94c-23.38-8.88-39.99-31.49-39.99-57.98,0-34.24,27.76-62,62-62"/>
    <path class="cls-2" d="M95.8,18.98c23.38,8.88,39.99,31.49,39.99,57.98"/>
    <polyline class="cls-2" points="98.79 27.96 95.79 18.96 104.29 15.46"/>
    <polyline class="cls-2" points="48.79 125.96 51.79 134.96 43.29 138.46"/>
  </g>
  <g>
    <path class="cls-2" d="M109.49,130.96h16.3c5.52,0,10-4.48,10-10v-19c0-5.52-4.48-10-10-10h-42c-5.52,0-10,4.48-10,10v19c0,5.52,4.48,10,10,10h0c.55,0,1,.45,1,1v.69c0,4.94,5.42,7.96,9.62,5.36l8.24-5.1c2.06-1.27,4.43-1.95,6.84-1.95Z"/>
    <path class="cls-1" d="M106.67,99.34l2.03,5.26c.26.81,1.02,1.37,1.88,1.37h7.53c1.62,0,2.29,2.07.98,3.02l-6.09,4.43c-.69.5-.98,1.4-.72,2.21l2.32,7.13c.5,1.55-1.27,2.83-2.58,1.88l-6.07-4.41c-.69-.5-1.63-.5-2.33,0l-6.07,4.41c-1.32.96-3.09-.33-2.58-1.88l2.32-7.13c.26-.81-.03-1.71-.72-2.21l-6.09-4.43c-1.31-.95-.64-3.02.98-3.02h7.53c.86,0,1.62-.55,1.88-1.37l2.03-5.26c.3-.91,1.09-1.37,1.88-1.37s1.59.46,1.88,1.37Z"/>
  </g>
  <g>
    <path class="cls-1" d="M49.02,104.96h-19.46c-4.49,0-7.82-4.17-6.83-8.55l.23-1c1.29-5.67,5.5-9.79,10.83-11.45"/>
    <path class="cls-1" d="M59.79,78.48c-4.84,3.44-8,9.09-8,15.48v1c0,3.31,2.69,6,6,6h8.03"/>
    <path class="cls-1" d="M92.94,83.96c-1.34-2.15-3.09-4.02-5.15-5.48"/>
    <path class="cls-1" d="M84.42,58.96h0c1.86,0,3.37-1.51,3.37-3.37v-3.63c0-7.18-5.82-13-13-13h-2c-7.18,0-13,5.82-13,13v3.63c0,1.86,1.51,3.37,3.37,3.37h0c1.55,0,2.89-1.05,3.27-2.55l.6-2.42c.45-1.78,2.05-3.03,3.88-3.03h5.75c1.84,0,3.44,1.25,3.88,3.03l.6,2.42c.37,1.5,1.72,2.55,3.27,2.55Z"/>
    <path class="cls-1" d="M62.79,64.96v.69c0,2.12.84,4.16,2.34,5.66l1.9,1.9c1.13,1.13,2.65,1.76,4.24,1.76h5.03c1.59,0,3.12-.63,4.24-1.76l1.9-1.9c1.5-1.5,2.34-3.54,2.34-5.66v-.69"/>
    <path class="cls-1" d="M80.79,79.96c0,3.87-3.13,7-7,7-1.94,0-3.68-.78-4.95-2.05s-2.05-3.01-2.05-4.95"/>
    <path class="cls-1" d="M47.79,84.96c0,3.87-3.13,7-7,7-1.94,0-3.68-.78-4.95-2.05s-2.05-3.01-2.05-4.95"/>
    <path class="cls-1" d="M117.79,62.96c0-6.08-4.92-11-11-11s-11,4.92-11,11v6.69c0,2.12.84,4.16,2.34,5.66l1.9,1.9c1.13,1.13,2.65,1.76,4.24,1.76h5.03c1.59,0,3.12-.63,4.24-1.76l1.9-1.9c1.5-1.5,2.34-3.54,2.34-5.66v-6.69Z"/>
    <path class="cls-1" d="M29.79,62.96c0-6.08,4.92-11,11-11s11,4.92,11,11v6.69c0,2.12-.84,4.16-2.34,5.66l-1.9,1.9c-1.13,1.13-2.65,1.76-4.24,1.76h-5.03c-1.59,0-3.12-.63-4.24-1.76l-1.9-1.9c-1.5-1.5-2.34-3.54-2.34-5.66v-6.69Z"/>
  </g>
</svg>