<?xml version="1.0" encoding="UTF-8"?>
<svg id="Layer_1" data-name="Layer 1" xmlns="http://www.w3.org/2000/svg" viewBox="0 0 150 150">
  <defs>
    <style>
      .cls-1 {
        stroke: #fff;
      }

      .cls-1, .cls-2 {
        fill: none;
        stroke-linecap: round;
        stroke-linejoin: round;
        stroke-width: 4px;
      }

      .cls-2 {
        stroke: #00ca55;
      }
    </style>
  </defs>
  <g>
    <path class="cls-2" d="M127.15,66.41v67c0,2.21-1.79,4-4,4H21.15c-2.21,0-4-1.79-4-4v-67"/>
    <line class="cls-2" x1="17.15" y1="66.41" x2="125.79" y2="136.41"/>
    <line class="cls-2" x1="31.15" y1="56.01" x2="17.15" y2="66.41"/>
    <line class="cls-2" x1="113.19" y1="55.95" x2="127.15" y2="66.41"/>
    <line class="cls-2" x1="127.15" y1="66.41" x2="72.15" y2="101.91"/>
  </g>
  <g>
    <g>
      <path class="cls-1" d="M113.15,75.45V25.41c0-3.87,3.13-7,7-7h0c3.87,0,7,3.13,7,7v10h-14"/>
      <line class="cls-1" x1="93.15" y1="18.41" x2="120.15" y2="18.41"/>
      <line class="cls-1" x1="56.15" y1="18.41" x2="77.15" y2="18.41"/>
      <path class="cls-1" d="M31.15,75.41V25.41c0-3.87,3.13-7,7-7h2"/>
    </g>
    <g>
      <g>
        <rect class="cls-1" x="43.15" y="35.41" width="21" height="10" rx="2" ry="2"/>
        <rect class="cls-1" x="80.15" y="35.41" width="21" height="10" rx="2" ry="2"/>
        <g>
          <path class="cls-1" d="M97.15,45.41v14c0,13.79-11.21,26-25,26s-25-11.21-25-25v-15"/>
          <path class="cls-1" d="M60.15,45.41v15c0,6.62,5.38,12,12,12s12-5.38,12-12v-15"/>
        </g>
        <line class="cls-1" x1="72.15" y1="72.41" x2="72.15" y2="85.41"/>
      </g>
      <line class="cls-1" x1="48.15" y1="28.41" x2="48.15" y2="18.41"/>
      <line class="cls-1" x1="85.15" y1="28.41" x2="85.15" y2="18.41"/>
      <line class="cls-1" x1="59.15" y1="35.41" x2="59.15" y2="25.41"/>
      <line class="cls-1" x1="96.15" y1="35.41" x2="96.15" y2="25.41"/>
    </g>
  </g>
</svg>