<?xml version="1.0" encoding="UTF-8"?>
<svg id="Layer_1" data-name="Layer 1" xmlns="http://www.w3.org/2000/svg" viewBox="0 0 150 150">
  <defs>
    <style>
      .cls-1 {
        stroke: #fff;
      }

      .cls-1, .cls-2 {
        fill: none;
        stroke-linecap: round;
        stroke-linejoin: round;
        stroke-width: 4px;
      }

      .cls-2 {
        stroke: #ff6a3b;
      }
    </style>
  </defs>
  <g>
    <path class="cls-1" d="M40,85.94v7c0,3.31,2.69,6,6,6h19"/>
    <path class="cls-1" d="M114,85.94v7c0,3.31-2.69,6-6,6h-19"/>
    <path class="cls-2" d="M105,120.94h-6l-7.31-10.97c-1.75-2.63-2.69-5.72-2.69-8.88v-7.16c0-6.63-5.37-12-12-12s-12,5.37-12,12v7.16c0,3.16-.94,6.25-2.69,8.88l-7.31,10.97h-6c-3.31,0-6,2.69-6,6v4c0,2.21,1.79,4,4,4h60c2.21,0,4-1.79,4-4v-4c0-3.31-2.69-6-6-6Z"/>
    <line class="cls-2" x1="55" y1="120.94" x2="89" y2="120.94"/>
    <circle class="cls-1" cx="77" cy="93.94" r="1"/>
    <path class="cls-2" d="M54.6,85.94h-29.21c-2.11,0-4.06-1.11-5.14-2.91l-4.25-7.09h48l-4.25,7.09c-1.08,1.81-3.04,2.91-5.14,2.91Z"/>
    <path class="cls-2" d="M99.39,85.94h29.21c2.11,0,4.06-1.11,5.14-2.91l4.25-7.09h-48l4.25,7.09c1.08,1.81,3.04,2.91,5.14,2.91Z"/>
  </g>
  <g>
    <circle class="cls-1" cx="40" cy="25.94" r="11"/>
    <g>
      <path class="cls-1" d="M35,43.94h10c7.73,0,14,6.27,14,14v6c0,2.21-1.79,4-4,4h-30c-2.21,0-4-1.79-4-4v-6c0-7.73,6.27-14,14-14Z"/>
      <line class="cls-1" x1="40" y1="50.94" x2="40" y2="57.94"/>
    </g>
  </g>
  <g>
    <circle class="cls-1" cx="114" cy="25.94" r="11"/>
    <g>
      <path class="cls-1" d="M109,43.94h10c7.73,0,14,6.27,14,14v6c0,2.21-1.79,4-4,4h-30c-2.21,0-4-1.79-4-4v-6c0-7.73,6.27-14,14-14Z"/>
      <line class="cls-1" x1="114" y1="50.94" x2="114" y2="57.94"/>
    </g>
  </g>
</svg>