<?xml version="1.0" encoding="UTF-8"?>
<svg id="Layer_1" data-name="Layer 1" xmlns="http://www.w3.org/2000/svg" viewBox="0 0 150 150">
  <defs>
    <style>
      .cls-1 {
        stroke: #000;
      }

      .cls-1, .cls-2 {
        fill: none;
        stroke-linecap: round;
        stroke-linejoin: round;
        stroke-width: 4px;
      }

      .cls-2 {
        stroke: #ff6a3b;
      }
    </style>
  </defs>
  <path class="cls-1" d="M108.83,88.77s-2.96,4.38-5.82,8.33c-.87,1.2-1.78,2.36-2.72,3.5-4.39,5.3-19.24,23.37-24.6,32.06-.89,1.44-2.95,1.44-3.84,0-5.36-8.69-20.21-26.76-24.6-32.06-.95-1.14-1.86-2.31-2.72-3.5-2.86-3.94-5.82-8.33-5.82-8.33-2.45-3.35-4.45-7.05-5.89-11.04-1.74-4.78-2.69-9.95-2.69-15.35,0-24.46,19.54-44.29,43.66-44.29s43.66,19.83,43.66,44.3c0,5.4-.95,10.57-2.69,15.35-1.45,3.98-3.44,7.69-5.89,11.04"/>
  <ellipse class="cls-2" cx="73.78" cy="59.57" rx="24.78" ry="25.96"/>
</svg>