<?xml version="1.0" encoding="UTF-8"?>
<svg id="Layer_1" data-name="Layer 1" xmlns="http://www.w3.org/2000/svg" viewBox="0 0 150 150">
  <defs>
    <style>
      .cls-1 {
        stroke: #fff;
      }

      .cls-1, .cls-2 {
        fill: none;
        stroke-linecap: round;
        stroke-linejoin: round;
        stroke-width: 4px;
      }

      .cls-2 {
        stroke: #f256b6;
      }
    </style>
  </defs>
  <g>
    <path class="cls-1" d="M95.15,109.41h-18c-3.31,0-6-2.69-6-6v-20c0-3.31,2.69-6,6-6h18v32Z"/>
    <path class="cls-1" d="M129.15,82.41h0c4.97,0,9,4.03,9,9v4c0,4.97-4.03,9-9,9h0"/>
    <path class="cls-1" d="M95.15,77.41l31.29-11.96c1.31-.5,2.71.47,2.71,1.87v52.19c0,1.4-1.4,2.37-2.71,1.87l-31.29-11.96"/>
    <path class="cls-1" d="M71.15,102.41h-1c-4.97,0-9-4.03-9-9h0c0-4.97,4.03-9,9-9h1"/>
    <path class="cls-1" d="M77.15,109.41l10.01,24.56c.6,1.48,2.04,2.44,3.63,2.44h4.45c2.77,0,4.67-2.8,3.64-5.38l-8.64-21.62"/>
  </g>
  <g>
    <path class="cls-2" d="M69.44,114.81c-3.79,7.19-7.34,13.63-10.06,18.47-2.29,4.08-8.16,4.08-10.46,0-10.84-19.28-34.77-63.78-34.77-80.87,0-22.09,17.91-40,40-40s40,17.91,40,40c0,4.38-1.58,10.57-4.1,17.67"/>
    <circle class="cls-2" cx="54.15" cy="52.41" r="23"/>
    <line class="cls-2" x1="31.15" y1="136.41" x2="77.15" y2="136.41"/>
  </g>
</svg>