<?xml version="1.0" encoding="UTF-8"?>
<svg id="Layer_1" data-name="Layer 1" xmlns="http://www.w3.org/2000/svg" viewBox="0 0 150 150">
  <defs>
    <style>
      .cls-1 {
        stroke: #000;
      }

      .cls-1, .cls-2 {
        fill: none;
        stroke-linecap: round;
        stroke-linejoin: round;
        stroke-width: 4px;
      }

      .cls-2 {
        stroke: #ff6a3b;
      }
    </style>
  </defs>
  <g>
    <path class="cls-1" d="M84.58,130.48c-3.38.61-6.87.94-10.43.94-32.03,0-58-25.97-58-58S42.11,15.41,74.15,15.41c12.5,0,24.07,3.95,33.54,10.68"/>
    <path class="cls-1" d="M74.15,131.41c-17.12,0-31-25.97-31-58s13.88-58,31-58"/>
    <line class="cls-1" x1="74.15" y1="108.58" x2="74.15" y2="131.41"/>
    <line class="cls-1" x1="74.15" y1="15.41" x2="74.15" y2="92.41"/>
    <line class="cls-1" x1="87.15" y1="73.41" x2="16.15" y2="73.41"/>
  </g>
  <g>
    <path class="cls-1" d="M125.15,48.41h-28v-4.45c0-.91-1.11-1.35-1.73-.68l-9.37,10.09c-1.07,1.15-1.07,2.93,0,4.08l9.37,10.09c.62.67,1.73.23,1.73-.68v-4.45h31"/>
    <path class="cls-1" d="M125.15,48.41v4.45c0,.91,1.11,1.35,1.73.68l9.37-10.09c1.07-1.15,1.07-2.93,0-4.08l-9.37-10.09c-.62-.67-1.73-.23-1.73.68v4.45h-30"/>
  </g>
  <g>
    <circle class="cls-2" cx="111.15" cy="102.41" r="29"/>
    <g>
      <path class="cls-2" d="M102.15,109.41v2c0,2.76,2.24,5,5,5h8c2.76,0,5-2.24,5-5v-4c0-2.76-2.24-5-5-5h-8c-2.76,0-5-2.24-5-5v-4c0-2.76,2.24-5,5-5h8c2.76,0,5,2.24,5,5v2"/>
      <line class="cls-2" x1="111.15" y1="88.41" x2="111.15" y2="83.41"/>
      <line class="cls-2" x1="111.15" y1="121.41" x2="111.15" y2="116.41"/>
    </g>
  </g>
</svg>