<?xml version="1.0" encoding="UTF-8"?>
<svg id="Layer_1" data-name="Layer 1" xmlns="http://www.w3.org/2000/svg" viewBox="0 0 150 150">
  <defs>
    <style>
      .cls-1 {
        stroke: #fff;
      }

      .cls-1, .cls-2 {
        fill: none;
        stroke-linecap: round;
        stroke-linejoin: round;
        stroke-width: 4px;
      }

      .cls-2 {
        stroke: #00ca55;
      }
    </style>
  </defs>
  <path class="cls-1" d="M129.23,91.6h0c.7-4.13,1.17-7.99,1.17-12.16,0-31.44-25.88-56.92-57.58-56.92-3.5,0-6.76.23-10.02.92-5.13-3.21-11.19-5.28-17.72-5.28-18.42,0-33.57,14.92-33.57,33.05,0,6.2,1.86,11.7,4.66,16.75-.7,3.67-1.17,7.39-1.17,11.47,0,31.21,25.88,56.73,57.81,56.73,3.5,0,6.99-.23,10.49-.92,4.66,2.48,10.02,3.9,15.85,3.9,18.42,0,33.34-14.73,33.34-33.09,0-5-1.17-10.1-3.26-14.46"/>
  <path class="cls-2" d="M101.7,106.87h0c-2.78,3.74-6.72,6.77-11.82,8.83-4.87,2.11-10.9,3.32-17.85,3.32-8.35,0-15.07-1.63-20.64-4.44-3.71-2.1-6.96-4.91-9.28-8.41-2.55-3.55-3.71-7.06-3.71-10.52,0-2.15.69-4.02,2.32-5.43,1.62-1.63,3.71-2.33,6.03-2.33,1.85,0,3.71.7,5.1,1.87,1.16,1.22,2.31,2.81,3.24,4.96,1.16,2.29,2.09,4.17,3.24,5.8,1.16,1.69,2.79,2.85,4.87,3.79,2.09.94,4.87,1.64,8.35,1.64,4.87,0,8.58-1.22,11.59-3.08,2.78-2.11,4.17-4.4,4.17-7.2,0-2.38-.7-4.25-2.09-5.61-1.62-1.45-3.71-2.62-6.26-3.32-2.55-.94-6.03-1.87-10.43-2.8-6.03-1.17-11.13-2.81-15.07-4.44-4.17-1.87-7.42-4.21-9.74-7.25-2.55-3.04-3.71-7.02-3.71-11.69,0-4.21,1.16-8.18,3.71-11.68,2.55-3.27,6.49-6.08,11.13-7.72,4.87-1.87,10.43-2.8,16.92-2.8,5.1,0,9.74.7,13.45,1.87,3.71,1.16,6.95,2.8,9.51,4.67,2.55,2.1,4.4,4.21,5.56,6.31,1.16,2.34,1.85,4.44,1.85,6.78,0,1.87-.93,3.74-2.55,5.38-1.39,1.87-3.48,2.57-5.79,2.57-2.09,0-3.71-.47-4.87-1.63-1.16-.94-2.32-2.34-3.48-4.44-1.39-2.81-3.24-4.91-5.1-6.55-2.09-1.4-5.33-2.11-9.74-2.11-3.94,0-7.42.7-9.97,2.34-2.32,1.64-3.48,3.5-3.48,5.61,0,1.4.46,2.33,1.16,3.27.7,1.17,1.86,2.11,3.48,2.8,1.39.7,3.01,1.4,4.64,1.64,1.62.47,4.17,1.17,7.88,2.11,4.64.94,8.81,2.1,12.75,3.27,3.71,1.17,6.96,2.85,9.74,4.72,2.78,1.59,4.87,3.92,6.49,6.73,1.62,2.8,2.31,6.35,2.31,10.29,0,4.67-1.39,9.16-3.94,12.9Z"/>
</svg>