<?xml version="1.0" encoding="UTF-8"?>
<svg id="Layer_1" data-name="Layer 1" xmlns="http://www.w3.org/2000/svg" viewBox="0 0 150 150">
  <defs>
    <style>
      .cls-1 {
        stroke: #000;
      }

      .cls-1, .cls-2 {
        fill: none;
        stroke-linecap: round;
        stroke-linejoin: round;
        stroke-width: 4px;
      }

      .cls-2 {
        stroke: #00ca55;
      }
    </style>
  </defs>
  <g>
    <path class="cls-1" d="M29.79,49.96c-7.73,0-14,6.27-14,14v52c0,1.95.7,3.74,1.87,5.13,1.46,1.75,3.66,2.87,6.13,2.87h53"/>
    <path class="cls-1" d="M105.79,74.96v-11c0-7.73-6.27-14-14-14"/>
    <path class="cls-2" d="M29.79,97.96V24.96c0-4.42,3.58-8,8-8h36c9.94,0,18,8.06,18,18v32"/>
    <path class="cls-2" d="M73.79,16.96v7c0,6.08,4.92,11,11,11h7"/>
    <path class="cls-1" d="M130.46,88.29c1.55-1.55,2.33-3.33,2.33-5.33,0-4.06-3.09-8-7.85-8h-53.69c-4.78,0-9.36,1.9-12.73,5.27l-40.86,40.86"/>
    <line class="cls-2" x1="44.79" y1="61.96" x2="76.79" y2="61.96"/>
    <line class="cls-2" x1="44.79" y1="43.96" x2="76.79" y2="43.96"/>
  </g>
  <g>
    <circle class="cls-2" cx="109.79" cy="114.96" r="26"/>
    <path class="cls-2" d="M101.79,122.96v3c0,2.76,2.24,5,5,5h6c2.76,0,5-2.24,5-5v-6c0-2.76-2.24-5-5-5h-6c-2.76,0-5-2.24-5-5v-6c0-2.76,2.24-5,5-5h6c2.76,0,5,2.24,5,5v3"/>
    <line class="cls-2" x1="109.79" y1="95.96" x2="109.79" y2="133.96"/>
  </g>
</svg>