<?xml version="1.0" encoding="UTF-8"?>
<svg id="Layer_1" data-name="Layer 1" xmlns="http://www.w3.org/2000/svg" viewBox="0 0 150 150">
  <defs>
    <style>
      .cls-1 {
        stroke: #000;
      }

      .cls-1, .cls-2 {
        fill: none;
        stroke-linecap: round;
        stroke-linejoin: round;
        stroke-width: 4px;
      }

      .cls-2 {
        stroke: #f256b6;
      }
    </style>
  </defs>
  <path class="cls-2" d="M140.17,49.77s-9.42,9.99-13.23,5.07c-3.81-4.92-6.81-11.35-14.29-8.11-7.47,3.24-25.43,10.83-19.95,25.61,0,0,1.98,4.63,6.46,9.09,0,0,4.26,3.26-1.34,5.95,0,0-2.2.61-2.05,9.87,0,0,.92,3.71-5.61,11.03-6.53,7.32-4.77,12.38,0,16.46,0,0,5.35,5.18,19.16-4.69,0,0,17.94-10.75,22.81-11.53"/>
  <circle class="cls-1" cx="76.45" cy="75.82" r="66.08"/>
  <path class="cls-1" d="M75.16,9.74s10.99,8.34,10.73,12.43c-.26,3.96-2.4,4.68-7.53,6.07-.32.09-.67.13-1,.13-4.15,0-8.22,1.1-11.8,3.2h-.02c-5.32,3.12-11.32,4.84-17.47,5.02l-5.51.16s-8.54-.22-11.35,8.25c0,0-1.62,4.21,2.36,6.33,0,0,4.13,2.16,9.27,4.32,2.86,1.2,5.41,3.52,7.1,5.35,1.65,1.77,3.57,3.25,5.65,4.49,3.87,2.3,9.52,6.38,9.06,10.44,0,0,.86,6.65-7.41,13.44-8.26,6.79-10.15,14.15-9.2,17.14,0,0,2.68,7.66,2.52,10.11-.16,2.44-2.06,6.93-10.03,1.46-7.96-5.46-10.5-17.81-10.5-17.81,0,0-.1-8.93-3.85-11.69-3.75-2.76-6.68-7.88-6.09-11.66.59-3.77.39-14.82-5.01-21.46"/>
  <path class="cls-1" d="M118.19,23.9s-13.33,5.39-7,13.11c1.12,1.37,2.61,2.34,4.23,3,3.88,1.57,12.73,4.82,20.03,5.13"/>
</svg>