<?xml version="1.0" encoding="UTF-8"?>
<svg id="Layer_1" data-name="Layer 1" xmlns="http://www.w3.org/2000/svg" viewBox="0 0 150 150">
  <defs>
    <style>
      .cls-1 {
        stroke: #000;
      }

      .cls-1, .cls-2 {
        fill: none;
        stroke-linecap: round;
        stroke-linejoin: round;
        stroke-width: 4px;
      }

      .cls-2 {
        stroke: #00ca55;
      }
    </style>
  </defs>
  <g>
    <path class="cls-1" d="M37,83.94v7c0,3.31,2.69,6,6,6h19"/>
    <path class="cls-1" d="M111,83.94v7c0,3.31-2.69,6-6,6h-19"/>
    <path class="cls-2" d="M102,118.94h-6l-7.31-10.97c-1.75-2.63-2.69-5.72-2.69-8.88v-7.16c0-6.63-5.37-12-12-12s-12,5.37-12,12v7.16c0,3.16-.94,6.25-2.69,8.88l-7.31,10.97h-6c-3.31,0-6,2.69-6,6v4c0,2.21,1.79,4,4,4h60c2.21,0,4-1.79,4-4v-4c0-3.31-2.69-6-6-6Z"/>
    <line class="cls-2" x1="52" y1="118.94" x2="86" y2="118.94"/>
    <circle class="cls-1" cx="74" cy="91.94" r="1"/>
    <path class="cls-2" d="M51.6,83.94h-29.21c-2.11,0-4.06-1.11-5.14-2.91l-4.25-7.09h48l-4.25,7.09c-1.08,1.81-3.04,2.91-5.14,2.91Z"/>
    <path class="cls-2" d="M96.39,83.94h29.21c2.11,0,4.06-1.11,5.14-2.91l4.25-7.09h-48l4.25,7.09c1.08,1.81,3.04,2.91,5.14,2.91Z"/>
  </g>
  <g>
    <g>
      <path class="cls-1" d="M51.26,66.94h-28.53c-4.14,0-7.38-3.58-6.97-7.7l2.6-26c.36-3.58,3.37-6.3,6.97-6.3h23.33c3.6,0,6.61,2.73,6.97,6.3l2.6,26c.41,4.12-2.82,7.7-6.97,7.7Z"/>
      <path class="cls-1" d="M29,31.94v-11c0-4.42,3.58-8,8-8h0c4.42,0,8,3.58,8,8v11"/>
    </g>
    <path class="cls-2" d="M38.84,40.08l1.5,3c.3.6.88,1.02,1.55,1.11l3.35.48c1.69.24,2.36,2.29,1.14,3.47l-2.42,2.33c-.49.47-.71,1.14-.59,1.8l.57,3.29c.29,1.66-1.48,2.93-2.99,2.14l-2.99-1.55c-.6-.31-1.32-.31-1.92,0l-2.99,1.55c-1.51.78-3.27-.48-2.99-2.14l.57-3.29c.11-.66-.11-1.33-.59-1.8l-2.42-2.33c-1.22-1.18-.55-3.23,1.14-3.47l3.35-.48c.67-.1,1.25-.51,1.55-1.11l1.5-3c.75-1.51,2.94-1.51,3.69,0Z"/>
  </g>
  <g>
    <g>
      <path class="cls-1" d="M125.26,66.94h-28.53c-4.14,0-7.38-3.58-6.97-7.7l2.6-26c.36-3.58,3.37-6.3,6.97-6.3h23.33c3.6,0,6.61,2.73,6.97,6.3l2.6,26c.41,4.12-2.82,7.7-6.97,7.7Z"/>
      <path class="cls-1" d="M103,31.94v-11c0-4.42,3.58-8,8-8h0c4.42,0,8,3.58,8,8v11"/>
    </g>
    <g>
      <path class="cls-2" d="M120.99,48.13l-8.47,10.01c-.8.94-2.25.94-3.05,0l-8.47-10.01c-.59-.7-.63-1.71-.1-2.45l3.5-4.9c.38-.53.98-.84,1.63-.84h9.94c.65,0,1.25.31,1.63.84l3.5,4.9c.53.74.49,1.76-.1,2.45Z"/>
      <line class="cls-2" x1="100.53" y1="46.94" x2="114" y2="46.94"/>
    </g>
  </g>
</svg>