<?xml version="1.0" encoding="UTF-8"?>
<svg id="Layer_1" data-name="Layer 1" xmlns="http://www.w3.org/2000/svg" viewBox="0 0 150 150">
  <defs>
    <style>
      .cls-1 {
        stroke: #000;
      }

      .cls-1, .cls-2 {
        fill: none;
        stroke-linecap: round;
        stroke-linejoin: round;
        stroke-width: 4px;
      }

      .cls-2 {
        stroke: #00ca55;
      }
    </style>
  </defs>
  <g>
    <path class="cls-2" d="M57.44,118.41h29.42c1.26,0,2.29,1.03,2.29,2.29v9.71c0,1.66-1.34,3-3,3h-28.71c-1.26,0-2.29-1.03-2.29-2.29v-10.42c0-1.26,1.03-2.29,2.29-2.29Z" transform="translate(144.29 251.83) rotate(180)"/>
    <polyline class="cls-1" points="97.15 63.41 124.15 90.41 124.15 123.41 98.15 123.41 98.15 114.41"/>
    <polyline class="cls-1" points="47.15 63.41 20.15 90.41 20.15 123.41 46.15 123.41 46.15 114.41"/>
  </g>
  <g>
    <circle class="cls-2" cx="72.15" cy="71.41" r="10"/>
    <g>
      <path class="cls-1" d="M47.15,46.41v55.5c0,4.69,3.81,8.5,8.5,8.5h33c4.69,0,8.5-3.81,8.5-8.5v-55.5"/>
      <path class="cls-2" d="M47.15,46.41h50c.02-3.86-1.5-7.57-4.23-10.3l-20.77-20.77-20.77,20.77c-2.73,2.73-4.25,6.44-4.23,10.3h0Z"/>
    </g>
  </g>
</svg>