<svg viewBox="0 0 150 150" xmlns="http://www.w3.org/2000/svg" xmlns:xlink="http://www.w3.org/1999/xlink" id="Layer_1" overflow="hidden"><defs></defs><g><line x1="61.2" y1="79.4" x2="34.2" y2="79.4" stroke="#00CA55" stroke-width="4" stroke-linecap="round" stroke-linejoin="round" fill="none"/><path d="M27.1 86.4 27.1 111.4C27.1 113.6 28.9 115.4 31.1 115.4L47.1 115.4" stroke="#00CA55" stroke-width="4" stroke-linecap="round" stroke-linejoin="round" fill="none"/><line x1="120.2" y1="45.4" x2="83.2" y2="45.4" stroke="#00CA55" stroke-width="4" stroke-linecap="round" stroke-linejoin="round" fill="none"/><path d="M127.2 52.4 127.2 75.4C127.2 77.6 125.4 79.4 123.2 79.4L93.2 79.4" stroke="#00CA55" stroke-width="4" stroke-linecap="round" stroke-linejoin="round" fill="none"/><circle cx="27.2" cy="79.4" r="7" stroke="#000000" stroke-width="4" stroke-linecap="round" stroke-linejoin="round" fill="none"/><circle cx="54.2" cy="115.4" r="7" stroke="#000000" stroke-width="4" stroke-linecap="round" stroke-linejoin="round" fill="none"/><circle cx="127.1" cy="45.4" r="7" stroke="#000000" stroke-width="4" stroke-linecap="round" stroke-linejoin="round" fill="none"/><path d="M93.2 75.4 93.2 83.4 75.2 83.4 75.2 90.4 61.2 79.4 75.2 68.4 75.2 75.4 93.2 75.4Z" stroke="#000000" stroke-width="4" stroke-linecap="round" stroke-linejoin="round" fill="none"/></g><g><path d="M79.2 117.4 123.2 117.4 123.2 135.4C123.2 136.5 122.3 137.4 121.2 137.4L81.2 137.4C80.1 137.4 79.2 136.5 79.2 135.4L79.2 117.4 79.2 117.4Z" stroke="#00CA55" stroke-width="4" stroke-linecap="round" stroke-linejoin="round" fill="none"/><line x1="101.2" y1="137.4" x2="101.2" y2="117.4" stroke="#00CA55" stroke-width="4" stroke-linecap="round" stroke-linejoin="round" fill="none"/><path d="M101.2 117.4 109.8 108.8C110.7 107.9 111.2 106.7 111.2 105.4L111.2 105.4C111.2 104.3 112.1 103.4 113.2 103.4L131.2 103.4C132.3 103.4 133.2 104.3 133.2 105.4L133.2 105.4C133.2 106.7 132.7 107.9 131.8 108.8L123.2 117.4" stroke="#00CA55" stroke-width="4" stroke-linecap="round" stroke-linejoin="round" fill="none"/><path d="M101.2 117.4 92.6 108.8C91.7 107.9 91.2 106.7 91.2 105.4L91.2 105.4C91.2 104.3 90.3 103.4 89.2 103.4L71.2 103.4C70.1 103.4 69.2 104.3 69.2 105.4L69.2 105.4C69.2 106.7 69.7 107.9 70.6 108.8L79.2 117.4" stroke="#00CA55" stroke-width="4" stroke-linecap="round" stroke-linejoin="round" fill="none"/></g><g><path d="M43.2 43.4 65.2 43.4C69.6 43.4 73.2 47 73.2 51.4L73.2 55.4C73.2 56.5 72.3 57.4 71.2 57.4L37.2 57.4C36.1 57.4 35.2 56.5 35.2 55.4L35.2 51.4C35.2 47 38.8 43.4 43.2 43.4Z" stroke="#000000" stroke-width="4" stroke-linecap="round" stroke-linejoin="round" fill="none"/><circle cx="54.2" cy="25.4" r="12" stroke="#000000" stroke-width="4" stroke-linecap="round" stroke-linejoin="round" fill="none"/></g></svg>