<?xml version="1.0" encoding="UTF-8"?>
<svg id="Layer_1" data-name="Layer 1" xmlns="http://www.w3.org/2000/svg" viewBox="0 0 150 150">
  <defs>
    <style>
      .cls-1 {
        stroke: #000;
      }

      .cls-1, .cls-2 {
        fill: none;
        stroke-linecap: round;
        stroke-linejoin: round;
        stroke-width: 4px;
      }

      .cls-2 {
        stroke: #00ca55;
      }
    </style>
  </defs>
  <path class="cls-1" d="M47.11,50.37l-1.79-1.79c-.75-.75-1.17-1.77-1.17-2.83v-.68c0-1.06.42-2.08,1.17-2.83l27.49-27.49c1.5-1.5,3.53-2.34,5.65-2.34h9.69"/>
  <path class="cls-2" d="M108.15,42.1v-17.69c0-1.1-.9-2-2-2h-17.69c-2.12,0-4.16.84-5.66,2.34l-27.49,27.49c-.75.75-1.17,1.77-1.17,2.83v.69c0,1.06.42,2.08,1.17,2.83l16.66,16.66c.75.75,1.77,1.17,2.83,1.17h.69c1.06,0,2.08-.42,2.83-1.17l27.49-27.49c1.5-1.5,2.34-3.54,2.34-5.66Z"/>
  <circle class="cls-2" cx="93.15" cy="37.41" r="6"/>
  <g>
    <path class="cls-2" d="M70.15,61.41h0c0,2.21,1.79,4,4,4h2c2.21,0,4-1.79,4-4v-2c0-2.21-1.79-4-4-4h-2c-2.21,0-4-1.79-4-4v-2c0-2.21,1.79-4,4-4h2c2.21,0,4,1.79,4,4h0"/>
    <line class="cls-2" x1="75.15" y1="45.41" x2="75.15" y2="41.41"/>
    <line class="cls-2" x1="75.15" y1="69.41" x2="75.15" y2="65.41"/>
  </g>
  <path class="cls-2" d="M108.15,37.41c4.7-1.96,8-6.59,8-12,0-7.18-5.82-13-13-13-6.15,0-11.3,4.27-12.65,10-.23.96-.35,1.97-.35,3,0,2.24.57,4.34,1.56,6.18"/>
  <g>
    <g>
      <path class="cls-2" d="M37.15,96.41h76v38c0,1.1-.9,2-2,2H39.15c-1.1,0-2-.9-2-2v-38h0Z"/>
      <line class="cls-2" x1="75.15" y1="136.41" x2="75.15" y2="96.41"/>
      <path class="cls-2" d="M75.15,96.41l7.17-7.17c1.81-1.81,2.83-4.27,2.83-6.83h0c0-1.1.9-2,2-2h34c1.1,0,2,.9,2,2h0c0,2.56-1.02,5.02-2.83,6.83l-7.17,7.17"/>
      <path class="cls-2" d="M75.15,96.41l-7.17-7.17c-1.81-1.81-2.83-4.27-2.83-6.83h0c0-1.1-.9-2-2-2H29.15c-1.1,0-2,.9-2,2h0c0,2.56,1.02,5.02,2.83,6.83l7.17,7.17"/>
    </g>
    <line class="cls-1" x1="105.15" y1="120.41" x2="97.15" y2="120.41"/>
    <line class="cls-1" x1="105.15" y1="128.41" x2="93.15" y2="128.41"/>
  </g>
</svg>