<?xml version="1.0" encoding="UTF-8"?>
<svg id="Layer_1" data-name="Layer 1" xmlns="http://www.w3.org/2000/svg" viewBox="0 0 150 150">
  <defs>
    <style>
      .cls-1 {
        stroke: #fff;
      }

      .cls-1, .cls-2 {
        fill: none;
        stroke-linecap: round;
        stroke-linejoin: round;
        stroke-width: 4px;
      }

      .cls-2 {
        stroke: #f256b6;
      }
    </style>
  </defs>
  <path class="cls-2" d="M124.15,24.41c7.73,0,14,6.27,14,14v66c0,7.73-6.27,14-14,14h-43.54c-6.9,0-13.72,1.43-20.04,4.19l-18.59,8.13c-2.53,1.11-5.25,1.68-8.01,1.68h-2.93c-3.07,0-4.99-3.32-3.47-5.98l2.87-5.03c.76-1.33-.2-2.99-1.74-2.99h-.55c-7.73,0-14-6.27-14-14V38.41c0-7.73,6.27-14,14-14h96Z"/>
  <path class="cls-2" d="M78.39,39.88l3.47,7.04,8.42,1.22c1.79.26,2.5,2.45,1.21,3.71l-6.09,5.94,1.31,7.63c.36,2.09-1.83,3.68-3.71,2.69l-6.85-3.6-6.85,3.6c-1.88.99-4.07-.61-3.71-2.69l1.31-7.63-6.09-5.94c-1.29-1.26-.58-3.45,1.21-3.71l8.42-1.22,3.47-7.04c.46-.93,1.35-1.47,2.24-1.47s1.78.54,2.24,1.47Z"/>
  <path class="cls-2" d="M78.39,76.88l3.47,7.04,8.42,1.22c1.79.26,2.5,2.45,1.21,3.71l-6.09,5.94,1.31,7.63c.36,2.09-1.83,3.68-3.71,2.69l-6.85-3.6-6.85,3.6c-1.88.99-4.07-.61-3.71-2.69l1.31-7.63-6.09-5.94c-1.29-1.26-.58-3.45,1.21-3.71l8.42-1.22,3.47-7.04c.46-.93,1.35-1.47,2.24-1.47s1.78.54,2.24,1.47Z"/>
  <path class="cls-1" d="M44.39,60.88l3.47,7.04,8.42,1.22c1.79.26,2.5,2.45,1.21,3.71l-6.09,5.94,1.31,7.63c.36,2.09-1.83,3.68-3.71,2.69l-6.85-3.6-6.85,3.6c-1.88.99-4.07-.61-3.71-2.69l1.31-7.63-6.09-5.94c-1.29-1.26-.58-3.45,1.21-3.71l8.42-1.22,3.47-7.04c.46-.93,1.35-1.47,2.24-1.47s1.78.54,2.24,1.47Z"/>
  <path class="cls-1" d="M112.39,60.88l3.47,7.04,8.42,1.22c1.79.26,2.5,2.45,1.21,3.71l-6.09,5.94,1.31,7.63c.36,2.09-1.83,3.68-3.71,2.69l-6.85-3.6-6.85,3.6c-1.88.99-4.07-.61-3.71-2.69l1.31-7.63-6.09-5.94c-1.29-1.26-.58-3.45,1.21-3.71l8.42-1.22,3.47-7.04c.46-.93,1.35-1.47,2.24-1.47s1.78.54,2.24,1.47Z"/>
</svg>