<?xml version="1.0" encoding="UTF-8"?>
<svg id="Layer_1" data-name="Layer 1" xmlns="http://www.w3.org/2000/svg" viewBox="0 0 150 150">
  <defs>
    <style>
      .cls-1 {
        stroke: #000;
      }

      .cls-1, .cls-2 {
        fill: none;
        stroke-linecap: round;
        stroke-linejoin: round;
        stroke-width: 4px;
      }

      .cls-2 {
        stroke: #ff6a3b;
      }
    </style>
  </defs>
  <circle class="cls-1" cx="105.15" cy="70.41" r="10"/>
  <path class="cls-1" d="M62.89,132.27c17.01-15.7,15.25-35.86,15.25-35.86-17.33,0-28.23-7.14-34.2-12.89-1.58-1.52.03-4.1,2.08-3.32,8.58,3.25,23.7,6.69,43.05,1.77,1.35-.34,2.79-.08,3.95.7l5.12,3.42c1.17.78,1.64,2.26,1.14,3.57l-1.18,3.06c-1.54,4-.31,8.47,2.92,11.28,4.75,4.14,9.86,12.42,4.59,27.63-.19.54-.66.79-1.13.79-.5,0-1.01-.29-1.17-.88-1.39-5.13-4.92-13.99-13.17-18.12,0,0-6.86,15.44-26.12,20.9-.11.03-.21.1-.31.1-1.57,0-1.66-1.37-.82-2.14Z"/>
  <g>
    <circle class="cls-2" cx="63.15" cy="44.41" r="30"/>
    <path class="cls-2" d="M57.15,58.41h10c2.76,0,5-2.24,5-5v-4c0-2.76-2.24-5-5-5h-8c-2.76,0-5-2.24-5-5v-4c0-2.76,2.24-5,5-5h10"/>
    <line class="cls-2" x1="63.15" y1="30.41" x2="63.15" y2="26.41"/>
    <line class="cls-2" x1="63.15" y1="62.41" x2="63.15" y2="58.41"/>
  </g>
</svg>