<?xml version="1.0" encoding="UTF-8"?>
<svg id="Layer_1" data-name="Layer 1" xmlns="http://www.w3.org/2000/svg" viewBox="0 0 150 150">
  <defs>
    <style>
      .cls-1 {
        stroke: #fff;
      }

      .cls-1, .cls-2 {
        fill: none;
        stroke-linecap: round;
        stroke-linejoin: round;
        stroke-width: 4px;
      }

      .cls-2 {
        stroke: #ff6a3b;
      }
    </style>
  </defs>
  <path class="cls-2" d="M20.15,45.41c23.03-21.72,58-25.99,79-25.99l22,.02"/>
  <polygon class="cls-2" points="121.15 29.46 127.77 43.11 142.15 45.44 131.87 55.46 134.15 69.41 121.15 63.09 108.15 69.41 110.43 55.46 100.15 45.44 114.52 43.11 121.15 29.46"/>
  <path class="cls-1" d="M90.14,87.42c1.96-4.7,6.6-8,12-8,7.18,0,13,5.82,13,12.99s-5.82,12.99-13,12.99c-3.16,0-6.05-1.13-8.31-3"/>
  <line class="cls-1" x1="117.15" y1="128.42" x2="117.15" y2="135.42"/>
  <line class="cls-1" x1="93.15" y1="113.41" x2="115.15" y2="113.41"/>
  <ellipse class="cls-1" cx="35.15" cy="63.44" rx="12.99" ry="13" transform="translate(-28.37 98.44) rotate(-89.87)"/>
  <path class="cls-1" d="M115.15,113.41l15.99-15.99c2.25-2.25,5.86-2.36,8.24-.24h0c2.58,2.3,2.7,6.29.26,8.74l-22.49,22.48"/>
  <path class="cls-1" d="M57.15,70.5c2.3-3.65,6.37-6.07,11-6.07,7.18,0,13,5.82,13,12.99s-5.82,12.99-13,12.99c-2.58,0-4.98-.75-7-2.04"/>
  <path class="cls-1" d="M61.15,98.43h18c3.87,0,7,3.13,7,7v30"/>
  <path class="cls-1" d="M54.15,135.42v-46.71c0-2.36-1.92-4.28-4.28-4.28h-27.43c-2.37,0-4.28,1.92-4.28,4.28v40.71c0,3.31,2.69,6,6,6h0c3.31,0,6-2.69,6-6v-25"/>
  <line class="cls-2" x1="121.15" y1="31.44" x2="121.15" y2="20.44"/>
</svg>