<?xml version="1.0" encoding="UTF-8"?>
<svg id="Layer_1" data-name="Layer 1" xmlns="http://www.w3.org/2000/svg" viewBox="0 0 150 150">
  <defs>
    <style>
      .cls-1 {
        stroke: #000;
      }

      .cls-1, .cls-2 {
        fill: none;
        stroke-linecap: round;
        stroke-linejoin: round;
        stroke-width: 4px;
      }

      .cls-2 {
        stroke: #ff6a3b;
      }
    </style>
  </defs>
  <g>
    <g>
      <line class="cls-1" x1="102.5" y1="48.44" x2="117.5" y2="63.44"/>
      <line class="cls-1" x1="117.5" y1="48.44" x2="102.5" y2="63.44"/>
    </g>
    <path class="cls-1" d="M125,77.94h-30c-2.76,0-5-2.24-5-5v-31.19c0-1.29.5-2.53,1.4-3.47l15.48-16.1c1.7-1.77,4.54-1.77,6.25,0l15.48,16.1c.9.93,1.4,2.17,1.4,3.47v31.19c0,2.76-2.24,5-5,5Z"/>
    <circle class="cls-1" cx="110" cy="33.94" r="1"/>
  </g>
  <g>
    <g>
      <path class="cls-1" d="M60.53,27.38l13.76,14.68c1.74,1.85,2.7,4.3,2.7,6.84v33.05"/>
      <path class="cls-1" d="M73,109.94c-1.19.71-2.51,1-4,1H25c-4.42,0-8-3.58-8-8v-54.05c0-2.54.97-4.99,2.7-6.84l22.53-24.04c1.29-1.38,3.03-2.08,4.76-2.08s3.47.7,4.76,2.08"/>
      <circle class="cls-1" cx="47" cy="36.94" r="6"/>
      <path class="cls-1" d="M49.65,31.56c3.85-6.51,12.11-16.62,26.34-16.62,11,0,13,7,13,9,0,4-2,9-10,12"/>
    </g>
    <g>
      <path class="cls-1" d="M36,82.94v1c0,3.87,3.13,7,7,7h8c3.87,0,7-3.13,7-7v-3c0-3.87-3.13-7-7-7h-8c-3.87,0-7-3.13-7-7v-3c0-3.87,3.13-7,7-7h8c3.87,0,7,3.13,7,7v1"/>
      <line class="cls-1" x1="47" y1="56.94" x2="47" y2="50.94"/>
      <line class="cls-1" x1="47" y1="96.94" x2="47" y2="90.94"/>
    </g>
  </g>
  <path class="cls-2" d="M97,124.94h-14c-3.87,0-7,3.13-7,7v1c0,1.1.9,2,2,2h32.39c5.14,0,10.08-2.04,13.71-5.68l3.23-3.23c3.78-3.78,5.66-9.09,5.66-14.09s-1.86-9.54-5.66-13.34l-11.74-11.74c-1.95-1.95-5.12-1.95-7.07,0h0c-1.95,1.95-1.95,5.12,0,7.07l2.12,2.12h0l-4.24-4.24c-1.95-1.95-5.12-1.95-7.07,0h0c-1.95,1.95-1.95,5.12,0,7.07l3.54,3.54-5.66-5.66c-1.95-1.95-5.12-1.95-7.07,0h0c-1.95,1.95-1.95,5.12,0,7.07l5.66,5.66-19.09-19.09c-1.95-1.95-5.12-1.95-7.07,0h0c-1.95,1.95-1.96,5.11,0,7.07,6.9,6.9,23.09,23.21,27.37,27.48Z"/>
</svg>