<?xml version="1.0" encoding="UTF-8"?>
<svg id="Layer_1" data-name="Layer 1" xmlns="http://www.w3.org/2000/svg" viewBox="0 0 150 150">
  <defs>
    <style>
      .cls-1 {
        stroke: #fff;
      }

      .cls-1, .cls-2 {
        fill: none;
        stroke-linecap: round;
        stroke-linejoin: round;
        stroke-width: 4px;
      }

      .cls-2 {
        stroke: #00ca55;
      }
    </style>
  </defs>
  <rect class="cls-1" x="16.15" y="60.41" width="54" height="18" rx="7" ry="7"/>
  <rect class="cls-1" x="17.15" y="78.41" width="52" height="18" rx="7" ry="7"/>
  <rect class="cls-1" x="17.15" y="96.41" width="52" height="18" rx="7" ry="7"/>
  <rect class="cls-1" x="27.15" y="114.41" width="42" height="14" rx="7" ry="7"/>
  <path class="cls-2" d="M40.55,134.41c1.05.64,2.28,1,3.6,1h31.39c6.25,0,12.35-1.95,17.43-5.59l4.55-3.25c1.06-.75,2.33-1.16,3.63-1.16h14c10.49,0,19-8.51,19-19v-19c0-10.49-8.51-19-19-19h-7.16c-4.4,0-8.66-1.62-11.95-4.55l-.19-.17c-2.42-2.15-4.22-4.91-5.2-7.99l-3.61-11.33c-1.25-3.94-1.77-8.07-1.54-12.2l.64-11.52c.01-.16.01-.32.01-.48,0-2.42-.98-4.61-2.56-6.2-1.59-1.58-3.78-2.56-6.2-2.56h-.21c-3.63,0-6.88,2.24-8.18,5.64l-3.23,8.48c-1.73,4.55-2.62,9.37-2.62,14.24v7.7c0,1.95.28,3.89.84,5.75l.38,1.25"/>
</svg>