<?xml version="1.0" encoding="UTF-8"?>
<svg id="Layer_1" data-name="Layer 1" xmlns="http://www.w3.org/2000/svg" viewBox="0 0 150 150">
  <defs>
    <style>
      .cls-1 {
        stroke: #000;
      }

      .cls-1, .cls-2 {
        fill: none;
        stroke-linecap: round;
        stroke-linejoin: round;
        stroke-width: 4px;
      }

      .cls-2 {
        stroke: #ff6a3b;
      }
    </style>
  </defs>
  <path class="cls-1" d="M86.15,54.41h29l15-15c2.21-2.21,5.79-2.21,8,0h0c2.21,2.21,2.21,5.79,0,8l-21,21v14"/>
  <circle class="cls-1" cx="57.15" cy="24.41" r="12"/>
  <circle class="cls-1" cx="102.15" cy="35.41" r="12"/>
  <circle class="cls-1" cx="120.15" cy="101.41" r="12"/>
  <circle class="cls-1" cx="36.15" cy="80.41" r="12"/>
  <path class="cls-1" d="M30.15,122.41h19.5c3.04,0,5.5,2.46,5.5,5.5h0c0,3.04-2.46,5.5-5.5,5.5h-25c-3.04,0-5.5-2.46-5.5-5.5v-21.5c0-3.87,3.13-7,7-7h23"/>
  <path class="cls-2" d="M88.15,122.41v2c0,3.87-3.13,7-7,7h-6c-3.87,0-7-3.13-7-7v-2"/>
  <polyline class="cls-2" points="67.15 84.41 77.15 97.41 89.15 77.41"/>
  <path class="cls-1" d="M141.15,130.41v-2c0-3.87-3.13-7-7-7h-29c-3.87,0-7,3.13-7,7v2"/>
  <path class="cls-1" d="M79.15,53.41v-2c0-3.87-3.13-7-7-7h-29c-3.87,0-7,3.13-7,7v10"/>
  <path class="cls-2" d="M100.12,82.28c.33,6.46-2.14,12.35-6.29,16.57-3.07,3.12-4.68,7.38-4.68,11.75v5.81h-22v-5.85c0-4.39-1.67-8.63-4.73-11.77-3.87-3.97-6.27-9.4-6.27-15.38,0-12.6,10.59-22.72,23.35-21.96,11.08.66,20.06,9.74,20.62,20.82Z"/>
</svg>