<?xml version="1.0" encoding="UTF-8"?>
<svg id="Layer_1" data-name="Layer 1" xmlns="http://www.w3.org/2000/svg" viewBox="0 0 150 150">
  <defs>
    <style>
      .cls-1 {
        stroke: #fff;
      }

      .cls-1, .cls-2 {
        fill: none;
        stroke-linecap: round;
        stroke-linejoin: round;
        stroke-width: 4px;
      }

      .cls-2 {
        stroke: #f256b6;
      }
    </style>
  </defs>
  <g>
    <path class="cls-2" d="M104.16,42.41c2.4-1.3,5.07-2,8-2,9.39,0,17,7.61,17,17s-7.61,17-17,17c-3.72,0-7.16-1.2-9.96-3.22"/>
    <path class="cls-2" d="M99.13,83.48c2.05-.69,4.25-1.06,6.54-1.06h12.98c11.33,0,20.51,9.18,20.51,20.51v7.49h-18.02"/>
  </g>
  <g>
    <path class="cls-2" d="M48.13,71.19c-2.8,2.03-6.24,3.22-9.96,3.22-9.39,0-17-7.61-17-17s7.61-17,17-17c2.92,0,5.6.7,8,2"/>
    <path class="cls-2" d="M29.16,110.41H11.16v-7.49c0-11.33,9.18-20.51,20.51-20.51h12.98c2.28,0,4.47.37,6.51,1.06"/>
  </g>
  <g>
    <polyline class="cls-2" points="70.16 88.41 67.16 110.41 75.16 118.41 83.16 110.41 80.16 88.41"/>
    <path class="cls-1" d="M74.57,26.42c-11.44.3-20.41,9.46-20.41,20.3v12.08c0,6.06,2.73,11.84,7.5,15.89l6.47,4.49c1.16.8,2.55,1.24,3.99,1.24h6.09c1.43,0,2.83-.43,3.99-1.24l6.47-4.49c4.77-4.04,7.5-9.82,7.5-15.89v-12.5c0-11.17-9.72-20.2-21.59-19.89Z"/>
    <path class="cls-1" d="M65.51,88.41h19.31c15.64,0,28.34,12.7,28.34,28.34v9.66H37.16v-9.66c0-15.64,12.7-28.34,28.34-28.34Z"/>
    <path class="cls-1" d="M54.16,55.41h3c2.21,0,4-1.79,4-4v-6c0-2.21,1.79-4,4-4h20c2.21,0,4,1.79,4,4v6c0,2.21,1.79,4,4,4h3"/>
  </g>
</svg>