<?xml version="1.0" encoding="UTF-8"?>
<svg id="Layer_1" data-name="Layer 1" xmlns="http://www.w3.org/2000/svg" viewBox="0 0 150 150">
  <defs>
    <style>
      .cls-1 {
        stroke: #000;
      }

      .cls-1, .cls-2 {
        fill: none;
        stroke-linecap: round;
        stroke-linejoin: round;
        stroke-width: 4px;
      }

      .cls-2 {
        stroke: #ff6a3b;
      }
    </style>
  </defs>
  <g>
    <path class="cls-1" d="M82.04,25.15c1.96-4.7,6.6-8,12-8,7.18,0,13,5.82,13,13s-5.82,13-13,13c-3.16,0-6.05-1.13-8.31-3"/>
    <line class="cls-1" x1="109.05" y1="66.15" x2="109.05" y2="83.15"/>
    <line class="cls-1" x1="83.05" y1="51.15" x2="107.05" y2="51.15"/>
    <circle class="cls-1" cx="35.05" cy="46.15" r="13"/>
    <path class="cls-1" d="M107.05,51.15l15.99-15.99c2.25-2.25,5.86-2.36,8.24-.24h0c2.58,2.3,2.7,6.3.26,8.74l-22.49,22.49"/>
    <path class="cls-1" d="M53.05,31.22c2.3-3.65,6.37-6.07,11-6.07,7.18,0,13,5.82,13,13s-5.82,13-13,13c-2.58,0-4.98-.75-7-2.04"/>
    <path class="cls-1" d="M54.05,59.15h21c3.87,0,7,3.13,7,7v17"/>
    <path class="cls-1" d="M54.05,83.15v-9c0-3.87-3.13-7-7-7h-22c-3.87,0-7,3.13-7,7v40c0,3.31,2.69,6,6,6h0c3.31,0,6-2.69,6-6v-27"/>
  </g>
  <g>
    <polyline class="cls-2" points="124.05 80.15 131.05 70.15 138.05 80.15"/>
    <polyline class="cls-2" points="58.05 126.15 89.05 126.15 89.05 98.15 131.05 98.15 131.05 70.15"/>
    <g>
      <line class="cls-2" x1="58.55" y1="91.65" x2="72.55" y2="107.65"/>
      <line class="cls-2" x1="72.55" y1="91.65" x2="58.55" y2="107.65"/>
    </g>
    <circle class="cls-2" cx="50.05" cy="126.15" r="8"/>
    <g>
      <line class="cls-2" x1="107.55" y1="112.65" x2="121.55" y2="128.65"/>
      <line class="cls-2" x1="121.55" y1="112.65" x2="107.55" y2="128.65"/>
    </g>
  </g>
</svg>