<?xml version="1.0" encoding="UTF-8"?>
<svg id="Layer_1" data-name="Layer 1" xmlns="http://www.w3.org/2000/svg" viewBox="0 0 150 150">
  <defs>
    <style>
      .cls-1 {
        stroke: #fff;
      }

      .cls-1, .cls-2 {
        fill: none;
        stroke-linecap: round;
        stroke-linejoin: round;
        stroke-width: 4px;
      }

      .cls-2 {
        stroke: #ff6a3b;
      }
    </style>
  </defs>
  <g>
    <polyline class="cls-2" points="104.16 49.41 103.16 60.41 108.16 66.41 113.16 60.41 112.16 49.41"/>
    <circle class="cls-1" cx="108.08" cy="26.46" r="16" transform="translate(-1.9 43.37) rotate(-22.5)"/>
    <path class="cls-1" d="M101.43,49.41h13.46c10.08,0,18.27,8.19,18.27,18.27v5.73h-50v-5.73c0-10.08,8.19-18.27,18.27-18.27Z"/>
  </g>
  <path class="cls-1" d="M84.13,133.41c-3.56.66-7.22,1-10.97,1-1.32,0-2.64-.04-3.94-.13"/>
  <path class="cls-1" d="M129.14,96.05c-.98,2.55-2.14,5.01-3.45,7.37"/>
  <path class="cls-1" d="M73.19,17.31c3.25-.59,6.58-.89,9.98-.89,1.01,0,2.01.02,3,.07"/>
  <path class="cls-1" d="M28.56,53.39c.75-1.7,1.59-3.38,2.48-5"/>
  <g>
    <path class="cls-2" d="M118.55,108.37c-.87-1.51-.26-3.86,0-6.58-2-1.81-4.74-3.51-7.34-4.38-2.19,1.58-4.82,3.65-6.61,3.65s-3.68-2.08-5.88-3.65c-2.6.87-6.08,3.31-8.08,5.12.26,2.72,1.6,5.07.73,6.58-.84,1.47-3.41,2.53-5.88,3.65-.28,1.35-.34,2.35-.34,3.79s.05,2.9.34,4.25c2.47,1.12,5.04,2.19,5.88,3.65.87,1.51.26,4.59,0,7.31,2,1.81,4.74,2.78,7.34,3.65,2.19-1.58,4.82-2.92,6.61-2.92s3.68,1.34,5.88,2.92c2.6-.87,5.35-1.85,7.34-3.65-.26-2.72-.87-5.8,0-7.31.84-1.47,3.41-2.53,5.88-3.65.28-1.35.73-2.95.73-4.38s-.45-3.03-.73-4.38c-2.47-1.12-5.04-2.19-5.88-3.65Z"/>
    <circle class="cls-2" cx="105.16" cy="116.41" r="7"/>
  </g>
  <g>
    <path class="cls-2" d="M63.55,20.37c-.87-1.51-.26-3.86,0-6.58-2-1.81-4.74-3.51-7.34-4.38-2.19,1.58-4.82,3.65-6.61,3.65s-3.68-2.08-5.88-3.65c-2.6.87-6.08,3.31-8.08,5.12.26,2.72,1.6,5.07.73,6.58-.84,1.47-3.41,2.53-5.88,3.65-.28,1.35-.34,2.35-.34,3.79s.05,2.9.34,4.25c2.47,1.12,5.04,2.19,5.88,3.65.87,1.51.26,4.59,0,7.31,2,1.81,4.74,2.78,7.34,3.65,2.19-1.58,4.82-2.92,6.61-2.92s3.68,1.34,5.88,2.92c2.6-.87,5.35-1.85,7.34-3.65-.26-2.72-.87-5.8,0-7.31.84-1.47,3.41-2.53,5.88-3.65.28-1.35.73-2.95.73-4.38s-.45-3.03-.73-4.38c-2.47-1.12-5.04-2.19-5.88-3.65Z"/>
    <circle class="cls-2" cx="50.16" cy="28.41" r="7"/>
  </g>
  <polygon class="cls-1" points="24.16 67.41 20.16 51.41 37.16 55.41 24.16 67.41"/>
  <polygon class="cls-1" points="133.16 81.41 137.16 98.41 120.16 93.41 133.16 81.41"/>
  <g>
    <polyline class="cls-2" points="32.16 110.41 31.16 121.41 36.16 127.41 41.16 121.41 40.16 110.41"/>
    <circle class="cls-1" cx="36.25" cy="87.46" r="16" transform="translate(-30.71 20.53) rotate(-22.5)"/>
    <path class="cls-1" d="M29.43,110.41h13.46c10.08,0,18.27,8.19,18.27,18.27v5.73H11.16v-5.73c0-10.08,8.19-18.27,18.27-18.27Z"/>
  </g>
</svg>