<?xml version="1.0" encoding="UTF-8"?>
<svg id="Layer_1" data-name="Layer 1" xmlns="http://www.w3.org/2000/svg" viewBox="0 0 150 150">
  <defs>
    <style>
      .cls-1 {
        stroke: #000;
      }

      .cls-1, .cls-2 {
        fill: none;
        stroke-linecap: round;
        stroke-linejoin: round;
        stroke-width: 4px;
      }

      .cls-2 {
        stroke: #00ca55;
      }
    </style>
  </defs>
  <g>
    <line class="cls-1" x1="73.88" y1="12.81" x2="73.88" y2="40.81"/>
    <line class="cls-1" x1="73.88" y1="108.81" x2="73.88" y2="136.81"/>
    <line class="cls-1" x1="135.88" y1="74.81" x2="107.88" y2="74.81"/>
    <line class="cls-1" x1="39.88" y1="74.81" x2="11.88" y2="74.81"/>
    <path class="cls-2" d="M18.34,67.62c3.23-25.18,23.17-45.13,48.35-48.35"/>
    <path class="cls-2" d="M66.69,130.36c-25.18-3.23-45.12-23.17-48.35-48.35"/>
    <path class="cls-2" d="M129.43,82c-3.23,25.18-23.17,45.13-48.35,48.35"/>
    <path class="cls-2" d="M81.08,19.27c25.18,3.23,45.12,23.18,48.35,48.35"/>
    <path class="cls-1" d="M32.5,67.62c3.01-17.43,16.76-31.19,34.2-34.2"/>
    <path class="cls-1" d="M66.69,116.2c-17.43-3.01-31.19-16.76-34.19-34.19"/>
    <path class="cls-1" d="M115.27,82.01c-3.01,17.43-16.76,31.18-34.19,34.19"/>
    <path class="cls-1" d="M81.08,33.43c17.43,3.01,31.19,16.76,34.2,34.2"/>
  </g>
  <g>
    <path class="cls-2" d="M62.88,83.81v1c0,3.87,3.13,7,7,7h8c3.87,0,7-3.13,7-7v-3c0-3.87-3.13-7-7-7h-8c-3.87,0-7-3.13-7-7v-3c0-3.87,3.13-7,7-7h8c3.87,0,7,3.13,7,7v1"/>
    <line class="cls-2" x1="73.88" y1="57.81" x2="73.88" y2="51.81"/>
    <line class="cls-2" x1="73.88" y1="97.81" x2="73.88" y2="91.81"/>
  </g>
</svg>