<?xml version="1.0" encoding="UTF-8"?>
<svg id="Layer_1" data-name="Layer 1" xmlns="http://www.w3.org/2000/svg" viewBox="0 0 150 150">
  <defs>
    <style>
      .cls-1 {
        stroke: #000;
      }

      .cls-1, .cls-2 {
        fill: none;
        stroke-linecap: round;
        stroke-linejoin: round;
        stroke-width: 4px;
      }

      .cls-2 {
        stroke: #f256b6;
      }
    </style>
  </defs>
  <g>
    <circle class="cls-1" cx="75.16" cy="51.41" r="24"/>
    <path class="cls-1" d="M75.16,63.41l-11-11c-2.24-2.09-2.16-5.84,0-8h0c1.78-1.78,4.38-1.71,6.52-.37l4.48,2.37,4.22-2.37c2.14-1.33,5-1.41,6.78.37h0c2.16,2.16,2.24,5.91,0,8l-11,11Z"/>
  </g>
  <path class="cls-2" d="M91.24,23.45c4.4-4.93,10.8-8.03,17.92-8.03,13.25,0,24,10.75,24,24s-10.75,24-24,24c-1.38,0-2.73-.12-4.05-.34"/>
  <path class="cls-2" d="M45.28,63.06c-1.34.23-2.71.35-4.11.35-13.25,0-24-10.75-24-24s10.75-24,24-24c7.11,0,13.49,3.09,17.89,8"/>
  <path class="cls-2" d="M33.16,88.41h52c2.21,0,4,1.79,4,4v8.44"/>
  <path class="cls-2" d="M33.16,129.41h51.03c5.75,0,11.28-2.25,15.39-6.28l36.85-34.43c3.73-3.48,4.2-9.55.74-13.29h0c-3.27-3.55-9.08-5.92-14-1l-36,28-18,2-15,7"/>
  <g>
    <line class="cls-2" x1="50.66" y1="29.91" x2="31.66" y2="48.91"/>
    <circle class="cls-2" cx="37.16" cy="28.41" r="4"/>
  </g>
  <g>
    <path class="cls-2" d="M115.16,27.41h-8.68c-2.38,0-4.32,1.95-4.32,4.36v3.27c0,2.41,1.93,4.36,4.32,4.36h5.35c2.37,0,4.3,1.94,4.32,4.34l.02,3.27c.01,2.42-1.92,4.39-4.32,4.39h-3.68"/>
    <line class="cls-2" x1="109.16" y1="51.41" x2="109.16" y2="55.41"/>
    <line class="cls-2" x1="109.16" y1="23.41" x2="109.16" y2="27.41"/>
  </g>
  <path class="cls-2" d="M43.16,53.88c-.29-.17-.57-.38-.83-.64-1.56-1.56-1.56-4.09,0-5.66.24-.24.5-.44.77-.61"/>
  <rect class="cls-1" x="17.16" y="81.41" width="16" height="54" rx="4" ry="4"/>
</svg>