<?xml version="1.0" encoding="UTF-8"?>
<svg id="Layer_1" data-name="Layer 1" xmlns="http://www.w3.org/2000/svg" viewBox="0 0 150 150">
  <defs>
    <style>
      .cls-1 {
        stroke: #000;
      }

      .cls-1, .cls-2 {
        fill: none;
        stroke-linecap: round;
        stroke-linejoin: round;
        stroke-width: 4px;
      }

      .cls-2 {
        stroke: #ff6a3b;
      }
    </style>
  </defs>
  <path class="cls-1" d="M92.26,71.15c2.01-1.28,4.41-2.03,6.97-2.03,7.18,0,12.82,5.85,12.82,13.03s-5.64,12.97-12.82,12.97c-2.66,0-5.12-.8-7.18-2.16"/>
  <path class="cls-1" d="M92.26,71.15c2.01-1.28,4.41-2.03,6.97-2.03,7.18,0,12.82,5.85,12.82,13.03s-5.64,12.97-12.82,12.97c-2.66,0-5.12-.8-7.18-2.16"/>
  <path class="cls-1" d="M68.26,71.15c2.01-1.28,4.41-2.03,6.97-2.03,7.18,0,12.82,5.85,12.82,13.03s-5.64,12.97-12.82,12.97c-2.66,0-5.12-.8-7.18-2.16"/>
  <line class="cls-1" x1="116.05" y1="112.15" x2="116.05" y2="131.15"/>
  <line class="cls-1" x1="98.05" y1="102.15" x2="109.05" y2="102.15"/>
  <path class="cls-1" d="M109.05,102.15l17.17-17.02c2.25-2.25,5.86-2.36,8.24-.24h0c2.58,2.3,2.7,6.3.26,8.74l-18.67,18.52"/>
  <path class="cls-1" d="M34.05,131.15v-17l-17.67-20.52c-2.45-2.45-2.33-6.44.26-8.74h0c2.38-2.11,5.99-2.01,8.24.24l15.17,17.02h19c3.87,0,7,3.13,7,7v22"/>
  <path class="cls-1" d="M71.05,102.15h13c3.87,0,7,3.13,7,7v22"/>
  <circle class="cls-1" cx="50.05" cy="82.15" r="13"/>
  <g>
    <polygon class="cls-2" points="75.05 14.15 81.67 27.8 96.05 30.13 85.77 40.15 88.05 54.11 75.05 47.78 62.05 54.11 64.33 40.15 54.05 30.13 68.42 27.8 75.05 14.15"/>
    <g>
      <polygon class="cls-2" points="115.05 33.11 119.68 42.32 130.05 43.8 122.55 50.98 124.32 61.11 115.05 56.32 105.78 61.11 107.55 50.98 100.05 43.8 110.41 42.32 115.05 33.11"/>
      <polygon class="cls-2" points="35.05 33.11 39.68 42.32 50.05 43.8 42.55 50.98 44.32 61.11 35.05 56.32 25.78 61.11 27.55 50.98 20.05 43.8 30.41 42.32 35.05 33.11"/>
    </g>
  </g>
</svg>