<?xml version="1.0" encoding="UTF-8"?>
<svg id="Layer_1" data-name="Layer 1" xmlns="http://www.w3.org/2000/svg" viewBox="0 0 150 150">
  <defs>
    <style>
      .cls-1 {
        stroke: #000;
      }

      .cls-1, .cls-2 {
        fill: none;
        stroke-linecap: round;
        stroke-linejoin: round;
        stroke-width: 4px;
      }

      .cls-2 {
        stroke: #ff6a3b;
      }
    </style>
  </defs>
  <path class="cls-2" d="M54.89,87.12l5.12,10.37,11.57,1.68c2.46.36,3.44,3.37,1.66,5.11l-8.37,8.16,1.95,11.39c.43,2.5-2.2,4.41-4.44,3.23l-10.23-5.38-10.23,5.38c-2.25,1.18-4.87-.73-4.44-3.23l1.95-11.39-8.37-8.16c-1.78-1.73-.8-4.75,1.66-5.11l11.57-1.68,5.12-10.37c1.12-2.27,4.37-2.27,5.49,0Z"/>
  <path class="cls-2" d="M106.89,87.12l5.12,10.37,11.57,1.68c2.46.36,3.44,3.37,1.66,5.11l-8.37,8.16,1.95,11.39c.43,2.5-2.2,4.41-4.44,3.23l-10.23-5.38-10.23,5.38c-2.25,1.18-4.87-.73-4.44-3.23l1.95-11.39-8.37-8.16c-1.78-1.73-.8-4.75,1.66-5.11l11.57-1.68,5.12-10.37c1.12-2.27,4.37-2.27,5.49,0Z"/>
  <path class="cls-1" d="M126.39,54.88l3.47,7.04,8.42,1.22c1.79.26,2.5,2.45,1.21,3.71l-6.09,5.94,1.31,7.63c.36,2.09-1.83,3.68-3.71,2.69l-6.85-3.6-6.85,3.6c-1.88.99-4.07-.61-3.71-2.69l1.31-7.63-6.09-5.94c-1.29-1.26-.58-3.45,1.21-3.71l8.42-1.22,3.47-7.04c.46-.93,1.35-1.47,2.24-1.47s1.78.54,2.24,1.47Z"/>
  <path class="cls-1" d="M34.39,54.88l3.47,7.04,8.42,1.22c1.79.26,2.5,2.45,1.21,3.71l-6.09,5.94,1.31,7.63c.36,2.09-1.83,3.68-3.71,2.69l-6.85-3.6-6.85,3.6c-1.88.99-4.07-.61-3.71-2.69l1.31-7.63-6.09-5.94c-1.29-1.26-.58-3.45,1.21-3.71l8.42-1.22,3.47-7.04c.46-.93,1.35-1.47,2.24-1.47s1.78.54,2.24,1.47Z"/>
  <path class="cls-2" d="M82,21.81l7.19,14.56,16.42,2.39c3.38.49,4.73,4.65,2.28,7.03l-11.88,11.58,2.74,17c.6,3.51-3.08,6.19-6.24,4.53l-14.37-7.56-14.37,7.56c-3.15,1.66-6.84-1.02-6.24-4.53l2.74-17-11.88-11.58c-2.45-2.38-1.1-6.54,2.28-7.03l16.42-2.39,7.19-14.56c1.58-3.2,6.13-3.2,7.71,0Z"/>
</svg>