<?xml version="1.0" encoding="UTF-8"?>
<svg id="Layer_1" data-name="Layer 1" xmlns="http://www.w3.org/2000/svg" viewBox="0 0 150 150">
  <defs>
    <style>
      .cls-1 {
        stroke: #fff;
      }

      .cls-1, .cls-2 {
        fill: none;
        stroke-linecap: round;
        stroke-linejoin: round;
        stroke-width: 4px;
      }

      .cls-2 {
        stroke: #ff6a3b;
      }
    </style>
  </defs>
  <path class="cls-1" d="M11.58,107.06h46.73c3.58,0,6.49,2.78,6.49,6.2v.36h30.1v-.36c0-3.42,2.9-6.2,6.49-6.2h44.71v18.52c0,2.8-2.38,5.08-5.31,5.08H16.89c-2.93,0-5.31-2.27-5.31-5.08v-18.52Z"/>
  <path class="cls-1" d="M21.02,107.06V20.34c0-6.85,4.97-12.4,11.11-12.4h95.78c6.14,0,11.11,5.55,11.11,12.4v86.09"/>
  <polygon class="cls-2" points="44.62 81.38 44.62 27.54 115.42 27.54 115.42 81.82 44.62 81.38"/>
</svg>