<?xml version="1.0" encoding="UTF-8"?>
<svg id="Layer_1" data-name="Layer 1" xmlns="http://www.w3.org/2000/svg" viewBox="0 0 150 150">
  <defs>
    <style>
      .cls-1 {
        stroke: #000;
      }

      .cls-1, .cls-2 {
        fill: none;
        stroke-linecap: round;
        stroke-linejoin: round;
        stroke-width: 4px;
      }

      .cls-2 {
        stroke: #00ca55;
      }
    </style>
  </defs>
  <path class="cls-1" d="M64.15,115.75v16.66h24v-16.66c3.32-.93,6.48-2.25,9.43-3.91l11.57,11.57,17-17-11.57-11.57c1.66-2.95,2.98-6.11,3.91-9.43h16.66v-24h-16.66c-.93-3.32-2.25-6.48-3.91-9.43l11.57-11.57-17-17-11.57,11.57c-2.95-1.66-6.11-2.98-9.43-3.91V14.41h-24v16.66c-3.32.93-6.48,2.25-9.43,3.91l-11.57-11.57-17,17,11.57,11.57c-1.66,2.95-2.98,6.11-3.91,9.43h-16.66v24h16.66c.93,3.32,2.25,6.48,3.91,9.43l-11.57,11.57,17,17,11.57-11.57c2.95,1.66,6.11,2.98,9.43,3.91Z"/>
  <g>
    <path class="cls-2" d="M89.24,54.5c5.99,4.15,9.91,11.08,9.91,18.91,0,12.7-10.3,23-23,23s-23-10.3-23-23,10.3-23,23-23"/>
    <polyline class="cls-2" points="100.15 54.41 89.15 54.41 89.15 65.29"/>
  </g>
</svg>