<?xml version="1.0" encoding="UTF-8"?>
<svg id="Layer_1" data-name="Layer 1" xmlns="http://www.w3.org/2000/svg" viewBox="0 0 150 150">
  <defs>
    <style>
      .cls-1 {
        stroke: #000;
      }

      .cls-1, .cls-2, .cls-3 {
        stroke-linecap: round;
        stroke-linejoin: round;
        stroke-width: 4px;
      }

      .cls-1, .cls-3 {
        fill: none;
      }

      .cls-2 {
        fill: #ff6a3b;
      }

      .cls-2, .cls-3 {
        stroke: #ff6a3b;
      }
    </style>
  </defs>
  <line class="cls-3" x1="36.05" y1="134.15" x2="115.05" y2="134.15"/>
  <g>
    <path class="cls-3" d="M46.05,134.15c0-16.02,12.98-29,29-29s29,12.98,29,29"/>
    <line class="cls-1" x1="75.05" y1="118.15" x2="75.05" y2="93.15"/>
    <path class="cls-1" d="M106.53,78.64c-12.5,12.5-31.49,14.51-31.49,14.51,0,0,2.02-18.99,14.51-31.49,12.5-12.5,31.49-14.51,31.49-14.51,0,0-2.02,18.99-14.51,31.49Z"/>
    <path class="cls-1" d="M43.56,78.64c12.5,12.5,31.49,14.51,31.49,14.51,0,0-2.02-18.99-14.51-31.49-12.5-12.5-31.49-14.51-31.49-14.51,0,0,2.02,18.99,14.51,31.49Z"/>
  </g>
  <g>
    <circle class="cls-3" cx="75.05" cy="34.15" r="23"/>
    <g>
      <polyline class="cls-3" points="81.05 26.15 81.05 23.15 70.05 23.15 70.05 34.15 81.05 34.15 81.05 45.15 70.05 45.15 70.05 42.15"/>
      <line class="cls-3" x1="75.05" y1="19.15" x2="75.05" y2="23.15"/>
      <line class="cls-2" x1="75.05" y1="45.15" x2="75.05" y2="49.15"/>
    </g>
  </g>
</svg>