<?xml version="1.0" encoding="UTF-8"?>
<svg id="Layer_1" data-name="Layer 1" xmlns="http://www.w3.org/2000/svg" viewBox="0 0 150 150">
  <defs>
    <style>
      .cls-1 {
        stroke: #fff;
      }

      .cls-1, .cls-2 {
        fill: none;
        stroke-linecap: round;
        stroke-linejoin: round;
        stroke-width: 4px;
      }

      .cls-2 {
        stroke: #00ca55;
      }
    </style>
  </defs>
  <g>
    <path class="cls-1" d="M53.16,36.41v-12.6c0-2.98,2.57-5.4,5.75-5.4h34.5c3.18,0,5.75,2.42,5.75,4.45v13.55"/>
    <path class="cls-1" d="M85.16,124.41H24.8c-4.22,0-7.63-3.42-7.63-7.63V44.05c0-4.22,3.42-7.63,7.63-7.63h102.74c4.22,0,7.63,3.42,7.63,7.63v35.37"/>
    <path class="cls-1" d="M68.16,77.41h-10c-10.85,0-20.56-5.67-26.02-15.09l-13.32-23.03"/>
    <path class="cls-1" d="M133.5,39.29l-13.32,23.03c-5.45,9.43-15.17,15.09-26.02,15.09h-10"/>
    <rect class="cls-1" x="68.16" y="69.41" width="16" height="18" rx="2" ry="2"/>
  </g>
  <g>
    <circle class="cls-2" cx="116.16" cy="108.41" r="27"/>
    <g>
      <path class="cls-2" d="M123.12,96.41h-9.64c-2.38,0-4.32,1.95-4.32,4.36v3.27c0,2.41,1.93,4.36,4.32,4.36h5.35c2.37,0,4.3,1.94,4.32,4.34l.02,3.27c.01,2.42-1.92,4.39-4.32,4.39h-9.68"/>
      <line class="cls-2" x1="116.16" y1="120.41" x2="116.16" y2="126.41"/>
      <line class="cls-2" x1="116.16" y1="90.41" x2="116.16" y2="96.41"/>
    </g>
  </g>
</svg>