<?xml version="1.0" encoding="UTF-8"?>
<svg id="Layer_1" data-name="Layer 1" xmlns="http://www.w3.org/2000/svg" viewBox="0 0 150 150">
  <defs>
    <style>
      .cls-1 {
        stroke: #fff;
      }

      .cls-1, .cls-2 {
        fill: none;
        stroke-linecap: round;
        stroke-linejoin: round;
        stroke-width: 4px;
      }

      .cls-2 {
        stroke: #ff6a3b;
      }
    </style>
  </defs>
  <line class="cls-2" x1="74.92" y1="57.58" x2="72.71" y2="46.52"/>
  <line class="cls-2" x1="66.07" y1="59.79" x2="59.44" y2="53.16"/>
  <line class="cls-2" x1="81.55" y1="59.79" x2="85.97" y2="48.74"/>
  <line class="cls-2" x1="85.97" y1="64.22" x2="97.03" y2="59.79"/>
  <line class="cls-2" x1="68.28" y1="81.91" x2="63.86" y2="92.96"/>
  <line class="cls-2" x1="77.13" y1="84.12" x2="79.34" y2="95.18"/>
  <line class="cls-2" x1="83.76" y1="79.7" x2="92.61" y2="88.54"/>
  <line class="cls-2" x1="63.86" y1="75.27" x2="52.8" y2="81.91"/>
  <line class="cls-2" x1="61.65" y1="68.64" x2="50.59" y2="66.43"/>
  <line class="cls-2" x1="88.19" y1="73.06" x2="99.24" y2="75.27"/>
  <line class="cls-1" x1="103.66" y1="43.64" x2="116.93" y2="28.16"/>
  <line class="cls-1" x1="114.72" y1="54.7" x2="130.2" y2="43.64"/>
  <line class="cls-1" x1="79.34" y1="32.58" x2="81.55" y2="12.68"/>
  <line class="cls-1" x1="92.61" y1="34.79" x2="99.24" y2="17.1"/>
  <line class="cls-1" x1="114.72" y1="96.71" x2="132.41" y2="105.56"/>
  <line class="cls-1" x1="105.88" y1="107.77" x2="119.14" y2="121.04"/>
  <line class="cls-1" x1="94.82" y1="116.61" x2="103.66" y2="134.31"/>
  <line class="cls-1" x1="119.14" y1="67.96" x2="139.05" y2="65.75"/>
  <line class="cls-1" x1="119.14" y1="81.23" x2="139.05" y2="85.65"/>
  <line class="cls-1" x1="39.53" y1="50.27" x2="24.05" y2="39.22"/>
  <line class="cls-1" x1="32.9" y1="63.54" x2="15.21" y2="56.91"/>
  <line class="cls-1" x1="63.86" y1="32.58" x2="57.23" y2="12.68"/>
  <line class="cls-1" x1="50.59" y1="39.22" x2="39.53" y2="23.74"/>
  <line class="cls-1" x1="41.75" y1="103.35" x2="28.48" y2="116.61"/>
  <line class="cls-1" x1="52.8" y1="112.19" x2="43.96" y2="129.88"/>
  <line class="cls-1" x1="66.07" y1="118.83" x2="61.65" y2="138.73"/>
  <line class="cls-1" x1="81.55" y1="121.04" x2="83.76" y2="140.94"/>
  <line class="cls-1" x1="30.69" y1="76.81" x2="10.79" y2="79.02"/>
  <line class="cls-1" x1="32.9" y1="90.08" x2="15.21" y2="98.92"/>
</svg>