<?xml version="1.0" encoding="UTF-8"?>
<svg id="Layer_1" data-name="Layer 1" xmlns="http://www.w3.org/2000/svg" viewBox="0 0 150 150">
  <defs>
    <style>
      .cls-1 {
        stroke: #fff;
      }

      .cls-1, .cls-2 {
        fill: none;
        stroke-linecap: round;
        stroke-linejoin: round;
        stroke-width: 4px;
      }

      .cls-2 {
        stroke: #ff6a3b;
      }
    </style>
  </defs>
  <polyline class="cls-1" points="107.15 50.99 107.15 29.41 86.15 50.41"/>
  <path class="cls-1" d="M83.15,120.41v7c0,2.21,1.79,4,4,4h12c2.21,0,4-1.79,4-4v-7"/>
  <path class="cls-1" d="M43.15,118.91v8.5c0,2.21,1.79,4,4,4h12c2.21,0,4-1.79,4-4v-7"/>
  <path class="cls-1" d="M124.15,100.41h7c3.31,0,6-2.69,6-6v-21c0-3.31-2.69-6-6-6h-7"/>
  <path class="cls-1" d="M29.15,92.41v6c0,12.15,9.85,22,22,22h51c12.15,0,22-9.85,22-22v-26c0-12.15-9.85-22-22-22h-16"/>
  <g>
    <circle class="cls-2" cx="49.65" cy="60.91" r="31.5"/>
    <g>
      <path class="cls-2" d="M59.15,51.41v-4.69c0-1.83-1.48-3.31-3.31-3.31h-11.38c-1.83,0-3.31,1.48-3.31,3.31v10.38c0,1.83,1.48,3.31,3.31,3.31h11.38c1.83,0,3.31,1.48,3.31,3.31v11.38c0,1.83-1.48,3.31-3.31,3.31h-11.38c-1.83,0-3.31-1.48-3.31-3.31v-4.69"/>
      <line class="cls-2" x1="50.15" y1="38.41" x2="50.15" y2="43.41"/>
      <line class="cls-2" x1="50.15" y1="78.41" x2="50.15" y2="83.41"/>
    </g>
  </g>
  <circle class="cls-1" cx="103.65" cy="72.91" r="7"/>
</svg>