<?xml version="1.0" encoding="UTF-8"?>
<svg id="Layer_1" data-name="Layer 1" xmlns="http://www.w3.org/2000/svg" viewBox="0 0 150 150">
  <defs>
    <style>
      .cls-1 {
        stroke: #fff;
      }

      .cls-1, .cls-2 {
        fill: none;
        stroke-linecap: round;
        stroke-linejoin: round;
        stroke-width: 4px;
      }

      .cls-2 {
        stroke: #f256b6;
      }
    </style>
  </defs>
  <g>
    <path class="cls-1" d="M38,82.94v7c0,3.31,2.69,6,6,6h19"/>
    <path class="cls-1" d="M112,82.94v7c0,3.31-2.69,6-6,6h-19"/>
    <path class="cls-2" d="M103,117.94h-6l-7.31-10.97c-1.75-2.63-2.69-5.72-2.69-8.88v-7.16c0-6.63-5.37-12-12-12s-12,5.37-12,12v7.16c0,3.16-.94,6.25-2.69,8.88l-7.31,10.97h-6c-3.31,0-6,2.69-6,6v4c0,2.21,1.79,4,4,4h60c2.21,0,4-1.79,4-4v-4c0-3.31-2.69-6-6-6Z"/>
    <line class="cls-2" x1="53" y1="117.94" x2="87" y2="117.94"/>
    <circle class="cls-1" cx="75" cy="90.94" r="1"/>
    <path class="cls-2" d="M52.6,82.94h-29.21c-2.11,0-4.06-1.11-5.14-2.91l-4.25-7.09h48l-4.25,7.09c-1.08,1.81-3.04,2.91-5.14,2.91Z"/>
    <path class="cls-2" d="M97.39,82.94h29.21c2.11,0,4.06-1.11,5.14-2.91l4.25-7.09h-48l4.25,7.09c1.08,1.81,3.04,2.91,5.14,2.91Z"/>
  </g>
  <g>
    <path class="cls-1" d="M59.12,40.44l-1.98-1.59c-.75-.6-1.3-1.39-1.61-2.3l-1.98-5.83c-1.38-4.06-5.19-6.79-9.47-6.79h-12.17c-4.28,0-8.09,2.73-9.47,6.79l-1.98,5.83c-.31.9-.87,1.7-1.61,2.3l-1.98,1.59c-1.19.95-1.88,2.39-1.88,3.9v7.6c0,2.76,2.24,5,5,5h36c2.76,0,5-2.24,5-5v-7.6c0-1.52-.69-2.96-1.88-3.9Z"/>
    <path class="cls-1" d="M29,56.94v6c0,1.1-.9,2-2,2h-4c-1.1,0-2-.9-2-2v-6"/>
    <path class="cls-1" d="M55,56.94v6c0,1.1-.9,2-2,2h-4c-1.1,0-2-.9-2-2v-6"/>
    <line class="cls-1" x1="22" y1="46.94" x2="28" y2="47.94"/>
    <line class="cls-1" x1="54" y1="46.94" x2="48" y2="47.94"/>
    <path class="cls-1" d="M56,36.94l3.99-.02c1.66.01,3.01-1.33,3.01-2.99h0c0-1.65-1.34-2.99-2.99-2.99h0"/>
    <path class="cls-1" d="M20,36.94l-3.99-.02c-1.66.01-3.01-1.33-3.01-2.99h0c0-1.65,1.34-2.99,2.99-2.99h0"/>
    <line class="cls-1" x1="44.08" y1="37.94" x2="31.91" y2="37.94"/>
  </g>
  <g>
    <path class="cls-1" d="M133.12,40.44l-1.98-1.59c-.75-.6-1.3-1.39-1.61-2.3l-1.98-5.83c-1.38-4.06-5.19-6.79-9.47-6.79h-12.17c-4.28,0-8.09,2.73-9.47,6.79l-1.98,5.83c-.31.9-.87,1.7-1.61,2.3l-1.98,1.59c-1.19.95-1.88,2.39-1.88,3.9v7.6c0,2.76,2.24,5,5,5h36c2.76,0,5-2.24,5-5v-7.6c0-1.52-.69-2.96-1.88-3.9Z"/>
    <path class="cls-1" d="M103,56.94v6c0,1.1-.9,2-2,2h-4c-1.1,0-2-.9-2-2v-6"/>
    <path class="cls-1" d="M129,56.94v6c0,1.1-.9,2-2,2h-4c-1.1,0-2-.9-2-2v-6"/>
    <line class="cls-1" x1="96" y1="46.94" x2="102" y2="47.94"/>
    <line class="cls-1" x1="128" y1="46.94" x2="122" y2="47.94"/>
    <path class="cls-1" d="M130,36.94l3.99-.02c1.66.01,3.01-1.33,3.01-2.99h0c0-1.65-1.34-2.99-2.99-2.99h0"/>
    <path class="cls-1" d="M94,36.94l-3.99-.02c-1.66.01-3.01-1.33-3.01-2.99h0c0-1.65,1.34-2.99,2.99-2.99h0"/>
    <line class="cls-1" x1="118.08" y1="37.94" x2="105.91" y2="37.94"/>
  </g>
</svg>