<?xml version="1.0" encoding="UTF-8"?>
<svg id="Layer_1" data-name="Layer 1" xmlns="http://www.w3.org/2000/svg" viewBox="0 0 150 150">
  <defs>
    <style>
      .cls-1 {
        stroke: #000;
      }

      .cls-1, .cls-2 {
        fill: none;
        stroke-linecap: round;
        stroke-linejoin: round;
        stroke-width: 4px;
      }

      .cls-2 {
        stroke: #ff6a3b;
      }
    </style>
  </defs>
  <path class="cls-2" d="M89.87,24.22c12.5,5.34,21.28,17.75,21.28,32.19"/>
  <path class="cls-1" d="M41.15,56.41c0-14.44,8.78-26.85,21.28-32.19"/>
  <circle class="cls-1" cx="76.15" cy="56.41" r="6"/>
  <g>
    <circle class="cls-1" cx="44.15" cy="21.41" r="6"/>
    <circle class="cls-1" cx="108.15" cy="21.41" r="6"/>
  </g>
  <path class="cls-1" d="M82.15,21.41c0-3.31-2.69-6-6-6s-6,2.69-6,6"/>
  <path class="cls-1" d="M69.15,72.41h14v4c0,2.21-1.79,4-4,4h-6c-2.21,0-4-1.79-4-4v-4h0Z"/>
  <line class="cls-1" x1="76.15" y1="28.41" x2="76.15" y2="50.41"/>
  <path class="cls-1" d="M69.15,72.41c0-5.52-4.48-10-10-10"/>
  <path class="cls-1" d="M83.15,72.41c0-5.52,4.48-10,10-10"/>
  <path class="cls-1" d="M59.15,62.41c0-18,13-34,17-34"/>
  <path class="cls-1" d="M93.15,62.41c0-18-13-34-17-34"/>
  <line class="cls-1" x1="50.15" y1="21.41" x2="56.15" y2="21.41"/>
  <line class="cls-1" x1="96.15" y1="21.41" x2="102.15" y2="21.41"/>
  <g>
    <g>
      <path class="cls-2" d="M38.15,99.41h76v38c0,1.1-.9,2-2,2H40.15c-1.1,0-2-.9-2-2v-38h0Z"/>
      <line class="cls-2" x1="76.15" y1="139.41" x2="76.15" y2="99.41"/>
      <path class="cls-2" d="M76.15,99.41l7.17-7.17c1.81-1.81,2.83-4.27,2.83-6.83h0c0-1.1.9-2,2-2h34c1.1,0,2,.9,2,2h0c0,2.56-1.02,5.02-2.83,6.83l-7.17,7.17"/>
      <path class="cls-2" d="M76.15,99.41l-7.17-7.17c-1.81-1.81-2.83-4.27-2.83-6.83h0c0-1.1-.9-2-2-2H30.15c-1.1,0-2,.9-2,2h0c0,2.56,1.02,5.02,2.83,6.83l7.17,7.17"/>
    </g>
    <line class="cls-1" x1="106.15" y1="123.41" x2="98.15" y2="123.41"/>
    <line class="cls-1" x1="106.15" y1="131.41" x2="94.15" y2="131.41"/>
  </g>
</svg>