<?xml version="1.0" encoding="UTF-8"?>
<svg id="Layer_1" data-name="Layer 1" xmlns="http://www.w3.org/2000/svg" viewBox="0 0 150 150">
  <defs>
    <style>
      .cls-1 {
        stroke: #fff;
      }

      .cls-1, .cls-2 {
        fill: none;
        stroke-linecap: round;
        stroke-linejoin: round;
        stroke-width: 4px;
      }

      .cls-2 {
        stroke: #ff6a3b;
      }
    </style>
  </defs>
  <line class="cls-2" x1="66.15" y1="60.41" x2="99.15" y2="27.41"/>
  <line class="cls-2" x1="84.15" y1="60.41" x2="51.15" y2="27.41"/>
  <g>
    <path class="cls-2" d="M84.15,133.41h0c0,3.31-2.69,6-6,6h-6c-3.31,0-6-2.69-6-6h0"/>
    <line class="cls-2" x1="75.15" y1="126.41" x2="75.15" y2="104.41"/>
    <line class="cls-2" x1="68.15" y1="104.41" x2="83.15" y2="104.41"/>
    <path class="cls-2" d="M92.15,102.41c0,6.08-3.19,11.42-8,14.42v10.58h-18v-10.58c-4.81-3-8-8.34-8-14.42,0-9.39,7.61-17,17-17s17,7.61,17,17Z"/>
  </g>
  <g>
    <circle class="cls-1" cx="119.15" cy="54.41" r="13"/>
    <path class="cls-1" d="M126.15,88.41v26.5c0,3.04,2.46,5.5,5.5,5.5h0c3.04,0,5.5-2.46,5.5-5.5v-33.5c0-3.87-3.13-7-7-7h-24"/>
    <line class="cls-1" x1="104.15" y1="120.41" x2="104.15" y2="88.41"/>
    <path class="cls-1" d="M106.15,74.41l-14-14c-2.21-2.21-5.79-2.21-8,0h0c-2.21,2.21-2.21,5.79,0,8l20,20"/>
  </g>
  <g>
    <circle class="cls-1" cx="31.15" cy="54.41" r="13"/>
    <path class="cls-1" d="M24.15,88.41v26.5c0,3.04-2.46,5.5-5.5,5.5h0c-3.04,0-5.5-2.46-5.5-5.5v-33.5c0-3.87,3.13-7,7-7h24"/>
    <line class="cls-1" x1="46.15" y1="120.41" x2="46.15" y2="88.41"/>
    <path class="cls-1" d="M44.15,74.41l14-14c2.21-2.21,5.79-2.21,8,0h0c2.21,2.21,2.21,5.79,0,8l-20,20"/>
  </g>
</svg>