<?xml version="1.0" encoding="UTF-8"?>
<svg id="Layer_1" data-name="Layer 1" xmlns="http://www.w3.org/2000/svg" viewBox="0 0 150 150">
  <defs>
    <style>
      .cls-1 {
        stroke: #000;
      }

      .cls-1, .cls-2 {
        fill: none;
        stroke-linecap: round;
        stroke-linejoin: round;
        stroke-width: 4px;
      }

      .cls-2 {
        stroke: #ff6a3b;
      }
    </style>
  </defs>
  <g>
    <path class="cls-2" d="M103,76.05c0,1.13-.07,2.25-.21,3.34-.19,1.51-1.46,2.66-2.99,2.66h-1.57c-1.24,0-2.33.77-2.79,1.92-.73,1.78-1.69,3.44-2.86,4.94-.76.98-.89,2.31-.27,3.39l.68,1.17c.85,1.46.56,3.12-.61,4.02-1.82,1.4-3.83,2.57-5.98,3.47-1.37.57-2.96,0-3.7-1.29l-.67-1.17c-.73-1.26-1.93-1.82-3.15-1.65-.94.13-1.91.2-2.88.2s-1.94-.07-2.88-.2c-1.22-.17-2.42.39-3.04,1.46l-.78,1.36c-.74,1.29-2.33,1.87-3.7,1.29-2.15-.9-4.15-2.07-5.98-3.47-1.17-.9-1.46-2.56-.72-3.84l.78-1.35c.62-1.08.49-2.41-.27-3.39-1.17-1.5-2.13-3.16-2.86-4.94-.47-1.15-1.56-1.92-2.79-1.92h-1.57c-1.53,0-2.8-1.15-2.99-2.66-.14-1.1-.21-2.21-.21-3.34s.07-2.25.21-3.34c.19-1.51,1.46-2.66,2.99-2.66h1.57c1.24,0,2.33-.77,2.79-1.92.73-1.78,1.69-3.44,2.86-4.94.76-.98.89-2.31.27-3.39l-.68-1.17c-.85-1.46-.56-3.12.61-4.02,1.82-1.4,3.83-2.57,5.98-3.47,1.37-.57,2.96,0,3.7,1.29l.78,1.36c.62,1.07,1.82,1.63,3.04,1.46.94-.13,1.91-.2,2.88-.2s1.94.07,2.88.2c1.22.17,2.42-.39,3.04-1.46l.78-1.36c.74-1.29,2.33-1.87,3.7-1.29,2.15.9,4.15,2.07,5.98,3.47,1.17.9,1.46,2.56.72,3.84l-.78,1.35c-.62,1.08-.49,2.41.27,3.39,1.17,1.5,2.13,3.16,2.86,4.94.47,1.15,1.56,1.92,2.79,1.92h1.57c1.53,0,2.8,1.15,2.99,2.66.14,1.1.21,2.21.21,3.34Z"/>
    <circle class="cls-2" cx="76" cy="76.05" r="10"/>
  </g>
  <g>
    <rect class="cls-1" x="59" y="17.05" width="34" height="22" rx="7" ry="7"/>
    <path class="cls-1" d="M61.05,19.1l7.88,7.88c3.9,3.9,10.24,3.9,14.14,0l7.88-7.88"/>
  </g>
  <g>
    <rect class="cls-1" x="14" y="99.05" width="34" height="22" rx="7" ry="7"/>
    <path class="cls-1" d="M16.05,101.1l7.88,7.88c3.9,3.9,10.24,3.9,14.14,0l7.88-7.88"/>
  </g>
  <g>
    <rect class="cls-1" x="104" y="99.05" width="34" height="22" rx="7" ry="7"/>
    <path class="cls-1" d="M106.05,101.1l7.88,7.88c3.9,3.9,10.24,3.9,14.14,0l7.88-7.88"/>
  </g>
  <path class="cls-2" d="M51.88,124.36c7.26,3.64,15.46,5.69,24.12,5.69s16.86-2.05,24.12-5.69"/>
  <path class="cls-2" d="M101,28.2c17.22,9.02,29,27.08,29,47.85,0,5.2-.74,10.24-2.12,15"/>
  <path class="cls-2" d="M24.12,91.05c-1.38-4.76-2.12-9.8-2.12-15,0-20.77,11.78-38.83,29-47.85"/>
</svg>