<?xml version="1.0" encoding="UTF-8"?>
<svg id="Layer_1" data-name="Layer 1" xmlns="http://www.w3.org/2000/svg" viewBox="0 0 150 150">
  <defs>
    <style>
      .cls-1 {
        stroke: #000;
      }

      .cls-1, .cls-2 {
        fill: none;
        stroke-linecap: round;
        stroke-linejoin: round;
        stroke-width: 4px;
      }

      .cls-2 {
        stroke: #00ca55;
      }
    </style>
  </defs>
  <g>
    <path class="cls-1" d="M72.38,34.97l4.81-3.84c-1.01-2.1-2.26-4.12-3.77-6.01-1.51-1.9-3.2-3.56-5.02-5.01l-4.82,3.84c-2.31-1.64-4.91-2.91-7.7-3.71v-6.16c-2.27-.52-4.62-.8-7.05-.8s-4.78.28-7.05.8v6.16c-2.79.8-5.39,2.07-7.7,3.71l-4.82-3.84c-1.82,1.45-3.51,3.11-5.02,5.01-1.51,1.9-2.76,3.92-3.77,6.01l4.81,3.84c-1.08,2.59-1.74,5.4-1.9,8.34l-6,1.37c0,2.33.25,4.69.79,7.05.54,2.36,1.34,4.6,2.35,6.69l6-1.37c1.39,2.52,3.2,4.78,5.33,6.68l-2.67,5.55c1.82,1.45,3.82,2.73,6,3.78s4.43,1.82,6.7,2.33l2.67-5.55c1.39.23,2.82.36,4.27.36s2.88-.13,4.27-.36l2.67,5.55c2.27-.52,4.51-1.28,6.7-2.33s4.18-2.33,6-3.78l-2.67-5.55c2.13-1.9,3.94-4.16,5.33-6.68l6,1.37c1.01-2.09,1.81-4.33,2.35-6.69s.79-4.72.79-7.05l-6-1.37c-.16-2.94-.82-5.75-1.9-8.34Z"/>
    <g>
      <path class="cls-2" d="M39.88,51.81v2c0,2.21,1.79,4,4,4h10c2.21,0,4-1.79,4-4v-5c0-2.76-2.24-5-5-5h-8c-2.76,0-5-2.24-5-5v-5c0-2.21,1.79-4,4-4h10c2.21,0,4,1.79,4,4v2"/>
      <line class="cls-2" x1="48.88" y1="29.81" x2="48.88" y2="24.81"/>
      <line class="cls-2" x1="48.88" y1="62.81" x2="48.88" y2="57.81"/>
    </g>
  </g>
  <g>
    <path class="cls-2" d="M10.88,98.56c75.12-3.12,110.26-62.12,117-83.75"/>
    <polyline class="cls-2" points="108.55 22.22 127.88 14.81 135.26 34.07"/>
  </g>
  <g>
    <line class="cls-1" x1="10.88" y1="136.81" x2="133.88" y2="136.81"/>
    <path class="cls-1" d="M10.88,136.81v-26c0-2.21,1.79-4,4-4h16c2.21,0,4,1.79,4,4v26"/>
    <path class="cls-1" d="M109.88,136.81V60.81c0-2.21,1.79-4,4-4h16c2.21,0,4,1.79,4,4v76"/>
    <path class="cls-1" d="M43.88,136.81v-32c0-2.21,1.79-4,4-4h16c2.21,0,4,1.79,4,4v32"/>
    <path class="cls-1" d="M76.88,136.81v-47c0-2.21,1.79-4,4-4h16c2.21,0,4,1.79,4,4v47"/>
  </g>
</svg>