<?xml version="1.0" encoding="UTF-8"?>
<svg id="Layer_1" data-name="Layer 1" xmlns="http://www.w3.org/2000/svg" viewBox="0 0 150 150">
  <defs>
    <style>
      .cls-1 {
        stroke: #000;
      }

      .cls-1, .cls-2 {
        fill: none;
        stroke-linecap: round;
        stroke-linejoin: round;
        stroke-width: 4px;
      }

      .cls-2 {
        stroke: #f256b6;
      }
    </style>
  </defs>
  <g>
    <path class="cls-1" d="M51,55.56l-8.44,8.44c-.9.9-1.41,2.13-1.41,3.41s.51,2.51,1.41,3.41l3.18,3.18c.9.9,2.13,1.41,3.41,1.41s2.51-.51,3.41-1.41l8.44-8.44"/>
    <circle class="cls-1" cx="75.15" cy="41.41" r="28"/>
  </g>
  <g>
    <g>
      <path class="cls-2" d="M37.15,97.41h76v38c0,1.1-.9,2-2,2H39.15c-1.1,0-2-.9-2-2v-38h0Z"/>
      <line class="cls-2" x1="75.15" y1="137.41" x2="75.15" y2="97.41"/>
      <path class="cls-2" d="M75.15,97.41l7.17-7.17c1.81-1.81,2.83-4.27,2.83-6.83h0c0-1.1.9-2,2-2h34c1.1,0,2,.9,2,2h0c0,2.56-1.02,5.02-2.83,6.83l-7.17,7.17"/>
      <path class="cls-2" d="M75.15,97.41l-7.17-7.17c-1.81-1.81-2.83-4.27-2.83-6.83h0c0-1.1-.9-2-2-2H29.15c-1.1,0-2,.9-2,2h0c0,2.56,1.02,5.02,2.83,6.83l7.17,7.17"/>
    </g>
    <line class="cls-1" x1="105.15" y1="121.41" x2="97.15" y2="121.41"/>
    <line class="cls-1" x1="105.15" y1="129.41" x2="93.15" y2="129.41"/>
  </g>
  <g>
    <path class="cls-1" d="M57.15,62.86v-2.45c0-4.42,3.58-8,8-8h20c4.42,0,8,3.58,8,8v2.45"/>
    <circle class="cls-1" cx="75.15" cy="34.41" r="12"/>
  </g>
</svg>