<?xml version="1.0" encoding="UTF-8"?>
<svg id="Layer_1" data-name="Layer 1" xmlns="http://www.w3.org/2000/svg" viewBox="0 0 150 150">
  <defs>
    <style>
      .cls-1 {
        stroke: #000;
      }

      .cls-1, .cls-2 {
        fill: none;
        stroke-linecap: round;
        stroke-linejoin: round;
        stroke-width: 4px;
      }

      .cls-2 {
        stroke: #ff6a3b;
      }
    </style>
  </defs>
  <g>
    <path class="cls-2" d="M114.15,125.41h9c2.76,0,5-2.24,5-5v-2c0-2.76-2.24-5-5-5h-6c-2.76,0-5-2.24-5-5v-2c0-2.76,2.24-5,5-5h9"/>
    <line class="cls-2" x1="120.15" y1="101.41" x2="120.15" y2="97.41"/>
    <line class="cls-2" x1="120.15" y1="129.41" x2="120.15" y2="125.41"/>
  </g>
  <path class="cls-1" d="M37.15,135.41s15-10,33-10,29,10,29,10"/>
  <path class="cls-1" d="M58.29,126.77c3.79-16.52-1.34-31.01-3.87-36.74-.39-.89.59-1.75,1.43-1.27,11.83,6.86,15.31,21.65,15.31,21.65,0-23.89,8.91-42.53,13.83-51.01.57-.98,2.07-.41,1.84.7-2.64,12.74-7.35,44.45,4.26,70.15"/>
  <path class="cls-2" d="M46.15,91.41s-9,2-9,22c0,0-10-23,4-33,0,0-8-8-17,2,0,0,2-16,19-12,0,0,2-19,16-19,0,0-10,12-5,22,0,0,11-11,21-6,0,0-13,2-17,15"/>
  <path class="cls-2" d="M78.15,55.41s4-22-26-18c0,0,12-16,33,0,0,0,6-13-5-22,0,0,17,1,17,23,0,0,26-8,26,21,0,0-9-17-22-11,0,0,20,21,1,45,0,0,4-26-9-29"/>
</svg>