<?xml version="1.0" encoding="UTF-8"?>
<svg id="Layer_1" data-name="Layer 1" xmlns="http://www.w3.org/2000/svg" viewBox="0 0 150 150">
  <defs>
    <style>
      .cls-1 {
        stroke: #000;
      }

      .cls-1, .cls-2 {
        fill: none;
        stroke-linecap: round;
        stroke-linejoin: round;
        stroke-width: 4px;
      }

      .cls-2 {
        stroke: #f256b6;
      }
    </style>
  </defs>
  <g>
    <g>
      <path class="cls-1" d="M89.05,115.67c4.84,3.43,8,9.09,8,15.48v1c0,3.31-2.69,6-6,6h-32c-3.31,0-6-2.69-6-6v-1c0-6.39,3.16-12.04,8-15.48"/>
      <path class="cls-1" d="M85.68,96.15h0c1.86,0,3.37-1.51,3.37-3.37v-3.63c0-7.18-5.82-13-13-13h-2c-7.18,0-13,5.82-13,13v3.63c0,1.86,1.51,3.37,3.37,3.37h0c1.55,0,2.89-1.05,3.27-2.55l.6-2.42c.45-1.78,2.05-3.03,3.88-3.03h5.75c1.84,0,3.44,1.25,3.88,3.03l.6,2.42c.37,1.5,1.72,2.55,3.27,2.55Z"/>
      <path class="cls-1" d="M64.05,102.15v.69c0,2.12.84,4.16,2.34,5.66l1.9,1.9c1.13,1.13,2.65,1.76,4.24,1.76h5.03c1.59,0,3.12-.63,4.24-1.76l1.9-1.9c1.5-1.5,2.34-3.54,2.34-5.66v-.69"/>
      <path class="cls-1" d="M82.05,117.15c0,3.87-3.13,7-7,7-1.94,0-3.68-.78-4.95-2.05s-2.05-3.01-2.05-4.95"/>
    </g>
    <g>
      <path class="cls-2" d="M46.05,138.15h-24c-3.31,0-6-2.69-6-6v-1c0-6.39,3.16-12.04,8-15.48"/>
      <path class="cls-2" d="M48.68,96.15h0c1.86,0,3.37-1.51,3.37-3.37v-3.63c0-7.18-5.82-13-13-13h-2c-7.18,0-13,5.82-13,13v3.63c0,1.86,1.51,3.37,3.37,3.37h0c1.55,0,2.89-1.05,3.27-2.55l.6-2.42c.45-1.78,2.05-3.03,3.88-3.03h5.75c1.84,0,3.44,1.25,3.88,3.03l.6,2.42c.37,1.5,1.72,2.55,3.27,2.55Z"/>
      <path class="cls-2" d="M27.05,102.15v.69c0,2.12.84,4.16,2.34,5.66l1.9,1.9c1.13,1.13,2.65,1.76,4.24,1.76h5.03c1.59,0,3.12-.63,4.24-1.76l1.9-1.9c1.5-1.5,2.34-3.54,2.34-5.66v-.69"/>
      <path class="cls-2" d="M45.05,117.15c0,3.87-3.13,7-7,7-1.94,0-3.68-.78-4.95-2.05s-2.05-3.01-2.05-4.95"/>
    </g>
    <g>
      <path class="cls-2" d="M126.05,115.67c4.84,3.43,8,9.09,8,15.48v1c0,3.31-2.69,6-6,6h-24"/>
      <path class="cls-2" d="M122.68,96.15h0c1.86,0,3.37-1.51,3.37-3.37v-3.63c0-7.18-5.82-13-13-13h-2c-7.18,0-13,5.82-13,13v3.63c0,1.86,1.51,3.37,3.37,3.37h0c1.55,0,2.89-1.05,3.27-2.55l.6-2.42c.45-1.78,2.05-3.03,3.88-3.03h5.75c1.84,0,3.44,1.25,3.88,3.03l.6,2.42c.37,1.5,1.72,2.55,3.27,2.55Z"/>
      <path class="cls-2" d="M101.05,102.15v.69c0,2.12.84,4.16,2.34,5.66l1.9,1.9c1.13,1.13,2.65,1.76,4.24,1.76h5.03c1.59,0,3.12-.63,4.24-1.76l1.9-1.9c1.5-1.5,2.34-3.54,2.34-5.66v-.69"/>
      <path class="cls-2" d="M119.05,117.15c0,3.87-3.13,7-7,7-1.94,0-3.68-.78-4.95-2.05s-2.05-3.01-2.05-4.95"/>
    </g>
  </g>
  <g>
    <path class="cls-1" d="M62.14,45.79s-.01-.02-.02-.03l-11.75-20.36c-1.52-2.64-.37-6.05,2.47-7.14,6.9-2.66,14.39-4.11,22.21-4.11s15.31,1.45,22.21,4.11c2.84,1.09,3.99,4.5,2.47,7.14l-11.75,20.36s-.01.02-.02.03"/>
    <path class="cls-2" d="M67.82,57.67l5.21-30.86c.23-1.09,1.12-1.66,2.02-1.66s1.79.57,2.02,1.66l5.21,30.86"/>
    <path class="cls-2" d="M93.05,74.15c0-9.94-8.06-18-18-18s-18,8.06-18,18"/>
    <path class="cls-1" d="M20.05,76.15h-7c0-19.37,8.92-36.69,22.88-48.07,2.4-1.96,5.98-1.34,7.53,1.34l11.75,20.34c1.14,1.98.76,4.45-.84,6.08-3.34,3.39-5.84,7.6-7.19,12.3"/>
    <path class="cls-1" d="M102.93,68.15c-1.35-4.7-3.86-8.91-7.19-12.3-1.6-1.63-1.98-4.1-.84-6.08l11.75-20.34c1.55-2.69,5.13-3.3,7.53-1.34,13.95,11.38,22.88,28.7,22.88,48.07h-8"/>
  </g>
</svg>