<?xml version="1.0" encoding="UTF-8"?>
<svg id="Layer_1" data-name="Layer 1" xmlns="http://www.w3.org/2000/svg" viewBox="0 0 150 150">
  <defs>
    <style>
      .cls-1 {
        stroke: #fff;
      }

      .cls-1, .cls-2 {
        fill: none;
        stroke-linecap: round;
        stroke-linejoin: round;
        stroke-width: 4px;
      }

      .cls-2 {
        stroke: #f256b6;
      }
    </style>
  </defs>
  <circle class="cls-1" cx="76.15" cy="73.41" r="62"/>
  <path class="cls-2" d="M100.15,113.41c-6.15-6.16-14.61-10-24-10s-17.85,3.84-24,10"/>
  <g>
    <path class="cls-2" d="M66.15,71.41c0-2.32-1-5-2-6-2.49,5.6-7.48,9-14,9s-12.51-3.4-15-9c-1,2-1,5-1,6,0,8.84,7.16,16,16,16s16-7.16,16-16Z"/>
    <path class="cls-2" d="M118.15,71.41c0-2.32-1-5-2-6-2.49,5.6-7.48,9-14,9s-12.51-3.4-15-9c-1,2-1,5-1,6,0,8.84,7.16,16,16,16s16-7.16,16-16Z"/>
  </g>
</svg>