<?xml version="1.0" encoding="UTF-8"?>
<svg id="Layer_1" data-name="Layer 1" xmlns="http://www.w3.org/2000/svg" viewBox="0 0 150 150">
  <defs>
    <style>
      .cls-1 {
        stroke: #fff;
      }

      .cls-1, .cls-2 {
        fill: none;
        stroke-linecap: round;
        stroke-linejoin: round;
        stroke-width: 4px;
      }

      .cls-2 {
        stroke: #f256b6;
      }
    </style>
  </defs>
  <g>
    <rect class="cls-1" x="74.16" y="13.41" width="58" height="124" rx="6" ry="6"/>
    <g>
      <line class="cls-2" x1="84.16" y1="36.41" x2="104.16" y2="36.41"/>
      <polygon class="cls-2" points="122.16 36.41 113.16 41.41 104.16 46.41 104.16 36.41 104.16 26.41 113.16 31.41 122.16 36.41"/>
    </g>
    <line class="cls-1" x1="122.16" y1="71.41" x2="122.16" y2="87.41"/>
  </g>
  <g>
    <path class="cls-2" d="M41.59,85.41h-23.42v-36c0-7.73,6.27-14,14-14h0c.29,0,.58,0,.86.03"/>
    <path class="cls-2" d="M45.56,45.33c.39,1.29.61,2.66.61,4.09v9"/>
    <circle class="cls-2" cx="47.16" cy="30.41" r="15"/>
    <path class="cls-2" d="M46.16,90.21v43.24c0,2.19-1.77,3.96-3.96,3.96h-20.08c-2.19,0-3.96-1.77-3.96-3.96v-48.04"/>
    <path class="cls-2" d="M42.16,58.41h21c1.66,0,3,1.34,3,3v24c0,1.66-1.34,3-3,3h-9.35"/>
    <path class="cls-2" d="M38.22,51.59l16.5,28.58c1.93,3.35.79,7.63-2.56,9.56h0c-3.35,1.93-7.63.79-9.56-2.56l-16.5-28.58"/>
  </g>
</svg>