<?xml version="1.0" encoding="UTF-8"?>
<svg id="Layer_1" data-name="Layer 1" xmlns="http://www.w3.org/2000/svg" viewBox="0 0 150 150">
  <defs>
    <style>
      .cls-1 {
        stroke: #fff;
      }

      .cls-1, .cls-2 {
        fill: none;
        stroke-linecap: round;
        stroke-linejoin: round;
        stroke-width: 4px;
      }

      .cls-2 {
        stroke: #ff6a3b;
      }
    </style>
  </defs>
  <path class="cls-1" d="M115.15,32.41h7c4.42,0,8,3.58,8,8v22"/>
  <path class="cls-1" d="M130.15,98.41v22c0,4.42-3.58,8-8,8H25.15c-4.42,0-8-3.58-8-8V26.41"/>
  <g>
    <rect class="cls-2" x="92.15" y="62.41" width="44" height="36" rx="6" ry="6"/>
    <circle class="cls-2" cx="110.15" cy="80.41" r="7"/>
  </g>
  <path class="cls-1" d="M107.15,19.41H23.65c-3.59,0-6.5,2.91-6.5,6.5h0c0,3.59,2.91,6.5,6.5,6.5h91.5v-5c0-4.42-3.58-8-8-8Z"/>
  <line class="cls-1" x1="28.15" y1="111.41" x2="28.15" y2="46.41"/>
</svg>