<?xml version="1.0" encoding="UTF-8"?>
<svg id="Layer_1" data-name="Layer 1" xmlns="http://www.w3.org/2000/svg" viewBox="0 0 150 150">
  <defs>
    <style>
      .cls-1 {
        stroke: #000;
      }

      .cls-1, .cls-2 {
        fill: none;
        stroke-linecap: round;
        stroke-linejoin: round;
        stroke-width: 4px;
      }

      .cls-2 {
        stroke: #f256b6;
      }
    </style>
  </defs>
  <path class="cls-2" d="M93.26,77.25l26.79-6.62c3.02-.75,5.13,2.92,2.98,5.16l-19.13,19.87"/>
  <path class="cls-1" d="M49.18,69.89c-6.81,6.23-11.47,14.77-12.71,24.38-.38,2.96-2.95,5.15-5.93,5.15h-12.39c-2.21,0-4-1.79-4-4h0c1.1-17.32,9.47-32.71,21.93-43.28,2.85-2.42,7.2-1.65,9.07,1.58l5.1,8.82c1.39,2.4.98,5.48-1.06,7.35Z"/>
  <path class="cls-1" d="M100.65,49.85l-5.09,8.82c-1.43,2.48-4.41,3.56-7.13,2.67-3.87-1.25-7.99-1.93-12.27-1.93s-8.14.63-11.91,1.8c-2.72.85-5.66-.23-7.08-2.69l-5.1-8.83c-1.87-3.23-.36-7.38,3.15-8.65,6.54-2.35,13.59-3.63,20.94-3.63s14.71,1.34,21.38,3.8c3.49,1.29,4.98,5.42,3.12,8.64Z"/>
  <path class="cls-2" d="M102.34,68.82c-1.04-1.8-1.05-4.1.03-5.98l5.11-8.84c1.88-3.25,6.26-4.01,9.1-1.56,12.27,10.58,21.57,25.78,21.57,42.97,0,1.1-.45,2.1-1.17,2.83-.73.72-1.73,1.17-2.83,1.17h-12.39c-2.99,0-5.56-2.19-5.94-5.16-.09-.67-.19-1.34-.31-2"/>
  <path class="cls-1" d="M14.15,52.14c14.26-18.67,36.75-30.73,62-30.73s47.74,12.06,62,30.73"/>
  <circle class="cls-2" cx="76.15" cy="99.41" r="28"/>
  <path class="cls-2" d="M64.15,110.41c3.08,3.08,7.3,5,12,5s8.92-1.92,12-5"/>
  <g>
    <path class="cls-2" d="M71.15,97.41c0-3.87-3.13-8-7-8s-7,4.13-7,8"/>
    <path class="cls-2" d="M95.15,97.41c0-3.87-3.13-8-7-8s-7,4.13-7,8"/>
  </g>
  <line class="cls-1" x1="14.15" y1="46.41" x2="14.15" y2="56.41"/>
  <line class="cls-1" x1="138.15" y1="46.41" x2="138.15" y2="56.41"/>
  <line class="cls-1" x1="76.15" y1="16.41" x2="76.15" y2="26.41"/>
</svg>