<?xml version="1.0" encoding="UTF-8"?>
<svg id="Layer_1" data-name="Layer 1" xmlns="http://www.w3.org/2000/svg" viewBox="0 0 150 150">
  <defs>
    <style>
      .cls-1 {
        stroke: #000;
      }

      .cls-1, .cls-2 {
        fill: none;
        stroke-linecap: round;
        stroke-linejoin: round;
        stroke-width: 4px;
      }

      .cls-2 {
        stroke: #f256b6;
      }
    </style>
  </defs>
  <g>
    <g>
      <line class="cls-2" x1="109.5" y1="57.44" x2="124.5" y2="72.44"/>
      <line class="cls-2" x1="124.5" y1="57.44" x2="109.5" y2="72.44"/>
    </g>
    <path class="cls-2" d="M111,47.94h16c4.42,0,8,3.58,8,8v20c0,4.42-3.58,8-8,8h-20c-3.34,0-6.21-2.05-7.4-4.96"/>
  </g>
  <g>
    <g>
      <line class="cls-2" x1="29.5" y1="57.44" x2="44.5" y2="72.44"/>
      <line class="cls-2" x1="44.5" y1="57.44" x2="29.5" y2="72.44"/>
    </g>
    <path class="cls-2" d="M54.43,78.91c-1.18,2.95-4.06,5.03-7.43,5.03h-20c-4.42,0-8-3.58-8-8v-20c0-4.42,3.58-8,8-8h16"/>
  </g>
  <g>
    <path class="cls-1" d="M61,71.94h-1c-5.52,0-10-4.48-10-10V27.94c0-5.52,4.48-10,10-10h34c5.52,0,10,4.48,10,10v34c0,5.52-4.48,10-10,10h-9"/>
    <path class="cls-2" d="M94.68,32.26c-1.75-1.75-4.61-1.75-6.36,0l-13.32,13.32-8.32-8.32c-1.75-1.75-4.61-1.75-6.36,0-1.75,1.75-1.75,4.61,0,6.36l11.5,11.5c.85.85,1.98,1.32,3.18,1.32s2.33-.47,3.18-1.32l16.5-16.5c1.75-1.75,1.75-4.61,0-6.36Z"/>
  </g>
  <path class="cls-1" d="M64.61,108.01l-6.59-6.36c-2.75-2.65-7.11-2.61-9.81.09l-.79.79c-.78.78-.78,2.05,0,2.83l22.91,22.91c3.64,3.64,8.57,5.68,13.71,5.68h4.57c5.34,0,10.43-2.42,13.96-5.96,3.54-3.54,5.43-8.07,5.43-13.44v-16.6c0-2.76-2.24-5-5-5h0c-2.76,0-5,2.24-5,5v3h0v-6c0-2.76-2.24-5-5-5h0c-2.76,0-5,2.24-5,5v5-8c0-2.76-2.24-5-5-5h0c-2.76,0-5,2.24-5,5v8-27c0-2.76-2.24-5-5-5h0c-2.76,0-5,2.23-5,4.99,0,8,0,24.59,0,33.64,0,1.76-2.12,2.66-3.39,1.43Z"/>
</svg>