<?xml version="1.0" encoding="UTF-8"?>
<svg id="Layer_1" data-name="Layer 1" xmlns="http://www.w3.org/2000/svg" viewBox="0 0 150 150">
  <defs>
    <style>
      .cls-1 {
        stroke: #fff;
      }

      .cls-1, .cls-2 {
        fill: none;
        stroke-linecap: round;
        stroke-linejoin: round;
        stroke-width: 4px;
      }

      .cls-2 {
        stroke: #ff6a3b;
      }
    </style>
  </defs>
  <path class="cls-2" d="M136.13,31.61c1.28,2.31,2.02,4.97,2.02,7.8v72c0,8.84-7.16,16-16,16H30.15c-8.84,0-16-7.16-16-16V39.41c0-8.84,7.16-16,16-16h76.82"/>
  <path class="cls-1" d="M98.4,58.18c-.17-1.16.01-2.33.51-3.39l18.72-39.99c1.03-2.2,3.52-3.39,5.52-3.39.79,0,1.57.29,2.32.66l5.62,2.81c2.81,1.41,3.99,4.8,2.66,7.65l-18.63,39.81c-.62,1.33-1.72,2.39-3.07,2.97l-8.3,3.56c-1.81.78-3.87-.38-4.15-2.33l-1.19-8.35Z"/>
  <line class="cls-2" x1="80.15" y1="37.41" x2="70.15" y2="37.41"/>
  <line class="cls-2" x1="62.15" y1="37.41" x2="52.15" y2="37.41"/>
  <line class="cls-2" x1="44.15" y1="37.41" x2="34.15" y2="37.41"/>
  <line class="cls-1" x1="85.15" y1="71.41" x2="31.15" y2="71.41"/>
  <line class="cls-2" x1="138.15" y1="49.41" x2="127.8" y2="49.41"/>
  <line class="cls-2" x1="94.8" y1="49.41" x2="14.15" y2="49.41"/>
  <path class="cls-2" d="M93.9,84.88l-3.47,7.04-8.42,1.22c-1.79.26-2.5,2.45-1.21,3.71l6.09,5.94-1.31,7.63c-.36,2.09,1.83,3.68,3.71,2.69l6.85-3.6,6.85,3.6c1.88.99,4.07-.61,3.71-2.69l-1.31-7.63,6.09-5.94c1.29-1.26.58-3.45-1.21-3.71l-8.42-1.22-3.47-7.04c-.46-.93-1.35-1.47-2.24-1.47s-1.78.54-2.24,1.47Z"/>
  <path class="cls-2" d="M53.9,84.88l-3.47,7.04-8.42,1.22c-1.79.26-2.5,2.45-1.21,3.71l6.09,5.94-1.31,7.63c-.36,2.09,1.83,3.68,3.71,2.69l6.85-3.6,6.85,3.6c1.88.99,4.07-.61,3.71-2.69l-1.31-7.63,6.09-5.94c1.29-1.26.58-3.45-1.21-3.71l-8.42-1.22-3.47-7.04c-.46-.93-1.35-1.47-2.24-1.47s-1.78.54-2.24,1.47Z"/>
</svg>