<?xml version="1.0" encoding="UTF-8"?>
<svg id="Layer_1" data-name="Layer 1" xmlns="http://www.w3.org/2000/svg" viewBox="0 0 150 150">
  <defs>
    <style>
      .cls-1 {
        stroke: #000;
      }

      .cls-1, .cls-2 {
        fill: none;
        stroke-linecap: round;
        stroke-linejoin: round;
        stroke-width: 4px;
      }

      .cls-2 {
        stroke: #ff6a3b;
      }
    </style>
  </defs>
  <path class="cls-2" d="M72.44,135.71l-8.29-8.29-15,2-2.5-14.03-9.77-5.46c-1.54-.86-2.16-2.76-1.42-4.37l4.69-10.14-4.69-10.14c-.74-1.6-.12-3.5,1.42-4.37l9.77-5.46,2.5-14.03,15,2,8.29-8.29c.94-.94,2.47-.94,3.41,0l8.29,8.29,15-2,2.5,14.03,9.77,5.46c1.54.86,2.16,2.76,1.42,4.37l-4.69,10.14,4.69,10.14c.74,1.6.12,3.5-1.42,4.37l-9.77,5.46-2.5,14.03-15-2-8.29,8.29c-.94.94-2.47.94-3.41,0Z"/>
  <circle class="cls-1" cx="74.15" cy="95.41" r="24"/>
  <line class="cls-1" x1="66.63" y1="52.44" x2="51.6" y2="14.54"/>
  <path class="cls-1" d="M43.3,60.01l-7.26-18.31c-1.78-4.48-.92-9.58,2.22-13.25l9.3-10.85c1.13-1.31,2.5-2.35,4.04-3.06,1.57-.74,3.3-1.13,5.07-1.13h34.96c1.77,0,3.5.39,5.07,1.13,1.54.71,2.91,1.75,4.04,3.06l9.3,10.85c3.14,3.67,4,8.77,2.22,13.25l-7.26,18.31h0"/>
  <line class="cls-1" x1="96.7" y1="14.54" x2="81.67" y2="52.44"/>
  <path class="cls-2" d="M76.39,80.88l3.47,7.04,8.42,1.22c1.79.26,2.5,2.45,1.21,3.71l-6.09,5.94,1.31,7.63c.36,2.09-1.83,3.68-3.71,2.69l-6.85-3.6-6.85,3.6c-1.88.99-4.07-.61-3.71-2.69l1.31-7.63-6.09-5.94c-1.29-1.26-.58-3.45,1.21-3.71l8.42-1.22,3.47-7.04c.46-.93,1.35-1.47,2.24-1.47s1.78.54,2.24,1.47Z"/>
</svg>