<?xml version="1.0" encoding="UTF-8"?>
<svg id="Layer_1" data-name="Layer 1" xmlns="http://www.w3.org/2000/svg" viewBox="0 0 150 150">
  <defs>
    <style>
      .cls-1 {
        stroke: #fff;
      }

      .cls-1, .cls-2 {
        fill: none;
        stroke-linecap: round;
        stroke-linejoin: round;
        stroke-width: 4px;
      }

      .cls-2 {
        stroke: #00ca55;
      }
    </style>
  </defs>
  <path class="cls-1" d="M72.86,84.89h0c-3.95-2.62-7.43-6.91-7.67-8.11,0-2.38.23-3.34,5.34-7.39,6.51-5.25,10.22-12.16,10.22-19.55,0-6.68-2.09-12.4-5.34-16.69h2.56c.46,0,1.16,0,1.39-.48l7.43-5.25c.93-.72,1.16-1.91.93-3.1-.46-.95-1.39-1.67-2.56-1.67h-32.3c-3.72,0-7.2.72-10.69,1.91-11.85,4.05-20.21,14.54-20.21,25.03,0,15.02,11.38,26.46,26.49,26.94-.23,1.19-.46,2.38-.46,3.34,0,2.38.7,4.53,1.86,6.68h-.46c-14.41,0-27.42,7.39-32.53,18.12-1.16,2.86-1.86,5.72-1.86,8.58,0,2.62.7,5.25,2.09,7.87,3.02,5.72,9.76,10.01,18.82,12.4,4.65,1.19,9.53,1.91,14.87,1.91,4.65,0,9.06-.72,13.24-1.91,12.78-3.81,21.14-13.59,21.14-24.8s-3.25-17.17-12.31-23.84"/>
  <path class="cls-1" d="M34.91,108.7h0c0-6.94,9.71-13.04,20.58-13.04h.46c2.31,0,4.62.42,6.94,1.05.69.42,1.39.84,2.08,1.26,5.09,3.16,8.56,5.26,9.48,8.62.23.84.23,1.68.23,2.52,0,8.62-6.94,13.04-20.81,13.04-10.64,0-18.96-5.89-18.96-13.46"/>
  <path class="cls-1" d="M45.24,38.84h0c1.84-2.02,4.15-2.91,6.68-2.91h.23c7.14.22,13.83,7.84,15.21,17.02.69,5.15-.46,10.08-3.23,13.21-1.84,1.79-3.92,2.91-6.68,2.91-6.91-.22-13.83-8.28-15.21-17.46-.69-5.37.46-9.85,3-12.76"/>
  <polyline class="cls-2" points="141.05 66.7 123.8 66.7 123.8 49.21 112.14 49.21 112.14 66.7 94.64 66.7 94.64 78.37 112.14 78.37 112.14 95.61 123.8 95.61 123.8 78.37 141.05 78.37 141.05 66.7"/>
</svg>