<?xml version="1.0" encoding="UTF-8"?>
<svg id="Layer_1" data-name="Layer 1" xmlns="http://www.w3.org/2000/svg" viewBox="0 0 150 150">
  <defs>
    <style>
      .cls-1 {
        stroke: #000;
      }

      .cls-1, .cls-2 {
        fill: none;
        stroke-linecap: round;
        stroke-linejoin: round;
        stroke-width: 4px;
      }

      .cls-2 {
        stroke: #00ca55;
      }
    </style>
  </defs>
  <g>
    <path class="cls-1" d="M39,83.94v7c0,3.31,2.69,6,6,6h19"/>
    <path class="cls-1" d="M113,83.94v7c0,3.31-2.69,6-6,6h-19"/>
    <path class="cls-2" d="M104,118.94h-6l-7.31-10.97c-1.75-2.63-2.69-5.72-2.69-8.88v-7.16c0-6.63-5.37-12-12-12s-12,5.37-12,12v7.16c0,3.16-.94,6.25-2.69,8.88l-7.31,10.97h-6c-3.31,0-6,2.69-6,6v4c0,2.21,1.79,4,4,4h60c2.21,0,4-1.79,4-4v-4c0-3.31-2.69-6-6-6Z"/>
    <line class="cls-2" x1="54" y1="118.94" x2="88" y2="118.94"/>
    <circle class="cls-1" cx="76" cy="91.94" r="1"/>
    <path class="cls-2" d="M53.6,83.94h-29.21c-2.11,0-4.06-1.11-5.14-2.91l-4.25-7.09h48l-4.25,7.09c-1.08,1.81-3.04,2.91-5.14,2.91Z"/>
    <path class="cls-2" d="M98.39,83.94h29.21c2.11,0,4.06-1.11,5.14-2.91l4.25-7.09h-48l4.25,7.09c1.08,1.81,3.04,2.91,5.14,2.91Z"/>
  </g>
  <g>
    <circle class="cls-1" cx="39" cy="43.94" r="23"/>
    <g>
      <path class="cls-1" d="M30,53.94v-15c0-4.97,4.03-9,9-9h0c4.97,0,9,4.03,9,9v15"/>
      <line class="cls-1" x1="30" y1="46.94" x2="48" y2="46.94"/>
    </g>
  </g>
  <g>
    <circle class="cls-1" cx="113" cy="43.94" r="23"/>
    <g>
      <path class="cls-1" d="M115.5,41.94h-10.5v-10c0-.55.45-1,1-1h9.5c3.04,0,5.5,2.46,5.5,5.5h0c0,3.04-2.46,5.5-5.5,5.5Z"/>
      <path class="cls-1" d="M117.5,54.94h-11.5c-.55,0-1-.45-1-1v-12h12.5c3.59,0,6.5,2.91,6.5,6.5h0c0,3.59-2.91,6.5-6.5,6.5Z"/>
    </g>
  </g>
</svg>