<?xml version="1.0" encoding="UTF-8"?>
<svg id="Layer_1" data-name="Layer 1" xmlns="http://www.w3.org/2000/svg" viewBox="0 0 150 150">
  <defs>
    <style>
      .cls-1 {
        fill: #00ca55;
        stroke-miterlimit: 10;
      }

      .cls-1, .cls-2, .cls-3 {
        stroke-width: 4px;
      }

      .cls-1, .cls-3 {
        stroke: #00ca55;
      }

      .cls-2 {
        stroke: #fff;
      }

      .cls-2, .cls-3 {
        fill: none;
        stroke-linecap: round;
        stroke-linejoin: round;
      }
    </style>
  </defs>
  <path class="cls-2" d="M72.86,98.52l-17.89,7.53c-5.82,2.35-12.18,3.51-18.6,3.37l-20.24-.44,17.92-10.32"/>
  <path class="cls-2" d="M94.68,96.24l-6.93,18.11c-2.91,7.61-4.8,12.94-11.9,16.9l-.81-41.46"/>
  <path class="cls-2" d="M88.13,61.24s-34.5-17.18-50.19-11.91l25.29,23"/>
  <line class="cls-3" x1="140.5" y1="52.7" x2="125.23" y2="59.24"/>
  <circle class="cls-1" cx="109.95" cy="65.79" r="3.27"/>
  <ellipse class="cls-1" cx="100.13" cy="70.15" rx="2.18" ry="3.27"/>
  <path class="cls-2" d="M13.49,98.52l-10.46-12.54,5.15-1.7c3.85-1.27,8-1.39,11.92-.34l9.17,2.47c3.01.81,6.21.52,9.02-.81l77.44-36.67c4.29-2.04,9.03-3.05,13.77-2.73,6.02.4,12.93,2.95,15.31,11.91,0,0,1.13,6.3-6.6,9.9l-39.34,18.29"/>
</svg>