<?xml version="1.0" encoding="UTF-8"?>
<svg id="Layer_1" data-name="Layer 1" xmlns="http://www.w3.org/2000/svg" viewBox="0 0 150 150">
  <defs>
    <style>
      .cls-1 {
        stroke: #000;
      }

      .cls-1, .cls-2 {
        fill: none;
        stroke-linecap: round;
        stroke-linejoin: round;
        stroke-width: 4px;
      }

      .cls-2 {
        stroke: #ff6a3b;
      }
    </style>
  </defs>
  <g>
    <g>
      <path class="cls-2" d="M69.15,123.41h9c2.76,0,5-2.24,5-5v-2c0-2.76-2.24-5-5-5h-6c-2.76,0-5-2.24-5-5v-2c0-2.76,2.24-5,5-5h9"/>
      <line class="cls-2" x1="75.15" y1="99.41" x2="75.15" y2="95.41"/>
      <line class="cls-2" x1="75.15" y1="127.41" x2="75.15" y2="123.41"/>
    </g>
    <path class="cls-2" d="M102.6,113.96l-27.45,27.45-27.45-27.45c-7.48-7.48-7.48-19.61,0-27.09h0c7.45-7.45,19.5-7.49,27-.09l.45.45.45-.45c7.5-7.39,19.55-7.35,27,.09h0c7.48,7.48,7.48,19.61,0,27.09Z"/>
    <line class="cls-1" x1="75.15" y1="87.22" x2="75.15" y2="74.41"/>
  </g>
  <path class="cls-1" d="M91.15,35.41s10,4,14,14"/>
  <path class="cls-1" d="M45.15,49.41c4-10,14-13.96,14-14"/>
  <path class="cls-1" d="M75.15,77.41c0-8.28,6.72-15,15-15s15,6.72,15,15c0-8.28,6.72-15,15-15s15,6.72,15,15c0-33.14-26.86-60-60-60S15.15,44.28,15.15,77.41c0-8.28,6.72-15,15-15s15,6.72,15,15c0-8.28,6.72-15,15-15s15,6.72,15,15Z"/>
  <line class="cls-1" x1="75.15" y1="17.41" x2="75.15" y2="11.41"/>
</svg>