<?xml version="1.0" encoding="UTF-8"?>
<svg id="Layer_1" data-name="Layer 1" xmlns="http://www.w3.org/2000/svg" viewBox="0 0 150 150">
  <defs>
    <style>
      .cls-1 {
        stroke: #fff;
      }

      .cls-1, .cls-2 {
        fill: none;
        stroke-linecap: round;
        stroke-linejoin: round;
        stroke-width: 4px;
      }

      .cls-2 {
        stroke: #ff6a3b;
      }
    </style>
  </defs>
  <g>
    <circle class="cls-2" cx="45.05" cy="54.15" r="12"/>
    <g>
      <line class="cls-2" x1="40.05" y1="54.15" x2="50.05" y2="54.15"/>
      <line class="cls-2" x1="45.05" y1="49.15" x2="45.05" y2="59.15"/>
      <line class="cls-2" x1="33.05" y1="75.15" x2="57.05" y2="75.15"/>
      <line class="cls-2" x1="33.05" y1="84.15" x2="57.05" y2="84.15"/>
      <line class="cls-1" x1="77.05" y1="75.15" x2="84.05" y2="75.15"/>
      <line class="cls-1" x1="77.05" y1="84.15" x2="84.05" y2="84.15"/>
    </g>
  </g>
  <g>
    <circle class="cls-1" cx="89.05" cy="54.15" r="12"/>
    <line class="cls-1" x1="84.05" y1="54.15" x2="94.05" y2="54.15"/>
  </g>
  <g>
    <g>
      <path class="cls-2" d="M91.05,126.15h42c3.86,0,7,3.14,7,7v3h-56v-3c0-3.86,3.14-7,7-7Z"/>
      <path class="cls-2" d="M125.05,76.15v8h-8v-8c0-.55-.45-1-1-1h-8c-.55,0-1,.45-1,1v8h-8v-8c0-.55-.45-1-1-1h-6c-.55,0-1,.45-1,1v16c0,2.21,1.79,4,4,4h34c2.21,0,4-1.79,4-4v-16c0-.55-.45-1-1-1h-6c-.55,0-1,.45-1,1Z"/>
      <path class="cls-2" d="M101.05,96.15c0,10-2.67,20-8,30"/>
      <path class="cls-2" d="M131.05,126.15c-5.5-10-8.17-20-8-30"/>
    </g>
    <g>
      <rect class="cls-1" x="17.05" y="20.15" width="100" height="13" rx="2" ry="2"/>
      <path class="cls-1" d="M91.05,109.15H19.05c-1.1,0-2-.9-2-2v-9c0-1.1.9-2,2-2h64"/>
      <line class="cls-1" x1="23.05" y1="96.15" x2="23.05" y2="33.15"/>
      <line class="cls-1" x1="111.05" y1="67.15" x2="111.05" y2="33.15"/>
      <line class="cls-1" x1="67.05" y1="136.15" x2="67.05" y2="109.15"/>
      <line class="cls-1" x1="33.05" y1="136.15" x2="53.05" y2="109.15"/>
      <path class="cls-1" d="M75.05,20.15v-5c0-1.66-1.34-3-3-3h-10c-1.66,0-3,1.34-3,3v5"/>
    </g>
  </g>
  <line class="cls-1" x1="67.05" y1="41.15" x2="67.05" y2="88.15"/>
</svg>