<?xml version="1.0" encoding="UTF-8"?>
<svg id="Layer_1" data-name="Layer 1" xmlns="http://www.w3.org/2000/svg" viewBox="0 0 150 150">
  <defs>
    <style>
      .cls-1 {
        stroke: #000;
      }

      .cls-1, .cls-2 {
        fill: none;
        stroke-linecap: round;
        stroke-linejoin: round;
        stroke-width: 4px;
      }

      .cls-2 {
        stroke: #ff6a3b;
      }
    </style>
  </defs>
  <ellipse class="cls-2" cx="72.15" cy="104.41" rx="19" ry="11"/>
  <g>
    <line class="cls-2" x1="65.15" y1="103.41" x2="65.15" y2="105.41"/>
    <line class="cls-2" x1="79.15" y1="103.41" x2="79.15" y2="105.41"/>
  </g>
  <g>
    <path class="cls-2" d="M46.15,82.41s1-4,7-4,7,4,7,4"/>
    <path class="cls-2" d="M84.15,82.41s1-4,7-4,7,4,7,4"/>
  </g>
  <path class="cls-2" d="M53.15,127.41c5.92,3.07,11.87,5,19,5s13.03-1.86,19-5"/>
  <path class="cls-2" d="M37.15,66.42c-5.04,7.04-8.01,15.67-8.01,25s2.97,17.95,8.01,25"/>
  <path class="cls-2" d="M52.91,52.94c5.79-2.89,12.32-4.53,19.24-4.53s13.45,1.64,19.24,4.53"/>
  <path class="cls-2" d="M107.14,116.41c5.04-7.04,8.01-15.67,8.01-25s-2.97-17.95-8.01-25"/>
  <line class="cls-2" x1="72.15" y1="48.41" x2="72.15" y2="60.41"/>
  <path class="cls-2" d="M37.15,66.41s3-16,10-22c0,0,4,8,12,15"/>
  <path class="cls-2" d="M107.15,66.41s-3-16-10-22c0,0-4,8-12,15"/>
  <path class="cls-2" d="M37.15,116.41c7.03,13.02,5,22,5,22h12s4.14-4.9,9-7"/>
  <path class="cls-2" d="M81.15,131.41c4.86,2.1,9,7,9,7h12s-2.03-8.98,5-22"/>
  <line class="cls-1" x1="106.15" y1="44.41" x2="106.15" y2="31.95"/>
  <line class="cls-1" x1="38.15" y1="44.41" x2="38.15" y2="31.95"/>
  <path class="cls-1" d="M26.67,24.41l45.48-13.99,45.48,13.99c.99.3,1.52,1.16,1.52,2.01s-.53,1.7-1.52,2.01l-45.48,13.99-45.48-13.99c-.99-.3-1.52-1.16-1.52-2.01s.53-1.7,1.52-2.01Z"/>
  <line class="cls-1" x1="119.15" y1="26.41" x2="119.15" y2="38.41"/>
  <circle class="cls-1" cx="119.15" cy="42.41" r="4"/>
</svg>