<?xml version="1.0" encoding="UTF-8"?>
<svg id="Layer_1" data-name="Layer 1" xmlns="http://www.w3.org/2000/svg" viewBox="0 0 150 150">
  <defs>
    <style>
      .cls-1 {
        stroke: #000;
      }

      .cls-1, .cls-2 {
        fill: none;
        stroke-linecap: round;
        stroke-linejoin: round;
        stroke-width: 4px;
      }

      .cls-2 {
        stroke: #f256b6;
      }
    </style>
  </defs>
  <path class="cls-1" d="M116.38,123.89c0,.55.01,1.65.04,2.8.04,2.09,1.77,3.78,3.89,3.79l14.49.1c2.25.01,4.04-1.82,3.95-4.02-.1-2.35-.16-5.13.04-6.65,1.73-1.65,3.32-3.14,3.89-5.69.14-12.14.88-24.6.33-36.77-.45-9.75-5.07-19.61-14.4-22.38H20.96c-8.22,1.83-13.83,11.81-14.39,20.26-.81,12.25.61,25.51.03,37.87.39,3.18,3.16,4.59,4.06,7.37.62,1.9.18,4.1.11,6.19-.07,2.09,1.67,3.8,3.79,3.8h15.99c2.1.01,3.8-1.65,3.8-3.72v-2.72"/>
  <path class="cls-1" d="M126.67,54.84v-9.5c0-.33,1.06-1.51,1.48-1.69,1.94-.86,8.47-.12,10.68.42,3.63.89,5.14,3.73,3.98,7.06-.5,1.44-2.89,3.93-4.57,3.93h-5.51c-1.65-.02-6.05-.22-6.05-.22h0Z"/>
  <path class="cls-1" d="M14.41,55.06h-5.51c-1.68,0-4.07-2.48-4.57-3.93-1.16-3.33.35-6.17,3.98-7.06,2.2-.53,8.73-1.28,10.68-.42.42.19,1.48,1.36,1.48,1.69v9.5s-4.4.19-6.05.22h0Z"/>
  <path class="cls-1" d="M110.73,97.71c5.21-.39,8.92.01,15.26,0,.16,0,4.2-.01,4.36.01,3.04.49-1.39,12.52-2.53,13.41-.59.46-1.71.69-2.48.8-7.59,1.13-16.05.98-23.76,1.27-25.42.94-53.66,1.76-78.83-1.28-1.21-.15-2.56-.28-3.35-1.24-1.09-1.32-2.16-12.96-.23-12.96,6.18-.01,11.21,0,17.68-.01"/>
  <path class="cls-1" d="M53.13,71.73c15.66-.41,31.35.18,47.01-.07,1.75.17,3.03.56,2.93,2.79-.07,1.69-1.53,6.32-2.09,8.15-1.58,5.2-3.25,11.82-9.12,12.19-11.67.73-24.55.25-36.37,0-5.6-.48-7.3-5.86-8.87-10.91-.62-1.98-2.42-7.68-2.54-9.44-.09-1.25.38-2.24,1.56-2.5,1.62-.36,5.55-.16,7.49-.21h0Z"/>
  <path class="cls-2" d="M13.63,83.56c-.57-.39-.28-10.04,2.51-11.98l15.18,3.6c.45.28,1.08,2.09,1.32,2.68.46,1.13,2.03,5.07,1.99,6-.03.86-.64,1.58-1.52,1.8-1.27.32-4.77-.47-6.3-.63-4.4-.46-8.85-.71-13.19-1.48h0Z"/>
  <path class="cls-2" d="M120.33,85.04c-1.52.16-5.03.95-6.3.63-.87-.22-1.49-.94-1.52-1.8-.03-.94,1.54-4.88,1.99-6,.24-.59.87-2.41,1.32-2.68l15.18-3.6c2.78,1.94,3.08,11.59,2.51,11.98-4.34.76-8.79,1.01-13.19,1.48h0Z"/>
  <path class="cls-1" d="M20.47,55.06l15.53-30.86c25.05-6.06,50.1-6.06,75.15,0l15.53,30.86"/>
</svg>