<?xml version="1.0" encoding="UTF-8"?>
<svg id="Layer_1" data-name="Layer 1" xmlns="http://www.w3.org/2000/svg" viewBox="0 0 150 150">
  <defs>
    <style>
      .cls-1 {
        stroke: #000;
      }

      .cls-1, .cls-2 {
        fill: none;
        stroke-linecap: round;
        stroke-linejoin: round;
        stroke-width: 4px;
      }

      .cls-2 {
        stroke: #f256b6;
      }
    </style>
  </defs>
  <line class="cls-1" x1="103.05" y1="76.15" x2="96.85" y2="82.65"/>
  <line class="cls-1" x1="47.05" y1="77.15" x2="58.81" y2="65.38"/>
  <line class="cls-1" x1="132.05" y1="123.15" x2="132.05" y2="51.15"/>
  <line class="cls-1" x1="18.05" y1="31.15" x2="18.05" y2="102.15"/>
  <g>
    <path class="cls-2" d="M67.05,55.15h15l21,21v-21h25c2.21,0,4-1.79,4-4v-20c0-2.21-1.79-4-4-4H43.05"/>
    <line class="cls-2" x1="110.05" y1="36.15" x2="132.05" y2="36.15"/>
    <line class="cls-2" x1="110.05" y1="46.15" x2="132.05" y2="46.15"/>
  </g>
  <g>
    <path class="cls-2" d="M82.05,98.15h-14l-21-21v21h-25c-2.21,0-4,1.79-4,4v21c0,2.21,1.79,4,4,4h85"/>
    <line class="cls-2" x1="40.05" y1="117.15" x2="18.05" y2="117.15"/>
    <line class="cls-2" x1="40.05" y1="107.15" x2="18.05" y2="107.15"/>
  </g>
  <path class="cls-1" d="M96.85,82.65l-14.8,15.5h21v25c0,2.21,1.79,4,4,4h21c2.21,0,4-1.79,4-4"/>
  <line class="cls-1" x1="122.05" y1="105.15" x2="122.05" y2="127.15"/>
  <line class="cls-1" x1="113.05" y1="105.15" x2="113.05" y2="127.15"/>
  <path class="cls-1" d="M58.81,65.38l10.23-10.23h-22v-24c0-2.21-1.79-4-4-4h-21c-2.21,0-4,1.79-4,4"/>
  <line class="cls-1" x1="28.05" y1="48.15" x2="28.05" y2="27.15"/>
  <line class="cls-1" x1="37.05" y1="48.15" x2="37.05" y2="27.15"/>
</svg>