<?xml version="1.0" encoding="UTF-8"?>
<svg id="Layer_1" data-name="Layer 1" xmlns="http://www.w3.org/2000/svg" viewBox="0 0 150 150">
  <defs>
    <style>
      .cls-1 {
        stroke: #000;
      }

      .cls-1, .cls-2 {
        fill: none;
        stroke-linecap: round;
        stroke-linejoin: round;
        stroke-width: 4px;
      }

      .cls-2 {
        stroke: #00ca55;
      }
    </style>
  </defs>
  <path class="cls-1" d="M35.63,112.78c.24-.4.59-3.47,3.04-9.17,4.67-10.83,7.3-14.59,18-18.98.58-.25,1.24-.22,1.82.08.06.03,6.38,3.18,15.68,3.18s15.61-3.15,15.67-3.18c.57-.3,1.24-.33,1.82-.08,10.36,4.26,13.63,7.63,18.3,18.05,2.79,6.21,3.28,9.67,3.54,10.09"/>
  <circle class="cls-2" cx="73.39" cy="56.14" r="18.88"/>
  <path class="cls-1" d="M9.67,93.9c.15-.27.37-2.31,1.89-6.11,2.9-7.22,4.53-9.72,11.17-12.66.36-.16.77-.15,1.13.05.04.02,3.95,2.12,9.72,2.12s9.68-2.1,9.72-2.12c.36-.19.77-.22,1.13-.05,1.12.49,2.11.97,3,1.47"/>
  <circle class="cls-2" cx="33.27" cy="58.5" r="11.8"/>
  <path class="cls-1" d="M101.71,78.95c.94-.5,2-.98,3.26-1.47.35-.15.75-.13,1.11.05.04.02,3.87,1.85,9.52,1.85s9.48-1.84,9.51-1.85c.35-.17.75-.19,1.11-.05,6.29,2.49,8.28,4.45,11.11,10.53,1.69,3.63,1.99,5.64,2.15,5.89"/>
  <circle class="cls-2" cx="115.87" cy="58.5" r="11.8"/>
</svg>