<?xml version="1.0" encoding="UTF-8"?>
<svg id="Layer_1" data-name="Layer 1" xmlns="http://www.w3.org/2000/svg" viewBox="0 0 150 150">
  <defs>
    <style>
      .cls-1 {
        stroke: #000;
      }

      .cls-1, .cls-2 {
        fill: none;
        stroke-linecap: round;
        stroke-linejoin: round;
        stroke-width: 4px;
      }

      .cls-2 {
        stroke: #00ca55;
      }
    </style>
  </defs>
  <line class="cls-2" x1="54.15" y1="19.41" x2="46.15" y2="11.41"/>
  <line class="cls-2" x1="92.15" y1="19.41" x2="100.15" y2="11.41"/>
  <line class="cls-2" x1="44.15" y1="52.41" x2="36.15" y2="60.41"/>
  <line class="cls-2" x1="102.15" y1="52.41" x2="110.15" y2="60.41"/>
  <path class="cls-1" d="M77,12.81l7.19,14.56,16.42,2.39c3.38.49,4.73,4.65,2.28,7.03l-11.88,11.58,2.74,17c.6,3.51-3.08,6.19-6.24,4.53l-14.37-7.56-14.37,7.56c-3.15,1.66-6.84-1.02-6.24-4.53l2.74-17-11.88-11.58c-2.45-2.38-1.1-6.54,2.28-7.03l16.42-2.39,7.19-14.56c1.58-3.2,6.13-3.2,7.71,0Z"/>
  <g>
    <g>
      <path class="cls-2" d="M34.15,94.41h76v38c0,1.1-.9,2-2,2H36.15c-1.1,0-2-.9-2-2v-38h0Z"/>
      <line class="cls-2" x1="72.15" y1="134.41" x2="72.15" y2="94.41"/>
      <path class="cls-2" d="M72.15,94.41l7.17-7.17c1.81-1.81,2.83-4.27,2.83-6.83h0c0-1.1.9-2,2-2h34c1.1,0,2,.9,2,2h0c0,2.56-1.02,5.02-2.83,6.83l-7.17,7.17"/>
      <path class="cls-2" d="M72.15,94.41l-7.17-7.17c-1.81-1.81-2.83-4.27-2.83-6.83h0c0-1.1-.9-2-2-2H26.15c-1.1,0-2,.9-2,2h0c0,2.56,1.02,5.02,2.83,6.83l7.17,7.17"/>
    </g>
    <line class="cls-1" x1="102.15" y1="118.41" x2="94.15" y2="118.41"/>
    <line class="cls-1" x1="102.15" y1="126.41" x2="90.15" y2="126.41"/>
  </g>
</svg>