<?xml version="1.0" encoding="UTF-8"?>
<svg id="Layer_1" data-name="Layer 1" xmlns="http://www.w3.org/2000/svg" viewBox="0 0 150 150">
  <defs>
    <style>
      .cls-1 {
        stroke: #fff;
      }

      .cls-1, .cls-2 {
        fill: none;
        stroke-linecap: round;
        stroke-linejoin: round;
        stroke-width: 4px;
      }

      .cls-2 {
        stroke: #f256b6;
      }
    </style>
  </defs>
  <g>
    <path class="cls-1" d="M97.15,110.41h-18c-3.31,0-6-2.69-6-6v-20c0-3.31,2.69-6,6-6h18v32Z"/>
    <path class="cls-1" d="M131.15,83.41h0c4.97,0,9,4.03,9,9v4c0,4.97-4.03,9-9,9h0"/>
    <path class="cls-1" d="M97.15,78.41l31.29-11.96c1.31-.5,2.71.47,2.71,1.87v52.19c0,1.4-1.4,2.37-2.71,1.87l-31.29-11.96"/>
    <path class="cls-1" d="M73.15,103.41h-1c-4.97,0-9-4.03-9-9h0c0-4.97,4.03-9,9-9h1"/>
    <path class="cls-1" d="M79.15,110.41l10.01,24.56c.6,1.48,2.04,2.44,3.63,2.44h4.45c2.77,0,4.67-2.8,3.64-5.38l-8.64-21.62"/>
  </g>
  <g>
    <g>
      <line class="cls-2" x1="29.15" y1="35.41" x2="107.15" y2="35.41"/>
      <path class="cls-1" d="M59.15,105.41h-28c-1.1,0-2-.9-2-2V19.2c0-3.19,2.59-5.78,5.78-5.78h66.43c3.19,0,5.78,2.59,5.78,5.78v47.22"/>
      <circle class="cls-1" cx="96.15" cy="24.41" r="1"/>
      <circle class="cls-1" cx="83.15" cy="24.41" r="1"/>
      <line class="cls-1" x1="39.15" y1="24.41" x2="71.15" y2="24.41"/>
    </g>
    <path class="cls-2" d="M79.59,59.81l-18.95-10.83c-2-.14-4.49,1.3-4.49,3.6v21.66c0,2.3,2.49,3.75,4.49,2.6l18.95-10.83c2.02-1.15,2.02-4.06,0-6.21Z"/>
  </g>
  <g>
    <g>
      <path class="cls-2" d="M73.15,118.41H22.15c-3.31,0-6-2.69-6-6V41.41c0-3.31,2.69-6,6-6"/>
      <path class="cls-2" d="M114.15,35.41c3.31,0,6,2.69,6,6v20"/>
    </g>
    <g>
      <polyline class="cls-2" points="80.15 137.41 51.15 137.41 51.15 118.41"/>
      <line class="cls-2" x1="41.15" y1="137.41" x2="51.15" y2="137.41"/>
    </g>
  </g>
</svg>