<?xml version="1.0" encoding="UTF-8"?>
<svg id="Layer_1" data-name="Layer 1" xmlns="http://www.w3.org/2000/svg" viewBox="0 0 150 150">
  <defs>
    <style>
      .cls-1 {
        stroke: #fff;
      }

      .cls-1, .cls-2 {
        fill: none;
        stroke-linecap: round;
        stroke-linejoin: round;
        stroke-width: 4px;
      }

      .cls-2 {
        stroke: #ff6a3b;
      }
    </style>
  </defs>
  <g>
    <path class="cls-1" d="M53,101.94v5c0,3.31-2.69,6-6,6h-14c-3.31,0-6,2.69-6,6h0c0,3.31,2.69,6,6,6h20c3.31,0,6,2.69,6,6v4"/>
    <g>
      <g>
        <g>
          <path class="cls-1" d="M60.05,101c-1.57.61-3.27.94-5.05.94h-4c-7.73,0-14-6.27-14-14v-5c0-1.1.9-2,2-2h28c1.1,0,2,.9,2,2"/>
          <path class="cls-1" d="M64,80.94v-2.9c0-2.08,1.09-3.99,2.84-5.09,7.3-4.6,12.16-12.74,12.16-22.01,0-14.91-12.55-26.89-27.66-25.95-13.22.82-23.86,11.78-24.32,25.02-.34,9.67,4.61,18.2,12.17,22.95,1.75,1.1,2.81,3.01,2.81,5.07v2.9"/>
        </g>
        <g>
          <line class="cls-1" x1="53" y1="12.94" x2="53" y2="18.94"/>
          <line class="cls-1" x1="34" y1="18.03" x2="37" y2="23.23"/>
          <line class="cls-1" x1="20.09" y1="31.94" x2="25.28" y2="34.94"/>
          <line class="cls-1" x1="15" y1="50.94" x2="21" y2="50.94"/>
          <line class="cls-1" x1="20.09" y1="69.94" x2="25.28" y2="66.94"/>
          <line class="cls-1" x1="85.9" y1="69.94" x2="80.71" y2="66.94"/>
          <line class="cls-1" x1="91" y1="50.94" x2="85" y2="50.94"/>
          <line class="cls-1" x1="85.9" y1="31.94" x2="80.71" y2="34.94"/>
          <line class="cls-1" x1="72" y1="18.03" x2="69" y2="23.23"/>
        </g>
      </g>
      <path class="cls-2" d="M68.68,43.26c-1.75-1.75-4.61-1.75-6.36,0l-11.32,11.32-6.32-6.32c-1.75-1.75-4.61-1.75-6.36,0-1.75,1.75-1.75,4.61,0,6.36l9.5,9.5c.85.85,1.98,1.32,3.18,1.32s2.33-.47,3.18-1.32l14.5-14.5c1.75-1.75,1.75-4.61,0-6.36Z"/>
    </g>
  </g>
  <g>
    <g>
      <path class="cls-2" d="M122,64.94v-1.96c0-2.01,1.08-3.83,2.77-4.92,4.95-3.21,8.23-8.78,8.23-15.12,0-10.62-9.19-19.09-20.05-17.89-8.36.92-15.08,7.76-15.87,16.14-.67,7.08,2.77,13.42,8.2,16.91,1.65,1.06,2.71,2.84,2.71,4.8v2.04"/>
      <path class="cls-2" d="M106,64.94h18c1.1,0,2,.9,2,2v2c0,5.52-4.48,10-10,10h-2c-5.52,0-10-4.48-10-10v-2c0-1.1.9-2,2-2Z"/>
    </g>
    <g>
      <line class="cls-2" x1="109.5" y1="38.44" x2="120.5" y2="49.44"/>
      <line class="cls-2" x1="120.5" y1="38.44" x2="109.5" y2="49.44"/>
    </g>
  </g>
  <path class="cls-2" d="M93,124.94h-14c-3.87,0-7,3.13-7,7v1c0,1.1.9,2,2,2h32.39c5.14,0,10.08-2.04,13.71-5.68l3.23-3.23c3.78-3.78,5.66-9.09,5.66-14.09s-1.86-9.54-5.66-13.34l-11.74-11.74c-1.95-1.95-5.12-1.95-7.07,0h0c-1.95,1.95-1.95,5.12,0,7.07l2.12,2.12h0l-4.24-4.24c-1.95-1.95-5.12-1.95-7.07,0h0c-1.95,1.95-1.95,5.12,0,7.07l3.54,3.54-5.66-5.66c-1.95-1.95-5.12-1.95-7.07,0h0c-1.95,1.95-1.95,5.12,0,7.07l5.66,5.66-19.09-19.09c-1.95-1.95-5.12-1.95-7.07,0h0c-1.95,1.95-1.96,5.11,0,7.07,6.9,6.9,23.09,23.21,27.37,27.48Z"/>
</svg>