<?xml version="1.0" encoding="UTF-8"?>
<svg id="Layer_1" data-name="Layer 1" xmlns="http://www.w3.org/2000/svg" viewBox="0 0 150 150">
  <defs>
    <style>
      .cls-1 {
        stroke: #fff;
      }

      .cls-1, .cls-2 {
        fill: none;
        stroke-linecap: round;
        stroke-linejoin: round;
        stroke-width: 4px;
      }

      .cls-2 {
        stroke: #f256b6;
      }
    </style>
  </defs>
  <path class="cls-1" d="M61.8,95.49l-.03.09c-3.06,12.16-16.18,19.24-28.44,14.78-9.31-3.38-15.15-12.93-13.83-22.63,1.74-12.77,14.22-20.89,26.55-17.88l.18.04"/>
  <path class="cls-1" d="M119.46,69.22h.18c11.07,0,20.04,9.47,20.04,21.15.05,12.53-10.18,22.57-22.33,21.21-9.22-1.03-16.73-8.88-17.79-18.61"/>
  <polyline class="cls-2" points="80.11 82.44 99.56 64.1 61.55 64.11 38.2 92.82 80.11 82.44 48.59 52.7"/>
  <polyline class="cls-1" points="113.72 83.38 99.56 42.16 108.53 38.54"/>
  <line class="cls-2" x1="47.64" y1="50.34" x2="68.88" y2="50.34"/>
</svg>