<?xml version="1.0" encoding="UTF-8"?>
<svg id="Layer_1" data-name="Layer 1" xmlns="http://www.w3.org/2000/svg" viewBox="0 0 150 150">
  <defs>
    <style>
      .cls-1 {
        stroke: #fff;
      }

      .cls-1, .cls-2 {
        fill: none;
        stroke-linecap: round;
        stroke-linejoin: round;
        stroke-width: 4px;
      }

      .cls-2 {
        stroke: #ff6a3b;
      }
    </style>
  </defs>
  <path class="cls-2" d="M66.67,114.66v-62.46c0-3.29-2.63-5.96-5.89-5.96s-5.89,2.66-5.89,5.96,2.63,5.96,5.89,5.96h23.61c3.25,0,5.89-2.66,5.89-5.96s-2.63-5.96-5.89-5.96-5.89,2.66-5.89,5.96v62.48"/>
  <path class="cls-1" d="M101.44,22.43c-8.02-7.73-18.64-11.84-29.86-11.58-21.92.52-39.6,17.85-40.27,39.46-.3,9.78,2.96,19.34,9.19,26.9,7.71,9.37,11.95,21.18,11.95,33.27v4.2h40.28v-4.73c0-11.68,4.28-23.35,12.05-32.86,5.88-7.2,9.12-16.26,9.12-25.53,0-11.07-4.42-21.42-12.45-29.15h0Z"/>
  <path class="cls-1" d="M92.65,124.12h-35.13c-2.76,0-4.99,2.02-4.99,4.52s2.23,4.52,4.99,4.52h25.78c2.29,0,4.14,1.68,4.14,3.74s-1.86,3.74-4.14,3.74h-10.7"/>
</svg>