<?xml version="1.0" encoding="UTF-8"?>
<svg id="Layer_1" data-name="Layer 1" xmlns="http://www.w3.org/2000/svg" viewBox="0 0 150 150">
  <defs>
    <style>
      .cls-1 {
        stroke: #000;
      }

      .cls-1, .cls-2 {
        fill: none;
        stroke-linecap: round;
        stroke-linejoin: round;
        stroke-width: 4px;
      }

      .cls-2 {
        stroke: #00ca55;
      }
    </style>
  </defs>
  <line class="cls-2" x1="65.15" y1="116.41" x2="65.15" y2="98.5"/>
  <line class="cls-2" x1="85.15" y1="116.41" x2="85.15" y2="98.73"/>
  <path class="cls-2" d="M61.77,116.41h26.75c4.76,0,8.62,3.86,8.62,8.62v10.38c0,1.1-.9,2-2,2h-40c-1.1,0-2-.9-2-2v-10.38c0-4.76,3.86-8.62,8.62-8.62Z"/>
  <path class="cls-2" d="M111.15,41.41v25.33c0,18.04-14.63,32.67-32.67,32.67h-5.67c-18.04,0-32.67-14.63-32.67-32.67v-25.33"/>
  <polyline class="cls-1" points="60.15 61.41 75.45 76.72 91.15 61.41"/>
  <path class="cls-2" d="M111.15,48.41c8.84,0,16,7.16,16,16s-7.16,16-16,16h-2.99"/>
  <path class="cls-2" d="M40.16,48.41c-8.84,0-16,7.16-16,16s7.16,16,16,16h2.99"/>
  <rect class="cls-2" x="35.15" y="28.41" width="81" height="13" rx="5" ry="5"/>
</svg>