<?xml version="1.0" encoding="UTF-8"?>
<svg id="Layer_1" data-name="Layer 1" xmlns="http://www.w3.org/2000/svg" viewBox="0 0 150 150">
  <defs>
    <style>
      .cls-1 {
        stroke: #000;
      }

      .cls-1, .cls-2 {
        fill: none;
        stroke-linecap: round;
        stroke-linejoin: round;
        stroke-width: 4px;
      }

      .cls-2 {
        stroke: #ff6a3b;
      }
    </style>
  </defs>
  <path class="cls-2" d="M127.68,106.26c-1.75-1.75-4.61-1.75-6.36,0l-11.32,11.32-6.32-6.32c-1.75-1.75-4.61-1.75-6.36,0-1.75,1.75-1.75,4.61,0,6.36l9.5,9.5c.85.85,1.98,1.32,3.18,1.32s2.33-.47,3.18-1.32l14.5-14.5c1.75-1.75,1.75-4.61,0-6.36Z"/>
  <path class="cls-1" d="M45.65,115.94l7.17-7.17c1.56-1.56,1.56-4.09,0-5.66-1.56-1.56-4.1-1.56-5.66,0l-7.17,7.17-7.17-7.17c-1.56-1.56-4.1-1.56-5.66,0-1.56,1.56-1.56,4.09,0,5.66l7.17,7.17-7.17,7.17c-1.56,1.56-1.56,4.09,0,5.66.78.78,1.8,1.17,2.83,1.17s2.05-.39,2.83-1.17l7.17-7.17,7.17,7.17c.78.78,1.8,1.17,2.83,1.17s2.05-.39,2.83-1.17c1.56-1.56,1.56-4.09,0-5.66l-7.17-7.17Z"/>
  <path class="cls-2" d="M58.46,88.65c-3.29-3.85-8.08-6.37-13.46-6.65v8.74c0,2.51-2.9,3.91-4.87,2.35l-24.2-19.22c-2.52-2-2.52-5.83,0-7.83l24.2-19.22c1.97-1.56,4.87-.16,4.87,2.35v8.81c9.44.22,18.15,3.49,25.15,8.87"/>
  <path class="cls-1" d="M87,54.94v-11h8.79c2.51,0,3.91-2.9,2.35-4.87l-19.22-24.2c-2-2.52-5.83-2.52-7.83,0l-19.22,24.2c-1.56,1.97-.16,4.87,2.35,4.87h8.79v11"/>
  <path class="cls-1" d="M87,135.94v-35c0-10.14,7.99-18.42,18-18.95v8.74c0,2.51,2.9,3.91,4.87,2.35l24.2-19.22c2.52-2,2.52-5.83,0-7.83l-24.2-19.22c-1.97-1.56-4.87-.16-4.87,2.35v8.81c-23.25.53-42,19.6-42,42.97v35"/>
</svg>