<?xml version="1.0" encoding="UTF-8"?>
<svg id="Layer_1" data-name="Layer 1" xmlns="http://www.w3.org/2000/svg" viewBox="0 0 150 150">
  <defs>
    <style>
      .cls-1 {
        stroke: #000;
      }

      .cls-1, .cls-2 {
        fill: none;
        stroke-linecap: round;
        stroke-linejoin: round;
        stroke-width: 4px;
      }

      .cls-2 {
        stroke: #00ca55;
      }
    </style>
  </defs>
  <path class="cls-1" d="M69.03,91.95l25.11,49.05s2.81-14.31,4.02-19.7c.21-.96.48-2.35,1.41-2.74,1.25-.56,2.13-.37,3.35.05,4.67,1.6,20.66,8.08,20.66,8.08l-26.47-44.35M46.9,82.34l-27.17,45.9c.77.72,22.03-7.22,24.51-8,1.72-.54,3.4-1.06,3.84,1.02,1.09,5.05,5.14,19.76,5.14,19.76l19.25-40.86M112.05,59.43c1.34-1.78,4.45-4.29,4.24-6.61-.33-3.5-6.8-7.46-7.9-11.17-1.17-3.94,1.23-11.86-.51-14.42-1.61-2.37-10.5-2.27-14.1-5.46-2.51-2.22-4.92-9.18-7.25-10.25-2.97-1.36-10.07,3.9-14.15,3.9-4.37,0-10.26-5.12-13.79-4.06-1.96.59-5.34,8.81-8.12,10.94-3.63,2.79-10.76,2.29-13.13,4.37-1.88,1.64-.18,8.72-.18,11.1,0,7.45-8.59,11-8.57,15.45.02,2.97,6.44,7.34,7.75,11.07,1.47,4.17-.85,12.51.74,14.71,1.49,2.06,10.45,2.16,13.91,5.14,2.91,2.51,4.95,10.25,8.52,10.57,5.54.49,8.27-5.59,17.37-2.99,4.59,1.31,7.54,5.79,11.64.54,2.97-3.8,3.44-7.77,8.61-9.92,2.24-.93,9.94-1.89,10.91-3.24,1.18-1.64-.42-10.72.23-13.92.48-2.34,2.48-4,3.79-5.74h0Z"/>
  <path class="cls-2" d="M69.56,30.28c20.51-2.6,33.67,21.04,20.26,36.85-12.02,14.19-35.65,7.98-39.05-10.37-2.26-12.14,6.37-24.92,18.79-26.49h0Z"/>
</svg>