<?xml version="1.0" encoding="UTF-8"?>
<svg id="Layer_1" data-name="Layer 1" xmlns="http://www.w3.org/2000/svg" viewBox="0 0 150 150">
  <defs>
    <style>
      .cls-1 {
        stroke: #fff;
      }

      .cls-1, .cls-2 {
        fill: none;
        stroke-linecap: round;
        stroke-linejoin: round;
        stroke-width: 4px;
      }

      .cls-2 {
        stroke: #ff6a3b;
      }
    </style>
  </defs>
  <path class="cls-1" d="M103.42,121.31c2.74-1.55,5.3-3.3,7.7-5.21l-4.93-10.24c3.93-3.51,7.26-7.68,9.84-12.32l11.07,2.53c1.86-3.86,3.34-7.98,4.34-12.34,1-4.36,1.45-8.71,1.45-13l-11.07-2.53c-.3-5.42-1.52-10.6-3.5-15.38l8.87-7.07c-1.86-3.87-4.16-7.59-6.95-11.09-2.79-3.5-5.91-6.57-9.26-9.24l-8.88,7.08c-4.26-3.03-9.05-5.37-14.2-6.85v-11.35c-4.18-.96-8.53-1.48-13-1.48s-8.82.52-13,1.48v11.35c-5.15,1.48-9.94,3.82-14.2,6.85l-8.88-7.08c-3.36,2.67-6.48,5.74-9.26,9.24-2.79,3.5-5.09,7.22-6.95,11.09l8.87,7.07c-1.98,4.78-3.2,9.95-3.5,15.38l-11.07,2.53c0,4.29.45,8.64,1.45,13,.99,4.36,2.47,8.48,4.34,12.34l11.07-2.53c2.57,4.65,5.91,8.81,9.84,12.32l-4.93,10.24c2.39,1.91,4.96,3.66,7.7,5.21"/>
  <g>
    <g>
      <path class="cls-2" d="M63.88,79.81v1c0,3.87,3.13,7,7,7h8c3.87,0,7-3.13,7-7v-3c0-3.87-3.13-7-7-7h-8c-3.87,0-7-3.13-7-7v-3c0-3.87,3.13-7,7-7h8c3.87,0,7,3.13,7,7v1"/>
      <line class="cls-2" x1="74.88" y1="53.81" x2="74.88" y2="47.81"/>
      <line class="cls-2" x1="74.88" y1="93.81" x2="74.88" y2="87.81"/>
    </g>
    <g>
      <path class="cls-2" d="M89.88,108.81v-5.68c0-1.07.57-2.07,1.5-2.59,10.76-5.98,17.93-17.63,17.48-30.92-.63-18.32-16.03-33.01-34.36-32.81-18.6.2-33.62,15.35-33.62,34,0,12.79,7.07,23.93,17.51,29.73.93.52,1.49,1.52,1.49,2.59v5.68"/>
      <path class="cls-2" d="M63.88,128.81h0c0,4.42,3.58,8,8,8h6c4.42,0,8-3.58,8-8h4c3.31,0,6-2.69,6-6v-8c0-3.31-2.69-6-6-6h-30c-3.31,0-6,2.69-6,6v8c0,3.31,2.69,6,6,6h14"/>
    </g>
  </g>
</svg>