<?xml version="1.0" encoding="UTF-8"?>
<svg id="Layer_1" data-name="Layer 1" xmlns="http://www.w3.org/2000/svg" viewBox="0 0 150 150">
  <defs>
    <style>
      .cls-1 {
        stroke: #000;
      }

      .cls-1, .cls-2 {
        fill: none;
        stroke-linecap: round;
        stroke-linejoin: round;
        stroke-width: 4px;
      }

      .cls-2 {
        stroke: #f256b6;
      }
    </style>
  </defs>
  <path class="cls-1" d="M94.05,23.38l9,3.75c2.57-.57,7.19-3.8,9.61-3.69,1.47.06,2.93,1.34,4.1,2.22,3.29,2.46,7.01,6.14,9.65,9.31,1.41,1.7,4.35,4.98,4.2,7.2-.18,2.6-3.01,6.64-3.6,9.34l3.68,9.16,8.59,3.64c1.65,1.14,1.9,3.05,2.16,4.92.7,4.97.99,15.58-.51,20.26-.21.65-.75,1.47-1.3,1.87-1.97,1.47-6.03,2.15-8.21,3.42-.31.19-.59.35-.76.69l-3.63,9.05c.81,2.59,2.57,5.36,3.29,7.92.35,1.24.49,2.01-.05,3.25-1.16,2.68-7.2,9.04-9.52,11.16-1.29,1.18-5.8,5.1-7.22,5.41-3.05.66-7.45-2.8-10.46-3.51l-8.96,3.86c-1.5,2.42-2.1,5.63-3.36,8.12-1.05,2.08-2.49,2.31-4.61,2.66-3.97.65-9.19.74-13.22.52-1.82-.1-6.76-.58-8.15-1.51-2.11-1.41-3.47-9.15-4.88-9.99l-8.69-3.65c-3.25.74-7.93,4.59-11.17,3.25-1.93-.79-6.94-5.42-8.59-7.08-1.66-1.66-7.37-8.08-7.74-9.9-.59-2.92,2.88-7.73,3.51-10.7l-3.79-9.13c-2.5-1.6-6.17-2.15-8.61-3.75-1.36-.89-1.74-2.55-1.98-4.12-.78-5-.99-15.85.42-20.62,1.05-3.54,6.69-3.98,9.61-5.68,1.05-.61,1.9-4.01,2.44-5.37.54-1.36,1.3-2.78,1.92-4.17l-3.45-8.41c-.5-2.4.48-3.38,1.72-5.14,2.11-2.99,5.35-6.51,8.05-8.98,1.35-1.24,4.87-4.35,6.34-5.08,1.2-.58,1.93-.52,3.17-.19,1.6.43,7.44,3.6,8.38,3.37.63-.15,2.27-1.19,3.09-1.54,1.02-.43,5.05-1.79,5.55-2.19.92-.76,2.59-6.62,3.47-8.25,1.24-2.28,2.72-2.32,5.1-2.65,5.34-.75,11.92-.79,17.25.03,1.86.29,3.65.56,4.7,2.32,1.41,2.37,2.08,6.09,3.49,8.58v.03Z"/>
  <path class="cls-2" d="M75.77,44.88c-24.47.33-39.63,27.24-26.99,48.28,12.17,20.27,41.48,20.64,54.2.72,13.5-21.14-2.16-49.33-27.21-49Z"/>
</svg>