<?xml version="1.0" encoding="UTF-8"?>
<svg id="Layer_1" data-name="Layer 1" xmlns="http://www.w3.org/2000/svg" viewBox="0 0 150 150">
  <defs>
    <style>
      .cls-1 {
        stroke: #fff;
      }

      .cls-1, .cls-2 {
        fill: none;
        stroke-linecap: round;
        stroke-linejoin: round;
        stroke-width: 4px;
      }

      .cls-2 {
        stroke: #ff6a3b;
      }
    </style>
  </defs>
  <path class="cls-1" d="M111.12,44.3c.03.11-1.7-4.11-1.7-4.11,0,0-.18-1.11.22-1.51l3.51-3.51c.94-.94.94-2.46,0-3.4l-6.56-6.55c-.94-.94-2.46-.94-3.4,0l-3.51,3.51c-.4.4-1.01.48-1.51.22-1.31-.68-2.68-1.25-4.11-1.7-.54-.17-.91-.66-.91-1.22v-5.21c0-1.33-1.08-2.41-2.41-2.41h-9.19c-1.33,0-2.41,1.08-2.41,2.41v5.5c0,.57-.38,1.06-.92,1.22-1.46.45-2.87,1.03-4.21,1.71-.5.25-1.09.17-1.49-.22l-3.63-3.56c-.94-.91-2.43-.91-3.37,0l-6.68,6.53c-.96.94-.96,2.5,0,3.44l3.53,3.45c.41.4.49,1.02.22,1.53-.69,1.3-1.26,2.65-1.72,4.07-.17.53-.66.9-1.22.9h-5.11c-1.33,0-2.41,1.08-2.41,2.41v9.19c0,1.33,1.08,2.41,2.41,2.41h5.14c.57,0,1.05.37,1.22.91.45,1.43,1.02,2.8,1.7,4.11.26.5.18,1.11-.22,1.51l-3.51,3.51c-.94.94-.94,2.46,0,3.4l6.56,6.55c.94.94,2.46.94,3.4,0l2.31-2M76.15,61.79c-2.47-2.37-4-5.69-4-9.38,0-7.18,5.82-13,13-13s13,5.82,13,13c0,1.77-.36,3.47-1,5.01"/>
  <circle class="cls-2" cx="36.15" cy="73.41" r="13"/>
  <circle class="cls-2" cx="120.15" cy="65.41" r="13"/>
  <path class="cls-2" d="M103.15,134.41v-36l-22.01-22c-1.1-1.1-1.65-2.55-1.65-3.99s.55-2.9,1.66-4.01c2.21-2.21,5.79-2.21,8,.01l17,16.99h26c3.87,0,7,3.13,7,7v35c0,3.31-2.69,6-6,6h0c-3.31,0-6-2.69-6-6v-22"/>
  <line class="cls-1" x1="90.15" y1="97.41" x2="48.15" y2="97.41"/>
  <line class="cls-1" x1="78.15" y1="134.41" x2="90.15" y2="97.41"/>
  <line class="cls-1" x1="42.15" y1="115.91" x2="48.15" y2="97.41"/>
  <line class="cls-1" x1="52.15" y1="134.41" x2="78.15" y2="134.41"/>
  <path class="cls-2" d="M28.15,121.41h23.5c3.59,0,6.5,2.91,6.5,6.5h0c0,3.59-2.91,6.5-6.5,6.5h-29.5c-3.87,0-7-3.13-7-7v-23.37c0-5.87,4.76-10.63,10.63-10.63h13.37"/>
</svg>