<?xml version="1.0" encoding="UTF-8"?>
<svg id="Layer_1" data-name="Layer 1" xmlns="http://www.w3.org/2000/svg" viewBox="0 0 150 150">
  <defs>
    <style>
      .cls-1 {
        stroke: #fff;
      }

      .cls-1, .cls-2 {
        fill: none;
        stroke-linecap: round;
        stroke-linejoin: round;
        stroke-width: 4px;
      }

      .cls-2 {
        stroke: #ff6a3b;
      }
    </style>
  </defs>
  <g>
    <path class="cls-1" d="M82,23.94h40c5.52,0,10,4.48,10,10v80c0,5.52-4.48,10-10,10h-40"/>
    <line class="cls-1" x1="75" y1="100.94" x2="75" y2="133.94"/>
    <line class="cls-1" x1="75" y1="13.94" x2="75" y2="46.94"/>
    <g>
      <path class="cls-2" d="M68,123.94H28c-5.52,0-10-4.48-10-10V33.94c0-5.52,4.48-10,10-10h40"/>
      <line class="cls-2" x1="18" y1="50.94" x2="45" y2="23.94"/>
      <line class="cls-2" x1="56.5" y1="42.44" x2="68.5" y2="30.44"/>
      <line class="cls-2" x1="18" y1="80.94" x2="30.5" y2="68.44"/>
      <line class="cls-2" x1="17.95" y1="105.99" x2="42.45" y2="81.49"/>
      <line class="cls-2" x1="25.35" y1="123.59" x2="49.5" y2="99.44"/>
      <line class="cls-2" x1="50.08" y1="123.85" x2="68.5" y2="105.44"/>
    </g>
  </g>
  <g>
    <line class="cls-2" x1="55.08" y1="93.86" x2="75.08" y2="73.85"/>
    <path class="cls-1" d="M96,53.94h-42v-4.17c0-1.78-2.15-2.67-3.41-1.41l-14.17,14.17c-.78.78-.78,2.05,0,2.83l14.17,14.17c1.26,1.26,3.41.37,3.41-1.41v-4.17h42"/>
    <path class="cls-2" d="M96,73.94v-4.17c0-1.78,2.15-2.67,3.41-1.41l14.17,14.17c.78.78.78,2.05,0,2.83l-14.17,14.17c-1.26,1.26-3.41.37-3.41-1.41v-4.17h-42"/>
    <line class="cls-2" x1="80.08" y1="93.86" x2="94.45" y2="79.48"/>
  </g>
</svg>