<?xml version="1.0" encoding="UTF-8"?>
<svg id="Layer_1" data-name="Layer 1" xmlns="http://www.w3.org/2000/svg" viewBox="0 0 150 150">
  <defs>
    <style>
      .cls-1 {
        stroke: #fff;
      }

      .cls-1, .cls-2 {
        fill: none;
        stroke-linecap: round;
        stroke-linejoin: round;
        stroke-width: 4px;
      }

      .cls-2 {
        stroke: #ff6a3b;
      }
    </style>
  </defs>
  <g>
    <path class="cls-2" d="M24.15,34.41h48v18c0,1.1-.9,2-2,2H26.15c-1.1,0-2-.9-2-2v-18h0Z"/>
    <line class="cls-2" x1="48.15" y1="54.41" x2="48.15" y2="34.41"/>
    <path class="cls-2" d="M48.15,34.41l8.59-8.59c.91-.91,1.41-2.13,1.41-3.41h0c0-1.1.9-2,2-2h20c1.1,0,2,.9,2,2h0c0,1.28-.51,2.51-1.41,3.41l-8.59,8.59"/>
    <path class="cls-2" d="M48.15,34.41l-8.59-8.59c-.91-.91-1.41-2.13-1.41-3.41h0c0-1.1-.9-2-2-2h-20c-1.1,0-2,.9-2,2h0c0,1.28.51,2.51,1.41,3.41l8.59,8.59"/>
  </g>
  <path class="cls-2" d="M115.15,134.41c-11.58,0-21-9.42-21-21s9.42-21,21-21,21,9.42,21,21-9.42,21-21,21Z"/>
  <circle class="cls-1" cx="115.15" cy="113.41" r="11"/>
  <line class="cls-1" x1="115.15" y1="90.41" x2="115.15" y2="96.41"/>
  <line class="cls-1" x1="92.15" y1="113.41" x2="98.15" y2="113.41"/>
  <line class="cls-1" x1="115.15" y1="136.41" x2="115.15" y2="130.41"/>
  <line class="cls-1" x1="138.15" y1="113.41" x2="132.15" y2="113.41"/>
  <line class="cls-2" x1="79.15" y1="114.41" x2="58.15" y2="114.41"/>
  <line class="cls-2" x1="57.15" y1="78.41" x2="33.15" y2="78.41"/>
  <line class="cls-2" x1="113.15" y1="44.41" x2="79.15" y2="44.41"/>
  <path class="cls-2" d="M120.15,51.41v23c0,2.21-1.79,4-4,4h-28"/>
  <path class="cls-2" d="M26.15,85.41v25c0,2.21,1.79,4,4,4h14"/>
  <circle class="cls-1" cx="26.15" cy="78.41" r="7"/>
  <circle class="cls-1" cx="51.15" cy="114.41" r="7"/>
  <circle class="cls-1" cx="120.15" cy="44.41" r="7"/>
  <polygon class="cls-1" points="88.15 74.41 88.15 82.41 70.15 82.41 70.15 89.41 57.15 78.41 70.15 67.41 70.15 74.41 88.15 74.41"/>
</svg>