<?xml version="1.0" encoding="UTF-8"?>
<svg id="Layer_1" data-name="Layer 1" xmlns="http://www.w3.org/2000/svg" viewBox="0 0 150 150">
  <defs>
    <style>
      .cls-1 {
        stroke: #000;
      }

      .cls-1, .cls-2 {
        fill: none;
        stroke-linecap: round;
        stroke-linejoin: round;
        stroke-width: 4px;
      }

      .cls-2 {
        stroke: #ff6a3b;
      }
    </style>
  </defs>
  <path class="cls-1" d="M65.05,125.15h-28c-7.73,0-14-6.27-14-14V27.15c0-7.73,6.27-14,14-14h42c7.73,0,14,6.27,14,14v24"/>
  <line class="cls-1" x1="37.05" y1="29.15" x2="79.05" y2="29.15"/>
  <line class="cls-1" x1="37.05" y1="112.15" x2="65.05" y2="112.15"/>
  <g>
    <path class="cls-2" d="M116.05,84.15c7.73,0,14,6.27,14,14v25c0,7.73-6.27,14-14,14h-29c-7.73,0-14-6.27-14-14v-25c0-7.73,6.27-14,14-14"/>
    <line class="cls-2" x1="87.05" y1="102.15" x2="116.05" y2="102.15"/>
    <line class="cls-2" x1="87.05" y1="119.15" x2="116.05" y2="119.15"/>
    <g>
      <path class="cls-2" d="M108.05,81.88v9.27h-9.27c-2.39,0-4.68-.95-6.36-2.64l-25.6-25.6c-2.36-2.36-2.36-6.18,0-8.54l4.46-4.46c2.36-2.36,6.18-2.36,8.54,0l25.6,25.6c1.69,1.69,2.64,3.98,2.64,6.36Z"/>
      <line class="cls-2" x1="77.55" y1="56.65" x2="73.55" y2="60.65"/>
      <line class="cls-2" x1="100.05" y1="78.15" x2="95.05" y2="83.15"/>
      <line class="cls-2" x1="80.05" y1="63.15" x2="93.55" y2="76.65"/>
    </g>
  </g>
</svg>