<?xml version="1.0" encoding="UTF-8"?>
<svg id="Layer_1" data-name="Layer 1" xmlns="http://www.w3.org/2000/svg" viewBox="0 0 150 150">
  <defs>
    <style>
      .cls-1 {
        stroke: #fff;
      }

      .cls-1, .cls-2 {
        fill: none;
        stroke-linecap: round;
        stroke-linejoin: round;
        stroke-width: 4px;
      }

      .cls-2 {
        stroke: #00ca55;
      }
    </style>
  </defs>
  <path class="cls-2" d="M78,33.81l7.19,14.56,16.42,2.39c3.38.49,4.73,4.65,2.28,7.03l-11.88,11.58,2.74,17c.6,3.51-3.08,6.19-6.24,4.53l-14.37-7.56-14.37,7.56c-3.15,1.66-6.84-1.02-6.24-4.53l2.74-17-11.88-11.58c-2.45-2.38-1.1-6.54,2.28-7.03l16.42-2.39,7.19-14.56c.79-1.6,2.32-2.4,3.86-2.4s3.07.8,3.86,2.4Z"/>
  <path class="cls-1" d="M42.29,46.02c-1.9-1.19-4.64-.64-5.76,1.64l-6.35,12.87-14.84,2.16c-1.99.29-3.19,1.98-3.19,3.72,0,1,.36,1.88,1.13,2.63l10.73,10.46-2.48,15.36c-.42,2.44,1.43,4.55,3.62,4.55.69,0,1.36-.11,2.02-.45l12.98-6.83,12.98,6.83c.67.35,1.36.45,2.02.45,1.34,0,2.56-.86,3.2-2.02"/>
  <path class="cls-1" d="M106.01,46.02c1.9-1.19,4.64-.64,5.76,1.64l6.35,12.87,14.84,2.16c1.99.29,3.19,1.98,3.19,3.72,0,1-.36,1.88-1.13,2.63l-10.73,10.46,2.48,15.36c.41,2.43-1.45,4.55-3.62,4.55-.67,0-1.35-.1-2.02-.45l-12.98-6.83-12.98,6.83c-.67.35-1.36.45-2.02.45-1.34,0-2.56-.86-3.2-2.02"/>
</svg>