<?xml version="1.0" encoding="UTF-8"?>
<svg id="Layer_1" data-name="Layer 1" xmlns="http://www.w3.org/2000/svg" viewBox="0 0 150 150">
  <defs>
    <style>
      .cls-1 {
        stroke: #000;
      }

      .cls-1, .cls-2 {
        fill: none;
        stroke-linecap: round;
        stroke-linejoin: round;
        stroke-width: 4px;
      }

      .cls-2 {
        stroke: #ff6a3b;
      }
    </style>
  </defs>
  <path class="cls-2" d="M129.12,114.18h0c-59.29,30.24-104.24-.39-104.24-.39"/>
  <path class="cls-2" d="M115.16,132.15h0c7.55-3.5,13.96-13.79,12.36-17.7v-.21c-1.37-2.68-13.5-6.59-22.89-3.29"/>
  <path class="cls-1" d="M78.62,58.5h0c-21.78,1.66-41.47,5.2-41.47,27.47,0,14.36,9.21,21.64,20.94,21.64,10.05,0,15.71-2.5,23.25-10.2,2.51,3.54,3.35,5.41,7.96,9.16,1.26.42,2.3.42,3.35-.21,2.93-2.5,8.17-6.87,10.68-9.16,1.26-1.04,1.05-2.5.21-3.75-2.51-3.33-5.24-6.24-5.24-12.69v-21.85c0-9.16.63-17.69-6.07-23.93-5.65-4.99-14.45-7.08-21.15-7.08-15.71,0-28.69,6.45-31.41,21.43-.63,1.87.84,2.5,1.88,2.91l13.61,1.66c1.47-.21,2.3-1.46,2.51-2.71,1.26-5.41,6.07-8.53,11.31-8.53,2.93,0,6.07,1.25,7.96,3.75,1.88,2.91,1.68,6.87,1.68,12.07"/>
  <path class="cls-1" d="M76.65,86.87h0c-5.33,8.29-21.09,8.48-21.09-3.2,0-7.16,5.33-10.37,12.12-11.87,3.64-.75,7.76-.94,12.12-.94v2.64c0,5.09.24,9.05-3.15,13.38"/>
</svg>