<?xml version="1.0" encoding="UTF-8"?>
<svg id="Layer_1" data-name="Layer 1" xmlns="http://www.w3.org/2000/svg" viewBox="0 0 150 150">
  <defs>
    <style>
      .cls-1 {
        stroke: #fff;
      }

      .cls-1, .cls-2 {
        fill: none;
        stroke-linecap: round;
        stroke-linejoin: round;
        stroke-width: 4px;
      }

      .cls-2 {
        stroke: #ff6a3b;
      }
    </style>
  </defs>
  <g>
    <path class="cls-2" d="M96.04,116.94h30.95c4.42,0,8-3.58,8-8V44.44c0-.97-.37-1.87-1-2.5-.63-.63-1.53-1-2.5-1h-13.51c-4.42,0-8-3.58-8-8v-13.5c0-.97-.37-1.87-1-2.5-.63-.63-1.53-1-2.5-1h-35.45c-4.42,0-8,3.58-8,8"/>
    <line class="cls-2" x1="108.98" y1="16.94" x2="134" y2="41.94"/>
  </g>
  <g>
    <path class="cls-1" d="M88.97,110.94v10.97c0,5.54-4.5,10.03-10.04,10.03H25c-4.42,0-8-3.58-8-8V59.44c0-.97.37-1.87,1-2.5.63-.63,1.53-1,2.5-1h13.51c4.42,0,8-3.58,8-8v-13.5c0-.97.37-1.87,1-2.5.63-.63,1.53-1,2.5-1h35.45c4.42,0,8,3.58,8,8l.07,18"/>
    <line class="cls-1" x1="43.01" y1="31.94" x2="18" y2="56.94"/>
  </g>
  <g>
    <path class="cls-2" d="M96.04,63.94h-35.02v-4.17c0-1.78-2.16-2.67-3.42-1.41l-14.18,14.17c-.78.78-.78,2.05,0,2.83l14.18,14.17c1.26,1.26,3.42.37,3.42-1.41v-4.17h35.02"/>
    <path class="cls-1" d="M96.04,83.94v-4.17c0-1.78,2.16-2.67,3.42-1.41l14.18,14.17c.78.78.78,2.05,0,2.83l-14.18,14.17c-1.26,1.26-3.42.37-3.42-1.41v-4.17h-35.02"/>
  </g>
</svg>