<?xml version="1.0" encoding="UTF-8"?>
<svg id="Layer_1" data-name="Layer 1" xmlns="http://www.w3.org/2000/svg" viewBox="0 0 150 150">
  <defs>
    <style>
      .cls-1 {
        stroke: #fff;
      }

      .cls-1, .cls-2 {
        fill: none;
        stroke-linecap: round;
        stroke-linejoin: round;
        stroke-width: 4px;
      }

      .cls-2 {
        stroke: #00ca55;
      }
    </style>
  </defs>
  <path class="cls-1" d="M102.42,52.2c2.35-.52,4.78-.79,7.29-.79,18.52,0,33.54,14.96,33.54,33.4s-15.02,33.4-33.54,33.4c-8.29,0-15.89-3-21.74-7.96"/>
  <path class="cls-1" d="M39.6,54.84c4.83-13.18,16.69-21.86,31.44-21.86,15.76,0,29.05,10.73,33.05,25.34"/>
  <path class="cls-1" d="M9.27,85.96c-2.66-3.58-4.23-7.96-4.23-12.71,0-12.07,10.15-21.85,22.67-21.85,7.83,0,14.72,3.82,18.79,9.63"/>
  <line class="cls-2" x1="74.15" y1="91.27" x2="74.15" y2="63.63"/>
  <polyline class="cls-2" points="64.94 82.66 75.03 91.27 85.67 82.05"/>
</svg>