<?xml version="1.0" encoding="UTF-8"?>
<svg id="Layer_1" data-name="Layer 1" xmlns="http://www.w3.org/2000/svg" viewBox="0 0 150 150">
  <defs>
    <style>
      .cls-1 {
        stroke: #fff;
      }

      .cls-1, .cls-2 {
        fill: none;
        stroke-linecap: round;
        stroke-linejoin: round;
        stroke-width: 4px;
      }

      .cls-2 {
        stroke: #ff6a3b;
      }
    </style>
  </defs>
  <g>
    <g>
      <rect class="cls-2" x="16.15" y="18.41" width="100" height="13" rx="2" ry="2"/>
      <path class="cls-2" d="M66.15,107.41H18.15c-1.1,0-2-.9-2-2v-9c0-1.1.9-2,2-2h37"/>
      <line class="cls-2" x1="22.15" y1="94.41" x2="22.15" y2="31.41"/>
      <line class="cls-2" x1="110.15" y1="62.41" x2="110.15" y2="31.41"/>
      <line class="cls-2" x1="66.15" y1="134.41" x2="66.15" y2="107.41"/>
      <line class="cls-2" x1="32.15" y1="134.41" x2="52.15" y2="107.41"/>
      <path class="cls-2" d="M72.15,18.41v-7c0-.55-.45-1-1-1h-10c-.55,0-1,.45-1,1v7"/>
    </g>
    <g>
      <g>
        <g>
          <line class="cls-1" x1="35.65" y1="65.91" x2="51.65" y2="81.91"/>
          <line class="cls-1" x1="51.65" y1="65.91" x2="35.65" y2="81.91"/>
        </g>
        <g>
          <circle class="cls-2" cx="89.15" cy="50.41" r="9"/>
          <circle class="cls-1" cx="89.15" cy="50.41" r="1"/>
        </g>
        <path class="cls-2" d="M55.15,73.41s13.44-1,23.44-10.5"/>
      </g>
      <line class="cls-2" x1="33.15" y1="44.41" x2="69.15" y2="44.41"/>
      <line class="cls-2" x1="33.15" y1="55.41" x2="60.15" y2="55.41"/>
    </g>
  </g>
  <g>
    <path class="cls-1" d="M97.15,107.41h-18c-3.31,0-6-2.69-6-6v-20c0-3.31,2.69-6,6-6h18v32Z"/>
    <path class="cls-1" d="M131.15,80.41h0c4.97,0,9,4.03,9,9v4c0,4.97-4.03,9-9,9h0"/>
    <path class="cls-1" d="M97.15,75.41l31.29-11.96c1.31-.5,2.71.47,2.71,1.87v52.19c0,1.4-1.4,2.37-2.71,1.87l-31.29-11.96"/>
    <path class="cls-1" d="M73.15,100.41h-1c-4.97,0-9-4.03-9-9h0c0-4.97,4.03-9,9-9h1"/>
    <path class="cls-1" d="M79.15,107.41l10.01,24.56c.6,1.48,2.04,2.44,3.63,2.44h4.45c2.77,0,4.67-2.8,3.64-5.38l-8.64-21.62"/>
  </g>
</svg>