<?xml version="1.0" encoding="UTF-8"?>
<svg id="Layer_1" data-name="Layer 1" xmlns="http://www.w3.org/2000/svg" viewBox="0 0 150 150">
  <defs>
    <style>
      .cls-1 {
        stroke: #fff;
      }

      .cls-1, .cls-2 {
        fill: none;
        stroke-linecap: round;
        stroke-linejoin: round;
        stroke-width: 4px;
      }

      .cls-2 {
        stroke: #ff6a3b;
      }
    </style>
  </defs>
  <path class="cls-1" d="M99.08,78.1l5.64,3.26c-1.19,6.92-4.84,13-10.01,17.31l-5.63-3.25c-.93.64-1.91,1.2-2.93,1.7v6.51c-3.12,1.15-6.48,1.78-10,1.78s-6.88-.63-10-1.78v-6.51c-1.02-.5-2-1.06-2.93-1.7l-5.63,3.25c-5.17-4.31-8.82-10.39-10.01-17.31l5.64-3.26c-.05-.56-.07-1.12-.07-1.69s.02-1.13.07-1.69l-5.64-3.26c1.19-6.92,4.84-13,10.01-17.31l5.63,3.25c.93-.64,1.91-1.2,2.93-1.7v-6.51c3.12-1.15,6.48-1.78,10-1.78s6.88.63,10,1.78v6.51c1.02.5,2,1.06,2.93,1.7l5.63-3.25c5.17,4.31,8.82,10.39,10.01,17.31l-5.64,3.26c.05.56.07,1.12.07,1.69s-.02,1.13-.07,1.69Z"/>
  <path class="cls-2" d="M23.15,76.41c0-1.7.08-3.38.24-5.03,2.54-26.87,25.24-47.97,52.76-47.97,20.84,0,38.91,12.1,47.57,29.63"/>
  <path class="cls-2" d="M36.38,111.41c-3.08-3.5-5.71-7.41-7.8-11.63"/>
  <path class="cls-2" d="M76.15,129.41c27.52,0,50.22-21.1,52.76-47.97.16-1.65.24-3.33.24-5.03"/>
  <path class="cls-2" d="M33.15,76.41c0-2.73.26-5.41.75-8,3.76-19.9,21.27-35,42.25-35,18.32,0,34,11.52,40.18,27.69"/>
  <path class="cls-2" d="M51.21,111.41c-6.84-4.88-12.19-11.72-15.24-19.69"/>
  <path class="cls-2" d="M76.15,119.41c20.98,0,38.49-15.1,42.25-35,.49-2.59.75-5.27.75-8"/>
  <circle class="cls-1" cx="76.15" cy="76.41" r="9"/>
  <polyline class="cls-2" points="119.15 76.41 113.15 76.41 124.15 64.41 135.15 76.41 129.15 76.41"/>
  <polyline class="cls-2" points="103.15 129.41 126.15 129.41 126.15 135.41 138.15 124.41 126.15 113.41 126.15 119.41 119.15 119.41"/>
  <polyline class="cls-2" points="33.15 76.41 39.15 76.41 28.15 88.41 17.15 76.41 23.15 76.41"/>
  <path class="cls-2" d="M76.15,119.41H18.15c-2.21,0-4,1.79-4,4v2c0,2.21,1.79,4,4,4h58"/>
</svg>