<?xml version="1.0" encoding="UTF-8"?>
<svg id="Layer_1" data-name="Layer 1" xmlns="http://www.w3.org/2000/svg" viewBox="0 0 150 150">
  <defs>
    <style>
      .cls-1 {
        stroke: #fff;
      }

      .cls-1, .cls-2 {
        fill: none;
        stroke-linecap: round;
        stroke-linejoin: round;
        stroke-width: 4px;
      }

      .cls-2 {
        stroke: #ff6a3b;
      }
    </style>
  </defs>
  <path class="cls-1" d="M39.67,89.4h0c-4.21-5.87-6.45-13.33-6.45-20.8,0-22.13,18.8-39.73,41.81-39.73s41.81,17.6,41.81,39.73c0,7.73-2.53,14.93-6.45,21.07"/>
  <path class="cls-1" d="M33.21,112.49h0c-9.44-10.56-15.21-24.64-15.21-39.8,0-32.76,25.69-59.03,57.15-59.03s56.89,26.26,56.89,59.03c0,15.16-5.51,28.97-14.68,39.53"/>
  <path class="cls-1" d="M93.52,102.63h0c.5-3.1-.5-6.46-2.75-9.04s-5.25-3.87-8.5-3.87h-14.49c-3.25,0-6.5,1.29-8.5,3.87-2.25,2.58-3.25,5.94-3,9.04l3.25,29.69c.75,5.94,5.5,10.59,11.49,10.59h8c5.75,0,10.74-4.65,11.49-10.59l3-29.69"/>
  <path class="cls-2" d="M86.41,67.01h0c0,8.19-6.93,15.05-15.19,15.05s-15.19-6.87-15.19-15.05,6.66-15.32,15.19-15.32,15.19,6.87,15.19,15.32"/>
</svg>