<?xml version="1.0" encoding="UTF-8"?>
<svg id="Layer_1" data-name="Layer 1" xmlns="http://www.w3.org/2000/svg" viewBox="0 0 150 150">
  <defs>
    <style>
      .cls-1 {
        stroke: #fff;
      }

      .cls-1, .cls-2 {
        fill: none;
        stroke-linecap: round;
        stroke-linejoin: round;
        stroke-width: 4px;
      }

      .cls-2 {
        stroke: #f256b6;
      }
    </style>
  </defs>
  <g>
    <path class="cls-1" d="M121.29,95.41c3.23,0,5.86,2.63,5.86,5.86v10.28c0,3.23-2.63,5.86-5.86,5.86h-46.59"/>
    <path class="cls-1" d="M121.29,73.41c3.23,0,5.86,2.63,5.86,5.86v10.28c0,3.23-2.63,5.86-4.86,5.86h-34.78"/>
    <path class="cls-1" d="M121.28,51.41c3.24,0,5.86,2.63,5.86,5.86v10.27c0,3.24-2.63,5.86-5.86,5.86h-36.14"/>
    <path class="cls-1" d="M58.86,51.41h62.43c3.23,0,5.86-2.63,5.86-5.86v-10.28c0-3.23-2.63-5.86-5.86-5.86H56.01c-3.23,0-5.86,2.63-5.86,5.86v15.14"/>
  </g>
  <g>
    <circle class="cls-2" cx="50.15" cy="88.41" r="38"/>
    <g>
      <path class="cls-2" d="M60.15,76.41v-5c0-2.21-1.79-4-4-4h-14c-2.21,0-4,1.79-4,4v12c0,2.21,1.79,4,4,4h14c2.21,0,4,1.79,4,4v14c0,2.21-1.79,4-4,4h-14c-2.21,0-4-1.79-4-4v-5"/>
      <line class="cls-2" x1="49.15" y1="61.41" x2="49.15" y2="67.41"/>
      <line class="cls-2" x1="49.15" y1="109.41" x2="49.15" y2="115.41"/>
    </g>
  </g>
</svg>