<?xml version="1.0" encoding="UTF-8"?>
<svg id="Layer_1" data-name="Layer 1" xmlns="http://www.w3.org/2000/svg" viewBox="0 0 150 150">
  <defs>
    <style>
      .cls-1 {
        stroke: #fff;
      }

      .cls-1, .cls-2 {
        fill: none;
        stroke-linecap: round;
        stroke-linejoin: round;
        stroke-width: 4px;
      }

      .cls-2 {
        stroke: #00ca55;
      }
    </style>
  </defs>
  <path class="cls-2" d="M93.14,43.41h38.02c3.31,0,6,2.69,6,6v80c0,3.31-2.69,6-6,6h-17.98"/>
  <g>
    <rect class="cls-1" x="90.16" y="61.41" width="38" height="26" rx="4" ry="4"/>
    <path class="cls-1" d="M91.33,62.58l8.9,8.9c1.88,1.88,4.42,2.93,7.07,2.93h3.72c2.65,0,5.2-1.05,7.07-2.93l8.9-8.9"/>
    <path class="cls-1" d="M102.16,61.41v-4c0-2.21,1.79-4,4-4h6c2.21,0,4,1.79,4,4v4"/>
  </g>
  <line class="cls-2" x1="128.16" y1="105.41" x2="109.19" y2="105.41"/>
  <line class="cls-2" x1="128.16" y1="120.41" x2="113.16" y2="120.41"/>
  <g>
    <g>
      <path class="cls-1" d="M59.46,13.42c-13.62.36-24.3,11.56-24.3,24.81v14.77c0,7.41,3.25,14.47,8.93,19.42l7.71,5.49c1.38.98,3.04,1.51,4.75,1.51h7.25c1.71,0,3.37-.53,4.75-1.51l7.71-5.49c5.68-4.94,8.93-12,8.93-19.42v-15.27c0-13.66-11.57-24.68-25.7-24.31Z"/>
      <path class="cls-1" d="M35.16,48.41h2c3.31,0,6-2.69,6-6v-5c0-3.31,2.69-6,6-6h22c3.31,0,6,2.69,6,6v5c0,3.31,2.69,6,6,6h2"/>
    </g>
    <path class="cls-1" d="M49.1,89.41h22.13c18.73,0,33.93,15.21,33.93,33.93v12.07H15.16v-12.07c0-18.73,15.21-33.93,33.93-33.93Z"/>
    <polyline class="cls-1" points="54.16 89.41 51.16 117.41 60.16 127.41 69.16 117.41 66.16 89.41"/>
  </g>
</svg>