<?xml version="1.0" encoding="UTF-8"?>
<svg id="Layer_1" data-name="Layer 1" xmlns="http://www.w3.org/2000/svg" viewBox="0 0 150 150">
  <defs>
    <style>
      .cls-1 {
        stroke: #000;
      }

      .cls-1, .cls-2 {
        fill: none;
        stroke-linecap: round;
        stroke-linejoin: round;
        stroke-width: 4px;
      }

      .cls-2 {
        stroke: #ff6a3b;
      }
    </style>
  </defs>
  <path class="cls-1" d="M70.15,108.98v12.09c0,.82-.67,1.34-1.34,1.34s-.82-.2-1.09-.63c-2.18-3.47-6.22-7.75-13.57-10.37C13.35,96.84,13.15,60.41,13.15,25.41c0,0,13.25,20.83,33.31,21.95,1.11.06,2.14.6,2.84,1.46l6.37,7.79"/>
  <path class="cls-1" d="M13.94,53.03c8.21,8.38,21.21,10.38,21.21,10.38"/>
  <path class="cls-1" d="M18.12,75.36s7.03,5.05,18.03,5.05"/>
  <line class="cls-1" x1="39.15" y1="96.41" x2="30.21" y2="96.41"/>
  <path class="cls-1" d="M94.63,56.61l6.37-7.79c.7-.86,1.73-1.4,2.84-1.46,20.06-1.12,33.31-21.95,33.31-21.95,0,35-.2,71.43-41,86-7.35,2.62-11.39,6.9-13.57,10.37-.27.43-.43.63-1.1.63s-1.32-.53-1.32-1.34v-12.09"/>
  <path class="cls-1" d="M115.15,63.41s13-2,21.21-10.38"/>
  <path class="cls-1" d="M114.15,80.41c11,0,18-5,18.03-5.05"/>
  <line class="cls-1" x1="120.09" y1="96.41" x2="111.15" y2="96.41"/>
  <g>
    <circle class="cls-2" cx="75.15" cy="79.41" r="30"/>
    <path class="cls-2" d="M69.15,93.41h10c2.76,0,5-2.24,5-5v-4c0-2.76-2.24-5-5-5h-8c-2.76,0-5-2.24-5-5v-4c0-2.76,2.24-5,5-5h10"/>
    <line class="cls-2" x1="75.15" y1="65.41" x2="75.15" y2="61.41"/>
    <line class="cls-2" x1="75.15" y1="97.41" x2="75.15" y2="93.41"/>
  </g>
</svg>