<?xml version="1.0" encoding="UTF-8"?>
<svg id="Layer_1" data-name="Layer 1" xmlns="http://www.w3.org/2000/svg" viewBox="0 0 150 150">
  <defs>
    <style>
      .cls-1 {
        stroke: #000;
      }

      .cls-1, .cls-2 {
        fill: none;
        stroke-linecap: round;
        stroke-linejoin: round;
        stroke-width: 4px;
      }

      .cls-2 {
        stroke: #00ca55;
      }
    </style>
  </defs>
  <path class="cls-1" d="M110.85,60.01c1.36.18,2.71.4,4.06.66,4.32.83,8.56,2.07,12.67,3.71,7.59,3.04,12.57,10.39,12.57,18.57v14.92c0,4.09-1.24,7.97-3.44,11.21-2.19,3.24-5.34,5.84-9.13,7.36-.94.38-1.89.73-2.84,1.06-3.35,1.17-5.47,4.3-5.47,7.66,0,.81.13,1.64.39,2.46.2.61.29,1.23.29,1.83,0,3.17-2.57,5.96-5.98,5.96-1.78,0-3.48-.8-4.61-2.18l-5.81-7.07c-2.47-3.01-6.15-4.75-10.04-4.75h-4.97c-8.85,0-17.61-1.69-25.82-4.97-7.59-3.04-12.57-10.39-12.57-18.57v-5.36"/>
  <path class="cls-2" d="M62.79,75.41h4.97c8.85,0,17.61-1.69,25.82-4.97,7.59-3.04,12.57-10.39,12.57-18.57v-14.92c0-4.09-1.24-7.97-3.44-11.21-2.19-3.24-5.34-5.84-9.13-7.36-8.21-3.28-16.97-4.97-25.82-4.97h-13.22c-4.43,0-8.83.42-13.15,1.26-4.32.83-8.56,2.07-12.67,3.71-7.59,3.04-12.57,10.39-12.57,18.57v14.92c0,4.09,1.24,7.97,3.44,11.21,2.19,3.24,5.34,5.84,9.13,7.36.94.38,1.89.73,2.84,1.06,4.16,1.45,6.42,5.92,5.08,10.12h0c-1.23,3.85,1.64,7.79,5.69,7.79h0c1.79,0,3.48-.8,4.61-2.18l5.81-7.07c2.47-3.01,6.16-4.75,10.05-4.75Z"/>
  <g>
    <path class="cls-2" d="M57.15,47.41s0,15-11,18c0,0,2.72-9.97,1.25-16.97-.13-.6-.64-1.03-1.25-1.03h0c-3.87,0-7-3.13-7-7v-4c0-3.87,3.13-7,7-7h4c3.87,0,7,3.13,7,7v11"/>
    <path class="cls-2" d="M83.15,47.41s0,15-11,18c0,0,2.72-9.97,1.25-16.97-.13-.6-.64-1.03-1.25-1.03h0c-3.87,0-7-3.13-7-7v-4c0-3.87,3.13-7,7-7h4c3.87,0,7,3.13,7,7v11"/>
  </g>
  <g>
    <path class="cls-1" d="M99.15,89.41s0-15,11-18c0,0-2.72,9.97-1.25,16.97.13.6.64,1.03,1.25,1.03h0c3.87,0,7,3.13,7,7v4c0,3.87-3.13,7-7,7h-4c-3.87,0-7-3.13-7-7v-11"/>
    <path class="cls-1" d="M74.68,81.09c-1.53,4.29-1.53,8.32-1.53,8.32v11c0,3.87,3.13,7,7,7h4c3.87,0,7-3.13,7-7v-4c0-1.94-.78-3.68-2.05-4.95s-3.01-2.05-4.95-2.05c-.61,0-1.13-.44-1.25-1.03-.55-2.63-.51-5.67-.26-8.45"/>
  </g>
</svg>