<?xml version="1.0" encoding="UTF-8"?>
<svg id="Layer_1" data-name="Layer 1" xmlns="http://www.w3.org/2000/svg" viewBox="0 0 150 150">
  <defs>
    <style>
      .cls-1 {
        stroke: #000;
      }

      .cls-1, .cls-2 {
        fill: none;
        stroke-linecap: round;
        stroke-linejoin: round;
        stroke-width: 4px;
      }

      .cls-2 {
        stroke: #ff6a3b;
      }
    </style>
  </defs>
  <path class="cls-2" d="M119.16,82.41v-29h8.55c2.55,0,3.94-2.98,2.29-4.93l-25.55-30.34c-1.2-1.42-3.39-1.42-4.59,0l-9.71,11.52"/>
  <line class="cls-2" x1="85.16" y1="68.44" x2="85.16" y2="83.41"/>
  <g>
    <polyline class="cls-2" points="51.16 87.41 48.16 115.41 57.16 125.41 66.16 115.41 63.16 87.41"/>
    <g>
      <path class="cls-1" d="M56.46,11.42c-13.62.36-24.3,11.56-24.3,24.81v14.77c0,7.41,3.25,14.47,8.93,19.42l7.71,5.49c1.38.98,3.04,1.51,4.75,1.51h7.25c1.71,0,3.37-.53,4.75-1.51l7.71-5.49c5.68-4.94,8.93-12,8.93-19.42v-15.27c0-13.66-11.57-24.68-25.7-24.31Z"/>
      <path class="cls-1" d="M32.16,46.41h2c3.31,0,6-2.69,6-6v-5c0-3.31,2.69-6,6-6h22c3.31,0,6,2.69,6,6v5c0,3.31,2.69,6,6,6h2"/>
    </g>
    <path class="cls-1" d="M77.16,133.41H12.16v-12.07c0-18.74,15.19-33.93,33.93-33.93h22.13c5.78,0,11.23,1.45,16,4"/>
  </g>
  <g>
    <rect class="cls-1" x="84.16" y="99.41" width="50" height="34" rx="5.25" ry="5.25"/>
    <path class="cls-1" d="M85.7,100.95l11.46,11.47c2.47,2.45,5.51,4,9,4h6c3.49,0,6.53-1.55,9-4l11.46-11.47"/>
    <path class="cls-1" d="M97.16,99.41v-5c0-2.76,3.07-5,6.86-5h10.29c3.79,0,6.86,2.24,6.86,5v5"/>
  </g>
</svg>