<svg viewBox="0 0 150 150" xmlns="http://www.w3.org/2000/svg" xmlns:xlink="http://www.w3.org/1999/xlink" id="Layer_1" overflow="hidden"><defs></defs><g><g><path d="M94.75 18.25C119.34 26.12 137.14 49.21 137.14 76.41 137.14 110.1 109.83 137.41 76.14 137.41 63.77 137.41 52.27 133.68 42.66 127.35" stroke="#00CA55" stroke-width="4" stroke-linecap="round" stroke-linejoin="round" fill="none"/><path d="M99.52 29.64 94.75 18.25 106.18 13.47" stroke="#FFFFFF" stroke-width="4" stroke-linecap="round" stroke-linejoin="round" fill="none"/></g><g><path d="M36.15 122.41C23.32 111.23 15.15 94.77 15.15 76.41 15.15 42.72 42.46 15.41 76.15 15.41 79.57 15.41 82.93 15.64 86.19 16.18" stroke="#00CA55" stroke-width="4" stroke-linecap="round" stroke-linejoin="round" fill="none"/><path d="M36.15 109.41 36.15 122.41 23.15 122.41" stroke="#FFFFFF" stroke-width="4" stroke-linecap="round" stroke-linejoin="round" fill="none"/></g></g><g><g><path d="M64.15 85.41 64.15 87.41C64.15 91.83 67.73 95.41 72.15 95.41L80.15 95.41C84.57 95.41 88.15 91.83 88.15 87.41L88.15 84.41C88.15 79.99 84.57 76.41 80.15 76.41L72.15 76.41C67.73 76.41 64.15 72.83 64.15 68.41L64.15 65.41C64.15 60.99 67.73 57.41 72.15 57.41L80.15 57.41C84.57 57.41 88.15 60.99 88.15 65.41L88.15 67.41" stroke="#00CA55" stroke-width="4" stroke-linecap="round" stroke-linejoin="round" fill="none"/><line x1="76.15" y1="57.41" x2="76.15" y2="51.41" stroke="#00CA55" stroke-width="4" stroke-linecap="round" stroke-linejoin="round" fill="none"/><line x1="76.15" y1="101.41" x2="76.15" y2="95.41" stroke="#00CA55" stroke-width="4" stroke-linecap="round" stroke-linejoin="round" fill="none"/></g><g><circle cx="76.15" cy="76.41" r="42" stroke="#00CA55" stroke-width="4" stroke-linecap="round" stroke-linejoin="round" fill="none"/><path d="M54.15 98.41C42 86.26 42 66.56 54.15 54.41" stroke="#00CA55" stroke-width="4" stroke-linecap="round" stroke-linejoin="round" fill="none"/><path d="M98.15 54.41C110.3 66.56 110.3 86.26 98.15 98.41" stroke="#00CA55" stroke-width="4" stroke-linecap="round" stroke-linejoin="round" fill="none"/></g></g></svg>