<?xml version="1.0" encoding="UTF-8"?>
<svg id="Layer_1" data-name="Layer 1" xmlns="http://www.w3.org/2000/svg" viewBox="0 0 150 150">
  <defs>
    <style>
      .cls-1 {
        stroke: #fff;
      }

      .cls-1, .cls-2 {
        fill: none;
        stroke-linecap: round;
        stroke-linejoin: round;
        stroke-width: 4px;
      }

      .cls-2 {
        stroke: #f256b6;
      }
    </style>
  </defs>
  <path class="cls-1" d="M130.09,28.86s-27.22,6.97-55.33-20.35h-.29c-28.1,27.32-55.71,21.38-55.71,21.38,0,0-3.84,51.91,3.02,67.71,7.2,16.59,35.17,41.68,52.65,41.38,18-.3,45.66-27.18,52.82-44.33,6.35-15.23,2.85-65.79,2.85-65.79Z"/>
  <path class="cls-2" d="M120.35,38.17s-22.27,3.69-45.26-18.31h-.23c-23,22-45.6,17.82-45.6,17.82,0,0-3.14,41.19,2.47,53.91,5.89,13.35,28.77,33.32,43.08,33.08,14.72-.24,37.36-21.65,43.21-35.46"/>
</svg>