<?xml version="1.0" encoding="UTF-8"?>
<svg id="Layer_1" data-name="Layer 1" xmlns="http://www.w3.org/2000/svg" viewBox="0 0 150 150">
  <defs>
    <style>
      .cls-1 {
        stroke: #fff;
      }

      .cls-1, .cls-2 {
        fill: none;
        stroke-linecap: round;
        stroke-linejoin: round;
        stroke-width: 4px;
      }

      .cls-2 {
        stroke: #00ca55;
      }
    </style>
  </defs>
  <g>
    <g>
      <path class="cls-1" d="M49.15,98.41v1c0,2.76,2.24,5,5,5h6c2.76,0,5-2.24,5-5v-2c0-2.76-2.24-5-5-5h-6c-2.76,0-5-2.24-5-5v-2c0-2.76,2.24-5,5-5h6c2.76,0,5,2.24,5,5v1"/>
      <line class="cls-1" x1="57.15" y1="80.36" x2="57.15" y2="75.41"/>
      <line class="cls-1" x1="57.15" y1="109.41" x2="57.15" y2="104.41"/>
    </g>
    <g>
      <path class="cls-1" d="M124.15,61.41h9c1.1,0,2,.9,2,2v57c0,1.1-.9,2-2,2H38.15v-61h52"/>
      <path class="cls-1" d="M38.15,61.41c0-6.63-5.37-12-12-12s-12,5.37-12,12v61"/>
      <path class="cls-1" d="M38.15,122.41c0-6.78-5.63-12.25-12.47-11.99-6.18.23-11.29,5.35-11.52,11.52-.26,6.84,5.21,12.47,11.99,12.47h84c1.1,0,2-.9,2-2v-10"/>
    </g>
    <line class="cls-1" x1="111.15" y1="111.41" x2="69.15" y2="111.41"/>
    <line class="cls-1" x1="90.15" y1="98.41" x2="74.15" y2="98.41"/>
    <line class="cls-1" x1="90.15" y1="86.41" x2="74.15" y2="86.41"/>
    <line class="cls-1" x1="90.15" y1="74.41" x2="74.15" y2="74.41"/>
  </g>
  <g>
    <path class="cls-2" d="M98.15,91.41l13,20,13-20V21.41c0-1.1-.9-2-2-2h-22c-1.1,0-2,.9-2,2v70Z"/>
    <line class="cls-2" x1="98.15" y1="91.41" x2="114.15" y2="91.41"/>
    <path class="cls-2" d="M107.15,10.41h8c1.1,0,2,.9,2,2v7h-12v-7c0-1.1.9-2,2-2Z"/>
    <line class="cls-2" x1="106.15" y1="29.41" x2="124.15" y2="29.41"/>
    <line class="cls-2" x1="90.15" y1="29.41" x2="98.15" y2="29.41"/>
    <path class="cls-2" d="M86.15,53.41h0c-2.21,0-4-1.79-4-4v-26c0-2.21,1.79-4,4-4h0c2.21,0,4,1.79,4,4v26c0,2.21-1.79,4-4,4Z"/>
  </g>
</svg>