<?xml version="1.0" encoding="UTF-8"?>
<svg id="Layer_1" data-name="Layer 1" xmlns="http://www.w3.org/2000/svg" viewBox="0 0 150 150">
  <defs>
    <style>
      .cls-1 {
        stroke: #fff;
      }

      .cls-1, .cls-2 {
        fill: none;
        stroke-linecap: round;
        stroke-linejoin: round;
        stroke-width: 4px;
      }

      .cls-2 {
        stroke: #ff6a3b;
      }
    </style>
  </defs>
  <g>
    <path class="cls-2" d="M68.15,85.41h9c2.76,0,5-2.24,5-5v-2c0-2.76-2.24-5-5-5h-6c-2.76,0-5-2.24-5-5v-2c0-2.76,2.24-5,5-5h9"/>
    <line class="cls-2" x1="74.15" y1="61.41" x2="74.15" y2="57.41"/>
    <line class="cls-2" x1="74.15" y1="89.41" x2="74.15" y2="85.41"/>
  </g>
  <path class="cls-2" d="M46.65,105.91l-16.6-16.6c-6.59-6.59-9.89-15.26-9.9-23.9,0-8.66,3.29-17.29,9.9-23.9l.59-.59c5.66-5.66,13.08-8.51,20.51-8.51s14.84,2.84,20.51,8.51l2.49,2.49,2.49-2.49c5.66-5.66,13.08-8.51,20.51-8.51s14.84,2.84,20.51,8.51l.59.59c6.6,6.6,9.9,15.25,9.9,23.9s-3.3,17.3-9.9,23.9l-9.6,9.6"/>
  <path class="cls-1" d="M80.15,118.41l-4-4v-1l20.94-20.94c.68-.68,1.6-1.06,2.56-1.06h0c.96,0,1.88.38,2.56,1.06l11.88,11.88c.68.68,1.06,1.6,1.06,2.56h0c0,.96-.38,1.88-1.06,2.56l-20.94,20.94h-1l-4-4"/>
  <line class="cls-1" x1="78.15" y1="120.41" x2="82.15" y2="116.41"/>
  <line class="cls-1" x1="86.15" y1="128.41" x2="90.15" y2="124.41"/>
  <circle class="cls-1" cx="54.15" cy="113.41" r="10"/>
  <line class="cls-1" x1="92.15" y1="97.41" x2="109.15" y2="114.41"/>
  <path class="cls-1" d="M63.15,50.41c-3.03-3.03-7.73-5-12-5s-8.28,1.67-11.31,4.7l-.59.59c-3.93,3.93-6.1,9.17-6.09,14.71"/>
</svg>