<?xml version="1.0" encoding="UTF-8"?>
<svg id="Layer_1" data-name="Layer 1" xmlns="http://www.w3.org/2000/svg" viewBox="0 0 150 150">
  <defs>
    <style>
      .cls-1 {
        stroke: #fff;
      }

      .cls-1, .cls-2 {
        fill: none;
        stroke-linecap: round;
        stroke-linejoin: round;
        stroke-width: 4px;
      }

      .cls-2 {
        stroke: #00ca55;
      }
    </style>
  </defs>
  <g>
    <path class="cls-1" d="M46.15,41.41h13v23h-13c-3.31,0-6-2.69-6-6v-11c0-3.31,2.69-6,6-6Z"/>
    <path class="cls-1" d="M85.28,77.03l-26.13-12.61v-23l26.13-12.61c1.33-.64,2.87.33,2.87,1.8v44.63c0,1.47-1.54,2.44-2.87,1.8Z"/>
    <path class="cls-1" d="M40.15,58.41h-1.5c-3.04,0-5.5-2.46-5.5-5.5h0c0-3.04,2.46-5.5,5.5-5.5h1.5"/>
    <path class="cls-1" d="M88.15,44.09h0c3.87,0,7,3.13,7,7v4c0,3.87-3.13,7-7,7h0"/>
    <line class="cls-1" x1="78.15" y1="32.41" x2="78.15" y2="58.41"/>
    <path class="cls-1" d="M45.65,64.59l7.78,23.62c.43,1.31,1.66,2.2,3.04,2.2h4.26c2.18,0,3.72-2.13,3.04-4.2l-7.12-21.62"/>
  </g>
  <g>
    <path class="cls-2" d="M42.15,134.41v-25.06c0-5.13-1.9-10.12-5.5-13.78-9.66-9.82-15.42-23.64-14.38-38.66,1.91-27.44,26.06-47.68,53.54-46.43,10.1.46,19.01,2.89,27.34,7.92,12.81,7.74,23,27,23,37l-5,11,14.11,19.48c2.87,3.97.04,9.52-4.86,9.52h-6.25v22c0,5.52-4.48,10-10,10h-19.72c-5.3,0-10.39-2.11-14.14-5.86l-15.64-15.64"/>
    <line class="cls-2" x1="100.15" y1="127.41" x2="100.15" y2="134.41"/>
  </g>
</svg>