<?xml version="1.0" encoding="UTF-8"?>
<svg id="Layer_1" data-name="Layer 1" xmlns="http://www.w3.org/2000/svg" viewBox="0 0 150 150">
  <defs>
    <style>
      .cls-1 {
        stroke: #000;
      }

      .cls-1, .cls-2 {
        fill: none;
        stroke-linecap: round;
        stroke-linejoin: round;
        stroke-width: 4px;
      }

      .cls-2 {
        stroke: #ff6a3b;
      }
    </style>
  </defs>
  <path class="cls-1" d="M57.15,38.41v14c0,2.21,1.79,4,4,4h24c2.21,0,4-1.79,4-4v-20"/>
  <line class="cls-1" x1="67.15" y1="56.41" x2="67.15" y2="28.41"/>
  <line class="cls-1" x1="79.15" y1="56.41" x2="79.15" y2="44.41"/>
  <g>
    <g>
      <path class="cls-2" d="M35.15,98.41h76v38c0,1.1-.9,2-2,2H37.15c-1.1,0-2-.9-2-2v-38h0Z"/>
      <line class="cls-2" x1="73.15" y1="138.41" x2="73.15" y2="98.41"/>
      <path class="cls-2" d="M73.15,98.41l7.17-7.17c1.81-1.81,2.83-4.27,2.83-6.83h0c0-1.1.9-2,2-2h34c1.1,0,2,.9,2,2h0c0,2.56-1.02,5.02-2.83,6.83l-7.17,7.17"/>
      <path class="cls-2" d="M73.15,98.41l-7.17-7.17c-1.81-1.81-2.83-4.27-2.83-6.83h0c0-1.1-.9-2-2-2H27.15c-1.1,0-2,.9-2,2h0c0,2.56,1.02,5.02,2.83,6.83l7.17,7.17"/>
    </g>
    <line class="cls-1" x1="103.15" y1="122.41" x2="95.15" y2="122.41"/>
    <line class="cls-1" x1="103.15" y1="130.41" x2="91.15" y2="130.41"/>
  </g>
  <g>
    <path class="cls-1" d="M49,56.56l-8.44,8.44c-.9.9-1.41,2.13-1.41,3.41s.51,2.51,1.41,3.41l3.18,3.18c.9.9,2.13,1.41,3.41,1.41s2.51-.51,3.41-1.41l8.44-8.44"/>
    <circle class="cls-1" cx="73.15" cy="42.41" r="28"/>
  </g>
</svg>