<?xml version="1.0" encoding="UTF-8"?>
<svg id="Layer_1" data-name="Layer 1" xmlns="http://www.w3.org/2000/svg" viewBox="0 0 150 150">
  <defs>
    <style>
      .cls-1 {
        stroke: #fff;
      }

      .cls-1, .cls-2 {
        fill: none;
        stroke-linecap: round;
        stroke-linejoin: round;
        stroke-width: 4px;
      }

      .cls-2 {
        stroke: #f256b6;
      }
    </style>
  </defs>
  <rect class="cls-1" x="27.05" y="25.15" width="99" height="113" rx="4" ry="4" transform="translate(-5.1 158.2) rotate(-90)"/>
  <path class="cls-1" d="M76.05,81.15h-17c0-6.63-5.37-12-12-12s-12,5.37-12,12h-15"/>
  <path class="cls-1" d="M76.05,81.15v14c-6.63,0-12,5.37-12,12s5.37,12,12,12v12"/>
  <path class="cls-2" d="M76.05,32.15v11c6.63,0,12,5.37,12,12s-5.37,12-12,12v14"/>
  <path class="cls-2" d="M133.05,81.15h-14c0,6.63-5.37,12-12,12s-12-5.37-12-12h-19"/>
</svg>