<?xml version="1.0" encoding="UTF-8"?>
<svg id="Layer_1" data-name="Layer 1" xmlns="http://www.w3.org/2000/svg" viewBox="0 0 150 150">
  <defs>
    <style>
      .cls-1 {
        stroke: #fff;
      }

      .cls-1, .cls-2 {
        fill: none;
        stroke-linecap: round;
        stroke-linejoin: round;
        stroke-width: 4px;
      }

      .cls-2 {
        stroke: #00ca55;
      }
    </style>
  </defs>
  <path class="cls-2" d="M124.15,43.41h0c7.73,0,14,6.27,14,14v8c0,7.73-6.27,14-14,14h0"/>
  <path class="cls-1" d="M39.15,84.41l14.7,47.76c.77,2.52,3.1,4.24,5.73,4.24h9.44c4.04,0,6.92-3.91,5.73-7.76l-13.61-44.24"/>
  <path class="cls-1" d="M39.15,38.41h27v46h-27c-5.52,0-10-4.48-10-10v-26c0-5.52,4.48-10,10-10Z"/>
  <path class="cls-1" d="M115.36,109.07l-49.32-24.66v-46l49.32-24.66c3.99-1.99,8.68.91,8.68,5.37v84.58c0,4.46-4.69,7.36-8.68,5.37Z"/>
  <path class="cls-1" d="M29.15,73.41h-3c-6.63,0-12-5.37-12-12h0c0-6.63,5.37-12,12-12h3"/>
  <line class="cls-1" x1="105.15" y1="19.41" x2="105.15" y2="72.41"/>
</svg>