<?xml version="1.0" encoding="UTF-8"?>
<svg id="Layer_1" data-name="Layer 1" xmlns="http://www.w3.org/2000/svg" viewBox="0 0 150 150">
  <defs>
    <style>
      .cls-1 {
        stroke: #000;
      }

      .cls-1, .cls-2 {
        fill: none;
        stroke-linecap: round;
        stroke-linejoin: round;
        stroke-width: 4px;
      }

      .cls-2 {
        stroke: #00ca55;
      }
    </style>
  </defs>
  <path class="cls-2" d="M100.08,43.23c2.48-1.96,4.08-5.05,4.08-8.51,0-5.92-4.66-10.72-10.4-10.72-4.48,0-8.3,2.92-9.77,7.02-.41,1.15-.64,2.4-.64,3.7l.35-3.7c0-6.73-5.29-12.18-11.82-12.18-2.36,0-4.1.31-5.94,1.54,0-5.62-4.42-10.18-9.88-10.18s-9.88,4.56-9.88,10.18h-.05c-6.13-.89-11.8,3.5-12.66,9.81-.87,6.31,3.4,12.16,9.53,13.05"/>
  <path class="cls-1" d="M38.47,43.24h58.23c2.82,0,5.1,2.16,5.1,4.83v26.24c0,.78-.2,1.55-.59,2.24l-5.97,10.74c-3.41,6.13-5.19,12.96-5.19,19.89v28c0,2.66-2.28,4.83-5.1,4.83h-35.26c-2.82,0-5.1-2.16-5.1-4.83v-28.18c0-6.33-1.49-12.58-4.36-18.3l-6.14-12.25c-.31-.62-.48-1.29-.49-1.98-.07-4.03-.32-18.74-.23-26.45.03-2.64,2.3-4.77,5.1-4.77Z"/>
</svg>