<?xml version="1.0" encoding="UTF-8"?>
<svg id="Layer_1" data-name="Layer 1" xmlns="http://www.w3.org/2000/svg" viewBox="0 0 150 150">
  <defs>
    <style>
      .cls-1 {
        stroke: #000;
      }

      .cls-1, .cls-2 {
        fill: none;
        stroke-linecap: round;
        stroke-linejoin: round;
        stroke-width: 4px;
      }

      .cls-2 {
        stroke: #00ca55;
      }
    </style>
  </defs>
  <g>
    <g>
      <path class="cls-2" d="M53.05,118.15l-10-31c-5.02-6.69-8-15-8-24,0-22.09,17.91-40,40-40s40,17.91,40,40c0,9-2.98,17.31-8,24l-10,31"/>
      <path class="cls-1" d="M62.05,103.15v-29l-4.46-11.46c-1.22-3.15,1.1-6.54,4.47-6.54h26.97c3.38,0,5.7,3.39,4.47,6.54l-4.46,11.46v29"/>
    </g>
    <g>
      <path class="cls-1" d="M97.05,137.15c0,2.21-1.79,4-4,4h-36c-2.21,0-4-1.79-4-4v-19l22-11,22,11v19Z"/>
      <line class="cls-1" x1="53.05" y1="128.15" x2="97.05" y2="128.15"/>
    </g>
  </g>
  <g>
    <line class="cls-2" x1="21.05" y1="20.15" x2="33.05" y2="32.15"/>
    <line class="cls-2" x1="129.05" y1="20.15" x2="117.05" y2="32.15"/>
    <line class="cls-2" x1="126.05" y1="107.15" x2="114.05" y2="95.15"/>
    <line class="cls-2" x1="24.05" y1="107.15" x2="36.05" y2="95.15"/>
    <line class="cls-2" x1="122.05" y1="65.15" x2="136.05" y2="65.15"/>
    <line class="cls-2" x1="14.05" y1="65.15" x2="28.05" y2="65.15"/>
  </g>
</svg>