<?xml version="1.0" encoding="UTF-8"?>
<svg id="Layer_1" data-name="Layer 1" xmlns="http://www.w3.org/2000/svg" viewBox="0 0 150 150">
  <defs>
    <style>
      .cls-1 {
        fill: none;
        stroke: #fff;
        stroke-linecap: round;
        stroke-linejoin: round;
        stroke-width: 4px;
      }
    </style>
  </defs>
  <path class="cls-1" d="M12.28,60.16h0l4.72,6.12s9.44-7.64,12.66-3.93c3,3.93,15.01,49.8,19.08,58.14,3.43,7.39,13.3,17.26,23.81,10.28,10.52-7,45.9-37.58,52.12-73.88,6.43-36.27-42.47-28.63-47.61,2.84,13.09-7.86,19.94,3.28,13.3,15.99-6.64,12.41-12.66,20.48-15.87,20.48-3.01,0-5.57-8.25-9.01-22.93-3.86-15.29-3.86-42.59-19.3-39.53-14.58,3.06-33.88,26.42-33.88,26.42Z"/>
</svg>