<?xml version="1.0" encoding="UTF-8"?>
<svg id="Layer_1" data-name="Layer 1" xmlns="http://www.w3.org/2000/svg" viewBox="0 0 150 150">
  <defs>
    <style>
      .cls-1 {
        stroke: #fff;
      }

      .cls-1, .cls-2 {
        fill: none;
        stroke-linecap: round;
        stroke-linejoin: round;
        stroke-width: 4px;
      }

      .cls-2 {
        stroke: #ff6a3b;
      }
    </style>
  </defs>
  <ellipse class="cls-2" cx="75.78" cy="74.74" rx="8.26" ry="7.08"/>
  <path class="cls-1" d="M58.08,97.62c-4.37-4.53-7.08-10.79-7.08-17.71s2.7-13.16,7.06-17.69"/>
  <path class="cls-1" d="M46.28,109.42c-8.75-7.56-14.16-17.99-14.16-29.52s5.39-21.93,14.12-29.48"/>
  <path class="cls-1" d="M32.12,123.58c-11.66-11.48-18.88-27.34-18.88-44.87s7.19-33.33,18.83-44.81"/>
  <path class="cls-1" d="M93.48,62.22c4.37,4.53,7.08,10.79,7.08,17.71s-2.7,13.16-7.06,17.69"/>
  <path class="cls-1" d="M107.64,50.42c7.3,7.56,11.8,17.99,11.8,29.52s-4.49,21.93-11.77,29.48"/>
  <path class="cls-1" d="M119.44,33.9c11.66,11.48,18.88,27.35,18.88,44.87s-7.19,33.33-18.83,44.81"/>
</svg>