<?xml version="1.0" encoding="UTF-8"?>
<svg id="Layer_1" data-name="Layer 1" xmlns="http://www.w3.org/2000/svg" viewBox="0 0 150 150">
  <defs>
    <style>
      .cls-1 {
        stroke: #000;
      }

      .cls-1, .cls-2 {
        fill: none;
        stroke-linecap: round;
        stroke-linejoin: round;
        stroke-width: 4px;
      }

      .cls-2 {
        stroke: #ff6a3b;
      }
    </style>
  </defs>
  <g>
    <path class="cls-2" d="M46.15,70.41h9c2.76,0,5-2.24,5-5v-2c0-2.76-2.24-5-5-5h-6c-2.76,0-5-2.24-5-5v-2c0-2.76,2.24-5,5-5h9"/>
    <line class="cls-2" x1="52.15" y1="46.41" x2="52.15" y2="42.41"/>
    <line class="cls-2" x1="52.15" y1="74.41" x2="52.15" y2="70.41"/>
  </g>
  <path class="cls-2" d="M39.15,119.41h-20c-1.1,0-2-.9-2-2V36.41c0-1.1.9-2,2-2h66c1.1,0,2,.9,2,2v22"/>
  <path class="cls-2" d="M59.15,24.41h9c1.1,0,2,.9,2,2v8h-36v-8c0-1.1.9-2,2-2h9v-1c0-3.87,3.13-7,7-7h0c3.87,0,7,3.13,7,7v1Z"/>
  <path class="cls-1" d="M75.88,134.49c-16.73-4.65-28.73-17.26-28.73-32.08,0-18.78,19.25-34,43-34s43,15.22,43,34c0,14.82-12,27.43-28.73,32.08"/>
  <path class="cls-1" d="M48.67,111.41h-.52c-4.97,0-9-4.03-9-9h0c0-4.97,4.03-9,9-9h.52"/>
  <path class="cls-1" d="M131.63,93.41h.52c4.97,0,9,4.03,9,9h0c0,4.97-4.03,9-9,9h-.52"/>
  <g>
    <path class="cls-1" d="M82.15,108.41h0c0-5.52-4.48-10-10-10h0c-5.52,0-10,4.48-10,10h0"/>
    <path class="cls-1" d="M118.15,108.41h0c0-5.52-4.48-10-10-10h0c-5.52,0-10,4.48-10,10h0"/>
  </g>
  <circle class="cls-1" cx="90.15" cy="134.41" r="4"/>
  <path class="cls-1" d="M90.15,76.41c2.76,0,5,2.24,5,5s-2.24,5-5,5c-4.97,0-9-4.03-9-9s4.03-9,9-9"/>
  <path class="cls-1" d="M82.94,140.41c-1.14,0-2.23-.49-2.99-1.34l-4.54-5.11c-1.43-1.61-2.04-3.79-1.66-5.9l.67-3.71c.4-2.17,2.48-3.62,4.65-3.22l5.29.96c1.18.21,2.38.32,3.58.32h4.39c1.2,0,2.4-.11,3.58-.32l5.29-.96c2.17-.4,4.26,1.05,4.65,3.22l.67,3.71c.39,2.12-.23,4.29-1.66,5.9l-4.54,5.11c-.76.85-1.85,1.34-2.99,1.34"/>
</svg>