<?xml version="1.0" encoding="UTF-8"?>
<svg id="Layer_1" data-name="Layer 1" xmlns="http://www.w3.org/2000/svg" viewBox="0 0 150 150">
  <defs>
    <style>
      .cls-1 {
        stroke: #fff;
      }

      .cls-1, .cls-2 {
        fill: none;
        stroke-linecap: round;
        stroke-linejoin: round;
        stroke-width: 4px;
      }

      .cls-2 {
        stroke: #00ca55;
      }
    </style>
  </defs>
  <circle class="cls-1" cx="44.15" cy="30.41" r="13"/>
  <path class="cls-1" d="M56.52,72.54l-1.46.29c-1.94.39-3.91.58-5.88.58h-10.06c-1.98,0-3.95-.2-5.88-.58l-1.46-.29c-3.27-.65-5.63-3.53-5.63-6.86v-4.8c0-3.96,2.24-7.58,5.78-9.35h0c2.78-1.39,5.84-2.11,8.94-2.11h6.56c3.1,0,6.17.72,8.94,2.11h0c3.54,1.77,5.78,5.39,5.78,9.35v4.8c0,3.34-2.36,6.21-5.63,6.86Z"/>
  <line class="cls-2" x1="76.15" y1="47.41" x2="126.15" y2="47.41"/>
  <line class="cls-2" x1="76.15" y1="63.41" x2="126.15" y2="63.41"/>
  <path class="cls-2" d="M55.39,82.88l3.47,7.04,8.42,1.22c1.79.26,2.5,2.45,1.21,3.71l-6.09,5.94,1.31,7.63c.36,2.09-1.83,3.68-3.71,2.69l-6.85-3.6-6.85,3.6c-1.88.99-4.07-.61-3.71-2.69l1.31-7.63-6.09-5.94c-1.29-1.26-.58-3.45,1.21-3.71l8.42-1.22,3.47-7.04c.46-.93,1.35-1.47,2.24-1.47s1.78.54,2.24,1.47Z"/>
  <path class="cls-2" d="M101.39,82.88l3.47,7.04,8.42,1.22c1.79.26,2.5,2.45,1.21,3.71l-6.09,5.94,1.31,7.63c.36,2.09-1.83,3.68-3.71,2.69l-6.85-3.6-6.85,3.6c-1.88.99-4.07-.61-3.71-2.69l1.31-7.63-6.09-5.94c-1.29-1.26-.58-3.45,1.21-3.71l8.42-1.22,3.47-7.04c.46-.93,1.35-1.47,2.24-1.47s1.78.54,2.24,1.47Z"/>
  <path class="cls-1" d="M62.91,27.41h65.24c5.52,0,10,4.48,10,10v74c0,5.52-4.48,10-10,10h-47.54c-6.9,0-13.72,1.43-20.04,4.19l-18.59,8.13c-2.53,1.11-5.25,1.68-8.01,1.68h-2.93c-3.07,0-4.99-3.32-3.47-5.98l2.87-5.03c.76-1.33-.2-2.99-1.74-2.99h-4.55c-5.52,0-10-4.48-10-10V37.41c0-5.52,4.48-10,10-10h1.24"/>
</svg>