<?xml version="1.0" encoding="UTF-8"?>
<svg id="Layer_1" data-name="Layer 1" xmlns="http://www.w3.org/2000/svg" viewBox="0 0 150 150">
  <defs>
    <style>
      .cls-1 {
        stroke: #fff;
      }

      .cls-1, .cls-2 {
        fill: none;
        stroke-linecap: round;
        stroke-linejoin: round;
        stroke-width: 4px;
      }

      .cls-2 {
        stroke: #ff6a3b;
      }
    </style>
  </defs>
  <path class="cls-1" d="M26.02,84.7l41.65-41.65,5.36,5.36c1.22,1.22,3.3.43,3.41-1.29l1.69-26.55c.08-1.2-.92-2.2-2.12-2.12l-26.55,1.69c-1.72.11-2.5,2.19-1.29,3.41l5.36,5.36L11.88,70.56c-1.56,1.56-1.56,4.09,0,5.66l8.49,8.49c1.56,1.56,4.09,1.56,5.66,0Z"/>
  <path class="cls-2" d="M129.16,84.41v-40c0-2.21-1.79-4-4-4h-28c-2.21,0-4,1.79-4,4v22c0,2.21-1.79,4-4,4h-28c-2.21,0-4,1.79-4,4v22c0,2.21-1.79,4-4,4h-28c-2.21,0-4,1.79-4,4v22c0,2.21,1.79,4,4,4h51"/>
  <g>
    <rect class="cls-1" x="83.16" y="92.41" width="54" height="38" rx="5.76" ry="5.76"/>
    <path class="cls-1" d="M84.83,94.13l12.65,13.01c2.66,2.74,6.28,4.28,10.05,4.28h5.28c3.77,0,7.38-1.54,10.05-4.28l12.65-13.01"/>
    <path class="cls-1" d="M100.16,92.41v-5c0-2.76,2.56-5,5.71-5h8.57c3.16,0,5.71,2.24,5.71,5v5"/>
  </g>
</svg>