<?xml version="1.0" encoding="UTF-8"?>
<svg id="Layer_1" data-name="Layer 1" xmlns="http://www.w3.org/2000/svg" viewBox="0 0 150 150">
  <defs>
    <style>
      .cls-1 {
        stroke: #fff;
      }

      .cls-1, .cls-2 {
        fill: none;
        stroke-linecap: round;
        stroke-linejoin: round;
        stroke-width: 4px;
      }

      .cls-2 {
        stroke: #ff6a3b;
      }
    </style>
  </defs>
  <circle class="cls-1" cx="76.15" cy="47.41" r="14"/>
  <path class="cls-1" d="M110.15,47.41s-15.22-14-34-14-34,14-34,14c0,0,15.22,14,34,14s34-14,34-14Z"/>
  <path class="cls-1" d="M110.15,37.41s-15.22-14-34-14-34,14-34,14"/>
  <line class="cls-1" x1="58.15" y1="27.41" x2="50.15" y2="19.41"/>
  <line class="cls-1" x1="102.15" y1="19.41" x2="94.15" y2="27.41"/>
  <line class="cls-1" x1="76.15" y1="23.41" x2="76.15" y2="13.41"/>
  <path class="cls-1" d="M110.15,57.41s-15.22,14-34,14-34-14-34-14"/>
  <line class="cls-1" x1="58.15" y1="67.41" x2="50.15" y2="75.41"/>
  <line class="cls-1" x1="102.15" y1="75.41" x2="94.15" y2="67.41"/>
  <line class="cls-1" x1="76.15" y1="71.41" x2="76.15" y2="81.41"/>
  <g>
    <g>
      <path class="cls-2" d="M38.15,97.41h76v38c0,1.1-.9,2-2,2H40.15c-1.1,0-2-.9-2-2v-38h0Z"/>
      <line class="cls-2" x1="76.15" y1="137.41" x2="76.15" y2="97.41"/>
      <path class="cls-2" d="M76.15,97.41l7.17-7.17c1.81-1.81,2.83-4.27,2.83-6.83h0c0-1.1.9-2,2-2h34c1.1,0,2,.9,2,2h0c0,2.56-1.02,5.02-2.83,6.83l-7.17,7.17"/>
      <path class="cls-2" d="M76.15,97.41l-7.17-7.17c-1.81-1.81-2.83-4.27-2.83-6.83h0c0-1.1-.9-2-2-2H30.15c-1.1,0-2,.9-2,2h0c0,2.56,1.02,5.02,2.83,6.83l7.17,7.17"/>
    </g>
    <line class="cls-1" x1="106.15" y1="121.41" x2="98.15" y2="121.41"/>
    <line class="cls-1" x1="106.15" y1="129.41" x2="94.15" y2="129.41"/>
  </g>
</svg>