<?xml version="1.0" encoding="UTF-8"?>
<svg id="Layer_1" data-name="Layer 1" xmlns="http://www.w3.org/2000/svg" viewBox="0 0 150 150">
  <defs>
    <style>
      .cls-1 {
        stroke: #000;
      }

      .cls-1, .cls-2 {
        fill: none;
        stroke-linecap: round;
        stroke-linejoin: round;
        stroke-width: 4px;
      }

      .cls-2 {
        stroke: #ff6a3b;
      }
    </style>
  </defs>
  <path class="cls-1" d="M63.83,96.09L24.12,56.38c-4.69-4.69-6.97-10.83-6.97-16.97s2.28-12.28,6.97-16.97l2.06-2.06c4.69-4.69,10.83-6.97,16.97-6.97s12.28,2.28,16.97,6.97l4.91,4.91c1.17,1.17,3.07,1.17,4.24,0l4.91-4.91c4.69-4.69,10.83-6.97,16.97-6.97s12.28,2.28,16.97,6.97l2.06,2.06c4.69,4.69,6.97,10.83,6.97,16.97s-2.28,12.28-6.97,16.97l-11.03,11.03"/>
  <path class="cls-2" d="M107.15,89.41v-6c0-3.31,2.69-6,6-6h2c3.31,0,6,2.69,6,6v8"/>
  <path class="cls-2" d="M93.15,89.41v-6c0-3.31,2.69-6,6-6h2c3.31,0,6,2.69,6,6v6"/>
  <path class="cls-2" d="M79.15,111.41v-58c0-3.31,2.69-6,6-6h2c3.31,0,6,2.69,6,6v36"/>
  <path class="cls-2" d="M121.15,91.41v-2c0-3.31,2.69-6,6-6h2c3.31,0,6,2.69,6,6v12"/>
  <path class="cls-2" d="M77.87,135.32c-4.92-.62-8.72-4.82-8.72-9.91v-25c0-4.42,3.58-8,8-8"/>
  <path class="cls-2" d="M135.15,99.41v12.06c0,5.89-1.3,11.7-3.81,17.03l-4.19,8.91"/>
</svg>