<?xml version="1.0" encoding="UTF-8"?>
<svg id="Layer_1" data-name="Layer 1" xmlns="http://www.w3.org/2000/svg" viewBox="0 0 150 150">
  <defs>
    <style>
      .cls-1 {
        stroke: #fff;
        stroke-linecap: round;
        stroke-linejoin: round;
      }

      .cls-1, .cls-2 {
        fill: none;
        stroke-width: 4px;
      }

      .cls-2 {
        stroke: #00ca55;
        stroke-miterlimit: 8;
      }
    </style>
  </defs>
  <path class="cls-1" d="M122.37,19.88h-23.23c-3.98,0-7.21,3.23-7.21,7.21v21.48c0,4.9-3.97,8.87-8.87,8.87h-21.48c-3.98,0-7.21,3.23-7.21,7.21v21.48c0,4.9-3.97,8.87-8.87,8.87h-21.47c-3.98,0-7.21,3.23-7.21,7.21v23.23c0,3.98,3.23,7.21,7.21,7.21h23.23c3.98,0,7.21-3.23,7.21-7.21v-21.48c0-4.9,3.97-8.87,8.87-8.87h21.48c3.98,0,7.21-3.23,7.21-7.21v-21.48c0-4.9,3.97-8.87,8.87-8.87h21.48c3.98,0,7.21-3.23,7.21-7.21v-23.23c0-3.98-3.23-7.21-7.21-7.21h-.01Z"/>
  <rect class="cls-2" x="16.81" y="19.88" width="30.96" height="33.17" rx="5.16" ry="5.16"/>
</svg>