<?xml version="1.0" encoding="UTF-8"?>
<svg id="Layer_1" data-name="Layer 1" xmlns="http://www.w3.org/2000/svg" viewBox="0 0 150 150">
  <defs>
    <style>
      .cls-1 {
        stroke: #fff;
      }

      .cls-1, .cls-2 {
        fill: none;
        stroke-linecap: round;
        stroke-linejoin: round;
        stroke-width: 4px;
      }

      .cls-2 {
        stroke: #f256b6;
      }
    </style>
  </defs>
  <circle class="cls-1" cx="114.15" cy="71.41" r="10"/>
  <g>
    <path class="cls-2" d="M59.15,75.41h9c2.76,0,5-2.24,5-5v-2c0-2.76-2.24-5-5-5h-6c-2.76,0-5-2.24-5-5v-2c0-2.76,2.24-5,5-5h9"/>
    <line class="cls-2" x1="65.15" y1="51.41" x2="65.15" y2="47.41"/>
    <line class="cls-2" x1="65.15" y1="79.41" x2="65.15" y2="75.41"/>
  </g>
  <path class="cls-2" d="M53.15,112.41h-21c-1.1,0-2-.9-2-2V37.41c0-1.1.9-2,2-2h66c1.1,0,2,.9,2,2v15"/>
  <path class="cls-2" d="M72.15,25.41h9c1.1,0,2,.9,2,2v8h-36v-8c0-1.1.9-2,2-2h9v-1c0-3.87,3.13-7,7-7h0c3.87,0,7,3.13,7,7v1Z"/>
  <path class="cls-1" d="M116.15,135.41v-19c0-2.76,2.24-5,5-5h0c2.76,0,5,2.24,5,5v3"/>
  <path class="cls-1" d="M59.17,134.36c14.46-5.87,17.98-19.95,17.98-19.95,6.99,6.29,9.09,14.04,9.73,18.14.15.95,1.41,1.15,1.87.31,7.23-13.21-1.6-26.46-1.6-26.46l7-10c8,24,27,15,27,15-13.14-2.32-15.53-15.39-15.93-21.21-.13-1.91-.97-3.69-2.32-5.04l-2.29-2.29c-1.64-1.64-3.91-2.49-6.23-2.33-30.15,2.1-29.23,29.37-29.23,29.37,0,10.36-4.59,18.93-7.22,22.98-.53.82.33,1.83,1.24,1.47Z"/>
</svg>