<?xml version="1.0" encoding="UTF-8"?>
<svg id="Layer_1" data-name="Layer 1" xmlns="http://www.w3.org/2000/svg" viewBox="0 0 150 150">
  <defs>
    <style>
      .cls-1 {
        stroke: #000;
      }

      .cls-1, .cls-2 {
        fill: none;
        stroke-linecap: round;
        stroke-linejoin: round;
        stroke-width: 4px;
      }

      .cls-2 {
        stroke: #f256b6;
      }
    </style>
  </defs>
  <g>
    <line class="cls-1" x1="64" y1="26.94" x2="64" y2="126.94"/>
    <g>
      <circle class="cls-2" cx="41" cy="43.94" r="13"/>
      <g>
        <line class="cls-2" x1="35" y1="43.94" x2="47" y2="43.94"/>
        <line class="cls-2" x1="41" y1="37.94" x2="41" y2="49.94"/>
      </g>
    </g>
    <g>
      <circle class="cls-1" cx="87" cy="43.94" r="13"/>
      <line class="cls-1" x1="81" y1="43.94" x2="93" y2="43.94"/>
    </g>
    <g>
      <path class="cls-1" d="M110,38.94v-8c0-6.63-5.37-12-12-12H30c-6.63,0-12,5.37-12,12v70.57c0,.95.38,1.81,1,2.43.62.62,1.48,1,2.43,1h16.57c5.52,0,10,4.48,10,10v16.55c0,.95.38,1.83,1,2.45s1.5,1,2.45,1h46.55c2.63,0,5.06-.85,7.04-2.28"/>
      <line class="cls-1" x1="49" y1="133.94" x2="19" y2="103.94"/>
    </g>
    <g>
      <line class="cls-2" x1="35" y1="65.94" x2="56" y2="65.94"/>
      <line class="cls-2" x1="26" y1="65.94" x2="28" y2="65.94"/>
    </g>
    <g>
      <line class="cls-2" x1="35" y1="77.94" x2="56" y2="77.94"/>
      <line class="cls-2" x1="26" y1="77.94" x2="28" y2="77.94"/>
    </g>
    <g>
      <line class="cls-2" x1="35" y1="90.94" x2="56" y2="90.94"/>
      <line class="cls-2" x1="26" y1="90.94" x2="28" y2="90.94"/>
    </g>
    <g>
      <line class="cls-1" x1="81" y1="65.94" x2="95" y2="65.94"/>
      <line class="cls-1" x1="72" y1="65.94" x2="74" y2="65.94"/>
    </g>
    <g>
      <line class="cls-1" x1="81" y1="77.94" x2="95" y2="77.94"/>
      <line class="cls-1" x1="72" y1="77.94" x2="74" y2="77.94"/>
    </g>
    <g>
      <line class="cls-1" x1="81" y1="90.94" x2="98" y2="90.94"/>
      <line class="cls-1" x1="72" y1="90.94" x2="74" y2="90.94"/>
    </g>
    <g>
      <line class="cls-1" x1="81" y1="103.94" x2="98" y2="103.94"/>
      <line class="cls-1" x1="72" y1="103.94" x2="74" y2="103.94"/>
    </g>
    <g>
      <line class="cls-1" x1="81" y1="117.94" x2="98" y2="117.94"/>
      <line class="cls-1" x1="72" y1="117.94" x2="74" y2="117.94"/>
    </g>
  </g>
  <g>
    <path class="cls-2" d="M106,62.94v-7c0-5.52,4.48-10,10-10h4c5.52,0,10,4.48,10,10v7"/>
    <rect class="cls-2" x="102" y="62.94" width="32" height="16" rx="2" ry="2"/>
    <path class="cls-2" d="M105,78.94v39.58c0,.92.32,1.81.9,2.52l10.74,13.22c.35.43.86.68,1.36.68s1.01-.24,1.36-.68l10.74-13.22c.58-.71.9-1.6.9-2.52v-39.58"/>
    <line class="cls-2" x1="105.03" y1="118.94" x2="130.97" y2="118.94"/>
    <line class="cls-2" x1="122" y1="78.94" x2="122" y2="106.94"/>
    <line class="cls-2" x1="118" y1="70.94" x2="134" y2="70.94"/>
    <line class="cls-2" x1="109" y1="70.94" x2="111" y2="70.94"/>
  </g>
</svg>