<?xml version="1.0" encoding="UTF-8"?>
<svg id="Layer_1" data-name="Layer 1" xmlns="http://www.w3.org/2000/svg" viewBox="0 0 150 150">
  <defs>
    <style>
      .cls-1 {
        stroke: #000;
      }

      .cls-1, .cls-2 {
        fill: none;
        stroke-linecap: round;
        stroke-linejoin: round;
        stroke-width: 4px;
      }

      .cls-2 {
        stroke: #ff6a3b;
      }
    </style>
  </defs>
  <g>
    <path class="cls-1" d="M113.02,72.64c-.24-4.29-1.2-8.39-2.77-12.17l7.02-5.6c-1.47-3.06-3.29-6.01-5.5-8.77-2.21-2.77-4.68-5.2-7.33-7.31l-7.03,5.61c-3.37-2.4-7.16-4.25-11.24-5.42v-8.99c-3.31-.76-6.75-1.17-10.29-1.17s-6.98.41-10.29,1.17v8.99c-4.08,1.17-7.86,3.02-11.24,5.42l-7.03-5.61c-2.66,2.11-5.12,4.55-7.33,7.31-2.21,2.77-4.03,5.71-5.5,8.77l7.02,5.6c-1.57,3.78-2.53,7.88-2.77,12.17l-8.76,2c0,3.39.36,6.84,1.15,10.29.79,3.45,1.96,6.71,3.43,9.77l8.76-2c2.04,3.68,4.67,6.97,7.78,9.75l-3.9,8.1c2.65,2.12,5.57,3.98,8.76,5.52,3.19,1.54,6.47,2.66,9.78,3.41l3.9-8.1c2.03.34,4.11.53,6.24.53s4.21-.19,6.24-.53l3.9,8.1c3.31-.75,6.59-1.87,9.78-3.41,3.19-1.54,6.11-3.4,8.76-5.52l-3.9-8.1c3.11-2.78,5.75-6.07,7.78-9.75l8.76,2c1.48-3.06,2.64-6.32,3.43-9.77.79-3.45,1.15-6.9,1.15-10.29l-8.76-2Z"/>
    <circle class="cls-1" cx="75.88" cy="73.81" r="21"/>
    <polyline class="cls-2" points="66.37 74.35 73.4 81.31 86.4 68.31"/>
  </g>
  <g>
    <g>
      <path class="cls-2" d="M94.49,16.7c24.59,7.87,42.39,30.91,42.39,58.11,0,33.69-27.31,61-61,61-12.37,0-23.87-3.68-33.48-10"/>
      <polyline class="cls-2" points="98.26 27.09 94.49 16.7 104.92 12.92"/>
    </g>
    <g>
      <path class="cls-2" d="M35.82,120.81c-12.83-11.18-20.94-27.64-20.94-46,0-33.69,27.31-61,61-61,3.42,0,6.78.28,10.04.82"/>
      <polyline class="cls-2" points="35.82 109.81 35.82 120.81 23.82 120.81"/>
    </g>
  </g>
</svg>