<?xml version="1.0" encoding="UTF-8"?>
<svg id="Layer_1" data-name="Layer 1" xmlns="http://www.w3.org/2000/svg" viewBox="0 0 150 150">
  <defs>
    <style>
      .cls-1 {
        stroke: #fff;
      }

      .cls-1, .cls-2 {
        fill: none;
        stroke-linecap: round;
        stroke-linejoin: round;
        stroke-width: 4px;
      }

      .cls-2 {
        stroke: #ff6a3b;
      }
    </style>
  </defs>
  <path class="cls-1" d="M67.91,107.44c-6.28-3.99-11.35-17.32-11.94-24.45-2.74-32.68,31.29-48.18,57.27-56.99,3.16-1.07,15.09-4.19,17.79-3.97.49.04.98.2,1.36.51.79.64,2.11,6.14,2.47,7.54,4.31,16.88,4.91,39,.72,55.97-4.82,19.52-21.42,34.14-42.38,32.62"/>
  <path class="cls-1" d="M44.31,123.41c-24.23,1.63-34.56-18.46-35.62-39.98-.43-8.86.84-26.06,3.19-35.33.36-1.41.74-4.75,2.34-4.83,3.13-.15,9.92,1.58,13.21,2.4,7.94,1.97,19.58,6.81,26.01,11.71"/>
  <polyline class="cls-2" points="29.85 70.24 66.54 128.22 119.53 38.54"/>
  <path class="cls-2" d="M96.16,52.7c-.89,7.54.88,13.64,5.25,18.36,6.23,1.49,12.25-.29,18.12-4.5"/>
  <path class="cls-2" d="M77.34,73.94c-1.16,9.42,1.14,17.06,6.83,22.95,8.1,1.87,15.93-.36,23.56-5.63"/>
  <path class="cls-2" d="M51.09,103.44c-6.94,1.73-14,1.75-21.24-1.18"/>
  <path class="cls-1" d="M22.77,80.44c5.41,2.2,10.75,3.53,15.91,2.68,4.2-3.26,6.4-7.58,4.83-13.9"/>
</svg>