<?xml version="1.0" encoding="UTF-8"?>
<svg id="Layer_1" data-name="Layer 1" xmlns="http://www.w3.org/2000/svg" viewBox="0 0 150 150">
  <defs>
    <style>
      .cls-1 {
        stroke: #000;
      }

      .cls-1, .cls-2 {
        fill: none;
        stroke-linecap: round;
        stroke-linejoin: round;
        stroke-width: 4px;
      }

      .cls-2 {
        stroke: #00ca55;
      }
    </style>
  </defs>
  <g>
    <path class="cls-1" d="M58.37,22.17c1.55,2.92,2.42,6.25,2.42,9.79,0,2.74-.52,5.36-1.48,7.76"/>
    <circle class="cls-2" cx="39.79" cy="31.96" r="8"/>
    <path class="cls-1" d="M78.5,36.96c-.46-1.59-.71-3.26-.71-5s.25-3.41.71-5"/>
    <circle class="cls-2" cx="95.79" cy="31.96" r="5"/>
    <path class="cls-1" d="M18.79,88.96v16c0,3.31,2.69,6,6,6h30c3.31,0,6-2.69,6-6v-16"/>
    <path class="cls-1" d="M27.79,49.19v9.77c0,14-2,13-5,16s-4,4-4,14"/>
    <path class="cls-1" d="M51.79,58.96c0,14,2,13,5,16s4,4,4,14"/>
    <path class="cls-1" d="M39.79,52.96c18,0,17.52-7.94,26-9,8-1,12-1,12-1h.67c1.83,0,3.57.73,4.89,2,3.23,3.1,7.61,5,12.44,5,10.63,0,19.11-9.22,17.88-20.1-.94-8.29-7.68-14.96-15.98-15.81-5.57-.57-10.69,1.4-14.33,4.89-1.32,1.27-3.07,2.01-4.9,2.01h-.67c-18,0-17.52-7.94-26-9-8-1-12-1-12-1h-.01c-11.6.01-20.99,9.4-20.99,21s9.4,21,21,21"/>
    <line class="cls-2" x1="97.79" y1="56.96" x2="93.79" y2="56.96"/>
    <line class="cls-2" x1="51.79" y1="82.96" x2="27.79" y2="82.96"/>
    <path class="cls-1" d="M103.79,48.08v4.74c0,2.65,1.05,5.19,2.93,7.07l1.14,1.14c1.88,1.88,2.93,4.42,2.93,7.07v10.86c0,1.1-.9,2-2,2h-.9c-.69,0-1.32-.35-1.69-.93l-4.35-6.83c-1.28-2.02-3.51-3.24-5.9-3.24h-.32c-2.39,0-4.62,1.22-5.9,3.24l-4.35,6.83c-.37.58-1,.93-1.69.93h-.9c-1.1,0-2-.9-2-2v-10.82c0-2.64,1.04-5.17,2.9-7.04l1.2-1.22c1.86-1.87,2.9-4.4,2.9-7.04v-4.76"/>
  </g>
  <g>
    <path class="cls-2" d="M73.79,124.96v-13c0-3.87,3.13-7,7-7h30c3.87,0,7,3.13,7,7v13"/>
    <line class="cls-2" x1="95.79" y1="124.96" x2="95.79" y2="96.96"/>
    <rect class="cls-2" x="66.79" y="124.96" width="14" height="10" rx="3" ry="3"/>
    <rect class="cls-2" x="88.79" y="124.96" width="14" height="10" rx="3" ry="3"/>
    <rect class="cls-2" x="82.79" y="86.96" width="26" height="10" rx="3" ry="3"/>
    <rect class="cls-2" x="110.79" y="124.96" width="14" height="10" rx="3" ry="3"/>
  </g>
</svg>