<?xml version="1.0" encoding="UTF-8"?>
<svg id="Layer_1" data-name="Layer 1" xmlns="http://www.w3.org/2000/svg" viewBox="0 0 150 150">
  <defs>
    <style>
      .cls-1 {
        stroke: #000;
      }

      .cls-1, .cls-2 {
        fill: none;
        stroke-linecap: round;
        stroke-linejoin: round;
        stroke-width: 4px;
      }

      .cls-2 {
        stroke: #00ca55;
      }
    </style>
  </defs>
  <circle class="cls-1" cx="99.15" cy="22.41" r="10"/>
  <path class="cls-1" d="M101.15,86.41v-19c0-2.76,2.24-5,5-5h0c2.76,0,5,2.24,5,5v3"/>
  <path class="cls-1" d="M44.17,85.36c14.46-5.87,17.98-19.95,17.98-19.95,6.99,6.29,9.09,14.04,9.73,18.14.15.95,1.41,1.15,1.87.31,7.23-13.21-1.6-26.46-1.6-26.46l7-10c8,24,27,15,27,15-13.14-2.32-15.53-15.39-15.93-21.21-.13-1.91-.97-3.69-2.32-5.04l-2.29-2.29c-1.64-1.64-3.91-2.49-6.23-2.33-30.15,2.1-29.23,29.37-29.23,29.37,0,10.36-4.59,18.93-7.22,22.98-.53.82.33,1.83,1.24,1.47Z"/>
  <g>
    <path class="cls-2" d="M74.15,136.41v-13.86c0-2.65,1.05-5.2,2.93-7.07l11.26-11.26c2.44-2.44,5.74-3.81,9.19-3.81h.06c2.92,0,5.72-1.16,7.78-3.22l7.28-7.28c2.49-2.49,6.51-2.49,9,0h0c2.49,2.49,2.49,6.51,0,9l-17.5,17.5"/>
    <path class="cls-2" d="M107.15,136.41v-.51c0-1.59.63-3.12,1.76-4.24l23.31-23.31c1.88-1.88,2.93-4.42,2.93-7.07v-36.6c0-3.45-2.8-6.26-6.26-6.26h0c-3.25,0-5.96,2.49-6.23,5.72l-2.56,23.99"/>
  </g>
  <g>
    <path class="cls-2" d="M74.15,136.41v-13.86c0-2.65-1.05-5.2-2.93-7.07l-11.26-11.26c-2.44-2.44-5.74-3.81-9.19-3.81h-.06c-2.92,0-5.72-1.16-7.78-3.22l-7.28-7.28c-2.49-2.49-6.51-2.49-9,0h0c-2.49,2.49-2.49,6.51,0,9l17.5,17.5"/>
    <path class="cls-2" d="M41.15,136.41v-.51c0-1.59-.63-3.12-1.76-4.24l-23.31-23.31c-1.88-1.88-2.93-4.42-2.93-7.07v-36.6c0-3.45,2.8-6.26,6.26-6.26h0c3.25,0,5.96,2.49,6.23,5.72l2.56,23.99"/>
  </g>
</svg>