<?xml version="1.0" encoding="UTF-8"?>
<svg id="Layer_1" data-name="Layer 1" xmlns="http://www.w3.org/2000/svg" viewBox="0 0 150 150">
  <defs>
    <style>
      .cls-1 {
        stroke: #fff;
      }

      .cls-1, .cls-2 {
        fill: none;
        stroke-linecap: round;
        stroke-linejoin: round;
        stroke-width: 4px;
      }

      .cls-2 {
        stroke: #f256b6;
      }
    </style>
  </defs>
  <rect class="cls-2" x="26.16" y="14.41" width="100" height="124" rx="6" ry="6"/>
  <g>
    <path class="cls-1" d="M72.16,38.68c-1.67,3.42-4.86,5.73-8.58,5.73-5.42,0-9.42-4.92-9.42-11s4-11,9.42-11c3.39,0,6.33,1.87,8.09,4.8"/>
    <polyline class="cls-1" points="98.16 22.41 88.42 44.41 79.16 22.41"/>
  </g>
  <line class="cls-2" x1="26.16" y1="51.41" x2="126.16" y2="51.41"/>
  <g>
    <circle class="cls-2" cx="54.16" cy="66.41" r="7"/>
    <path class="cls-2" d="M56.96,73.41h-5.6c-4.53,0-7.71,3.61-8.2,8v6h22v-6c-.49-4.39-3.67-8-8.2-8Z"/>
  </g>
  <line class="cls-1" x1="74.16" y1="75.41" x2="109.16" y2="75.41"/>
  <line class="cls-1" x1="43.16" y1="96.41" x2="109.16" y2="96.41"/>
  <line class="cls-1" x1="43.16" y1="118.41" x2="109.16" y2="118.41"/>
</svg>