<?xml version="1.0" encoding="UTF-8"?>
<svg id="Layer_1" data-name="Layer 1" xmlns="http://www.w3.org/2000/svg" viewBox="0 0 150 150">
  <defs>
    <style>
      .cls-1 {
        stroke: #000;
      }

      .cls-1, .cls-2 {
        fill: none;
        stroke-linecap: round;
        stroke-linejoin: round;
        stroke-width: 4px;
      }

      .cls-2 {
        stroke: #f256b6;
      }
    </style>
  </defs>
  <g>
    <path class="cls-2" d="M133.79,112.96c0,1.13-.07,2.25-.21,3.34-.19,1.51-1.46,2.66-2.99,2.66h-1.57c-1.24,0-2.33.77-2.79,1.92-.73,1.78-1.7,3.44-2.86,4.94-.76.98-.89,2.31-.27,3.39l.68,1.17c.85,1.46.56,3.12-.61,4.02-1.68,1.29-3.52,2.39-5.48,3.26-1.61.71-3.51.12-4.39-1.41l-.48-.83c-.73-1.26-1.93-1.82-3.15-1.65-.94.13-1.91.2-2.88.2s-1.94-.07-2.88-.2c-1.22-.17-2.42.39-3.04,1.46l-.59,1.03c-.88,1.53-2.78,2.13-4.39,1.41-1.8-.8-3.49-1.78-5.05-2.94-1.41-1.04-1.83-2.98-.95-4.5l.59-1.02c.62-1.08.49-2.41-.27-3.39-1.17-1.5-2.13-3.16-2.86-4.94-.47-1.15-1.56-1.92-2.79-1.92h-1.57c-1.53,0-2.8-1.15-2.99-2.66-.14-1.1-.21-2.21-.21-3.34s.07-2.25.21-3.34c.19-1.51,1.46-2.66,2.99-2.66h1.57c1.24,0,2.33-.77,2.79-1.92.73-1.78,1.7-3.44,2.86-4.94.76-.98.89-2.31.27-3.39l-.68-1.17c-.85-1.46-.56-3.12.61-4.02,1.68-1.29,3.52-2.39,5.48-3.26,1.61-.71,3.51-.12,4.39,1.41l.59,1.03c.62,1.07,1.82,1.63,3.04,1.46.94-.13,1.91-.2,2.88-.2s1.94.07,2.88.2c1.22.17,2.42-.39,3.04-1.46l.59-1.03c.88-1.53,2.78-2.13,4.39-1.41,1.8.8,3.49,1.78,5.05,2.94,1.41,1.04,1.83,2.98.95,4.5l-.5.86c-.71,1.24-.58,2.57.18,3.55,1.17,1.5,2.13,3.16,2.86,4.94.47,1.15,1.56,1.92,2.79,1.92h1.57c1.53,0,2.8,1.15,2.99,2.66.14,1.1.21,2.21.21,3.34Z"/>
    <circle class="cls-2" cx="106.79" cy="112.96" r="10"/>
  </g>
  <g>
    <path class="cls-1" d="M30.79,46.96c-7.73,0-14,6.27-14,14v52c0,1.95.7,3.74,1.87,5.13,1.46,1.75,3.66,2.87,6.13,2.87h48"/>
    <path class="cls-1" d="M106.79,71.96v-11c0-7.73-6.27-14-14-14"/>
    <path class="cls-2" d="M74.79,13.96v7c0,6.08,4.92,11,11,11h7"/>
    <path class="cls-1" d="M129.29,87.46l2.17-2.17c1.55-1.55,2.33-3.33,2.33-5.33,0-4.06-3.09-8-7.85-8h-53.69c-4.78,0-9.36,1.9-12.73,5.27l-40.86,40.86"/>
    <line class="cls-2" x1="45.79" y1="58.96" x2="77.79" y2="58.96"/>
    <line class="cls-2" x1="45.79" y1="40.96" x2="77.79" y2="40.96"/>
    <path class="cls-2" d="M30.79,94.96V21.96c0-4.42,3.58-8,8-8h36c9.94,0,18,8.06,18,18v32"/>
  </g>
</svg>