<?xml version="1.0" encoding="UTF-8"?>
<svg id="Layer_1" data-name="Layer 1" xmlns="http://www.w3.org/2000/svg" viewBox="0 0 150 150">
  <defs>
    <style>
      .cls-1 {
        stroke: #fff;
      }

      .cls-1, .cls-2 {
        fill: none;
        stroke-linecap: round;
        stroke-linejoin: round;
        stroke-width: 4px;
      }

      .cls-2 {
        stroke: #00ca55;
      }
    </style>
  </defs>
  <g>
    <path class="cls-1" d="M115,88.94v7c0,3.31-2.69,6-6,6h-19"/>
    <path class="cls-1" d="M41,88.94v7c0,3.31,2.69,6,6,6h19"/>
    <path class="cls-2" d="M50,123.94h6l7.31-10.97c1.75-2.63,2.69-5.72,2.69-8.88v-7.16c0-6.63,5.37-12,12-12s12,5.37,12,12v7.16c0,3.16.94,6.25,2.69,8.88l7.31,10.97h6c3.31,0,6,2.69,6,6v4c0,2.21-1.79,4-4,4h-60c-2.21,0-4-1.79-4-4v-4c0-3.31,2.69-6,6-6Z"/>
    <line class="cls-2" x1="100" y1="123.94" x2="66" y2="123.94"/>
    <circle class="cls-1" cx="78" cy="96.94" r="1"/>
    <path class="cls-2" d="M100.39,88.94h29.21c2.11,0,4.06-1.11,5.14-2.91l4.25-7.09h-48l4.25,7.09c1.08,1.81,3.04,2.91,5.14,2.91Z"/>
    <path class="cls-2" d="M55.6,88.94h-29.21c-2.11,0-4.06-1.11-5.14-2.91l-4.25-7.09h48l-4.25,7.09c-1.08,1.81-3.04,2.91-5.14,2.91Z"/>
  </g>
  <g>
    <path class="cls-2" d="M110.54,70.63c2.91-.86,6-.86,8.91,0,.67.2,1.37.32,2.12.32,7.96,0,16.43-16.1,16.43-26,0-7.43-6.05-13-12.71-13-1.41,0-2.77.16-4.06.48-2.05.51-4.14,1.63-6.23,1.63s-4.18-1.12-6.23-1.63c-1.3-.32-2.66-.48-4.06-.48-6.66,0-12.71,5.57-12.71,13,0,9.9,8.47,26,16.43,26,.74,0,1.45-.12,2.12-.32Z"/>
    <path class="cls-2" d="M114.98,33.94s.69-13.14-8.99-18"/>
  </g>
  <g>
    <path class="cls-1" d="M23,57.94h-4v4c0,5.52,4.48,10,10,10h24c5.52,0,10-4.48,10-10v-4h-15"/>
    <path class="cls-1" d="M36,21.94h10c9.38,0,17,7.62,17,17v3H19v-3c0-9.38,7.62-17,17-17Z"/>
    <path class="cls-2" d="M15,49.94h10l8.24,8.24c.98.98,2.56,1.02,3.59.09l9.16-8.33h21"/>
    <line class="cls-2" x1="46" y1="49.94" x2="35" y2="49.94"/>
  </g>
</svg>