<?xml version="1.0" encoding="UTF-8"?>
<svg id="Layer_1" data-name="Layer 1" xmlns="http://www.w3.org/2000/svg" viewBox="0 0 150 150">
  <defs>
    <style>
      .cls-1 {
        stroke: #000;
      }

      .cls-1, .cls-2 {
        fill: none;
        stroke-linecap: round;
        stroke-linejoin: round;
        stroke-width: 4px;
      }

      .cls-2 {
        stroke: #ff6a3b;
      }
    </style>
  </defs>
  <g>
    <circle class="cls-1" cx="43.16" cy="33.41" r="19"/>
    <path class="cls-1" d="M15.27,74.49c2.9-8.76,11.16-15.08,20.89-15.08h14c9.72,0,17.96,6.3,20.87,15.03"/>
    <line class="cls-1" x1="39.16" y1="59.41" x2="37.49" y2="74.49"/>
    <line class="cls-1" x1="48.84" y1="74.49" x2="47.16" y2="59.41"/>
  </g>
  <path class="cls-1" d="M71.13,120.41H18.16c-2.21,0-4-1.79-4-4v-30c0-2.21,1.79-4,4-4h62"/>
  <path class="cls-1" d="M134.66,82.91c1.16.7,1.5,2.05,1.5,3.5v21.88"/>
  <g>
    <circle class="cls-2" cx="107.16" cy="80.41" r="19"/>
    <path class="cls-2" d="M100.16,106.41h14c12.14,0,22,9.86,22,22v8h-58v-8c0-12.14,9.86-22,22-22Z"/>
  </g>
  <path class="cls-2" d="M119.16,19.41h-28c-3.31,0-6,2.69-6,6v10.96l-11,11.04h45c3.31,0,6-2.69,6-6v-16c0-3.31-2.69-6-6-6Z"/>
</svg>