<?xml version="1.0" encoding="UTF-8"?>
<svg id="Layer_1" data-name="Layer 1" xmlns="http://www.w3.org/2000/svg" viewBox="0 0 150 150">
  <defs>
    <style>
      .cls-1 {
        stroke: #000;
      }

      .cls-1, .cls-2 {
        fill: none;
        stroke-linecap: round;
        stroke-linejoin: round;
        stroke-width: 4px;
      }

      .cls-2 {
        stroke: #ff6a3b;
      }
    </style>
  </defs>
  <g>
    <path class="cls-2" d="M9.65,111.91l16.93-17.93c3.56-3.56,8.4-5.57,13.44-5.57h11.92c3.98,0,7.79,1.58,10.61,4.39l.68.68c1.88,1.88,4.42,2.93,7.07,2.93h14.86c3.87,0,7,3.13,7,7h0c0,3.87-3.13,7-7,7h-31"/>
    <path class="cls-2" d="M91.38,100.49l24.59-20.71c2.93-2.47,7.26-2.28,9.96.43h0c2.88,2.88,2.88,7.55,0,10.43l-36.86,36.86c-1.88,1.88-4.42,2.93-7.07,2.93h-36.72c-2.65,0-5.2,1.05-7.07,2.93l-2.57,2.57"/>
  </g>
  <g>
    <g>
      <g>
        <g>
          <path class="cls-1" d="M69.15,54.41v1c0,3.87,3.13,7,7,7h8c3.87,0,7-3.13,7-7v-3c0-3.87-3.13-7-7-7h-9c-3.31,0-6-2.69-6-6v-4c0-3.87,3.13-7,7-7h8c3.87,0,7,3.13,7,7v1"/>
          <line class="cls-1" x1="80.15" y1="28.41" x2="80.15" y2="23.41"/>
          <line class="cls-1" x1="80.15" y1="67.41" x2="80.15" y2="62.41"/>
        </g>
        <circle class="cls-1" cx="80.15" cy="47.41" r="35"/>
      </g>
      <path class="cls-1" d="M46.7,37.08l-8.67-5c-.96-.55-1.28-1.78-.73-2.73l5-8.66c.55-.96,1.78-1.28,2.73-.73l8.4,4.85"/>
      <path class="cls-1" d="M25.22,59.34l-4.25-2.45c-6.7-3.87-8.99-12.43-5.12-19.12l5.75-9.96c3.12-5.4,10.02-7.25,15.41-4.13l2.68,1.55"/>
    </g>
    <g>
      <line class="cls-1" x1="32.77" y1="64.56" x2="37.71" y2="67.97"/>
      <line class="cls-1" x1="25.94" y1="66.56" x2="26.95" y2="72.09"/>
      <line class="cls-1" x1="32.23" y1="57.45" x2="37.76" y2="56.44"/>
    </g>
  </g>
</svg>