<?xml version="1.0" encoding="UTF-8"?>
<svg id="Layer_1" data-name="Layer 1" xmlns="http://www.w3.org/2000/svg" viewBox="0 0 150 150">
  <defs>
    <style>
      .cls-1 {
        stroke: #000;
      }

      .cls-1, .cls-2 {
        fill: none;
        stroke-linecap: round;
        stroke-linejoin: round;
        stroke-width: 4px;
      }

      .cls-2 {
        stroke: #f256b6;
      }
    </style>
  </defs>
  <path class="cls-2" d="M126.89,116.08h0c0,11.13-8.45,20.07-18.96,20.07H41.97c-10.51,0-18.96-8.94-18.96-20.07v-14.84c0-11.13,8.45-20.07,18.96-20.07h65.96c10.51,0,18.96,8.94,18.96,20.07v14.84"/>
  <polyline class="cls-1" points="35.23 26.15 53.52 45.86 53.52 68.9"/>
  <polyline class="cls-1" points="65.76 26.15 53.57 45.86 53.57 68.9"/>
  <path class="cls-1" d="M77.99,61.33h0c0,4.23-2.65,7.58-6.01,7.58s-6.18-3.34-6.18-7.58v-15.37c0-4.23,2.83-7.58,6.18-7.58s6.01,3.34,6.01,7.58v15.37"/>
  <path class="cls-1" d="M108.55,38.38h0v20.27c0,5.79-4.02,10.25-9.05,10.25s-9.25-4.46-9.25-10.25v-20.27"/>
  <line class="cls-1" x1="108.59" y1="38.38" x2="108.59" y2="68.95"/>
  <line class="cls-1" x1="71.91" y1="99.51" x2="78.03" y2="117.85"/>
  <line class="cls-1" x1="35.23" y1="99.51" x2="53.57" y2="99.51"/>
  <line class="cls-1" x1="47.46" y1="99.51" x2="47.46" y2="117.85"/>
  <line class="cls-1" x1="78.03" y1="93.4" x2="78.03" y2="117.85"/>
  <path class="cls-1" d="M90.2,113.19h0c0,2.61-2.65,4.63-6.09,4.63s-6.09-2.01-6.09-4.63v-9.25c0-2.41,2.65-4.42,6.09-4.42s6.09,2.01,6.09,4.42v9.25"/>
  <path class="cls-1" d="M59.69,99.51h0v13.73c0,2.59,2.91,4.58,6.09,4.58,3.44,0,6.09-1.99,6.09-4.58v-13.73"/>
  <path class="cls-1" d="M108.54,118.72h0c0,3.37-2.98,5.19-6.21,5.19-2.98,0-5.96-3.37-5.96-6.75v-11.94c0-3.12,2.49-5.71,5.47-5.71,3.23,0,5.72,2.6,5.72,5.71v5.97h-11.18"/>
</svg>