<?xml version="1.0" encoding="UTF-8"?>
<svg id="Layer_1" data-name="Layer 1" xmlns="http://www.w3.org/2000/svg" viewBox="0 0 150 150">
  <defs>
    <style>
      .cls-1 {
        stroke: #fff;
      }

      .cls-1, .cls-2 {
        fill: none;
        stroke-linecap: round;
        stroke-linejoin: round;
        stroke-width: 4px;
      }

      .cls-2 {
        stroke: #f256b6;
      }
    </style>
  </defs>
  <path class="cls-1" d="M23.14,76.04l-16.08-8.6c-2.57-1.38-2.57-5.08,0-6.46L73.04,25.7c1.07-.57,2.35-.57,3.43,0l65.98,35.28c2.57,1.38,2.57,5.08,0,6.46l-65.98,35.28c-1.07.57-2.35.57-3.43,0l-27.19-13.96"/>
  <path class="cls-1" d="M57.06,124.31c6.06,1.8,12.36,2.62,18.67,2.41,29.68,0,47.41-19.44,47.41-32.46v-14.71"/>
  <polyline class="cls-2" points="75.94 63.04 33.46 80.37 33.46 110.24"/>
  <path class="cls-2" d="M42.9,121.09c-.12,5.86-4.43,10.52-9.65,10.39-5.21-.13-9.35-4.99-9.23-10.85.12-5.77,4.3-10.39,9.44-10.39,5.27.07,9.5,4.92,9.44,10.85Z"/>
</svg>