<?xml version="1.0" encoding="UTF-8"?>
<svg id="Layer_1" data-name="Layer 1" xmlns="http://www.w3.org/2000/svg" viewBox="0 0 150 150">
  <defs>
    <style>
      .cls-1 {
        stroke: #000;
      }

      .cls-1, .cls-2 {
        fill: none;
        stroke-linecap: round;
        stroke-linejoin: round;
        stroke-width: 4px;
      }

      .cls-2 {
        stroke: #ff6a3b;
      }
    </style>
  </defs>
  <g>
    <path class="cls-2" d="M64.15,103.41h9c2.76,0,5-2.24,5-5v-2c0-2.76-2.24-5-5-5h-6c-2.76,0-5-2.24-5-5v-2c0-2.76,2.24-5,5-5h9"/>
    <line class="cls-2" x1="70.15" y1="79.41" x2="70.15" y2="75.41"/>
    <line class="cls-2" x1="70.15" y1="107.41" x2="70.15" y2="103.41"/>
  </g>
  <path class="cls-1" d="M22.15,49.41v7.88c0,33.26,18.5,63.76,48,79.12h0c29.5-15.36,48-45.86,48-79.12v-7.88h0c-17.36-1.28-33.58-9.17-45.3-22.04l-2.7-2.96-2.7,2.96c-11.73,12.87-27.94,20.76-45.3,22.04h0Z"/>
  <path class="cls-2" d="M46.15,93.41c-5.28-9.46-8.28-19.83-9-31,12.07-3,23.42-9.04,33-17,9.58,7.96,20.93,14,33,17-.72,11.17-3.72,21.54-9,31"/>
</svg>