<?xml version="1.0" encoding="UTF-8"?>
<svg id="Layer_1" data-name="Layer 1" xmlns="http://www.w3.org/2000/svg" viewBox="0 0 150 150">
  <defs>
    <style>
      .cls-1 {
        stroke: #fff;
      }

      .cls-1, .cls-2 {
        fill: none;
        stroke-linecap: round;
        stroke-linejoin: round;
        stroke-width: 4px;
      }

      .cls-2 {
        stroke: #ff6a3b;
      }
    </style>
  </defs>
  <path class="cls-1" d="M89.79,87.53c-2.55-10.38-9.01-19.2-17.72-24.74-6.23-3.97-13.59-6.26-21.49-6.26-6.32,0-12.3,1.47-17.63,4.09-13.48,6.63-22.77,20.63-22.77,36.82,0,22.6,18.09,40.91,40.4,40.91,7.9,0,15.26-2.3,21.49-6.26"/>
  <path class="cls-2" d="M54.56,84.09c5.29,2.6,11.24,4.06,17.53,4.06s12.12-1.43,17.37-3.98c10.46-5.08,18.35-14.6,21.24-26.11.78-3.11,1.2-6.36,1.2-9.72,0-21.98-17.83-39.81-39.81-39.81s-39.81,17.83-39.81,39.81c0,3.32.41,6.55,1.18,9.64"/>
  <circle class="cls-1" cx="93.1" cy="97.43" r="40.91"/>
</svg>