<?xml version="1.0" encoding="UTF-8"?>
<svg id="Layer_1" data-name="Layer 1" xmlns="http://www.w3.org/2000/svg" viewBox="0 0 150 150">
  <defs>
    <style>
      .cls-1 {
        stroke: #000;
      }

      .cls-1, .cls-2 {
        fill: none;
        stroke-linecap: round;
        stroke-linejoin: round;
        stroke-width: 4px;
      }

      .cls-2 {
        stroke: #f256b6;
      }
    </style>
  </defs>
  <ellipse class="cls-2" cx="75.16" cy="78.16" rx="7.74" ry="8.85"/>
  <path class="cls-1" d="M93.95,78.17c0,1.86-.25,3.66-.7,5.36-1.75,6.71-6.77,11.99-13.11,13.81-1.59.47-3.26.72-4.99.72s-3.51-.26-5.15-.76c-6.27-1.87-11.21-7.12-12.95-13.77-.46-1.71-.7-3.51-.7-5.36s.25-3.66.7-5.36c1.74-6.66,6.69-11.9,12.95-13.79,1.63-.51,3.36-.76,5.15-.76s3.4.25,4.99.72c6.35,1.84,11.36,7.11,13.11,13.83.46,1.7.7,3.5.7,5.36Z"/>
  <path class="cls-1" d="M82.9,27.3c22.55,3.54,40.38,20.49,44.23,42.02"/>
  <path class="cls-1" d="M82.9,129.03c22.65-3.52,40.54-20.52,44.23-42.02"/>
  <path class="cls-1" d="M23.19,87.01c3.69,21.43,21.55,38.41,44.23,42.02"/>
  <path class="cls-1" d="M23.19,69.32c3.84-21.46,21.66-38.4,44.23-42.02"/>
  <path class="cls-1" d="M82.9,42.78c13.03,3.15,23.31,13.43,26.54,26.54"/>
  <path class="cls-1" d="M82.9,113.55c13.11-3.14,23.42-13.44,26.54-26.54"/>
  <path class="cls-1" d="M40.88,87.01c3.13,13.04,13.43,23.33,26.54,26.54"/>
  <path class="cls-1" d="M40.88,69.32c3.24-13.05,13.51-23.31,26.54-26.54"/>
  <line class="cls-1" x1="74.05" y1="11.82" x2="74.05" y2="47.2"/>
  <line class="cls-1" x1="7.71" y1="78.16" x2="45.3" y2="78.16"/>
  <line class="cls-1" x1="105.01" y1="78.16" x2="142.6" y2="78.16"/>
  <line class="cls-1" x1="74.05" y1="106.91" x2="74.05" y2="144.51"/>
</svg>