<?xml version="1.0" encoding="UTF-8"?>
<svg id="Layer_1" data-name="Layer 1" xmlns="http://www.w3.org/2000/svg" viewBox="0 0 150 150">
  <defs>
    <style>
      .cls-1 {
        stroke: #000;
      }

      .cls-1, .cls-2 {
        fill: none;
        stroke-linecap: round;
        stroke-linejoin: round;
        stroke-width: 4px;
      }

      .cls-2 {
        stroke: #f256b6;
      }
    </style>
  </defs>
  <line class="cls-2" x1="94.6" y1="120.8" x2="75.66" y2="131.91"/>
  <circle class="cls-2" cx="115.16" cy="108.41" r="24"/>
  <g>
    <path class="cls-1" d="M51.16,39.41v-12.6c0-2.98,2.57-5.4,5.75-5.4h34.5c3.18,0,5.75,2.42,5.75,4.45v12.6"/>
    <path class="cls-1" d="M71.08,127.41H22.8c-4.22,0-7.63-3.42-7.63-7.63V47.05c0-4.22,3.42-7.63,7.63-7.63h102.74c4.22,0,7.63,3.42,7.63,7.63v35.33"/>
    <path class="cls-1" d="M66.16,80.41h-10c-10.85,0-20.56-5.67-26.02-15.09l-13.32-23.03"/>
    <path class="cls-1" d="M131.5,42.29l-13.32,23.03c-5.45,9.43-15.17,15.09-26.02,15.09h-10"/>
    <rect class="cls-1" x="66.16" y="72.41" width="16" height="18" rx="2" ry="2"/>
  </g>
</svg>