<?xml version="1.0" encoding="UTF-8"?>
<svg id="Layer_1" data-name="Layer 1" xmlns="http://www.w3.org/2000/svg" viewBox="0 0 150 150">
  <defs>
    <style>
      .cls-1 {
        stroke: #000;
      }

      .cls-1, .cls-2 {
        fill: none;
        stroke-linecap: round;
        stroke-linejoin: round;
        stroke-width: 4px;
      }

      .cls-2 {
        stroke: #ff6a3b;
      }
    </style>
  </defs>
  <rect class="cls-1" x="25.16" y="14.41" width="100" height="124" rx="6" ry="6"/>
  <g>
    <g>
      <path class="cls-2" d="M89.16,64.41c1.8,0,3.85,1.42,6.04,3,2.6-.87,5.35-1.85,7.34-3.65-.26-2.72-.87-5.8,0-7.31.84-1.47,3.41-2.53,5.88-3.65.28-1.35.73-2.95.73-4.38s-.45-3.03-.73-4.38c-2.47-1.12-5.04-2.19-5.88-3.65-.87-1.51-.26-3.86,0-6.58-2-1.81-4.74-3.51-7.34-4.38-2.19,1.58-4.82,3.65-6.61,3.65s-3.68-2.08-5.88-3.65c-2.6.87-6.08,3.31-8.08,5.12.03.3.07.59.12.88"/>
      <path class="cls-2" d="M87.18,41.7c.63-.19,1.3-.29,1.99-.29,3.87,0,7,3.13,7,7s-3.13,7-7,7"/>
    </g>
    <g>
      <rect class="cls-1" x="43.16" y="43.41" width="38" height="26" rx="4" ry="4"/>
      <path class="cls-1" d="M44.33,44.58l8.9,8.9c1.88,1.88,4.42,2.93,7.07,2.93h3.72c2.65,0,5.2-1.05,7.07-2.93l8.9-8.9"/>
      <path class="cls-1" d="M55.16,43.41v-4c0-2.21,1.79-4,4-4h6c2.21,0,4,1.79,4,4v4"/>
    </g>
  </g>
  <g>
    <line class="cls-2" x1="108.16" y1="92.41" x2="66.16" y2="92.41"/>
    <rect class="cls-2" x="44.16" y="86.41" width="12" height="12"/>
    <line class="cls-2" x1="108.16" y1="117.41" x2="66.16" y2="117.41"/>
    <rect class="cls-2" x="44.16" y="111.41" width="12" height="12"/>
  </g>
</svg>