<svg viewBox="0 0 232.84 232.86" xmlns="http://www.w3.org/2000/svg" xmlns:xlink="http://www.w3.org/1999/xlink" id="Logomark" overflow="hidden"><style>
.MsftOfcThm_Background1_Fill_v2 {
 fill:#000000; 
}
</style>
<defs></defs><rect x="826.64" y="126.74" width="37.93" height="37.93" class="st2 MsftOfcThm_Background1_Fill_v2" display="none"/><g><rect x="-6931.95" y="4262.34" width="431.92" height="431.92" class="st0 MsftOfcThm_Background1_Fill_v2" display="none"/><rect x="-7378.17" y="4262.34" width="431.92" height="431.92" class="st0 MsftOfcThm_Background1_Fill_v2" display="none"/><rect x="-7825.21" y="4262.34" width="431.92" height="431.92" class="st0 MsftOfcThm_Background1_Fill_v2" display="none"/></g><g><g><rect x="-6065.22" y="3227.17" width="100.3" height="100.3" class="st2 MsftOfcThm_Background1_Fill_v2" display="none"/><rect x="-6168.3" y="3227.17" width="100.3" height="100.3" class="st2 MsftOfcThm_Background1_Fill_v2" display="none"/><rect x="-6271.37" y="3227.17" width="100.3" height="100.3" class="st2 MsftOfcThm_Background1_Fill_v2" display="none"/><rect x="-6271.27" y="3329.58" width="100.3" height="100.3" class="st2 MsftOfcThm_Background1_Fill_v2" display="none"/><rect x="-6168.2" y="3329.58" width="100.3" height="100.3" class="st2 MsftOfcThm_Background1_Fill_v2" display="none"/><rect x="-6065.13" y="3329.58" width="100.3" height="100.3" class="st2 MsftOfcThm_Background1_Fill_v2" display="none"/><rect x="-6374.44" y="3227.17" width="100.3" height="100.3" class="st2 MsftOfcThm_Background1_Fill_v2" display="none"/><rect x="-6477.51" y="3227.17" width="100.3" height="100.3" class="st2 MsftOfcThm_Background1_Fill_v2" display="none"/><rect x="-6580.59" y="3227.17" width="100.3" height="100.3" class="st2 MsftOfcThm_Background1_Fill_v2" display="none"/><rect x="-6580.49" y="3329.58" width="100.3" height="100.3" class="st2 MsftOfcThm_Background1_Fill_v2" display="none"/><rect x="-6477.42" y="3329.58" width="100.3" height="100.3" class="st2 MsftOfcThm_Background1_Fill_v2" display="none"/><rect x="-6374.35" y="3329.58" width="100.3" height="100.3" class="st2 MsftOfcThm_Background1_Fill_v2" display="none"/></g><g><rect x="-6065.22" y="3432.83" width="100.3" height="100.3" class="st2 MsftOfcThm_Background1_Fill_v2" display="none"/><rect x="-6168.3" y="3432.83" width="100.3" height="100.3" class="st2 MsftOfcThm_Background1_Fill_v2" display="none"/><rect x="-6271.37" y="3432.83" width="100.3" height="100.3" class="st2 MsftOfcThm_Background1_Fill_v2" display="none"/><rect x="-6271.27" y="3535.24" width="100.3" height="100.3" class="st2 MsftOfcThm_Background1_Fill_v2" display="none"/><rect x="-6168.2" y="3535.24" width="100.3" height="100.3" class="st2 MsftOfcThm_Background1_Fill_v2" display="none"/><rect x="-6065.13" y="3535.24" width="100.3" height="100.3" class="st2 MsftOfcThm_Background1_Fill_v2" display="none"/><rect x="-6374.44" y="3432.83" width="100.3" height="100.3" class="st2 MsftOfcThm_Background1_Fill_v2" display="none"/><rect x="-6477.51" y="3432.83" width="100.3" height="100.3" class="st2 MsftOfcThm_Background1_Fill_v2" display="none"/><rect x="-6580.59" y="3432.83" width="100.3" height="100.3" class="st2 MsftOfcThm_Background1_Fill_v2" display="none"/><rect x="-6580.49" y="3535.24" width="100.3" height="100.3" class="st2 MsftOfcThm_Background1_Fill_v2" display="none"/><rect x="-6477.42" y="3535.24" width="100.3" height="100.3" class="st2 MsftOfcThm_Background1_Fill_v2" display="none"/><rect x="-6374.35" y="3535.24" width="100.3" height="100.3" class="st2 MsftOfcThm_Background1_Fill_v2" display="none"/></g></g><rect x="-1609.16" y="1700.9" width="450" height="1124.76" class="st1 MsftOfcThm_Background1_Fill_v2" display="none"/><g><rect x="41.97" y="41.98" rx="8.06" ry="8.06" width="41.98" height="41.98" class="st3 MsftOfcThm_Background1_Fill_v2"/><path d="M181.32 41.98 150.65 41.98C145.39 41.98 141.13 46.24 141.13 51.5L141.13 79.86C141.13 86.32 135.89 91.56 129.43 91.56L101.07 91.56C95.81 91.56 91.55 95.82 91.55 101.08L91.55 129.44C91.55 135.9 86.31 141.14 79.85 141.14L51.49 141.14C46.23 141.14 41.97 145.4 41.97 150.66L41.97 181.33C41.97 186.59 46.23 190.85 51.49 190.85L82.16 190.85C87.42 190.85 91.68 186.59 91.68 181.33L91.68 152.97C91.68 146.51 96.92 141.27 103.38 141.27L131.74 141.27C137 141.27 141.26 137.01 141.26 131.75L141.26 103.39C141.26 96.93 146.5 91.69 152.96 91.69L181.32 91.69C186.58 91.69 190.84 87.43 190.84 82.17L190.84 51.5C190.84 46.24 186.58 41.98 181.32 41.98Z" class="st3 MsftOfcThm_Background1_Fill_v2"/><rect x="141.11" y="141.12" rx="9.55" ry="9.55" width="49.73" height="49.73" class="st3 MsftOfcThm_Background1_Fill_v2"/></g></svg>