<?xml version="1.0" encoding="UTF-8"?>
<svg id="Layer_1" data-name="Layer 1" xmlns="http://www.w3.org/2000/svg" viewBox="0 0 150 150">
  <defs>
    <style>
      .cls-1 {
        stroke: #fff;
      }

      .cls-1, .cls-2 {
        fill: none;
        stroke-linecap: round;
        stroke-linejoin: round;
        stroke-width: 4px;
      }

      .cls-2 {
        stroke: #00ca55;
      }
    </style>
  </defs>
  <g>
    <g>
      <circle class="cls-2" cx="60.01" cy="59.94" r="46.13" transform="translate(-24.81 59.99) rotate(-45)"/>
      <path class="cls-2" d="M105.22,69.16l6.53,6.53c4.97,4.97,4.97,13.03,0,18l-18,18c-4.97,4.97-13.03,4.97-18,0l-6.53-6.53"/>
      <path class="cls-2" d="M93.76,111.68l22.37,22.37c4.97,4.97,13.09,5.03,18.06.06h0c4.97-4.97,4.91-13.09-.06-18.06l-22.37-22.37"/>
    </g>
    <g>
      <path class="cls-1" d="M83.38,50.97l4.81-3.84c-1.01-2.1-2.26-4.12-3.77-6.01-1.51-1.9-3.2-3.56-5.02-5.01l-4.82,3.84c-2.31-1.64-4.91-2.91-7.7-3.71v-6.16c-2.27-.52-4.62-.8-7.05-.8s-4.78.28-7.05.8v6.16c-2.79.8-5.39,2.07-7.7,3.71l-4.82-3.84c-1.82,1.45-3.51,3.11-5.02,5.01-1.51,1.9-2.76,3.92-3.77,6.01l4.81,3.84c-1.08,2.59-1.74,5.4-1.9,8.34l-6,1.37c0,2.33.25,4.69.79,7.05.54,2.36,1.34,4.6,2.35,6.69l6-1.37c1.39,2.52,3.2,4.78,5.33,6.68l-2.67,5.55c1.82,1.45,3.82,2.73,6,3.78s4.43,1.82,6.7,2.33l2.67-5.55c1.39.23,2.82.36,4.27.36s2.88-.13,4.27-.36l2.67,5.55c2.27-.52,4.51-1.28,6.7-2.33s4.18-2.33,6-3.78l-2.67-5.55c2.13-1.9,3.94-4.16,5.33-6.68l6,1.37c1.01-2.09,1.81-4.33,2.35-6.69s.79-4.72.79-7.05l-6-1.37c-.16-2.94-.82-5.75-1.9-8.34Z"/>
      <circle class="cls-1" cx="59.88" cy="59.81" r="13"/>
    </g>
  </g>
  <g>
    <path class="cls-1" d="M129.88,100.81V26.81h4.88c.97,0,1.37-1.25.58-1.81l-13.97-9.98c-.7-.5-1.65-.5-2.34.01l-13.67,9.98c-.78.57-.38,1.81.59,1.81h4.93v14"/>
    <path class="cls-1" d="M39.88,137.81v-20h4.88c.97,0,1.37-1.25.58-1.81l-13.97-9.98c-.7-.5-1.65-.5-2.34.01l-13.67,9.98c-.78.57-.38,1.81.59,1.81h4.93v20"/>
    <path class="cls-1" d="M77.88,137.81v-7h4.88c.97,0,1.37-1.25.58-1.81l-13.97-9.98c-.7-.5-1.65-.5-2.34.01l-13.67,9.98c-.78.57-.38,1.81.59,1.81h4.93v7"/>
  </g>
</svg>