<?xml version="1.0" encoding="UTF-8"?>
<svg id="Layer_1" data-name="Layer 1" xmlns="http://www.w3.org/2000/svg" viewBox="0 0 150 150">
  <defs>
    <style>
      .cls-1 {
        stroke: #fff;
      }

      .cls-1, .cls-2 {
        fill: none;
        stroke-linecap: round;
        stroke-linejoin: round;
        stroke-width: 4px;
      }

      .cls-2 {
        stroke: #f256b6;
      }
    </style>
  </defs>
  <path class="cls-1" d="M34.78,62.29h75.82c4.4,0,7.97,3.66,7.97,8.16v35.68c0,19.21-15.24,34.82-34.03,34.82h-23.71c-18.78,0-34.03-15.6-34.03-34.82v-35.68c0-4.5,3.57-8.16,7.97-8.16Z"/>
  <path class="cls-1" d="M120.71,73.21c8.47,0,15.33,8.31,15.33,18.57s-6.87,18.57-15.33,18.57c-.73,0-1.45-.06-2.15-.18"/>
  <line class="cls-1" x1="15.88" y1="140.94" x2="131.68" y2="140.94"/>
  <path class="cls-2" d="M54.65,12.71l-5.42,5.31c-4.23,4.14-3.51,10.27,1.61,13.7,3.95,2.64,5.4,7.01,3.61,10.9l-1.32,2.87"/>
  <path class="cls-2" d="M72.27,8.34l-4.07,4.6c-3.17,3.59-2.63,8.9,1.21,11.87,2.96,2.29,4.05,6.08,2.71,9.44l-.99,2.49"/>
  <path class="cls-2" d="M91.93,12.71l-4.07,5.31c-3.17,4.14-2.63,10.27,1.21,13.7,2.96,2.64,4.05,7.01,2.71,10.9l-.99,2.87"/>
</svg>