<?xml version="1.0" encoding="UTF-8"?>
<svg id="Layer_1" data-name="Layer 1" xmlns="http://www.w3.org/2000/svg" viewBox="0 0 150 150">
  <defs>
    <style>
      .cls-1 {
        stroke: #fff;
      }

      .cls-1, .cls-2 {
        fill: none;
        stroke-linecap: round;
        stroke-linejoin: round;
        stroke-width: 4px;
      }

      .cls-2 {
        stroke: #ff6a3b;
      }
    </style>
  </defs>
  <path class="cls-2" d="M103.79,32.96h19c7.73,0,14,6.27,14,14v46c0,7.73-6.27,14-14,14H26.79c-7.73,0-14-6.27-14-14v-46c0-7.73,6.27-14,14-14h21"/>
  <path class="cls-2" d="M90.64,114.96l4.32,8.96c2.24,4.65-1.15,10.04-6.31,10.04h-27.72c-5.16,0-8.55-5.39-6.31-10.04l4.32-8.96"/>
  <rect class="cls-1" x="34.79" y="69.96" width="16" height="17" rx="6" ry="6"/>
  <g>
    <circle class="cls-1" cx="75.79" cy="32.96" r="20"/>
    <circle class="cls-1" cx="75.79" cy="32.96" r="2"/>
    <line class="cls-1" x1="75.79" y1="30.96" x2="75.79" y2="19.96"/>
    <line class="cls-1" x1="85.79" y1="32.96" x2="77.79" y2="32.96"/>
    <line class="cls-1" x1="75.79" y1="52.96" x2="75.79" y2="47.96"/>
    <line class="cls-1" x1="55.79" y1="32.96" x2="60.79" y2="32.96"/>
    <path class="cls-1" d="M48.79,84.96l1.24,1.24c1.13,1.13,2.65,1.76,4.24,1.76h.51c2.76,0,5-2.24,5-5v-5c0-10.03-8.68-18.03-18.94-16.89-7.8.86-14.1,7.16-14.96,14.96-1.13,10.26,6.87,18.94,16.89,18.94h19"/>
    <circle class="cls-1" cx="105.79" cy="65.96" r="10"/>
    <path class="cls-1" d="M99.79,81.96h12c6.07,0,11,4.93,11,11v2h-34v-2c0-6.07,4.93-11,11-11Z"/>
  </g>
</svg>